<svg width="300" height="300" viewBox="0 0 300 300" fill="none" xmlns="http://www.w3.org/2000/svg">
<path d="M136.463 146.84C144.239 142.904 153.647 143.48 160.175 149.816C163.535 153.176 165.167 157.112 165.935 161.912C166.895 168.44 171.023 173.144 172.463 179.384C173.135 182.36 172.079 185.624 168.815 186.2C164.879 186.968 162.095 182.744 160.367 179.96C157.391 183.8 154.127 185.816 149.327 186.488C145.199 186.968 141.743 186.776 137.519 185.624C126.575 182.744 123.407 170.744 126.191 160.28C128.015 153.368 131.759 149.144 136.463 146.84ZM138.863 158.072C135.215 161.528 134.831 168.536 137.711 172.664C138.959 174.488 142.415 175.832 145.775 176.024C153.455 176.504 157.583 165.56 153.455 158.936C150.479 154.04 142.511 154.52 138.863 158.072Z" fill="black"/>
</svg>
