<svg width="312" height="312" viewBox="0 0 312 312" fill="none" xmlns="http://www.w3.org/2000/svg">
<rect x="6" y="6" width="300" height="300" rx="20" fill="#E3F4FF"/>
<rect x="6" y="6" width="300" height="300" rx="20" stroke="#1684D9" stroke-width="11"/>
<path d="M140.207 43.5859L135.227 42.6875C135.786 40.6823 136.75 39.1979 138.117 38.2344C139.484 37.2708 141.516 36.7891 144.211 36.7891C146.659 36.7891 148.482 37.082 149.68 37.668C150.878 38.2409 151.717 38.9766 152.199 39.875C152.694 40.7604 152.941 42.3945 152.941 44.7773L152.883 51.1836C152.883 53.0065 152.967 54.3542 153.137 55.2266C153.319 56.0859 153.651 57.0104 154.133 58H148.703C148.56 57.6354 148.384 57.0951 148.176 56.3789C148.085 56.0534 148.02 55.8385 147.98 55.7344C147.043 56.6458 146.04 57.3294 144.973 57.7852C143.905 58.2409 142.766 58.4688 141.555 58.4688C139.419 58.4688 137.733 57.8893 136.496 56.7305C135.272 55.5716 134.66 54.1068 134.66 52.3359C134.66 51.1641 134.94 50.1224 135.5 49.2109C136.06 48.2865 136.841 47.5833 137.844 47.1016C138.859 46.6068 140.318 46.1771 142.219 45.8125C144.784 45.3307 146.561 44.8815 147.551 44.4648V43.918C147.551 42.8633 147.29 42.1146 146.77 41.6719C146.249 41.2161 145.266 40.9883 143.82 40.9883C142.844 40.9883 142.082 41.1836 141.535 41.5742C140.988 41.9518 140.546 42.6224 140.207 43.5859ZM147.551 48.0391C146.848 48.2734 145.734 48.5534 144.211 48.8789C142.688 49.2044 141.691 49.5234 141.223 49.8359C140.507 50.3438 140.148 50.9883 140.148 51.7695C140.148 52.5378 140.435 53.2018 141.008 53.7617C141.581 54.3216 142.31 54.6016 143.195 54.6016C144.185 54.6016 145.129 54.276 146.027 53.625C146.691 53.1302 147.128 52.5247 147.336 51.8086C147.479 51.3398 147.551 50.4479 147.551 49.1328V48.0391ZM158.371 58V29.3672H163.859V58H158.371ZM169.504 58V29.3672H174.992V58H169.504Z" fill="black"/>
<rect x="60.5215" y="167.077" width="36.2718" height="36.7066" transform="rotate(14.909 60.5215 167.077)" fill="#B92429" stroke="black" stroke-width="5.03"/>
<rect x="90.7842" y="123.902" width="36.2718" height="36.7066" transform="rotate(-6.51917 90.7842 123.902)" fill="#B92429" stroke="black" stroke-width="5.03"/>
<rect x="141.521" y="134.972" width="36.2718" height="36.7066" transform="rotate(14.909 141.521 134.972)" fill="#B92429" stroke="black" stroke-width="5.03"/>
<rect x="83.5215" y="214.077" width="36.2718" height="36.7066" transform="rotate(14.909 83.5215 214.077)" fill="#B92429" stroke="black" stroke-width="5.03"/>
<rect x="155.274" y="110.779" width="36.2718" height="36.7066" transform="rotate(-18.6387 155.274 110.779)" fill="#B92429" stroke="black" stroke-width="5.03"/>
<rect x="208.124" y="130.572" width="36.2718" height="36.7066" transform="rotate(44.2122 208.124 130.572)" fill="#B92429" stroke="black" stroke-width="5.03"/>
<rect x="166.657" y="182.66" width="36.2718" height="36.7066" transform="rotate(-3.33265 166.657 182.66)" fill="#B92429" stroke="black" stroke-width="5.03"/>
<rect x="181.521" y="216.972" width="36.2718" height="36.7066" transform="rotate(14.909 181.521 216.972)" fill="#B92429" stroke="black" stroke-width="5.03"/>
<rect x="208.31" y="187.7" width="36.2718" height="36.7066" transform="rotate(-23.5531 208.31 187.7)" fill="#B92429" stroke="black" stroke-width="5.03"/>
<rect x="85.3104" y="176.805" width="36.2718" height="36.7066" transform="rotate(-23.5531 85.3104 176.805)" fill="#B92429" stroke="black" stroke-width="5.03"/>
<rect x="117.557" y="215.133" width="36.2718" height="36.7066" transform="rotate(-45.0753 117.557 215.133)" fill="#B92429" stroke="black" stroke-width="5.03"/>
<path d="M136 75C146.333 78 166.6 92.2 189 85C217 76 260 115 265 147C270 179 275.45 223.564 251 255C230 282 215.009 273 158 273C126 273 93 280 69 265C37.169 245.106 37.9998 238 32 204C27.6556 179.38 30.0289 160.943 44.0002 133C56 109 61.9999 95 87.9999 95C114 95 138 106 152 95C163.2 86.2 177.333 71.3333 183 65" stroke="black" stroke-width="3.5" stroke-linecap="round"/>
</svg>
