<svg width="300" height="300" viewBox="0 0 300 300" fill="none" xmlns="http://www.w3.org/2000/svg">
<path d="M134.207 37.5859L129.227 36.6875C129.786 34.6823 130.75 33.1979 132.117 32.2344C133.484 31.2708 135.516 30.7891 138.211 30.7891C140.659 30.7891 142.482 31.082 143.68 31.668C144.878 32.2409 145.717 32.9766 146.199 33.875C146.694 34.7604 146.941 36.3945 146.941 38.7773L146.883 45.1836C146.883 47.0065 146.967 48.3542 147.137 49.2266C147.319 50.0859 147.651 51.0104 148.133 52H142.703C142.56 51.6354 142.384 51.0951 142.176 50.3789C142.085 50.0534 142.02 49.8385 141.98 49.7344C141.043 50.6458 140.04 51.3294 138.973 51.7852C137.905 52.2409 136.766 52.4688 135.555 52.4688C133.419 52.4688 131.733 51.8893 130.496 50.7305C129.272 49.5716 128.66 48.1068 128.66 46.3359C128.66 45.1641 128.94 44.1224 129.5 43.2109C130.06 42.2865 130.841 41.5833 131.844 41.1016C132.859 40.6068 134.318 40.1771 136.219 39.8125C138.784 39.3307 140.561 38.8815 141.551 38.4648V37.918C141.551 36.8633 141.29 36.1146 140.77 35.6719C140.249 35.2161 139.266 34.9883 137.82 34.9883C136.844 34.9883 136.082 35.1836 135.535 35.5742C134.988 35.9518 134.546 36.6224 134.207 37.5859ZM141.551 42.0391C140.848 42.2734 139.734 42.5534 138.211 42.8789C136.688 43.2044 135.691 43.5234 135.223 43.8359C134.507 44.3438 134.148 44.9883 134.148 45.7695C134.148 46.5378 134.435 47.2018 135.008 47.7617C135.581 48.3216 136.31 48.6016 137.195 48.6016C138.185 48.6016 139.129 48.276 140.027 47.625C140.691 47.1302 141.128 46.5247 141.336 45.8086C141.479 45.3398 141.551 44.4479 141.551 43.1328V42.0391ZM152.371 52V23.3672H157.859V52H152.371ZM163.504 52V23.3672H168.992V52H163.504Z" fill="black"/>
<rect x="54.5215" y="161.077" width="36.2718" height="36.7066" transform="rotate(14.909 54.5215 161.077)" fill="#B92429" stroke="black" stroke-width="5.03"/>
<rect x="84.7843" y="117.902" width="36.2718" height="36.7066" transform="rotate(-6.51917 84.7843 117.902)" fill="#B92429" stroke="black" stroke-width="5.03"/>
<rect x="135.522" y="128.972" width="36.2718" height="36.7066" transform="rotate(14.909 135.522 128.972)" fill="#B92429" stroke="black" stroke-width="5.03"/>
<rect x="77.5215" y="208.077" width="36.2718" height="36.7066" transform="rotate(14.909 77.5215 208.077)" fill="#B92429" stroke="black" stroke-width="5.03"/>
<rect x="149.275" y="104.779" width="36.2718" height="36.7066" transform="rotate(-18.6387 149.275 104.779)" fill="#B92429" stroke="black" stroke-width="5.03"/>
<rect x="202.123" y="124.572" width="36.2718" height="36.7066" transform="rotate(44.2122 202.123 124.572)" fill="#B92429" stroke="black" stroke-width="5.03"/>
<rect x="160.657" y="176.66" width="36.2718" height="36.7066" transform="rotate(-3.33265 160.657 176.66)" fill="#B92429" stroke="black" stroke-width="5.03"/>
<rect x="175.522" y="210.972" width="36.2718" height="36.7066" transform="rotate(14.909 175.522 210.972)" fill="#B92429" stroke="black" stroke-width="5.03"/>
<rect x="202.31" y="181.7" width="36.2718" height="36.7066" transform="rotate(-23.5531 202.31 181.7)" fill="#B92429" stroke="black" stroke-width="5.03"/>
<rect x="79.3105" y="170.805" width="36.2718" height="36.7066" transform="rotate(-23.5531 79.3105 170.805)" fill="#B92429" stroke="black" stroke-width="5.03"/>
<rect x="111.557" y="209.133" width="36.2718" height="36.7066" transform="rotate(-45.0753 111.557 209.133)" fill="#B92429" stroke="black" stroke-width="5.03"/>
<path d="M129.999 69C140.332 72 160.599 86.2 182.999 79C210.999 70 253.999 109 258.999 141C263.999 173 269.449 217.564 244.999 249C223.999 276 209.008 267 151.999 267C119.999 267 86.999 274 62.999 259C31.168 239.106 31.9988 232 25.9991 198C21.6546 173.38 24.028 154.943 37.9992 127C49.9991 103 55.999 89 81.999 89C107.999 89 131.999 100 145.999 89C157.199 80.2 171.332 65.3333 176.999 59" stroke="black" stroke-width="3.5" stroke-linecap="round"/>
</svg>
