<svg width="312" height="312" viewBox="0 0 312 312" fill="none" xmlns="http://www.w3.org/2000/svg">
<rect x="6" y="6" width="300" height="300" rx="20" fill="#FFF0E2"/>
<rect x="6" y="6" width="300" height="300" rx="20" stroke="#FF7602" stroke-width="11"/>
<path d="M126.387 43.5859L121.406 42.6875C121.966 40.6823 122.93 39.1979 124.297 38.2344C125.664 37.2708 127.695 36.7891 130.391 36.7891C132.839 36.7891 134.661 37.082 135.859 37.668C137.057 38.2409 137.897 38.9766 138.379 39.875C138.874 40.7604 139.121 42.3945 139.121 44.7773L139.062 51.1836C139.062 53.0065 139.147 54.3542 139.316 55.2266C139.499 56.0859 139.831 57.0104 140.312 58H134.883C134.74 57.6354 134.564 57.0951 134.355 56.3789C134.264 56.0534 134.199 55.8385 134.16 55.7344C133.223 56.6458 132.22 57.3294 131.152 57.7852C130.085 58.2409 128.945 58.4688 127.734 58.4688C125.599 58.4688 123.913 57.8893 122.676 56.7305C121.452 55.5716 120.84 54.1068 120.84 52.3359C120.84 51.1641 121.12 50.1224 121.68 49.2109C122.24 48.2865 123.021 47.5833 124.023 47.1016C125.039 46.6068 126.497 46.1771 128.398 45.8125C130.964 45.3307 132.741 44.8815 133.73 44.4648V43.918C133.73 42.8633 133.47 42.1146 132.949 41.6719C132.428 41.2161 131.445 40.9883 130 40.9883C129.023 40.9883 128.262 41.1836 127.715 41.5742C127.168 41.9518 126.725 42.6224 126.387 43.5859ZM133.73 48.0391C133.027 48.2734 131.914 48.5534 130.391 48.8789C128.867 49.2044 127.871 49.5234 127.402 49.8359C126.686 50.3438 126.328 50.9883 126.328 51.7695C126.328 52.5378 126.615 53.2018 127.188 53.7617C127.76 54.3216 128.49 54.6016 129.375 54.6016C130.365 54.6016 131.309 54.276 132.207 53.625C132.871 53.1302 133.307 52.5247 133.516 51.8086C133.659 51.3398 133.73 50.4479 133.73 49.1328V48.0391ZM163.418 58H157.93V47.4141C157.93 45.1745 157.812 43.7292 157.578 43.0781C157.344 42.4141 156.96 41.8997 156.426 41.5352C155.905 41.1706 155.273 40.9883 154.531 40.9883C153.581 40.9883 152.728 41.2487 151.973 41.7695C151.217 42.2904 150.697 42.9805 150.41 43.8398C150.137 44.6992 150 46.2878 150 48.6055V58H144.512V37.2578H149.609V40.3047C151.419 37.9609 153.698 36.7891 156.445 36.7891C157.656 36.7891 158.763 37.0104 159.766 37.4531C160.768 37.8828 161.523 38.4362 162.031 39.1133C162.552 39.7904 162.91 40.5586 163.105 41.418C163.314 42.2773 163.418 43.5078 163.418 45.1094V58ZM188.027 58H182.93V54.9531C182.083 56.138 181.081 57.0234 179.922 57.6094C178.776 58.1823 177.617 58.4688 176.445 58.4688C174.062 58.4688 172.018 57.5117 170.312 55.5977C168.62 53.6706 167.773 50.9883 167.773 47.5508C167.773 44.0352 168.6 41.3659 170.254 39.543C171.908 37.707 173.997 36.7891 176.523 36.7891C178.841 36.7891 180.846 37.7526 182.539 39.6797V29.3672H188.027V58ZM173.379 47.1797C173.379 49.3932 173.685 50.9948 174.297 51.9844C175.182 53.4167 176.419 54.1328 178.008 54.1328C179.271 54.1328 180.345 53.599 181.23 52.5312C182.116 51.4505 182.559 49.8424 182.559 47.707C182.559 45.3242 182.129 43.612 181.27 42.5703C180.41 41.5156 179.31 40.9883 177.969 40.9883C176.667 40.9883 175.573 41.5091 174.688 42.5508C173.815 43.5794 173.379 45.1224 173.379 47.1797Z" fill="black"/>
<rect x="124.5" y="119" width="60" height="123" rx="5" fill="black"/>
<rect x="124.5" y="119" width="60" height="123" rx="5" fill="black"/>
<rect x="216" y="150.5" width="60" height="123" rx="5" transform="rotate(90 216 150.5)" fill="black"/>
<rect x="216" y="150.5" width="60" height="123" rx="5" transform="rotate(90 216 150.5)" fill="black"/>
</svg>
