<svg width="300" height="300" viewBox="0 0 300 300" fill="none" xmlns="http://www.w3.org/2000/svg">
<path d="M120.387 37.5859L115.406 36.6875C115.966 34.6823 116.93 33.1979 118.297 32.2344C119.664 31.2708 121.695 30.7891 124.391 30.7891C126.839 30.7891 128.661 31.082 129.859 31.668C131.057 32.2409 131.897 32.9766 132.379 33.875C132.874 34.7604 133.121 36.3945 133.121 38.7773L133.062 45.1836C133.062 47.0065 133.147 48.3542 133.316 49.2266C133.499 50.0859 133.831 51.0104 134.312 52H128.883C128.74 51.6354 128.564 51.0951 128.355 50.3789C128.264 50.0534 128.199 49.8385 128.16 49.7344C127.223 50.6458 126.22 51.3294 125.152 51.7852C124.085 52.2409 122.945 52.4688 121.734 52.4688C119.599 52.4688 117.913 51.8893 116.676 50.7305C115.452 49.5716 114.84 48.1068 114.84 46.3359C114.84 45.1641 115.12 44.1224 115.68 43.2109C116.24 42.2865 117.021 41.5833 118.023 41.1016C119.039 40.6068 120.497 40.1771 122.398 39.8125C124.964 39.3307 126.741 38.8815 127.73 38.4648V37.918C127.73 36.8633 127.47 36.1146 126.949 35.6719C126.428 35.2161 125.445 34.9883 124 34.9883C123.023 34.9883 122.262 35.1836 121.715 35.5742C121.168 35.9518 120.725 36.6224 120.387 37.5859ZM127.73 42.0391C127.027 42.2734 125.914 42.5534 124.391 42.8789C122.867 43.2044 121.871 43.5234 121.402 43.8359C120.686 44.3438 120.328 44.9883 120.328 45.7695C120.328 46.5378 120.615 47.2018 121.188 47.7617C121.76 48.3216 122.49 48.6016 123.375 48.6016C124.365 48.6016 125.309 48.276 126.207 47.625C126.871 47.1302 127.307 46.5247 127.516 45.8086C127.659 45.3398 127.73 44.4479 127.73 43.1328V42.0391ZM157.418 52H151.93V41.4141C151.93 39.1745 151.812 37.7292 151.578 37.0781C151.344 36.4141 150.96 35.8997 150.426 35.5352C149.905 35.1706 149.273 34.9883 148.531 34.9883C147.581 34.9883 146.728 35.2487 145.973 35.7695C145.217 36.2904 144.697 36.9805 144.41 37.8398C144.137 38.6992 144 40.2878 144 42.6055V52H138.512V31.2578H143.609V34.3047C145.419 31.9609 147.698 30.7891 150.445 30.7891C151.656 30.7891 152.763 31.0104 153.766 31.4531C154.768 31.8828 155.523 32.4362 156.031 33.1133C156.552 33.7904 156.91 34.5586 157.105 35.418C157.314 36.2773 157.418 37.5078 157.418 39.1094V52ZM182.027 52H176.93V48.9531C176.083 50.138 175.081 51.0234 173.922 51.6094C172.776 52.1823 171.617 52.4688 170.445 52.4688C168.062 52.4688 166.018 51.5117 164.312 49.5977C162.62 47.6706 161.773 44.9883 161.773 41.5508C161.773 38.0352 162.6 35.3659 164.254 33.543C165.908 31.707 167.997 30.7891 170.523 30.7891C172.841 30.7891 174.846 31.7526 176.539 33.6797V23.3672H182.027V52ZM167.379 41.1797C167.379 43.3932 167.685 44.9948 168.297 45.9844C169.182 47.4167 170.419 48.1328 172.008 48.1328C173.271 48.1328 174.345 47.599 175.23 46.5312C176.116 45.4505 176.559 43.8424 176.559 41.707C176.559 39.3242 176.129 37.612 175.27 36.5703C174.41 35.5156 173.31 34.9883 171.969 34.9883C170.667 34.9883 169.573 35.5091 168.688 36.5508C167.815 37.5794 167.379 39.1224 167.379 41.1797Z" fill="black"/>
<rect x="118.5" y="113" width="60" height="123" rx="5" fill="black"/>
<rect x="118.5" y="113" width="60" height="123" rx="5" fill="black"/>
<rect x="210" y="144.5" width="60" height="123" rx="5" transform="rotate(90 210 144.5)" fill="black"/>
<rect x="210" y="144.5" width="60" height="123" rx="5" transform="rotate(90 210 144.5)" fill="black"/>
</svg>
