<svg width="300" height="300" viewBox="0 0 300 300" fill="none" xmlns="http://www.w3.org/2000/svg">
<path d="M116.051 52V23.3672H121.539V33.6797C123.232 31.7526 125.237 30.7891 127.555 30.7891C130.081 30.7891 132.171 31.707 133.824 33.543C135.478 35.3659 136.305 37.9896 136.305 41.4141C136.305 44.9557 135.458 47.6836 133.766 49.5977C132.086 51.5117 130.042 52.4688 127.633 52.4688C126.448 52.4688 125.276 52.1758 124.117 51.5898C122.971 50.9909 121.982 50.112 121.148 48.9531V52H116.051ZM121.5 41.1797C121.5 43.3281 121.839 44.9167 122.516 45.9453C123.466 47.4036 124.729 48.1328 126.305 48.1328C127.516 48.1328 128.544 47.6185 129.391 46.5898C130.25 45.5482 130.68 43.9141 130.68 41.6875C130.68 39.3177 130.25 37.612 129.391 36.5703C128.531 35.5156 127.431 34.9883 126.09 34.9883C124.775 34.9883 123.681 35.5026 122.809 36.5312C121.936 37.5469 121.5 39.0964 121.5 41.1797ZM144.84 37.5859L139.859 36.6875C140.419 34.6823 141.383 33.1979 142.75 32.2344C144.117 31.2708 146.148 30.7891 148.844 30.7891C151.292 30.7891 153.115 31.082 154.312 31.668C155.51 32.2409 156.35 32.9766 156.832 33.875C157.327 34.7604 157.574 36.3945 157.574 38.7773L157.516 45.1836C157.516 47.0065 157.6 48.3542 157.77 49.2266C157.952 50.0859 158.284 51.0104 158.766 52H153.336C153.193 51.6354 153.017 51.0951 152.809 50.3789C152.717 50.0534 152.652 49.8385 152.613 49.7344C151.676 50.6458 150.673 51.3294 149.605 51.7852C148.538 52.2409 147.398 52.4688 146.188 52.4688C144.052 52.4688 142.366 51.8893 141.129 50.7305C139.905 49.5716 139.293 48.1068 139.293 46.3359C139.293 45.1641 139.573 44.1224 140.133 43.2109C140.693 42.2865 141.474 41.5833 142.477 41.1016C143.492 40.6068 144.951 40.1771 146.852 39.8125C149.417 39.3307 151.194 38.8815 152.184 38.4648V37.918C152.184 36.8633 151.923 36.1146 151.402 35.6719C150.882 35.2161 149.898 34.9883 148.453 34.9883C147.477 34.9883 146.715 35.1836 146.168 35.5742C145.621 35.9518 145.178 36.6224 144.84 37.5859ZM152.184 42.0391C151.48 42.2734 150.367 42.5534 148.844 42.8789C147.32 43.2044 146.324 43.5234 145.855 43.8359C145.139 44.3438 144.781 44.9883 144.781 45.7695C144.781 46.5378 145.068 47.2018 145.641 47.7617C146.214 48.3216 146.943 48.6016 147.828 48.6016C148.818 48.6016 149.762 48.276 150.66 47.625C151.324 47.1302 151.76 46.5247 151.969 45.8086C152.112 45.3398 152.184 44.4479 152.184 43.1328V42.0391ZM182.027 52H176.93V48.9531C176.083 50.138 175.081 51.0234 173.922 51.6094C172.776 52.1823 171.617 52.4688 170.445 52.4688C168.062 52.4688 166.018 51.5117 164.312 49.5977C162.62 47.6706 161.773 44.9883 161.773 41.5508C161.773 38.0352 162.6 35.3659 164.254 33.543C165.908 31.707 167.997 30.7891 170.523 30.7891C172.841 30.7891 174.846 31.7526 176.539 33.6797V23.3672H182.027V52ZM167.379 41.1797C167.379 43.3932 167.685 44.9948 168.297 45.9844C169.182 47.4167 170.419 48.1328 172.008 48.1328C173.271 48.1328 174.345 47.599 175.23 46.5312C176.116 45.4505 176.559 43.8424 176.559 41.707C176.559 39.3242 176.129 37.612 175.27 36.5703C174.41 35.5156 173.31 34.9883 171.969 34.9883C170.667 34.9883 169.573 35.5091 168.688 36.5508C167.815 37.5794 167.379 39.1224 167.379 41.1797Z" fill="black"/>
<path d="M124.463 91.8305C145.529 90.5482 164.242 108.696 165.721 133.006C167.201 157.316 150.828 177.599 129.762 178.881C108.695 180.163 89.984 162.016 88.504 137.707C87.0243 113.397 103.396 93.1131 124.463 91.8305Z" fill="#BC8166" stroke="black" stroke-width="4.97477"/>
<path d="M148.755 160.324C148.755 160.324 142.921 156.061 133.536 157.192C124.151 158.324 120.823 162.263 117.906 165.675" stroke="black" stroke-width="4.7" stroke-linecap="round"/>
<path d="M143.048 119.15C144.726 119.765 145.271 121.338 144.885 122.392C144.499 123.446 143.066 124.295 141.389 123.681C139.712 123.067 139.167 121.493 139.553 120.439C139.939 119.385 141.371 118.536 143.048 119.15Z" fill="black" stroke="black" stroke-width="5.99189"/>
<path d="M110.169 126.82C111.847 127.434 112.392 129.008 112.006 130.062C111.62 131.115 110.187 131.965 108.51 131.351C106.833 130.736 106.288 129.162 106.674 128.109C107.06 127.055 108.492 126.206 110.169 126.82Z" fill="black" stroke="black" stroke-width="5.99189"/>
<path d="M129.361 182.5C131.061 203.752 129.361 238 120.879 270.5" stroke="black" stroke-width="6.1" stroke-linecap="round"/>
<path d="M86 270.17L79 231.17L128.379 192.5H210L190 223" stroke="black" stroke-width="6.1" stroke-linecap="round"/>
<path d="M184.247 239.458C182.374 245.929 180.089 258.815 184.989 260.389C190.603 260.846 190.725 252.586 191.901 247.194C193.108 241.664 194.959 238.721 198.284 235.012C202.043 230.819 202.299 226.606 200.514 218.839C198.729 211.073 188.981 207.332 183.928 205.802C178.876 204.273 174.232 200.722 170.913 207.057C169.062 210.59 173.52 211.289 173.464 212.12C173.408 212.95 170.147 211.003 167.594 215.876C165.316 220.224 169.203 221.591 168.938 222.742C168.673 223.894 163.987 223.256 163.527 228.602C163.067 233.948 177.017 236.705 184.247 239.458Z" fill="black" stroke="black" stroke-linecap="round"/>
</svg>
