<svg width="312" height="312" viewBox="0 0 312 312" fill="none" xmlns="http://www.w3.org/2000/svg">
<rect x="6" y="6" width="300" height="300" rx="20" fill="#E3F4FF"/>
<rect x="6" y="6" width="300" height="300" rx="20" stroke="#1684D9" stroke-width="11"/>
<path d="M122.051 58V29.3672H127.539V39.6797C129.232 37.7526 131.237 36.7891 133.555 36.7891C136.081 36.7891 138.171 37.707 139.824 39.543C141.478 41.3659 142.305 43.9896 142.305 47.4141C142.305 50.9557 141.458 53.6836 139.766 55.5977C138.086 57.5117 136.042 58.4688 133.633 58.4688C132.448 58.4688 131.276 58.1758 130.117 57.5898C128.971 56.9909 127.982 56.112 127.148 54.9531V58H122.051ZM127.5 47.1797C127.5 49.3281 127.839 50.9167 128.516 51.9453C129.466 53.4036 130.729 54.1328 132.305 54.1328C133.516 54.1328 134.544 53.6185 135.391 52.5898C136.25 51.5482 136.68 49.9141 136.68 47.6875C136.68 45.3177 136.25 43.612 135.391 42.5703C134.531 41.5156 133.431 40.9883 132.09 40.9883C130.775 40.9883 129.681 41.5026 128.809 42.5312C127.936 43.5469 127.5 45.0964 127.5 47.1797ZM150.84 43.5859L145.859 42.6875C146.419 40.6823 147.383 39.1979 148.75 38.2344C150.117 37.2708 152.148 36.7891 154.844 36.7891C157.292 36.7891 159.115 37.082 160.312 37.668C161.51 38.2409 162.35 38.9766 162.832 39.875C163.327 40.7604 163.574 42.3945 163.574 44.7773L163.516 51.1836C163.516 53.0065 163.6 54.3542 163.77 55.2266C163.952 56.0859 164.284 57.0104 164.766 58H159.336C159.193 57.6354 159.017 57.0951 158.809 56.3789C158.717 56.0534 158.652 55.8385 158.613 55.7344C157.676 56.6458 156.673 57.3294 155.605 57.7852C154.538 58.2409 153.398 58.4688 152.188 58.4688C150.052 58.4688 148.366 57.8893 147.129 56.7305C145.905 55.5716 145.293 54.1068 145.293 52.3359C145.293 51.1641 145.573 50.1224 146.133 49.2109C146.693 48.2865 147.474 47.5833 148.477 47.1016C149.492 46.6068 150.951 46.1771 152.852 45.8125C155.417 45.3307 157.194 44.8815 158.184 44.4648V43.918C158.184 42.8633 157.923 42.1146 157.402 41.6719C156.882 41.2161 155.898 40.9883 154.453 40.9883C153.477 40.9883 152.715 41.1836 152.168 41.5742C151.621 41.9518 151.178 42.6224 150.84 43.5859ZM158.184 48.0391C157.48 48.2734 156.367 48.5534 154.844 48.8789C153.32 49.2044 152.324 49.5234 151.855 49.8359C151.139 50.3438 150.781 50.9883 150.781 51.7695C150.781 52.5378 151.068 53.2018 151.641 53.7617C152.214 54.3216 152.943 54.6016 153.828 54.6016C154.818 54.6016 155.762 54.276 156.66 53.625C157.324 53.1302 157.76 52.5247 157.969 51.8086C158.112 51.3398 158.184 50.4479 158.184 49.1328V48.0391ZM188.027 58H182.93V54.9531C182.083 56.138 181.081 57.0234 179.922 57.6094C178.776 58.1823 177.617 58.4688 176.445 58.4688C174.062 58.4688 172.018 57.5117 170.312 55.5977C168.62 53.6706 167.773 50.9883 167.773 47.5508C167.773 44.0352 168.6 41.3659 170.254 39.543C171.908 37.707 173.997 36.7891 176.523 36.7891C178.841 36.7891 180.846 37.7526 182.539 39.6797V29.3672H188.027V58ZM173.379 47.1797C173.379 49.3932 173.685 50.9948 174.297 51.9844C175.182 53.4167 176.419 54.1328 178.008 54.1328C179.271 54.1328 180.345 53.599 181.23 52.5312C182.116 51.4505 182.559 49.8424 182.559 47.707C182.559 45.3242 182.129 43.612 181.27 42.5703C180.41 41.5156 179.31 40.9883 177.969 40.9883C176.667 40.9883 175.573 41.5091 174.688 42.5508C173.815 43.5794 173.379 45.1224 173.379 47.1797Z" fill="black"/>
<path d="M171.722 139.006C173.201 163.316 156.829 183.599 135.763 184.881C114.696 186.164 95.9845 168.016 94.5047 143.706C93.0249 119.397 109.397 99.113 130.464 97.8307C151.53 96.5483 170.242 114.696 171.722 139.006Z" fill="#BC8166" stroke="black" stroke-width="4.97477"/>
<path d="M154.755 166.324C154.755 166.324 148.921 162.061 139.536 163.192C130.151 164.324 126.823 168.263 123.906 171.675" stroke="black" stroke-width="4.7" stroke-linecap="round"/>
<path d="M150.884 128.392C150.499 129.446 149.066 130.295 147.389 129.681C145.711 129.067 145.166 127.493 145.552 126.439C145.938 125.385 147.37 124.536 149.048 125.15C150.725 125.765 151.27 127.338 150.884 128.392Z" fill="black" stroke="black" stroke-width="5.99189"/>
<path d="M118.006 136.062C117.62 137.116 116.187 137.965 114.51 137.351C112.832 136.736 112.287 135.163 112.673 134.109C113.059 133.055 114.492 132.206 116.169 132.82C117.847 133.434 118.391 135.008 118.006 136.062Z" fill="black" stroke="black" stroke-width="5.99189"/>
<path d="M135.361 188.5C137.061 209.752 135.361 244 126.879 276.5" stroke="black" stroke-width="6.1" stroke-linecap="round"/>
<path d="M92 276.17L85 237.17L134.379 198.5H216L196 229" stroke="black" stroke-width="6.1" stroke-linecap="round"/>
<path d="M190.247 245.458C188.374 251.929 186.089 264.816 190.989 266.389C196.603 266.846 196.725 258.586 197.901 253.194C199.108 247.664 200.959 244.721 204.284 241.012C208.043 236.819 208.299 232.606 206.514 224.839C204.729 217.073 194.981 213.332 189.928 211.803C184.876 210.273 180.232 206.722 176.913 213.057C175.062 216.59 179.52 217.289 179.464 218.12C179.408 218.95 176.147 217.003 173.594 221.876C171.316 226.224 175.203 227.591 174.938 228.742C174.673 229.894 169.987 229.256 169.527 234.602C169.067 239.948 183.017 242.705 190.247 245.458Z" fill="black" stroke="black" stroke-linecap="round"/>
</svg>
