<svg width="300" height="300" viewBox="0 0 300 300" fill="none" xmlns="http://www.w3.org/2000/svg">
<path d="M72.0195 52V23.3672H77.5078V33.6797C79.2005 31.7526 81.2057 30.7891 83.5234 30.7891C86.0495 30.7891 88.1393 31.707 89.793 33.543C91.4466 35.3659 92.2734 37.9896 92.2734 41.4141C92.2734 44.9557 91.4271 47.6836 89.7344 49.5977C88.0547 51.5117 86.0104 52.4688 83.6016 52.4688C82.4167 52.4688 81.2448 52.1758 80.0859 51.5898C78.9401 50.9909 77.9505 50.112 77.1172 48.9531V52H72.0195ZM77.4688 41.1797C77.4688 43.3281 77.8073 44.9167 78.4844 45.9453C79.4349 47.4036 80.6979 48.1328 82.2734 48.1328C83.4844 48.1328 84.513 47.6185 85.3594 46.5898C86.2188 45.5482 86.6484 43.9141 86.6484 41.6875C86.6484 39.3177 86.2188 37.612 85.3594 36.5703C84.5 35.5156 83.3997 34.9883 82.0586 34.9883C80.7435 34.9883 79.6497 35.5026 78.7773 36.5312C77.9049 37.5469 77.4688 39.0964 77.4688 41.1797ZM108.719 45.3984L114.188 46.3164C113.484 48.3216 112.371 49.8516 110.848 50.9062C109.337 51.9479 107.443 52.4688 105.164 52.4688C101.557 52.4688 98.888 51.2904 97.1562 48.9336C95.7891 47.0456 95.1055 44.6628 95.1055 41.7852C95.1055 38.3477 96.0039 35.6589 97.8008 33.7188C99.5977 31.7656 101.87 30.7891 104.617 30.7891C107.703 30.7891 110.138 31.8112 111.922 33.8555C113.706 35.8867 114.559 39.0052 114.48 43.2109H100.73C100.77 44.8385 101.212 46.1081 102.059 47.0195C102.905 47.918 103.96 48.3672 105.223 48.3672C106.082 48.3672 106.805 48.1328 107.391 47.6641C107.977 47.1953 108.419 46.4401 108.719 45.3984ZM109.031 39.8516C108.992 38.263 108.582 37.0586 107.801 36.2383C107.02 35.4049 106.069 34.9883 104.949 34.9883C103.751 34.9883 102.762 35.4245 101.98 36.2969C101.199 37.1693 100.815 38.3542 100.828 39.8516H109.031ZM137.059 37.3906L131.648 38.3672C131.466 37.2865 131.049 36.4727 130.398 35.9258C129.76 35.3789 128.927 35.1055 127.898 35.1055C126.531 35.1055 125.438 35.5807 124.617 36.5312C123.81 37.4688 123.406 39.0443 123.406 41.2578C123.406 43.7188 123.816 45.457 124.637 46.4727C125.47 47.4883 126.583 47.9961 127.977 47.9961C129.018 47.9961 129.871 47.7031 130.535 47.1172C131.199 46.5182 131.668 45.4961 131.941 44.0508L137.332 44.9688C136.772 47.4427 135.698 49.3112 134.109 50.5742C132.521 51.8372 130.392 52.4688 127.723 52.4688C124.689 52.4688 122.267 51.5117 120.457 49.5977C118.66 47.6836 117.762 45.0339 117.762 41.6484C117.762 38.224 118.667 35.5612 120.477 33.6602C122.286 31.7461 124.734 30.7891 127.82 30.7891C130.346 30.7891 132.352 31.3359 133.836 32.4297C135.333 33.5104 136.408 35.1641 137.059 37.3906ZM145.34 37.5859L140.359 36.6875C140.919 34.6823 141.883 33.1979 143.25 32.2344C144.617 31.2708 146.648 30.7891 149.344 30.7891C151.792 30.7891 153.615 31.082 154.812 31.668C156.01 32.2409 156.85 32.9766 157.332 33.875C157.827 34.7604 158.074 36.3945 158.074 38.7773L158.016 45.1836C158.016 47.0065 158.1 48.3542 158.27 49.2266C158.452 50.0859 158.784 51.0104 159.266 52H153.836C153.693 51.6354 153.517 51.0951 153.309 50.3789C153.217 50.0534 153.152 49.8385 153.113 49.7344C152.176 50.6458 151.173 51.3294 150.105 51.7852C149.038 52.2409 147.898 52.4688 146.688 52.4688C144.552 52.4688 142.866 51.8893 141.629 50.7305C140.405 49.5716 139.793 48.1068 139.793 46.3359C139.793 45.1641 140.073 44.1224 140.633 43.2109C141.193 42.2865 141.974 41.5833 142.977 41.1016C143.992 40.6068 145.451 40.1771 147.352 39.8125C149.917 39.3307 151.694 38.8815 152.684 38.4648V37.918C152.684 36.8633 152.423 36.1146 151.902 35.6719C151.382 35.2161 150.398 34.9883 148.953 34.9883C147.977 34.9883 147.215 35.1836 146.668 35.5742C146.121 35.9518 145.678 36.6224 145.34 37.5859ZM152.684 42.0391C151.98 42.2734 150.867 42.5534 149.344 42.8789C147.82 43.2044 146.824 43.5234 146.355 43.8359C145.639 44.3438 145.281 44.9883 145.281 45.7695C145.281 46.5378 145.568 47.2018 146.141 47.7617C146.714 48.3216 147.443 48.6016 148.328 48.6016C149.318 48.6016 150.262 48.276 151.16 47.625C151.824 47.1302 152.26 46.5247 152.469 45.8086C152.612 45.3398 152.684 44.4479 152.684 43.1328V42.0391ZM177.156 52V48.8945C176.401 50.0013 175.405 50.8737 174.168 51.5117C172.944 52.1497 171.648 52.4688 170.281 52.4688C168.888 52.4688 167.638 52.1628 166.531 51.5508C165.424 50.9388 164.624 50.0794 164.129 48.9727C163.634 47.8659 163.387 46.3359 163.387 44.3828V31.2578H168.875V40.7891C168.875 43.7057 168.973 45.4961 169.168 46.1602C169.376 46.8112 169.747 47.332 170.281 47.7227C170.815 48.1003 171.492 48.2891 172.312 48.2891C173.25 48.2891 174.09 48.0352 174.832 47.5273C175.574 47.0065 176.082 46.3685 176.355 45.6133C176.629 44.8451 176.766 42.9766 176.766 40.0078V31.2578H182.254V52H177.156ZM186.023 46.082L191.531 45.2422C191.766 46.3099 192.241 47.1237 192.957 47.6836C193.673 48.2305 194.676 48.5039 195.965 48.5039C197.384 48.5039 198.452 48.2435 199.168 47.7227C199.65 47.3581 199.891 46.8698 199.891 46.2578C199.891 45.8411 199.76 45.4961 199.5 45.2227C199.227 44.9622 198.615 44.7214 197.664 44.5C193.237 43.5234 190.431 42.6315 189.246 41.8242C187.605 40.7044 186.785 39.1484 186.785 37.1562C186.785 35.3594 187.495 33.849 188.914 32.625C190.333 31.401 192.534 30.7891 195.516 30.7891C198.354 30.7891 200.464 31.2513 201.844 32.1758C203.224 33.1003 204.174 34.4674 204.695 36.2773L199.52 37.2344C199.298 36.4271 198.875 35.8086 198.25 35.3789C197.638 34.9492 196.759 34.7344 195.613 34.7344C194.168 34.7344 193.133 34.9362 192.508 35.3398C192.091 35.6263 191.883 35.9974 191.883 36.4531C191.883 36.8438 192.065 37.1758 192.43 37.4492C192.924 37.8138 194.63 38.3281 197.547 38.9922C200.477 39.6562 202.521 40.4701 203.68 41.4336C204.826 42.4102 205.398 43.7708 205.398 45.5156C205.398 47.4167 204.604 49.0508 203.016 50.418C201.427 51.7852 199.077 52.4688 195.965 52.4688C193.139 52.4688 190.9 51.8958 189.246 50.75C187.605 49.6042 186.531 48.0482 186.023 46.082ZM222.234 45.3984L227.703 46.3164C227 48.3216 225.887 49.8516 224.363 50.9062C222.853 51.9479 220.958 52.4688 218.68 52.4688C215.073 52.4688 212.404 51.2904 210.672 48.9336C209.305 47.0456 208.621 44.6628 208.621 41.7852C208.621 38.3477 209.52 35.6589 211.316 33.7188C213.113 31.7656 215.385 30.7891 218.133 30.7891C221.219 30.7891 223.654 31.8112 225.438 33.8555C227.221 35.8867 228.074 39.0052 227.996 43.2109H214.246C214.285 44.8385 214.728 46.1081 215.574 47.0195C216.421 47.918 217.475 48.3672 218.738 48.3672C219.598 48.3672 220.32 48.1328 220.906 47.6641C221.492 47.1953 221.935 46.4401 222.234 45.3984ZM222.547 39.8516C222.508 38.263 222.098 37.0586 221.316 36.2383C220.535 35.4049 219.585 34.9883 218.465 34.9883C217.267 34.9883 216.277 35.4245 215.496 36.2969C214.715 37.1693 214.331 38.3542 214.344 39.8516H222.547Z" fill="black"/>
<path d="M225.733 108C237.817 108 246.206 114.769 251.478 123.472C256.716 132.119 259 142.829 259 151.35C259 160.168 254.776 169.795 247.973 177.195C241.15 184.617 231.546 190 220.6 190C203.018 190 194.29 176.914 192.102 170.304L191.594 168.769L192.987 167.95L209.045 158.519H194C192.815 158.519 192.106 157.735 191.791 157.124C191.514 156.586 191.42 155.997 191.377 155.562C191.287 154.648 191.351 153.501 191.445 152.411C191.639 150.161 191.955 147.995 191.992 146.464C191.65 146.372 191.138 146.317 190.3 146.232C189.501 146.152 188.256 146.034 187.227 145.538C186.662 145.266 186.071 144.844 185.633 144.182C185.189 143.511 185 142.744 185 141.952C185 141.141 185.227 140.291 185.505 139.521C185.793 138.722 186.194 137.856 186.655 136.969C187.579 135.194 188.821 133.2 190.124 131.262C192.73 127.386 195.691 123.566 197.144 121.86C197.422 121.533 197.734 121.098 198.154 120.498C198.558 119.923 199.039 119.23 199.603 118.496C200.74 117.013 202.238 115.324 204.353 113.743C208.616 110.556 215.128 108 225.733 108Z" fill="#E4B692" stroke="black" stroke-width="4"/>
<circle cx="214.5" cy="133.5" r="5.5" fill="black"/>
<path d="M68.7998 168.286C58.4421 168.286 51.2522 174.087 46.7334 181.547C42.2436 188.959 40.2861 198.139 40.2861 205.442C40.2861 213.001 43.9069 221.252 49.7383 227.596C55.5862 233.957 63.8179 238.571 73.2002 238.571C88.2702 238.571 95.7513 227.354 97.627 221.688L98.0625 220.373L96.8682 219.672L83.1035 211.587H96C97.0155 211.587 97.6239 210.916 97.8936 210.393C98.1309 209.932 98.2112 209.426 98.248 209.053C98.3253 208.269 98.271 207.286 98.1904 206.353C98.0241 204.424 97.7528 202.567 97.7207 201.255C98.0141 201.176 98.453 201.129 99.1719 201.057C99.857 200.988 100.923 200.886 101.806 200.461C102.29 200.228 102.796 199.866 103.172 199.299C103.552 198.724 103.714 198.066 103.714 197.388C103.714 196.692 103.519 195.963 103.281 195.304C103.034 194.618 102.691 193.876 102.296 193.116C101.504 191.595 100.439 189.886 99.3223 188.225C97.0887 184.902 94.5504 181.628 93.3057 180.166L93.1201 179.938C92.9274 179.69 92.71 179.384 92.4395 178.998C92.0935 178.505 91.6801 177.912 91.1973 177.282C90.2219 176.011 88.9385 174.563 87.126 173.208C83.4714 170.476 77.8894 168.286 68.7998 168.286Z" fill="white" fill-opacity="0.66" stroke="black" stroke-width="3.42857"/>
<circle cx="4.71429" cy="4.71429" r="4.71429" transform="matrix(-1 0 0 1 83.1426 185.429)" fill="black"/>
<path d="M118.56 162.357C112.796 162.358 108.123 167.03 108.123 172.794V192.798C108.123 198.561 112.796 203.234 118.56 203.234H122.438C118.956 208.972 113.341 214.105 113.341 214.105C113.341 214.105 118.125 214.54 124.213 211.062C127.349 209.269 131.392 206.023 134.504 203.234H138.563C144.327 203.234 149 198.562 149 192.798V172.794C149 167.03 144.327 162.357 138.563 162.357H118.56Z" fill="white"/>
<path d="M118.56 162.357L118.56 160.618H118.56V162.357ZM108.123 172.794L106.384 172.794L106.384 172.794L108.123 172.794ZM108.123 192.798L106.384 192.798V192.798H108.123ZM118.56 203.234L118.56 204.974L118.56 204.974L118.56 203.234ZM122.438 203.234V201.495H125.529L123.925 204.137L122.438 203.234ZM113.341 214.105L113.183 215.838L109.259 215.481L112.167 212.822L113.341 214.105ZM124.213 211.062L125.076 212.572L125.076 212.572L124.213 211.062ZM134.504 203.234L133.343 201.939L133.838 201.495H134.504V203.234ZM138.563 203.234L138.563 204.974H138.563V203.234ZM149 192.798L150.739 192.798L150.739 192.798L149 192.798ZM149 172.794L150.739 172.794V172.794H149ZM138.563 162.357L138.563 160.618L138.563 160.618L138.563 162.357ZM118.56 162.357L118.56 164.097C113.756 164.097 109.862 167.991 109.862 172.794L108.123 172.794L106.384 172.794C106.384 166.069 111.835 160.618 118.56 160.618L118.56 162.357ZM108.123 172.794H109.862V192.798H108.123H106.384V172.794H108.123ZM108.123 192.798L109.862 192.798C109.863 197.601 113.757 201.495 118.56 201.495L118.56 203.234L118.56 204.974C111.835 204.974 106.384 199.522 106.384 192.798L108.123 192.798ZM118.56 203.234V201.495H122.438V203.234V204.974H118.56V203.234ZM122.438 203.234L123.925 204.137C122.099 207.145 119.739 209.958 117.864 211.999C116.921 213.024 116.09 213.866 115.492 214.454C115.193 214.748 114.952 214.979 114.784 215.138C114.7 215.217 114.634 215.278 114.589 215.321C114.566 215.342 114.548 215.358 114.536 215.37C114.53 215.375 114.525 215.38 114.521 215.383C114.519 215.385 114.518 215.386 114.517 215.387C114.516 215.388 114.516 215.388 114.515 215.388C114.515 215.389 114.515 215.389 114.515 215.389C114.515 215.389 114.515 215.389 113.341 214.105C112.167 212.822 112.167 212.822 112.167 212.822C112.167 212.822 112.167 212.822 112.167 212.822C112.167 212.822 112.167 212.822 112.167 212.822C112.167 212.822 112.168 212.821 112.169 212.82C112.17 212.819 112.174 212.816 112.178 212.812C112.187 212.803 112.201 212.79 112.221 212.772C112.259 212.736 112.317 212.682 112.394 212.61C112.547 212.465 112.771 212.25 113.053 211.973C113.617 211.419 114.407 210.619 115.303 209.644C117.106 207.683 119.295 205.061 120.952 202.332L122.438 203.234ZM113.341 214.105C113.498 212.373 113.498 212.373 113.497 212.373C113.497 212.373 113.496 212.373 113.496 212.373C113.495 212.373 113.494 212.373 113.493 212.373C113.492 212.373 113.491 212.373 113.49 212.372C113.489 212.372 113.489 212.372 113.489 212.372C113.491 212.373 113.497 212.373 113.507 212.374C113.528 212.375 113.566 212.377 113.62 212.379C113.73 212.383 113.905 212.386 114.14 212.38C114.61 212.368 115.317 212.321 116.208 212.172C117.988 211.876 120.506 211.176 123.35 209.551L124.213 211.062L125.076 212.572C121.831 214.426 118.913 215.248 116.78 215.604C115.714 215.781 114.844 215.843 114.227 215.858C113.918 215.866 113.672 215.862 113.496 215.856C113.408 215.853 113.337 215.849 113.285 215.845C113.259 215.844 113.237 215.842 113.22 215.841C113.212 215.84 113.204 215.84 113.198 215.839C113.195 215.839 113.192 215.839 113.19 215.838C113.189 215.838 113.187 215.838 113.186 215.838C113.186 215.838 113.185 215.838 113.185 215.838C113.184 215.838 113.183 215.838 113.341 214.105ZM124.213 211.062L123.35 209.551C126.324 207.852 130.257 204.705 133.343 201.939L134.504 203.234L135.665 204.53C132.527 207.342 128.375 210.686 125.076 212.572L124.213 211.062ZM134.504 203.234V201.495H138.563V203.234V204.974H134.504V203.234ZM138.563 203.234L138.563 201.495C143.367 201.495 147.26 197.601 147.261 192.798L149 192.798L150.739 192.798C150.739 199.522 145.288 204.974 138.563 204.974L138.563 203.234ZM149 192.798H147.261V172.794H149H150.739V192.798H149ZM149 172.794L147.261 172.794C147.261 167.991 143.367 164.097 138.563 164.097L138.563 162.357L138.563 160.618C145.288 160.618 150.739 166.069 150.739 172.794L149 172.794ZM138.563 162.357V164.097H118.56V162.357V160.618H138.563V162.357Z" fill="black"/>
<path d="M166 99C172.627 99 178 104.373 178 111V134C178 140.627 172.627 146 166 146H161.54C165.545 152.597 172 158.5 172 158.5C172 158.5 166.5 159 159.5 155C155.894 152.939 151.245 149.207 147.667 146H143C136.373 146 131 140.627 131 134V111C131 104.373 136.373 99 143 99H166Z" fill="white"/>
<path d="M161.54 146V144H157.986L159.83 147.038L161.54 146ZM172 158.5L172.181 160.492L176.693 160.082L173.35 157.024L172 158.5ZM159.5 155L160.492 153.264L160.492 153.264L159.5 155ZM147.667 146L149.002 144.511L148.432 144H147.667V146ZM166 99V101C171.523 101 176 105.477 176 111H178H180C180 103.268 173.732 97 166 97V99ZM178 111H176V134H178H180V111H178ZM178 134H176C176 139.523 171.523 144 166 144V146V148C173.732 148 180 141.732 180 134H178ZM166 146V144H161.54V146V148H166V146ZM161.54 146L159.83 147.038C161.93 150.496 164.643 153.731 166.799 156.077C167.883 157.257 168.839 158.225 169.527 158.901C169.87 159.239 170.148 159.504 170.341 159.687C170.437 159.778 170.513 159.848 170.565 159.897C170.591 159.921 170.612 159.94 170.626 159.953C170.633 159.96 170.639 159.965 170.643 159.969C170.645 159.971 170.646 159.972 170.648 159.974C170.648 159.974 170.649 159.975 170.649 159.975C170.65 159.975 170.65 159.975 170.65 159.976C170.65 159.976 170.65 159.976 172 158.5C173.35 157.024 173.35 157.024 173.35 157.024C173.35 157.024 173.35 157.024 173.35 157.024C173.35 157.025 173.35 157.024 173.35 157.024C173.35 157.024 173.349 157.023 173.348 157.022C173.346 157.02 173.342 157.017 173.337 157.012C173.326 157.003 173.31 156.988 173.288 156.967C173.244 156.926 173.177 156.863 173.089 156.78C172.913 156.614 172.655 156.367 172.331 156.048C171.683 155.411 170.775 154.491 169.744 153.37C167.672 151.115 165.155 148.1 163.25 144.962L161.54 146ZM172 158.5C171.819 156.508 171.82 156.508 171.82 156.508C171.821 156.508 171.821 156.508 171.822 156.508C171.823 156.508 171.824 156.508 171.824 156.508C171.826 156.508 171.827 156.507 171.828 156.507C171.83 156.507 171.83 156.507 171.829 156.507C171.828 156.507 171.821 156.508 171.809 156.509C171.785 156.51 171.741 156.513 171.679 156.515C171.553 156.519 171.351 156.523 171.081 156.516C170.541 156.503 169.728 156.448 168.704 156.277C166.657 155.936 163.762 155.132 160.492 153.264L159.5 155L158.508 156.736C162.238 158.868 165.593 159.814 168.046 160.223C169.272 160.427 170.272 160.497 170.981 160.515C171.336 160.524 171.619 160.52 171.821 160.512C171.923 160.509 172.004 160.504 172.064 160.501C172.094 160.499 172.119 160.497 172.139 160.495C172.148 160.495 172.157 160.494 172.164 160.493C172.167 160.493 172.171 160.493 172.174 160.492C172.175 160.492 172.176 160.492 172.178 160.492C172.178 160.492 172.179 160.492 172.179 160.492C172.18 160.492 172.181 160.492 172 158.5ZM159.5 155L160.492 153.264C157.073 151.31 152.55 147.691 149.002 144.511L147.667 146L146.332 147.489C149.94 150.723 154.714 154.569 158.508 156.736L159.5 155ZM147.667 146V144H143V146V148H147.667V146ZM143 146V144C137.477 144 133 139.523 133 134H131H129C129 141.732 135.268 148 143 148V146ZM131 134H133V111H131H129V134H131ZM131 111H133C133 105.477 137.477 101 143 101V99V97C135.268 97 129 103.268 129 111H131ZM143 99V101H166V99V97H143V99Z" fill="black"/>
<path d="M130.941 189.617H125.961C125.948 188.901 125.941 188.465 125.941 188.309C125.941 186.694 126.208 185.366 126.742 184.324C127.276 183.283 128.344 182.111 129.945 180.809C131.547 179.507 132.504 178.654 132.816 178.25C133.298 177.612 133.539 176.909 133.539 176.141C133.539 175.073 133.109 174.161 132.25 173.406C131.404 172.638 130.258 172.254 128.812 172.254C127.419 172.254 126.254 172.651 125.316 173.445C124.379 174.24 123.734 175.451 123.383 177.078L118.344 176.453C118.487 174.122 119.477 172.143 121.312 170.516C123.161 168.888 125.583 168.074 128.578 168.074C131.729 168.074 134.236 168.901 136.098 170.555C137.96 172.195 138.891 174.109 138.891 176.297C138.891 177.508 138.546 178.654 137.855 179.734C137.178 180.815 135.72 182.286 133.48 184.148C132.322 185.112 131.599 185.887 131.312 186.473C131.039 187.059 130.915 188.107 130.941 189.617ZM125.961 197V191.512H131.449V197H125.961Z" fill="black"/>
</svg>
