<svg width="312" height="312" viewBox="0 0 312 312" fill="none" xmlns="http://www.w3.org/2000/svg">
<rect x="6" y="6" width="300" height="300" rx="20" fill="#FFF0E2"/>
<rect x="6" y="6" width="300" height="300" rx="20" stroke="#FF7602" stroke-width="11"/>
<path d="M78.0195 58V29.3672H83.5078V39.6797C85.2005 37.7526 87.2057 36.7891 89.5234 36.7891C92.0495 36.7891 94.1393 37.707 95.793 39.543C97.4466 41.3659 98.2734 43.9896 98.2734 47.4141C98.2734 50.9557 97.4271 53.6836 95.7344 55.5977C94.0547 57.5117 92.0104 58.4688 89.6016 58.4688C88.4167 58.4688 87.2448 58.1758 86.0859 57.5898C84.9401 56.9909 83.9505 56.112 83.1172 54.9531V58H78.0195ZM83.4688 47.1797C83.4688 49.3281 83.8073 50.9167 84.4844 51.9453C85.4349 53.4036 86.6979 54.1328 88.2734 54.1328C89.4844 54.1328 90.513 53.6185 91.3594 52.5898C92.2188 51.5482 92.6484 49.9141 92.6484 47.6875C92.6484 45.3177 92.2188 43.612 91.3594 42.5703C90.5 41.5156 89.3997 40.9883 88.0586 40.9883C86.7435 40.9883 85.6497 41.5026 84.7773 42.5312C83.9049 43.5469 83.4688 45.0964 83.4688 47.1797ZM114.719 51.3984L120.188 52.3164C119.484 54.3216 118.371 55.8516 116.848 56.9062C115.337 57.9479 113.443 58.4688 111.164 58.4688C107.557 58.4688 104.888 57.2904 103.156 54.9336C101.789 53.0456 101.105 50.6628 101.105 47.7852C101.105 44.3477 102.004 41.6589 103.801 39.7188C105.598 37.7656 107.87 36.7891 110.617 36.7891C113.703 36.7891 116.138 37.8112 117.922 39.8555C119.706 41.8867 120.559 45.0052 120.48 49.2109H106.73C106.77 50.8385 107.212 52.1081 108.059 53.0195C108.905 53.918 109.96 54.3672 111.223 54.3672C112.082 54.3672 112.805 54.1328 113.391 53.6641C113.977 53.1953 114.419 52.4401 114.719 51.3984ZM115.031 45.8516C114.992 44.263 114.582 43.0586 113.801 42.2383C113.02 41.4049 112.069 40.9883 110.949 40.9883C109.751 40.9883 108.762 41.4245 107.98 42.2969C107.199 43.1693 106.815 44.3542 106.828 45.8516H115.031ZM143.059 43.3906L137.648 44.3672C137.466 43.2865 137.049 42.4727 136.398 41.9258C135.76 41.3789 134.927 41.1055 133.898 41.1055C132.531 41.1055 131.438 41.5807 130.617 42.5312C129.81 43.4688 129.406 45.0443 129.406 47.2578C129.406 49.7188 129.816 51.457 130.637 52.4727C131.47 53.4883 132.583 53.9961 133.977 53.9961C135.018 53.9961 135.871 53.7031 136.535 53.1172C137.199 52.5182 137.668 51.4961 137.941 50.0508L143.332 50.9688C142.772 53.4427 141.698 55.3112 140.109 56.5742C138.521 57.8372 136.392 58.4688 133.723 58.4688C130.689 58.4688 128.267 57.5117 126.457 55.5977C124.66 53.6836 123.762 51.0339 123.762 47.6484C123.762 44.224 124.667 41.5612 126.477 39.6602C128.286 37.7461 130.734 36.7891 133.82 36.7891C136.346 36.7891 138.352 37.3359 139.836 38.4297C141.333 39.5104 142.408 41.1641 143.059 43.3906ZM151.34 43.5859L146.359 42.6875C146.919 40.6823 147.883 39.1979 149.25 38.2344C150.617 37.2708 152.648 36.7891 155.344 36.7891C157.792 36.7891 159.615 37.082 160.812 37.668C162.01 38.2409 162.85 38.9766 163.332 39.875C163.827 40.7604 164.074 42.3945 164.074 44.7773L164.016 51.1836C164.016 53.0065 164.1 54.3542 164.27 55.2266C164.452 56.0859 164.784 57.0104 165.266 58H159.836C159.693 57.6354 159.517 57.0951 159.309 56.3789C159.217 56.0534 159.152 55.8385 159.113 55.7344C158.176 56.6458 157.173 57.3294 156.105 57.7852C155.038 58.2409 153.898 58.4688 152.688 58.4688C150.552 58.4688 148.866 57.8893 147.629 56.7305C146.405 55.5716 145.793 54.1068 145.793 52.3359C145.793 51.1641 146.073 50.1224 146.633 49.2109C147.193 48.2865 147.974 47.5833 148.977 47.1016C149.992 46.6068 151.451 46.1771 153.352 45.8125C155.917 45.3307 157.694 44.8815 158.684 44.4648V43.918C158.684 42.8633 158.423 42.1146 157.902 41.6719C157.382 41.2161 156.398 40.9883 154.953 40.9883C153.977 40.9883 153.215 41.1836 152.668 41.5742C152.121 41.9518 151.678 42.6224 151.34 43.5859ZM158.684 48.0391C157.98 48.2734 156.867 48.5534 155.344 48.8789C153.82 49.2044 152.824 49.5234 152.355 49.8359C151.639 50.3438 151.281 50.9883 151.281 51.7695C151.281 52.5378 151.568 53.2018 152.141 53.7617C152.714 54.3216 153.443 54.6016 154.328 54.6016C155.318 54.6016 156.262 54.276 157.16 53.625C157.824 53.1302 158.26 52.5247 158.469 51.8086C158.612 51.3398 158.684 50.4479 158.684 49.1328V48.0391ZM183.156 58V54.8945C182.401 56.0013 181.405 56.8737 180.168 57.5117C178.944 58.1497 177.648 58.4688 176.281 58.4688C174.888 58.4688 173.638 58.1628 172.531 57.5508C171.424 56.9388 170.624 56.0794 170.129 54.9727C169.634 53.8659 169.387 52.3359 169.387 50.3828V37.2578H174.875V46.7891C174.875 49.7057 174.973 51.4961 175.168 52.1602C175.376 52.8112 175.747 53.332 176.281 53.7227C176.815 54.1003 177.492 54.2891 178.312 54.2891C179.25 54.2891 180.09 54.0352 180.832 53.5273C181.574 53.0065 182.082 52.3685 182.355 51.6133C182.629 50.8451 182.766 48.9766 182.766 46.0078V37.2578H188.254V58H183.156ZM192.023 52.082L197.531 51.2422C197.766 52.3099 198.241 53.1237 198.957 53.6836C199.673 54.2305 200.676 54.5039 201.965 54.5039C203.384 54.5039 204.452 54.2435 205.168 53.7227C205.65 53.3581 205.891 52.8698 205.891 52.2578C205.891 51.8411 205.76 51.4961 205.5 51.2227C205.227 50.9622 204.615 50.7214 203.664 50.5C199.237 49.5234 196.431 48.6315 195.246 47.8242C193.605 46.7044 192.785 45.1484 192.785 43.1562C192.785 41.3594 193.495 39.849 194.914 38.625C196.333 37.401 198.534 36.7891 201.516 36.7891C204.354 36.7891 206.464 37.2513 207.844 38.1758C209.224 39.1003 210.174 40.4674 210.695 42.2773L205.52 43.2344C205.298 42.4271 204.875 41.8086 204.25 41.3789C203.638 40.9492 202.759 40.7344 201.613 40.7344C200.168 40.7344 199.133 40.9362 198.508 41.3398C198.091 41.6263 197.883 41.9974 197.883 42.4531C197.883 42.8438 198.065 43.1758 198.43 43.4492C198.924 43.8138 200.63 44.3281 203.547 44.9922C206.477 45.6562 208.521 46.4701 209.68 47.4336C210.826 48.4102 211.398 49.7708 211.398 51.5156C211.398 53.4167 210.604 55.0508 209.016 56.418C207.427 57.7852 205.077 58.4688 201.965 58.4688C199.139 58.4688 196.9 57.8958 195.246 56.75C193.605 55.6042 192.531 54.0482 192.023 52.082ZM228.234 51.3984L233.703 52.3164C233 54.3216 231.887 55.8516 230.363 56.9062C228.853 57.9479 226.958 58.4688 224.68 58.4688C221.073 58.4688 218.404 57.2904 216.672 54.9336C215.305 53.0456 214.621 50.6628 214.621 47.7852C214.621 44.3477 215.52 41.6589 217.316 39.7188C219.113 37.7656 221.385 36.7891 224.133 36.7891C227.219 36.7891 229.654 37.8112 231.438 39.8555C233.221 41.8867 234.074 45.0052 233.996 49.2109H220.246C220.285 50.8385 220.728 52.1081 221.574 53.0195C222.421 53.918 223.475 54.3672 224.738 54.3672C225.598 54.3672 226.32 54.1328 226.906 53.6641C227.492 53.1953 227.935 52.4401 228.234 51.3984ZM228.547 45.8516C228.508 44.263 228.098 43.0586 227.316 42.2383C226.535 41.4049 225.585 40.9883 224.465 40.9883C223.267 40.9883 222.277 41.4245 221.496 42.2969C220.715 43.1693 220.331 44.3542 220.344 45.8516H228.547Z" fill="black"/>
<path d="M215.046 164.518L198.987 173.95L197.593 174.769L198.101 176.303C200.29 182.913 209.018 196 226.6 196C237.546 196 247.15 190.617 253.972 183.195C260.776 175.795 265 166.167 265 157.349C265 148.829 262.715 138.119 257.477 129.471C252.205 120.768 243.817 114 231.733 114C221.128 114 214.616 116.556 210.353 119.743C208.238 121.324 206.741 123.013 205.603 124.496C205.083 125.174 204.632 125.816 204.248 126.364C204.217 126.409 204.185 126.454 204.154 126.498C203.733 127.098 203.422 127.533 203.144 127.86C201.692 129.566 198.73 133.386 196.124 137.262C194.82 139.2 193.579 141.193 192.655 142.968C192.193 143.855 191.794 144.721 191.505 145.521C191.228 146.29 191 147.14 191 147.952C191 148.744 191.189 149.511 191.633 150.182C192.071 150.844 192.662 151.266 193.227 151.538C194.239 152.025 195.458 152.148 196.259 152.228L196.3 152.232C197.141 152.317 197.654 152.371 197.996 152.464C197.973 153.401 197.845 154.576 197.704 155.862C197.614 156.677 197.52 157.538 197.445 158.411C197.351 159.501 197.287 160.648 197.377 161.562C197.42 161.997 197.514 162.587 197.791 163.124C198.106 163.735 198.815 164.518 200 164.518H215.046ZM198.239 152.551C198.239 152.551 198.238 152.551 198.237 152.55C198.238 152.551 198.239 152.551 198.239 152.551Z" fill="#E4B692" stroke="black" stroke-width="4"/>
<circle cx="220.5" cy="139.5" r="5.5" fill="black"/>
<path d="M89.1036 217.587L102.868 225.672L104.063 226.373L103.627 227.689C101.752 233.354 94.2702 244.571 79.2 244.571C69.8177 244.571 61.5859 239.957 55.738 233.596C49.9065 227.253 46.2857 219.001 46.2857 211.442C46.2857 204.139 48.2439 194.959 52.7337 187.547C57.2526 180.087 64.4422 174.286 74.8 174.286C83.89 174.286 89.4718 176.476 93.1264 179.208C94.939 180.563 96.2222 182.011 97.1976 183.282C97.6434 183.863 98.0295 184.414 98.3584 184.883C98.3858 184.922 98.4127 184.961 98.4393 184.999C98.7999 185.513 99.0665 185.885 99.3054 186.166C100.55 187.628 103.089 190.902 105.323 194.225C106.44 195.886 107.504 197.594 108.296 199.116C108.691 199.876 109.034 200.618 109.281 201.304C109.519 201.963 109.714 202.692 109.714 203.387C109.714 204.066 109.552 204.724 109.172 205.299C108.796 205.866 108.29 206.228 107.806 206.461C106.938 206.879 105.893 206.984 105.207 207.053L105.172 207.056C104.45 207.129 104.011 207.176 103.717 207.255C103.737 208.058 103.847 209.065 103.968 210.167C104.045 210.866 104.126 211.604 104.19 212.352C104.271 213.286 104.326 214.27 104.248 215.053C104.212 215.426 104.131 215.931 103.893 216.392C103.624 216.916 103.016 217.587 102 217.587H89.1036ZM103.509 207.33C103.509 207.33 103.51 207.329 103.511 207.329C103.51 207.329 103.509 207.33 103.509 207.33Z" fill="white" fill-opacity="0.66" stroke="black" stroke-width="3.42857"/>
<circle cx="4.71429" cy="4.71429" r="4.71429" transform="matrix(-1 0 0 1 89.1429 191.429)" fill="black"/>
<path fill-rule="evenodd" clip-rule="evenodd" d="M144.563 168.357C150.327 168.357 155 173.03 155 178.794V198.797C155 204.561 150.327 209.234 144.563 209.234H140.505C137.393 212.023 133.349 215.269 130.213 217.061C124.125 220.54 119.341 220.105 119.341 220.105C119.341 220.105 124.958 214.972 128.441 209.234H124.56C118.796 209.234 114.123 204.561 114.123 198.797V178.794C114.123 173.03 118.796 168.357 124.56 168.357H144.563Z" fill="white"/>
<path d="M140.505 209.234L139.344 207.939L139.84 207.494H140.505V209.234ZM130.213 217.061L131.076 218.572L131.076 218.572L130.213 217.061ZM119.341 220.105L119.184 221.838L115.258 221.481L118.168 218.821L119.341 220.105ZM128.441 209.234V207.494H131.532L129.928 210.136L128.441 209.234ZM153.261 178.794C153.261 173.991 149.367 170.097 144.563 170.097V166.618C151.288 166.618 156.739 172.069 156.739 178.794H153.261ZM153.261 198.797V178.794H156.739V198.797H153.261ZM144.563 207.494C149.367 207.494 153.261 203.601 153.261 198.797H156.739C156.739 205.522 151.288 210.973 144.563 210.973V207.494ZM140.505 207.494H144.563V210.973H140.505V207.494ZM129.35 215.551C132.324 213.852 136.258 210.705 139.344 207.939L141.666 210.529C138.528 213.341 134.375 216.686 131.076 218.572L129.35 215.551ZM119.341 220.105C119.499 218.373 119.498 218.373 119.497 218.373C119.497 218.373 119.496 218.373 119.496 218.373C119.495 218.373 119.495 218.373 119.494 218.373C119.493 218.372 119.492 218.372 119.491 218.372C119.489 218.372 119.489 218.372 119.49 218.372C119.491 218.372 119.497 218.373 119.507 218.373C119.528 218.375 119.566 218.377 119.621 218.379C119.73 218.383 119.905 218.386 120.14 218.38C120.61 218.368 121.317 218.321 122.208 218.172C123.988 217.875 126.506 217.176 129.35 215.551L131.076 218.572C127.831 220.426 124.913 221.248 122.78 221.604C121.714 221.781 120.844 221.842 120.227 221.858C119.919 221.865 119.673 221.862 119.497 221.855C119.409 221.852 119.338 221.849 119.285 221.845C119.259 221.844 119.238 221.842 119.221 221.841C119.212 221.84 119.205 221.839 119.199 221.839C119.196 221.839 119.193 221.838 119.19 221.838C119.189 221.838 119.188 221.838 119.187 221.838C119.186 221.838 119.185 221.838 119.185 221.838C119.184 221.838 119.184 221.838 119.341 220.105ZM129.928 210.136C128.102 213.145 125.741 215.958 123.865 217.999C122.922 219.024 122.09 219.867 121.492 220.454C121.193 220.748 120.952 220.979 120.784 221.138C120.7 221.217 120.634 221.278 120.589 221.321C120.566 221.342 120.548 221.358 120.536 221.37C120.53 221.375 120.525 221.38 120.521 221.383C120.52 221.385 120.518 221.386 120.517 221.387C120.516 221.388 120.516 221.388 120.516 221.388C120.515 221.389 120.515 221.389 120.515 221.389C120.515 221.389 120.515 221.389 119.341 220.105C118.168 218.821 118.168 218.821 118.167 218.822C118.167 218.822 118.167 218.822 118.167 218.822C118.167 218.822 118.167 218.822 118.168 218.822C118.168 218.821 118.168 218.821 118.169 218.82C118.171 218.818 118.174 218.815 118.179 218.811C118.188 218.803 118.202 218.79 118.221 218.772C118.26 218.736 118.318 218.682 118.395 218.609C118.547 218.465 118.772 218.25 119.054 217.973C119.618 217.419 120.408 216.619 121.305 215.644C123.108 213.683 125.297 211.061 126.954 208.331L129.928 210.136ZM124.56 207.494H128.441V210.973H124.56V207.494ZM115.863 198.797C115.863 203.601 119.757 207.494 124.56 207.494V210.973C117.835 210.973 112.384 205.522 112.384 198.797H115.863ZM115.863 178.794V198.797H112.384V178.794H115.863ZM124.56 170.097C119.757 170.097 115.863 173.991 115.863 178.794H112.384C112.384 172.069 117.835 166.618 124.56 166.618V170.097ZM144.563 170.097H124.56V166.618H144.563V170.097Z" fill="black"/>
<path fill-rule="evenodd" clip-rule="evenodd" d="M149 105C142.373 105 137 110.373 137 117V140C137 146.627 142.373 152 149 152H153.666C157.244 155.207 161.893 158.939 165.5 161C172.5 165 178 164.5 178 164.5C178 164.5 171.542 158.597 167.537 152H172C178.627 152 184 146.627 184 140V117C184 110.373 178.627 105 172 105H149Z" fill="white"/>
<path d="M153.666 152L155.001 150.511L154.431 150H153.666V152ZM165.5 161L166.492 159.264L166.492 159.264L165.5 161ZM178 164.5L178.181 166.492L182.695 166.081L179.349 163.024L178 164.5ZM167.537 152V150H163.983L165.827 153.038L167.537 152ZM139 117C139 111.477 143.477 107 149 107V103C141.268 103 135 109.268 135 117H139ZM139 140V117H135V140H139ZM149 150C143.477 150 139 145.523 139 140H135C135 147.732 141.268 154 149 154V150ZM153.666 150H149V154H153.666V150ZM166.492 159.264C163.073 157.309 158.549 153.691 155.001 150.511L152.331 153.489C155.939 156.723 160.714 160.569 164.508 162.736L166.492 159.264ZM178 164.5C177.819 162.508 177.82 162.508 177.82 162.508C177.821 162.508 177.821 162.508 177.822 162.508C177.823 162.508 177.824 162.508 177.824 162.508C177.826 162.508 177.827 162.507 177.828 162.507C177.83 162.507 177.83 162.507 177.829 162.507C177.828 162.507 177.821 162.508 177.809 162.509C177.785 162.51 177.741 162.513 177.679 162.515C177.553 162.519 177.351 162.523 177.081 162.516C176.541 162.503 175.728 162.448 174.704 162.277C172.657 161.936 169.762 161.132 166.492 159.264L164.508 162.736C168.238 164.868 171.593 165.814 174.046 166.223C175.272 166.427 176.272 166.497 176.981 166.515C177.336 166.524 177.619 166.52 177.821 166.512C177.923 166.509 178.004 166.504 178.064 166.501C178.094 166.499 178.119 166.497 178.139 166.495C178.148 166.495 178.157 166.494 178.164 166.493C178.167 166.493 178.171 166.493 178.174 166.492C178.175 166.492 178.176 166.492 178.178 166.492C178.178 166.492 178.179 166.492 178.179 166.492C178.18 166.492 178.181 166.492 178 164.5ZM165.827 153.038C167.927 156.497 170.641 159.732 172.798 162.078C173.882 163.257 174.839 164.225 175.527 164.901C175.871 165.239 176.148 165.505 176.341 165.687C176.437 165.778 176.513 165.849 176.565 165.897C176.592 165.922 176.612 165.941 176.626 165.954C176.633 165.96 176.639 165.966 176.643 165.969C176.645 165.971 176.647 165.973 176.648 165.974C176.649 165.974 176.649 165.975 176.65 165.975C176.65 165.976 176.65 165.976 176.65 165.976C176.651 165.976 176.651 165.976 178 164.5C179.349 163.024 179.349 163.024 179.35 163.024C179.35 163.024 179.35 163.024 179.35 163.024C179.35 163.024 179.35 163.024 179.35 163.024C179.349 163.024 179.349 163.023 179.347 163.022C179.345 163.02 179.342 163.017 179.336 163.012C179.326 163.002 179.31 162.987 179.288 162.967C179.243 162.926 179.176 162.863 179.088 162.78C178.913 162.614 178.654 162.367 178.33 162.048C177.682 161.411 176.773 160.491 175.742 159.37C173.669 157.115 171.152 154.101 169.247 150.962L165.827 153.038ZM172 150H167.537V154H172V150ZM182 140C182 145.523 177.523 150 172 150V154C179.732 154 186 147.732 186 140H182ZM182 117V140H186V117H182ZM172 107C177.523 107 182 111.477 182 117H186C186 109.268 179.732 103 172 103V107ZM149 107H172V103H149V107Z" fill="black"/>
<path d="M136.941 195.617H131.961C131.948 194.901 131.941 194.465 131.941 194.309C131.941 192.694 132.208 191.366 132.742 190.324C133.276 189.283 134.344 188.111 135.945 186.809C137.547 185.507 138.504 184.654 138.816 184.25C139.298 183.612 139.539 182.909 139.539 182.141C139.539 181.073 139.109 180.161 138.25 179.406C137.404 178.638 136.258 178.254 134.812 178.254C133.419 178.254 132.254 178.651 131.316 179.445C130.379 180.24 129.734 181.451 129.383 183.078L124.344 182.453C124.487 180.122 125.477 178.143 127.312 176.516C129.161 174.888 131.583 174.074 134.578 174.074C137.729 174.074 140.236 174.901 142.098 176.555C143.96 178.195 144.891 180.109 144.891 182.297C144.891 183.508 144.546 184.654 143.855 185.734C143.178 186.815 141.72 188.286 139.48 190.148C138.322 191.112 137.599 191.887 137.312 192.473C137.039 193.059 136.915 194.107 136.941 195.617ZM131.961 203V197.512H137.449V203H131.961Z" fill="black"/>
</svg>
