<svg width="300" height="300" viewBox="0 0 300 300" fill="none" xmlns="http://www.w3.org/2000/svg">
<path d="M83.5008 125.584C83.7888 120.976 86.4768 117.52 91.2768 118.864C95.8848 120.112 95.2128 124.432 95.3088 128.272V141.52C95.2128 143.44 95.3088 145.552 95.3088 145.552C95.3088 145.552 99.7248 145.552 101.549 145.456C115.661 145.36 121.421 154.096 121.229 166.096C121.037 180.304 112.109 186.544 98.3808 186.544C82.5408 186.544 83.5008 188.08 83.5008 167.248C83.5008 157.36 83.5968 147.568 83.5008 137.776C83.5008 135.088 83.2128 132.688 83.5008 125.584ZM101.453 175.792C105.101 175.6 107.309 174.736 108.749 172.912C111.629 168.976 111.821 161.776 107.789 158.416C104.141 155.344 101.069 155.92 95.5008 156.112V167.632L95.3088 175.6C95.3088 175.6 98.6688 175.984 101.453 175.792ZM168.421 163.408C168.037 171.76 168.037 181.36 159.781 185.2C152.581 188.656 142.885 188.176 136.741 184.336C130.501 180.592 129.541 171.376 129.253 164.656C128.965 160.24 128.965 155.92 129.253 151.6C129.349 148.24 128.773 142.672 132.229 140.848C136.069 138.832 139.813 140.656 140.485 146.224C140.869 149.2 140.677 153.04 140.869 156.016C141.253 164.752 140.101 178.096 152.581 174.448C155.461 173.584 156.229 170.128 156.229 163.12C156.229 157.072 155.653 147.184 156.709 143.824C157.957 139.312 165.925 139.024 167.365 143.536C168.805 147.664 168.613 156.784 168.421 163.408ZM215.238 143.92C216.198 146.32 215.334 149.968 213.126 150.832C210.918 151.792 204.774 152.176 201.606 152.272C201.894 159.952 202.182 168.784 201.99 174.352C201.99 178.288 202.182 185.008 199.59 185.968C195.654 187.6 192.006 186.64 190.662 184.624C188.55 181.36 188.838 175.216 188.934 171.856C189.03 166.48 189.126 159.28 189.126 152.368H187.686C184.614 152.368 177.51 152.272 175.686 150.064C172.806 146.704 174.918 141.904 178.182 141.04C180.486 140.464 185.286 140.464 189.03 140.56C188.934 139.312 188.934 138.064 188.838 136.912C188.646 133.744 188.55 126.832 191.43 124.624C195.27 121.552 199.686 124.336 200.646 127.888C201.51 130.864 201.414 136.816 201.414 140.56H202.374C206.118 140.656 213.318 139.312 215.238 143.92Z" fill="black"/>
</svg>
