<svg width="312" height="312" viewBox="0 0 312 312" fill="none" xmlns="http://www.w3.org/2000/svg">
<rect x="6" y="6" width="300" height="300" rx="20" fill="#FFF0E2"/>
<rect x="6" y="6" width="300" height="300" rx="20" stroke="#FF7602" stroke-width="11"/>
<path d="M89.5008 131.584C89.7888 126.976 92.4768 123.52 97.2768 124.864C101.885 126.112 101.213 130.432 101.309 134.272V147.52C101.213 149.44 101.309 151.552 101.309 151.552C101.309 151.552 105.725 151.552 107.549 151.456C121.661 151.36 127.421 160.096 127.229 172.096C127.037 186.304 118.109 192.544 104.381 192.544C88.5408 192.544 89.5008 194.08 89.5008 173.248C89.5008 163.36 89.5968 153.568 89.5008 143.776C89.5008 141.088 89.2128 138.688 89.5008 131.584ZM107.453 181.792C111.101 181.6 113.309 180.736 114.749 178.912C117.629 174.976 117.821 167.776 113.789 164.416C110.141 161.344 107.069 161.92 101.501 162.112V173.632L101.309 181.6C101.309 181.6 104.669 181.984 107.453 181.792ZM174.421 169.408C174.037 177.76 174.037 187.36 165.781 191.2C158.581 194.656 148.885 194.176 142.741 190.336C136.501 186.592 135.541 177.376 135.253 170.656C134.965 166.24 134.965 161.92 135.253 157.6C135.349 154.24 134.773 148.672 138.229 146.848C142.069 144.832 145.813 146.656 146.485 152.224C146.869 155.2 146.677 159.04 146.869 162.016C147.253 170.752 146.101 184.096 158.581 180.448C161.461 179.584 162.229 176.128 162.229 169.12C162.229 163.072 161.653 153.184 162.709 149.824C163.957 145.312 171.925 145.024 173.365 149.536C174.805 153.664 174.613 162.784 174.421 169.408ZM221.238 149.92C222.198 152.32 221.334 155.968 219.126 156.832C216.918 157.792 210.774 158.176 207.606 158.272C207.894 165.952 208.182 174.784 207.99 180.352C207.99 184.288 208.182 191.008 205.59 191.968C201.654 193.6 198.006 192.64 196.662 190.624C194.55 187.36 194.838 181.216 194.934 177.856C195.03 172.48 195.126 165.28 195.126 158.368H193.686C190.614 158.368 183.51 158.272 181.686 156.064C178.806 152.704 180.918 147.904 184.182 147.04C186.486 146.464 191.286 146.464 195.03 146.56C194.934 145.312 194.934 144.064 194.838 142.912C194.646 139.744 194.55 132.832 197.43 130.624C201.27 127.552 205.686 130.336 206.646 133.888C207.51 136.864 207.414 142.816 207.414 146.56H208.374C212.118 146.656 219.318 145.312 221.238 149.92Z" fill="black"/>
</svg>
