<svg width="300" height="300" viewBox="0 0 300 300" fill="none" xmlns="http://www.w3.org/2000/svg">
<rect x="5.5" y="5.5" width="289" height="289" rx="14.5" fill="#FFE3FF"/>
<rect x="5.5" y="5.5" width="289" height="289" rx="14.5" stroke="#FE05FC" stroke-width="11"/>
<path d="M115.693 150.296C116.653 152.024 116.749 154.232 115.789 156.056C114.637 158.36 112.429 159.128 109.837 158.552C107.437 157.976 106.669 155.768 102.925 155.192C101.005 154.904 98.5086 155.192 96.7806 155.96C91.2126 158.84 89.8686 168.248 93.9966 172.952C95.5326 174.776 98.3166 176.024 100.621 176.216C102.829 176.504 105.037 176.12 107.053 175.448C108.589 174.776 110.701 173.336 112.429 173.144C116.941 173.048 117.709 178.712 115.501 181.496C113.965 183.416 110.701 185.336 108.205 186.104C105.133 187.064 101.005 187.16 97.7406 186.776C96.2046 186.584 94.4766 186.104 92.9406 185.624C81.6126 181.592 77.8686 169.784 80.8446 159.32C83.6286 149.24 89.3886 146.168 98.0286 144.248C102.541 143.384 107.917 144.344 111.853 146.744C113.293 147.512 114.733 148.856 115.693 150.296ZM135.556 146.84C143.332 142.904 152.74 143.48 159.268 149.816C162.628 153.176 164.26 157.112 165.028 161.912C165.988 168.44 170.116 173.144 171.556 179.384C172.228 182.36 171.172 185.624 167.908 186.2C163.972 186.968 161.188 182.744 159.46 179.96C156.484 183.8 153.22 185.816 148.42 186.488C144.292 186.968 140.836 186.776 136.612 185.624C125.668 182.744 122.5 170.744 125.284 160.28C127.108 153.368 130.852 149.144 135.556 146.84ZM137.956 158.072C134.308 161.528 133.924 168.536 136.804 172.664C138.052 174.488 141.508 175.832 144.868 176.024C152.548 176.504 156.676 165.56 152.548 158.936C149.572 154.04 141.604 154.52 137.956 158.072ZM179.639 166.808V152.984C179.639 150.008 179.255 146.456 180.407 143.768C181.463 141.368 184.151 140.216 186.455 140.792C191.159 141.56 191.063 145.016 191.255 148.472C193.751 143.96 199.607 142.808 201.719 142.712C206.615 142.712 211.799 144.92 214.967 148.76C218.519 153.272 218.423 158.936 218.711 164.504C218.999 168.536 218.999 172.664 218.711 176.696C218.519 179.96 219.191 186.296 215.447 187.064C210.071 188.216 208.919 185.816 208.247 182.264C207.671 179.384 207.671 174.584 207.575 171.608C207.575 169.208 207.383 166.04 207.479 163.448C207.479 157.496 204.119 154.136 198.743 154.616C194.615 155.096 191.063 158.072 191.159 162.392C191.255 165.656 190.967 167.768 191.063 171.896C191.063 176.12 191.351 181.304 190.199 184.28C189.239 187.352 186.551 188.696 183.287 186.968C180.503 185.336 180.215 181.4 180.023 178.616C179.639 174.392 179.639 171.032 179.639 166.808Z" fill="black"/>
</svg>
