<svg width="300" height="300" viewBox="0 0 300 300" fill="none" xmlns="http://www.w3.org/2000/svg">
<path d="M118.172 37.3906L112.762 38.3672C112.579 37.2865 112.163 36.4727 111.512 35.9258C110.874 35.3789 110.04 35.1055 109.012 35.1055C107.645 35.1055 106.551 35.5807 105.73 36.5312C104.923 37.4688 104.52 39.0443 104.52 41.2578C104.52 43.7188 104.93 45.457 105.75 46.4727C106.583 47.4883 107.697 47.9961 109.09 47.9961C110.132 47.9961 110.984 47.7031 111.648 47.1172C112.312 46.5182 112.781 45.4961 113.055 44.0508L118.445 44.9688C117.885 47.4427 116.811 49.3112 115.223 50.5742C113.634 51.8372 111.505 52.4688 108.836 52.4688C105.802 52.4688 103.38 51.5117 101.57 49.5977C99.7734 47.6836 98.875 45.0339 98.875 41.6484C98.875 38.224 99.7799 35.5612 101.59 33.6602C103.4 31.7461 105.848 30.7891 108.934 30.7891C111.46 30.7891 113.465 31.3359 114.949 32.4297C116.447 33.5104 117.521 35.1641 118.172 37.3906ZM121.082 41.3359C121.082 39.513 121.531 37.7487 122.43 36.043C123.328 34.3372 124.598 33.0352 126.238 32.1367C127.892 31.2383 129.734 30.7891 131.766 30.7891C134.904 30.7891 137.475 31.8112 139.48 33.8555C141.486 35.8867 142.488 38.4583 142.488 41.5703C142.488 44.7083 141.473 47.3125 139.441 49.3828C137.423 51.4401 134.878 52.4688 131.805 52.4688C129.904 52.4688 128.087 52.0391 126.355 51.1797C124.637 50.3203 123.328 49.0638 122.43 47.4102C121.531 45.7435 121.082 43.7188 121.082 41.3359ZM126.707 41.6289C126.707 43.6862 127.195 45.2617 128.172 46.3555C129.148 47.4492 130.353 47.9961 131.785 47.9961C133.217 47.9961 134.415 47.4492 135.379 46.3555C136.355 45.2617 136.844 43.6732 136.844 41.5898C136.844 39.5586 136.355 37.9961 135.379 36.9023C134.415 35.8086 133.217 35.2617 131.785 35.2617C130.353 35.2617 129.148 35.8086 128.172 36.9023C127.195 37.9961 126.707 39.5716 126.707 41.6289ZM146.395 31.2578H151.453V34.0898C153.263 31.8893 155.418 30.7891 157.918 30.7891C159.246 30.7891 160.398 31.0625 161.375 31.6094C162.352 32.1562 163.152 32.9831 163.777 34.0898C164.689 32.9831 165.672 32.1562 166.727 31.6094C167.781 31.0625 168.908 30.7891 170.105 30.7891C171.629 30.7891 172.918 31.1016 173.973 31.7266C175.027 32.3385 175.815 33.2435 176.336 34.4414C176.714 35.3268 176.902 36.7591 176.902 38.7383V52H171.414V40.1445C171.414 38.0872 171.225 36.7591 170.848 36.1602C170.34 35.3789 169.559 34.9883 168.504 34.9883C167.736 34.9883 167.013 35.2227 166.336 35.6914C165.659 36.1602 165.171 36.8503 164.871 37.7617C164.572 38.6602 164.422 40.0859 164.422 42.0391V52H158.934V40.6328C158.934 38.6146 158.836 37.3125 158.641 36.7266C158.445 36.1406 158.139 35.7044 157.723 35.418C157.319 35.1315 156.766 34.9883 156.062 34.9883C155.216 34.9883 154.454 35.2161 153.777 35.6719C153.1 36.1276 152.612 36.7852 152.312 37.6445C152.026 38.5039 151.883 39.9297 151.883 41.9219V52H146.395V31.2578ZM194.402 45.3984L199.871 46.3164C199.168 48.3216 198.055 49.8516 196.531 50.9062C195.021 51.9479 193.126 52.4688 190.848 52.4688C187.241 52.4688 184.572 51.2904 182.84 48.9336C181.473 47.0456 180.789 44.6628 180.789 41.7852C180.789 38.3477 181.688 35.6589 183.484 33.7188C185.281 31.7656 187.553 30.7891 190.301 30.7891C193.387 30.7891 195.822 31.8112 197.605 33.8555C199.389 35.8867 200.242 39.0052 200.164 43.2109H186.414C186.453 44.8385 186.896 46.1081 187.742 47.0195C188.589 47.918 189.643 48.3672 190.906 48.3672C191.766 48.3672 192.488 48.1328 193.074 47.6641C193.66 47.1953 194.103 46.4401 194.402 45.3984ZM194.715 39.8516C194.676 38.263 194.266 37.0586 193.484 36.2383C192.703 35.4049 191.753 34.9883 190.633 34.9883C189.435 34.9883 188.445 35.4245 187.664 36.2969C186.883 37.1693 186.499 38.3542 186.512 39.8516H194.715Z" fill="black"/>
<path d="M148.434 85.6345C173.087 84.9788 194.126 106.905 194.879 135.217C195.632 163.529 175.788 186.541 151.135 187.197C126.483 187.853 105.444 165.928 104.691 137.616C103.938 109.304 123.781 86.2905 148.434 85.6345Z" fill="#BC8166" stroke="black" stroke-width="4.87675"/>
<path d="M127.541 156C129.892 159.469 136.903 166.597 146.139 167.356C155.375 168.115 164.629 162.898 168.102 160.194" stroke="black" stroke-width="5.58965" stroke-linecap="round"/>
<path d="M169.271 119.945C170.881 120.632 171.334 122.201 170.903 123.213C170.471 124.224 169.026 124.983 167.415 124.296C165.804 123.61 165.35 122.041 165.782 121.029C166.213 120.017 167.66 119.258 169.271 119.945Z" fill="black" stroke="black" stroke-width="5.87382"/>
<path d="M133.922 113.852C135.648 114.145 136.454 115.565 136.27 116.65C136.086 117.734 134.857 118.809 133.131 118.516C131.404 118.223 130.597 116.803 130.782 115.718C130.966 114.634 132.196 113.559 133.922 113.852Z" fill="black" stroke="black" stroke-width="5.87382"/>
<path d="M145.5 187C144.165 189.917 142.46 194.095 140.754 199M145.5 282C142 275.167 134.7 257 133.5 239C132.656 226.34 136.709 210.629 140.754 199M140.754 199L171.5 273.5M140.754 199L98 231L73.5 236C70.3333 235.5 63.1 232.4 59.5 224" stroke="black" stroke-width="5" stroke-linecap="round"/>
<path d="M78.8289 218C79.4581 219.049 83 217 84.1996 219.5C85.5 220.943 85.1711 225.329 81 229.5C76.8289 233.671 78.4139 234.5 73.1996 234.5C67.9853 234.5 64.8571 234.5 60.6857 230.329C56.7147 226.358 56.514 224.071 51.2995 220.943C46.0849 217.814 44 211.726 44 208.429C44 205.3 45.0425 198 48.171 198C51.2996 198 52.3423 200.086 51.2995 205.3C50.2566 210.514 52.3423 211.557 54.428 213.643C56.5137 215.729 60.8511 213.649 62.5 212C65.5 209 69 205.028 71.1996 206C75.6528 207.968 72.1571 210.957 73.1996 212C74.8482 213.649 76.4581 210.188 78.8289 213.094C81.1996 216 78.1996 216.951 78.8289 218Z" fill="black" stroke="black" stroke-width="2.08571" stroke-linecap="round"/>
<rect x="25" y="218.433" width="11" height="3" transform="rotate(-7.48762 25 218.433)" fill="#B92429"/>
<rect x="26.5664" y="202" width="11" height="3" transform="rotate(10.8752 26.5664 202)" fill="#B92429"/>
<rect x="25.1484" y="210" width="11" height="3" transform="rotate(2.83146 25.1484 210)" fill="#B92429"/>
<rect x="33.8809" y="185.594" width="11" height="3" transform="rotate(34.7876 33.8809 185.594)" fill="#B92429"/>
<rect x="29.1602" y="194" width="11" height="3" transform="rotate(22.7383 29.1602 194)" fill="#B92429"/>
<rect x="40.8535" y="177.937" width="11" height="3" transform="rotate(46.6065 40.8535 177.937)" fill="#B92429"/>
<path d="M56.6061 171.062L50.949 189.255L38.0217 175.259L56.6061 171.062Z" fill="#B92429"/>
</svg>
