<svg width="312" height="312" viewBox="0 0 312 312" fill="none" xmlns="http://www.w3.org/2000/svg">
<rect x="6" y="6" width="300" height="300" rx="20" fill="#FFE3FF"/>
<rect x="6" y="6" width="300" height="300" rx="20" stroke="#FE05FC" stroke-width="11"/>
<path d="M124.172 43.3906L118.762 44.3672C118.579 43.2865 118.163 42.4727 117.512 41.9258C116.874 41.3789 116.04 41.1055 115.012 41.1055C113.645 41.1055 112.551 41.5807 111.73 42.5312C110.923 43.4688 110.52 45.0443 110.52 47.2578C110.52 49.7188 110.93 51.457 111.75 52.4727C112.583 53.4883 113.697 53.9961 115.09 53.9961C116.132 53.9961 116.984 53.7031 117.648 53.1172C118.312 52.5182 118.781 51.4961 119.055 50.0508L124.445 50.9688C123.885 53.4427 122.811 55.3112 121.223 56.5742C119.634 57.8372 117.505 58.4688 114.836 58.4688C111.802 58.4688 109.38 57.5117 107.57 55.5977C105.773 53.6836 104.875 51.0339 104.875 47.6484C104.875 44.224 105.78 41.5612 107.59 39.6602C109.4 37.7461 111.848 36.7891 114.934 36.7891C117.46 36.7891 119.465 37.3359 120.949 38.4297C122.447 39.5104 123.521 41.1641 124.172 43.3906ZM127.082 47.3359C127.082 45.513 127.531 43.7487 128.43 42.043C129.328 40.3372 130.598 39.0352 132.238 38.1367C133.892 37.2383 135.734 36.7891 137.766 36.7891C140.904 36.7891 143.475 37.8112 145.48 39.8555C147.486 41.8867 148.488 44.4583 148.488 47.5703C148.488 50.7083 147.473 53.3125 145.441 55.3828C143.423 57.4401 140.878 58.4688 137.805 58.4688C135.904 58.4688 134.087 58.0391 132.355 57.1797C130.637 56.3203 129.328 55.0638 128.43 53.4102C127.531 51.7435 127.082 49.7188 127.082 47.3359ZM132.707 47.6289C132.707 49.6862 133.195 51.2617 134.172 52.3555C135.148 53.4492 136.353 53.9961 137.785 53.9961C139.217 53.9961 140.415 53.4492 141.379 52.3555C142.355 51.2617 142.844 49.6732 142.844 47.5898C142.844 45.5586 142.355 43.9961 141.379 42.9023C140.415 41.8086 139.217 41.2617 137.785 41.2617C136.353 41.2617 135.148 41.8086 134.172 42.9023C133.195 43.9961 132.707 45.5716 132.707 47.6289ZM152.395 37.2578H157.453V40.0898C159.263 37.8893 161.418 36.7891 163.918 36.7891C165.246 36.7891 166.398 37.0625 167.375 37.6094C168.352 38.1562 169.152 38.9831 169.777 40.0898C170.689 38.9831 171.672 38.1562 172.727 37.6094C173.781 37.0625 174.908 36.7891 176.105 36.7891C177.629 36.7891 178.918 37.1016 179.973 37.7266C181.027 38.3385 181.815 39.2435 182.336 40.4414C182.714 41.3268 182.902 42.7591 182.902 44.7383V58H177.414V46.1445C177.414 44.0872 177.225 42.7591 176.848 42.1602C176.34 41.3789 175.559 40.9883 174.504 40.9883C173.736 40.9883 173.013 41.2227 172.336 41.6914C171.659 42.1602 171.171 42.8503 170.871 43.7617C170.572 44.6602 170.422 46.0859 170.422 48.0391V58H164.934V46.6328C164.934 44.6146 164.836 43.3125 164.641 42.7266C164.445 42.1406 164.139 41.7044 163.723 41.418C163.319 41.1315 162.766 40.9883 162.062 40.9883C161.216 40.9883 160.454 41.2161 159.777 41.6719C159.1 42.1276 158.612 42.7852 158.312 43.6445C158.026 44.5039 157.883 45.9297 157.883 47.9219V58H152.395V37.2578ZM200.402 51.3984L205.871 52.3164C205.168 54.3216 204.055 55.8516 202.531 56.9062C201.021 57.9479 199.126 58.4688 196.848 58.4688C193.241 58.4688 190.572 57.2904 188.84 54.9336C187.473 53.0456 186.789 50.6628 186.789 47.7852C186.789 44.3477 187.688 41.6589 189.484 39.7188C191.281 37.7656 193.553 36.7891 196.301 36.7891C199.387 36.7891 201.822 37.8112 203.605 39.8555C205.389 41.8867 206.242 45.0052 206.164 49.2109H192.414C192.453 50.8385 192.896 52.1081 193.742 53.0195C194.589 53.918 195.643 54.3672 196.906 54.3672C197.766 54.3672 198.488 54.1328 199.074 53.6641C199.66 53.1953 200.103 52.4401 200.402 51.3984ZM200.715 45.8516C200.676 44.263 200.266 43.0586 199.484 42.2383C198.703 41.4049 197.753 40.9883 196.633 40.9883C195.435 40.9883 194.445 41.4245 193.664 42.2969C192.883 43.1693 192.499 44.3542 192.512 45.8516H200.715Z" fill="black"/>
<path d="M200.88 141.216C201.633 169.529 181.789 192.542 157.136 193.197C132.483 193.853 111.445 171.927 110.692 143.615C109.939 115.303 129.782 92.2901 154.435 91.6343C179.088 90.9786 200.127 112.904 200.88 141.216Z" fill="#BC8166" stroke="black" stroke-width="4.87675"/>
<path d="M133.541 162C135.892 165.469 142.903 172.597 152.139 173.356C161.375 174.115 170.629 168.898 174.102 166.194" stroke="black" stroke-width="5.58965" stroke-linecap="round"/>
<path d="M176.902 129.213C176.47 130.225 175.025 130.983 173.414 130.296C171.803 129.609 171.35 128.041 171.781 127.029C172.213 126.017 173.658 125.258 175.269 125.945C176.88 126.632 177.333 128.201 176.902 129.213Z" fill="black" stroke="black" stroke-width="5.87382"/>
<path d="M142.271 122.65C142.087 123.735 140.858 124.809 139.131 124.516C137.404 124.223 136.599 122.803 136.783 121.719C136.967 120.634 138.196 119.56 139.922 119.853C141.649 120.146 142.455 121.565 142.271 122.65Z" fill="black" stroke="black" stroke-width="5.87382"/>
<path d="M151.5 193C150.165 195.917 148.46 200.095 146.754 205M151.5 288C148 281.167 140.7 263 139.5 245C138.656 232.34 142.709 216.629 146.754 205M146.754 205L177.5 279.5M146.754 205L104 237L79.5 242C76.3333 241.5 69.1 238.4 65.5 230" stroke="black" stroke-width="5" stroke-linecap="round"/>
<path d="M84.8289 224C85.4581 225.049 89 223 90.1996 225.5C91.5 226.943 91.1711 231.329 87 235.5C82.8289 239.671 84.4139 240.5 79.1996 240.5C73.9853 240.5 70.8571 240.5 66.6857 236.329C62.7147 232.358 62.514 230.071 57.2995 226.943C52.0849 223.814 50 217.726 50 214.429C50 211.3 51.0425 204 54.171 204C57.2996 204 58.3423 206.086 57.2995 211.3C56.2566 216.514 58.3423 217.557 60.428 219.643C62.5137 221.729 66.8511 219.649 68.5 218C71.5 215 75 211.028 77.1996 212C81.6528 213.968 78.1571 216.957 79.1996 218C80.8482 219.649 82.4581 216.188 84.8289 219.094C87.1996 222 84.1996 222.951 84.8289 224Z" fill="black" stroke="black" stroke-width="2.08571" stroke-linecap="round"/>
<rect x="31" y="224.433" width="11" height="3" transform="rotate(-7.48762 31 224.433)" fill="#B92429"/>
<rect x="32.5659" y="208" width="11" height="3" transform="rotate(10.8752 32.5659 208)" fill="#B92429"/>
<rect x="31.1482" y="216" width="11" height="3" transform="rotate(2.83146 31.1482 216)" fill="#B92429"/>
<rect x="39.8811" y="191.594" width="11" height="3" transform="rotate(34.7876 39.8811 191.594)" fill="#B92429"/>
<rect x="35.1597" y="200" width="11" height="3" transform="rotate(22.7383 35.1597 200)" fill="#B92429"/>
<rect x="46.8538" y="183.937" width="11" height="3" transform="rotate(46.6065 46.8538 183.937)" fill="#B92429"/>
<path d="M62.6057 177.061L56.9485 195.255L44.0212 181.259L62.6057 177.061Z" fill="#B92429"/>
</svg>
