<svg width="312" height="312" viewBox="0 0 312 312" fill="none" xmlns="http://www.w3.org/2000/svg">
<rect x="6" y="6" width="300" height="300" rx="20" fill="#E3F4FF"/>
<rect x="6" y="6" width="300" height="300" rx="20" stroke="#1684D9" stroke-width="11"/>
<path d="M97.3359 58H92.2383V54.9531C91.3919 56.138 90.3893 57.0234 89.2305 57.6094C88.0846 58.1823 86.9258 58.4688 85.7539 58.4688C83.3711 58.4688 81.3268 57.5117 79.6211 55.5977C77.9284 53.6706 77.082 50.9883 77.082 47.5508C77.082 44.0352 77.9089 41.3659 79.5625 39.543C81.2161 37.707 83.306 36.7891 85.832 36.7891C88.1497 36.7891 90.1549 37.7526 91.8477 39.6797V29.3672H97.3359V58ZM82.6875 47.1797C82.6875 49.3932 82.9935 50.9948 83.6055 51.9844C84.4909 53.4167 85.7279 54.1328 87.3164 54.1328C88.5794 54.1328 89.6536 53.599 90.5391 52.5312C91.4245 51.4505 91.8672 49.8424 91.8672 47.707C91.8672 45.3242 91.4375 43.612 90.5781 42.5703C89.7188 41.5156 88.6185 40.9883 87.2773 40.9883C85.9753 40.9883 84.8815 41.5091 83.9961 42.5508C83.1237 43.5794 82.6875 45.1224 82.6875 47.1797ZM102.766 34.4453V29.3672H108.254V34.4453H102.766ZM102.766 58V37.2578H108.254V58H102.766ZM111.496 37.2578H114.543V35.6953C114.543 33.9505 114.725 32.6484 115.09 31.7891C115.467 30.9297 116.151 30.2331 117.141 29.6992C118.143 29.1523 119.406 28.8789 120.93 28.8789C122.492 28.8789 124.022 29.1133 125.52 29.582L124.777 33.4102C123.905 33.2018 123.065 33.0977 122.258 33.0977C121.464 33.0977 120.891 33.2865 120.539 33.6641C120.201 34.0286 120.031 34.7383 120.031 35.793V37.2578H124.133V41.5742H120.031V58H114.543V41.5742H111.496V37.2578ZM124.816 37.2578H127.863V35.6953C127.863 33.9505 128.046 32.6484 128.41 31.7891C128.788 30.9297 129.471 30.2331 130.461 29.6992C131.464 29.1523 132.727 28.8789 134.25 28.8789C135.812 28.8789 137.342 29.1133 138.84 29.582L138.098 33.4102C137.225 33.2018 136.385 33.0977 135.578 33.0977C134.784 33.0977 134.211 33.2865 133.859 33.6641C133.521 34.0286 133.352 34.7383 133.352 35.793V37.2578H137.453V41.5742H133.352V58H127.863V41.5742H124.816V37.2578ZM152.551 51.3984L158.02 52.3164C157.316 54.3216 156.203 55.8516 154.68 56.9062C153.169 57.9479 151.275 58.4688 148.996 58.4688C145.389 58.4688 142.72 57.2904 140.988 54.9336C139.621 53.0456 138.938 50.6628 138.938 47.7852C138.938 44.3477 139.836 41.6589 141.633 39.7188C143.43 37.7656 145.702 36.7891 148.449 36.7891C151.535 36.7891 153.97 37.8112 155.754 39.8555C157.538 41.8867 158.391 45.0052 158.312 49.2109H144.562C144.602 50.8385 145.044 52.1081 145.891 53.0195C146.737 53.918 147.792 54.3672 149.055 54.3672C149.914 54.3672 150.637 54.1328 151.223 53.6641C151.809 53.1953 152.251 52.4401 152.551 51.3984ZM152.863 45.8516C152.824 44.263 152.414 43.0586 151.633 42.2383C150.852 41.4049 149.901 40.9883 148.781 40.9883C147.583 40.9883 146.594 41.4245 145.812 42.2969C145.031 43.1693 144.647 44.3542 144.66 45.8516H152.863ZM168.059 58H162.57V37.2578H167.668V40.207C168.54 38.8138 169.322 37.8958 170.012 37.4531C170.715 37.0104 171.509 36.7891 172.395 36.7891C173.645 36.7891 174.849 37.1341 176.008 37.8242L174.309 42.6094C173.384 42.0104 172.525 41.7109 171.73 41.7109C170.962 41.7109 170.311 41.9258 169.777 42.3555C169.243 42.7721 168.82 43.5339 168.508 44.6406C168.208 45.7474 168.059 48.0651 168.059 51.5938V58ZM190.402 51.3984L195.871 52.3164C195.168 54.3216 194.055 55.8516 192.531 56.9062C191.021 57.9479 189.126 58.4688 186.848 58.4688C183.241 58.4688 180.572 57.2904 178.84 54.9336C177.473 53.0456 176.789 50.6628 176.789 47.7852C176.789 44.3477 177.688 41.6589 179.484 39.7188C181.281 37.7656 183.553 36.7891 186.301 36.7891C189.387 36.7891 191.822 37.8112 193.605 39.8555C195.389 41.8867 196.242 45.0052 196.164 49.2109H182.414C182.453 50.8385 182.896 52.1081 183.742 53.0195C184.589 53.918 185.643 54.3672 186.906 54.3672C187.766 54.3672 188.488 54.1328 189.074 53.6641C189.66 53.1953 190.103 52.4401 190.402 51.3984ZM190.715 45.8516C190.676 44.263 190.266 43.0586 189.484 42.2383C188.703 41.4049 187.753 40.9883 186.633 40.9883C185.435 40.9883 184.445 41.4245 183.664 42.2969C182.883 43.1693 182.499 44.3542 182.512 45.8516H190.715ZM219.523 58H214.035V47.4141C214.035 45.1745 213.918 43.7292 213.684 43.0781C213.449 42.4141 213.065 41.8997 212.531 41.5352C212.01 41.1706 211.379 40.9883 210.637 40.9883C209.686 40.9883 208.833 41.2487 208.078 41.7695C207.323 42.2904 206.802 42.9805 206.516 43.8398C206.242 44.6992 206.105 46.2878 206.105 48.6055V58H200.617V37.2578H205.715V40.3047C207.525 37.9609 209.803 36.7891 212.551 36.7891C213.762 36.7891 214.868 37.0104 215.871 37.4531C216.874 37.8828 217.629 38.4362 218.137 39.1133C218.658 39.7904 219.016 40.5586 219.211 41.418C219.419 42.2773 219.523 43.5078 219.523 45.1094V58ZM234.621 37.2578V41.6328H230.871V49.9922C230.871 51.6849 230.904 52.6745 230.969 52.9609C231.047 53.2344 231.21 53.4622 231.457 53.6445C231.717 53.8268 232.03 53.918 232.395 53.918C232.902 53.918 233.638 53.7422 234.602 53.3906L235.07 57.6484C233.794 58.1953 232.349 58.4688 230.734 58.4688C229.745 58.4688 228.853 58.306 228.059 57.9805C227.264 57.6419 226.678 57.2122 226.301 56.6914C225.936 56.1576 225.682 55.4414 225.539 54.543C225.422 53.9049 225.363 52.6159 225.363 50.6758V41.6328H222.844V37.2578H225.363V33.1367L230.871 29.9336V37.2578H234.621Z" fill="black"/>
<rect x="50.5" y="136.5" width="84" height="84" fill="#B92429" stroke="black" stroke-width="7"/>
<circle cx="219.5" cy="178.5" r="42" fill="#1684D9" stroke="black" stroke-width="7"/>
</svg>
