<svg width="300" height="300" viewBox="0 0 300 300" fill="none" xmlns="http://www.w3.org/2000/svg">
<path d="M91.3359 52H86.2383V48.9531C85.3919 50.138 84.3893 51.0234 83.2305 51.6094C82.0846 52.1823 80.9258 52.4688 79.7539 52.4688C77.3711 52.4688 75.3268 51.5117 73.6211 49.5977C71.9284 47.6706 71.082 44.9883 71.082 41.5508C71.082 38.0352 71.9089 35.3659 73.5625 33.543C75.2161 31.707 77.306 30.7891 79.832 30.7891C82.1497 30.7891 84.1549 31.7526 85.8477 33.6797V23.3672H91.3359V52ZM76.6875 41.1797C76.6875 43.3932 76.9935 44.9948 77.6055 45.9844C78.4909 47.4167 79.7279 48.1328 81.3164 48.1328C82.5794 48.1328 83.6536 47.599 84.5391 46.5312C85.4245 45.4505 85.8672 43.8424 85.8672 41.707C85.8672 39.3242 85.4375 37.612 84.5781 36.5703C83.7188 35.5156 82.6185 34.9883 81.2773 34.9883C79.9753 34.9883 78.8815 35.5091 77.9961 36.5508C77.1237 37.5794 76.6875 39.1224 76.6875 41.1797ZM96.7656 28.4453V23.3672H102.254V28.4453H96.7656ZM96.7656 52V31.2578H102.254V52H96.7656ZM105.496 31.2578H108.543V29.6953C108.543 27.9505 108.725 26.6484 109.09 25.7891C109.467 24.9297 110.151 24.2331 111.141 23.6992C112.143 23.1523 113.406 22.8789 114.93 22.8789C116.492 22.8789 118.022 23.1133 119.52 23.582L118.777 27.4102C117.905 27.2018 117.065 27.0977 116.258 27.0977C115.464 27.0977 114.891 27.2865 114.539 27.6641C114.201 28.0286 114.031 28.7383 114.031 29.793V31.2578H118.133V35.5742H114.031V52H108.543V35.5742H105.496V31.2578ZM118.816 31.2578H121.863V29.6953C121.863 27.9505 122.046 26.6484 122.41 25.7891C122.788 24.9297 123.471 24.2331 124.461 23.6992C125.464 23.1523 126.727 22.8789 128.25 22.8789C129.812 22.8789 131.342 23.1133 132.84 23.582L132.098 27.4102C131.225 27.2018 130.385 27.0977 129.578 27.0977C128.784 27.0977 128.211 27.2865 127.859 27.6641C127.521 28.0286 127.352 28.7383 127.352 29.793V31.2578H131.453V35.5742H127.352V52H121.863V35.5742H118.816V31.2578ZM146.551 45.3984L152.02 46.3164C151.316 48.3216 150.203 49.8516 148.68 50.9062C147.169 51.9479 145.275 52.4688 142.996 52.4688C139.389 52.4688 136.72 51.2904 134.988 48.9336C133.621 47.0456 132.938 44.6628 132.938 41.7852C132.938 38.3477 133.836 35.6589 135.633 33.7188C137.43 31.7656 139.702 30.7891 142.449 30.7891C145.535 30.7891 147.97 31.8112 149.754 33.8555C151.538 35.8867 152.391 39.0052 152.312 43.2109H138.562C138.602 44.8385 139.044 46.1081 139.891 47.0195C140.737 47.918 141.792 48.3672 143.055 48.3672C143.914 48.3672 144.637 48.1328 145.223 47.6641C145.809 47.1953 146.251 46.4401 146.551 45.3984ZM146.863 39.8516C146.824 38.263 146.414 37.0586 145.633 36.2383C144.852 35.4049 143.901 34.9883 142.781 34.9883C141.583 34.9883 140.594 35.4245 139.812 36.2969C139.031 37.1693 138.647 38.3542 138.66 39.8516H146.863ZM162.059 52H156.57V31.2578H161.668V34.207C162.54 32.8138 163.322 31.8958 164.012 31.4531C164.715 31.0104 165.509 30.7891 166.395 30.7891C167.645 30.7891 168.849 31.1341 170.008 31.8242L168.309 36.6094C167.384 36.0104 166.525 35.7109 165.73 35.7109C164.962 35.7109 164.311 35.9258 163.777 36.3555C163.243 36.7721 162.82 37.5339 162.508 38.6406C162.208 39.7474 162.059 42.0651 162.059 45.5938V52ZM184.402 45.3984L189.871 46.3164C189.168 48.3216 188.055 49.8516 186.531 50.9062C185.021 51.9479 183.126 52.4688 180.848 52.4688C177.241 52.4688 174.572 51.2904 172.84 48.9336C171.473 47.0456 170.789 44.6628 170.789 41.7852C170.789 38.3477 171.688 35.6589 173.484 33.7188C175.281 31.7656 177.553 30.7891 180.301 30.7891C183.387 30.7891 185.822 31.8112 187.605 33.8555C189.389 35.8867 190.242 39.0052 190.164 43.2109H176.414C176.453 44.8385 176.896 46.1081 177.742 47.0195C178.589 47.918 179.643 48.3672 180.906 48.3672C181.766 48.3672 182.488 48.1328 183.074 47.6641C183.66 47.1953 184.103 46.4401 184.402 45.3984ZM184.715 39.8516C184.676 38.263 184.266 37.0586 183.484 36.2383C182.703 35.4049 181.753 34.9883 180.633 34.9883C179.435 34.9883 178.445 35.4245 177.664 36.2969C176.883 37.1693 176.499 38.3542 176.512 39.8516H184.715ZM213.523 52H208.035V41.4141C208.035 39.1745 207.918 37.7292 207.684 37.0781C207.449 36.4141 207.065 35.8997 206.531 35.5352C206.01 35.1706 205.379 34.9883 204.637 34.9883C203.686 34.9883 202.833 35.2487 202.078 35.7695C201.323 36.2904 200.802 36.9805 200.516 37.8398C200.242 38.6992 200.105 40.2878 200.105 42.6055V52H194.617V31.2578H199.715V34.3047C201.525 31.9609 203.803 30.7891 206.551 30.7891C207.762 30.7891 208.868 31.0104 209.871 31.4531C210.874 31.8828 211.629 32.4362 212.137 33.1133C212.658 33.7904 213.016 34.5586 213.211 35.418C213.419 36.2773 213.523 37.5078 213.523 39.1094V52ZM228.621 31.2578V35.6328H224.871V43.9922C224.871 45.6849 224.904 46.6745 224.969 46.9609C225.047 47.2344 225.21 47.4622 225.457 47.6445C225.717 47.8268 226.03 47.918 226.395 47.918C226.902 47.918 227.638 47.7422 228.602 47.3906L229.07 51.6484C227.794 52.1953 226.349 52.4688 224.734 52.4688C223.745 52.4688 222.853 52.306 222.059 51.9805C221.264 51.6419 220.678 51.2122 220.301 50.6914C219.936 50.1576 219.682 49.4414 219.539 48.543C219.422 47.9049 219.363 46.6159 219.363 44.6758V35.6328H216.844V31.2578H219.363V27.1367L224.871 23.9336V31.2578H228.621Z" fill="black"/>
<rect x="44.5" y="130.5" width="84" height="84" fill="#B92429" stroke="black" stroke-width="7"/>
<circle cx="213.5" cy="172.5" r="42" fill="#1684D9" stroke="black" stroke-width="7"/>
</svg>
