<svg width="312" height="312" viewBox="0 0 312 312" fill="none" xmlns="http://www.w3.org/2000/svg">
<rect x="6" y="6" width="300" height="300" rx="20" fill="#FFE3FF"/>
<rect x="6" y="6" width="300" height="300" rx="20" stroke="#FE05FC" stroke-width="11"/>
<path d="M152.941 58H147.844V54.9531C146.997 56.138 145.995 57.0234 144.836 57.6094C143.69 58.1823 142.531 58.4688 141.359 58.4688C138.977 58.4688 136.932 57.5117 135.227 55.5977C133.534 53.6706 132.688 50.9883 132.688 47.5508C132.688 44.0352 133.514 41.3659 135.168 39.543C136.822 37.707 138.911 36.7891 141.438 36.7891C143.755 36.7891 145.76 37.7526 147.453 39.6797V29.3672H152.941V58ZM138.293 47.1797C138.293 49.3932 138.599 50.9948 139.211 51.9844C140.096 53.4167 141.333 54.1328 142.922 54.1328C144.185 54.1328 145.259 53.599 146.145 52.5312C147.03 51.4505 147.473 49.8424 147.473 47.707C147.473 45.3242 147.043 43.612 146.184 42.5703C145.324 41.5156 144.224 40.9883 142.883 40.9883C141.581 40.9883 140.487 41.5091 139.602 42.5508C138.729 43.5794 138.293 45.1224 138.293 47.1797ZM157.102 47.3359C157.102 45.513 157.551 43.7487 158.449 42.043C159.348 40.3372 160.617 39.0352 162.258 38.1367C163.911 37.2383 165.754 36.7891 167.785 36.7891C170.923 36.7891 173.495 37.8112 175.5 39.8555C177.505 41.8867 178.508 44.4583 178.508 47.5703C178.508 50.7083 177.492 53.3125 175.461 55.3828C173.443 57.4401 170.897 58.4688 167.824 58.4688C165.923 58.4688 164.107 58.0391 162.375 57.1797C160.656 56.3203 159.348 55.0638 158.449 53.4102C157.551 51.7435 157.102 49.7188 157.102 47.3359ZM162.727 47.6289C162.727 49.6862 163.215 51.2617 164.191 52.3555C165.168 53.4492 166.372 53.9961 167.805 53.9961C169.237 53.9961 170.435 53.4492 171.398 52.3555C172.375 51.2617 172.863 49.6732 172.863 47.5898C172.863 45.5586 172.375 43.9961 171.398 42.9023C170.435 41.8086 169.237 41.2617 167.805 41.2617C166.372 41.2617 165.168 41.8086 164.191 42.9023C163.215 43.9961 162.727 45.5716 162.727 47.6289Z" fill="black"/>
<path d="M94.1406 272.042C96.2869 269.829 92.9772 265.883 85.5714 254.416C82.9785 250.401 76.0818 252.565 74.1401 255.037C72.1984 257.51 64.7505 274.424 66.1723 275.572C69.2187 278.032 69.59 272.612 74.8247 267.236C73.6153 278.938 72.4537 285.4 76.017 285.903C79.5803 286.406 77.8491 278.688 81.4243 267.709C82.8471 275.379 84.3065 284.386 87.6315 283.426C90.9566 282.466 87.0036 274.179 86.4586 264.416C88.2796 268.116 91.9943 274.255 94.1406 272.042Z" fill="black" stroke="black" stroke-width="0.53766"/>
<path d="M231.266 194.946C228.572 196.92 219.774 187.986 212.317 179.511C212.002 172.435 217.928 169.689 222.417 167.008C226.907 164.327 234.963 158.589 236.846 162.196C238.729 165.803 234.497 163.959 227.735 171.35C238.046 171.036 249.17 169.411 248.867 173.2C248.563 176.988 240.103 176.442 227.735 177.346C236.722 180.137 245.287 182.213 243.339 186.004C241.95 188.706 235.842 186.234 224.055 184.276C228.078 187.052 233.96 192.971 231.266 194.946Z" fill="black" stroke="black" stroke-width="0.653714"/>
<path d="M161.638 135.627C158.332 155.742 141.186 169.321 123.67 166.442C106.153 163.564 94.2533 145.213 97.5588 125.097C100.864 104.981 118.011 91.403 135.527 94.2812C153.043 97.1595 164.943 115.511 161.638 135.627Z" fill="#BC8166" stroke="black" stroke-width="3.51018"/>
<circle cx="147.344" cy="118.661" r="5.07026" fill="black"/>
<path d="M151.147 155.421C145.443 155.632 133.147 154.026 129.598 145.914" stroke="black" stroke-width="3.8027" stroke-linecap="round"/>
<path d="M125.795 169.364C127.044 172.609 128.355 178.327 128.964 184.096M104.247 274.572C117.556 244.784 125.795 215.63 128.964 195.349C129.471 192.109 129.386 188.09 128.964 184.096M217.06 177.603H160.654L128.964 184.096M128.964 184.096L89.036 214.362L80.1631 256.192" stroke="black" stroke-width="5.07026" stroke-linecap="round"/>
</svg>
