<svg width="300" height="300" viewBox="0 0 300 300" fill="none" xmlns="http://www.w3.org/2000/svg">
<rect width="300" height="300" fill="white"/>
<path d="M143.328 52V49.3828C142.013 51.4401 140.079 52.4688 137.527 52.4688C135.874 52.4688 134.35 52.013 132.957 51.1016C131.577 50.1901 130.503 48.9206 129.734 47.293C128.979 45.6523 128.602 43.7708 128.602 41.6484C128.602 39.5781 128.947 37.7031 129.637 36.0234C130.327 34.3307 131.362 33.0352 132.742 32.1367C134.122 31.2383 135.665 30.7891 137.371 30.7891C138.621 30.7891 139.734 31.056 140.711 31.5898C141.688 32.1107 142.482 32.7943 143.094 33.6406V23.3672H146.59V52H143.328ZM132.215 41.6484C132.215 44.3047 132.775 46.2904 133.895 47.6055C135.014 48.9206 136.336 49.5781 137.859 49.5781C139.396 49.5781 140.698 48.9531 141.766 47.7031C142.846 46.4401 143.387 44.5195 143.387 41.9414C143.387 39.1029 142.84 37.0195 141.746 35.6914C140.652 34.3633 139.305 33.6992 137.703 33.6992C136.141 33.6992 134.832 34.3372 133.777 35.6133C132.736 36.8893 132.215 38.901 132.215 41.6484ZM150.828 41.6289C150.828 37.7878 151.896 34.9427 154.031 33.0938C155.815 31.5573 157.99 30.7891 160.555 30.7891C163.406 30.7891 165.737 31.7266 167.547 33.6016C169.357 35.4635 170.262 38.0417 170.262 41.3359C170.262 44.0052 169.858 46.1081 169.051 47.6445C168.257 49.168 167.091 50.3529 165.555 51.1992C164.031 52.0456 162.365 52.4688 160.555 52.4688C157.651 52.4688 155.301 51.5378 153.504 49.6758C151.72 47.8138 150.828 45.1315 150.828 41.6289ZM154.441 41.6289C154.441 44.2852 155.021 46.2773 156.18 47.6055C157.339 48.9206 158.797 49.5781 160.555 49.5781C162.299 49.5781 163.751 48.9141 164.91 47.5859C166.069 46.2578 166.648 44.2331 166.648 41.5117C166.648 38.9466 166.062 37.0065 164.891 35.6914C163.732 34.3633 162.286 33.6992 160.555 33.6992C158.797 33.6992 157.339 34.3568 156.18 35.6719C155.021 36.987 154.441 38.9727 154.441 41.6289Z" fill="black"/>
<path d="M92.187 271.293C94.5804 268.825 90.8896 264.424 82.631 251.637C79.7396 247.161 72.0487 249.574 69.8834 252.33C67.7181 255.087 59.4126 273.949 60.9981 275.23C64.3952 277.973 64.8094 271.929 70.6469 265.934C69.2981 278.983 68.0028 286.189 71.9764 286.75C75.95 287.311 74.0194 278.704 78.0064 266.461C79.593 275.015 81.2204 285.059 84.9284 283.988C88.6364 282.917 84.2282 273.677 83.6203 262.789C85.6511 266.916 89.7935 273.761 92.187 271.293Z" fill="black" stroke="black" stroke-width="0.599572"/>
<path d="M245.102 201.376C242.098 203.578 232.287 193.614 223.971 184.163C223.62 176.273 230.228 173.211 235.235 170.221C240.241 167.231 249.225 160.832 251.325 164.855C253.424 168.877 248.705 166.821 241.165 175.063C252.663 174.712 265.068 172.9 264.73 177.125C264.392 181.35 254.957 180.741 241.165 181.75C251.186 184.862 260.738 187.177 258.565 191.404C257.017 194.418 250.205 191.661 237.062 189.478C241.548 192.573 248.107 199.174 245.102 201.376Z" fill="black" stroke="black" stroke-width="0.72899"/>
<path d="M167.457 135.226C163.77 157.658 144.649 172.8 125.116 169.59C105.583 166.38 92.3127 145.916 95.9988 123.484C99.6849 101.052 118.806 85.91 138.339 89.1196C157.872 92.3293 171.143 112.794 167.457 135.226Z" fill="#BC8166" stroke="black" stroke-width="3.91438"/>
<circle cx="151.517" cy="116.307" r="5.65411" fill="black"/>
<path d="M155.758 157.299C149.397 157.535 135.686 155.744 131.728 146.698" stroke="black" stroke-width="4.24058" stroke-linecap="round"/>
<path d="M127.487 172.848C128.879 176.467 130.342 182.843 131.021 189.276M112.661 269.674C127.503 236.457 127.487 224.442 131.021 201.825C131.586 198.212 131.491 193.73 131.021 189.276M229.261 182.036H166.359L131.021 189.276M131.021 189.276L88.1272 210.357L78.0909 251.618" stroke="black" stroke-width="5.65411" stroke-linecap="round"/>
</svg>
