<svg width="300" height="300" viewBox="0 0 300 300" fill="none" xmlns="http://www.w3.org/2000/svg">
<path d="M146.941 52H141.844V48.9531C140.997 50.138 139.995 51.0234 138.836 51.6094C137.69 52.1823 136.531 52.4688 135.359 52.4688C132.977 52.4688 130.932 51.5117 129.227 49.5977C127.534 47.6706 126.688 44.9883 126.688 41.5508C126.688 38.0352 127.514 35.3659 129.168 33.543C130.822 31.707 132.911 30.7891 135.438 30.7891C137.755 30.7891 139.76 31.7526 141.453 33.6797V23.3672H146.941V52ZM132.293 41.1797C132.293 43.3932 132.599 44.9948 133.211 45.9844C134.096 47.4167 135.333 48.1328 136.922 48.1328C138.185 48.1328 139.259 47.599 140.145 46.5312C141.03 45.4505 141.473 43.8424 141.473 41.707C141.473 39.3242 141.043 37.612 140.184 36.5703C139.324 35.5156 138.224 34.9883 136.883 34.9883C135.581 34.9883 134.487 35.5091 133.602 36.5508C132.729 37.5794 132.293 39.1224 132.293 41.1797ZM151.102 41.3359C151.102 39.513 151.551 37.7487 152.449 36.043C153.348 34.3372 154.617 33.0352 156.258 32.1367C157.911 31.2383 159.754 30.7891 161.785 30.7891C164.923 30.7891 167.495 31.8112 169.5 33.8555C171.505 35.8867 172.508 38.4583 172.508 41.5703C172.508 44.7083 171.492 47.3125 169.461 49.3828C167.443 51.4401 164.897 52.4688 161.824 52.4688C159.923 52.4688 158.107 52.0391 156.375 51.1797C154.656 50.3203 153.348 49.0638 152.449 47.4102C151.551 45.7435 151.102 43.7188 151.102 41.3359ZM156.727 41.6289C156.727 43.6862 157.215 45.2617 158.191 46.3555C159.168 47.4492 160.372 47.9961 161.805 47.9961C163.237 47.9961 164.435 47.4492 165.398 46.3555C166.375 45.2617 166.863 43.6732 166.863 41.5898C166.863 39.5586 166.375 37.9961 165.398 36.9023C164.435 35.8086 163.237 35.2617 161.805 35.2617C160.372 35.2617 159.168 35.8086 158.191 36.9023C157.215 37.9961 156.727 39.5716 156.727 41.6289Z" fill="black"/>
<path d="M88.1396 266.042C90.2859 263.829 86.9763 259.883 79.5705 248.416C76.9775 244.401 70.0809 246.565 68.1392 249.037C66.1975 251.51 58.7495 268.424 60.1713 269.572C63.2177 272.032 63.589 266.612 68.8238 261.236C67.6143 272.938 66.4527 279.4 70.016 279.903C73.5793 280.406 71.8481 272.688 75.4233 261.709C76.8461 269.379 78.3055 278.386 81.6306 277.426C84.9557 276.466 81.0027 268.179 80.4576 258.416C82.2786 262.116 85.9933 268.255 88.1396 266.042Z" fill="black" stroke="black" stroke-width="0.53766"/>
<path d="M225.266 188.946C222.571 190.92 213.774 181.986 206.317 173.511C206.001 166.435 211.927 163.689 216.417 161.008C220.906 158.327 228.963 152.589 230.846 156.196C232.728 159.803 228.496 157.959 221.735 165.35C232.045 165.036 243.17 163.411 242.867 167.2C242.563 170.988 234.102 170.442 221.735 171.346C230.722 174.137 239.286 176.213 237.339 180.004C235.95 182.706 229.841 180.234 218.055 178.276C222.078 181.052 227.96 186.971 225.266 188.946Z" fill="black" stroke="black" stroke-width="0.653714"/>
<path d="M129.528 88.2811C147.044 91.1595 158.944 109.511 155.638 129.626C152.333 149.742 135.187 163.32 117.671 160.442C100.155 157.564 88.2539 139.213 91.5593 119.097C94.8649 98.9809 112.012 85.4028 129.528 88.2811Z" fill="#BC8166" stroke="black" stroke-width="3.51018"/>
<circle cx="141.344" cy="112.661" r="5.07026" fill="black"/>
<path d="M145.146 149.421C139.442 149.632 127.147 148.026 123.598 139.914" stroke="black" stroke-width="3.8027" stroke-linecap="round"/>
<path d="M119.796 163.364C121.045 166.609 122.356 172.327 122.965 178.096M98.2478 268.572C111.557 238.784 119.796 209.63 122.965 189.349C123.472 186.109 123.387 182.09 122.965 178.096M211.061 171.603H154.655L122.965 178.096M122.965 178.096L83.037 208.362L74.1641 250.192" stroke="black" stroke-width="5.07026" stroke-linecap="round"/>
</svg>
