<svg width="300" height="300" viewBox="0 0 300 300" fill="none" xmlns="http://www.w3.org/2000/svg">
<path d="M119.148 52H114.051V48.9531C113.204 50.138 112.202 51.0234 111.043 51.6094C109.897 52.1823 108.738 52.4688 107.566 52.4688C105.184 52.4688 103.139 51.5117 101.434 49.5977C99.7409 47.6706 98.8945 44.9883 98.8945 41.5508C98.8945 38.0352 99.7214 35.3659 101.375 33.543C103.029 31.707 105.118 30.7891 107.645 30.7891C109.962 30.7891 111.967 31.7526 113.66 33.6797V23.3672H119.148V52ZM104.5 41.1797C104.5 43.3932 104.806 44.9948 105.418 45.9844C106.303 47.4167 107.54 48.1328 109.129 48.1328C110.392 48.1328 111.466 47.599 112.352 46.5312C113.237 45.4505 113.68 43.8424 113.68 41.707C113.68 39.3242 113.25 37.612 112.391 36.5703C111.531 35.5156 110.431 34.9883 109.09 34.9883C107.788 34.9883 106.694 35.5091 105.809 36.5508C104.936 37.5794 104.5 39.1224 104.5 41.1797ZM123.309 41.3359C123.309 39.513 123.758 37.7487 124.656 36.043C125.555 34.3372 126.824 33.0352 128.465 32.1367C130.118 31.2383 131.961 30.7891 133.992 30.7891C137.13 30.7891 139.702 31.8112 141.707 33.8555C143.712 35.8867 144.715 38.4583 144.715 41.5703C144.715 44.7083 143.699 47.3125 141.668 49.3828C139.65 51.4401 137.104 52.4688 134.031 52.4688C132.13 52.4688 130.314 52.0391 128.582 51.1797C126.863 50.3203 125.555 49.0638 124.656 47.4102C123.758 45.7435 123.309 43.7188 123.309 41.3359ZM128.934 41.6289C128.934 43.6862 129.422 45.2617 130.398 46.3555C131.375 47.4492 132.579 47.9961 134.012 47.9961C135.444 47.9961 136.642 47.4492 137.605 46.3555C138.582 45.2617 139.07 43.6732 139.07 41.5898C139.07 39.5586 138.582 37.9961 137.605 36.9023C136.642 35.8086 135.444 35.2617 134.012 35.2617C132.579 35.2617 131.375 35.8086 130.398 36.9023C129.422 37.9961 128.934 39.5716 128.934 41.6289ZM152.898 52L146.336 31.2578H151.668L155.555 44.8516L159.129 31.2578H164.422L167.879 44.8516L171.844 31.2578H177.254L170.594 52H165.32L161.746 38.6602L158.23 52H152.898ZM199.031 52H193.543V41.4141C193.543 39.1745 193.426 37.7292 193.191 37.0781C192.957 36.4141 192.573 35.8997 192.039 35.5352C191.518 35.1706 190.887 34.9883 190.145 34.9883C189.194 34.9883 188.341 35.2487 187.586 35.7695C186.831 36.2904 186.31 36.9805 186.023 37.8398C185.75 38.6992 185.613 40.2878 185.613 42.6055V52H180.125V31.2578H185.223V34.3047C187.033 31.9609 189.311 30.7891 192.059 30.7891C193.27 30.7891 194.376 31.0104 195.379 31.4531C196.382 31.8828 197.137 32.4362 197.645 33.1133C198.165 33.7904 198.523 34.5586 198.719 35.418C198.927 36.2773 199.031 37.5078 199.031 39.1094V52Z" fill="black"/>
<rect x="104" y="121" width="91" height="116" rx="3" fill="#D9D9D9" stroke="#C5C5C5" stroke-width="4"/>
<rect x="156.896" y="89.9999" width="150.695" height="14.0919" rx="7.04596" transform="rotate(90 156.896 89.9999)" fill="#B92429"/>
<path d="M150.01 268.229L126.619 227.715L173.401 227.715L150.01 268.229Z" fill="#B92429"/>
</svg>
