<svg width="312" height="312" viewBox="0 0 312 312" fill="none" xmlns="http://www.w3.org/2000/svg">
<rect x="6" y="6" width="300" height="300" rx="20" fill="#E2FFE2"/>
<rect x="6" y="6" width="300" height="300" rx="20" stroke="#1ADF1D" stroke-width="11"/>
<path d="M125.148 58H120.051V54.9531C119.204 56.138 118.202 57.0234 117.043 57.6094C115.897 58.1823 114.738 58.4688 113.566 58.4688C111.184 58.4688 109.139 57.5117 107.434 55.5977C105.741 53.6706 104.895 50.9883 104.895 47.5508C104.895 44.0352 105.721 41.3659 107.375 39.543C109.029 37.707 111.118 36.7891 113.645 36.7891C115.962 36.7891 117.967 37.7526 119.66 39.6797V29.3672H125.148V58ZM110.5 47.1797C110.5 49.3932 110.806 50.9948 111.418 51.9844C112.303 53.4167 113.54 54.1328 115.129 54.1328C116.392 54.1328 117.466 53.599 118.352 52.5312C119.237 51.4505 119.68 49.8424 119.68 47.707C119.68 45.3242 119.25 43.612 118.391 42.5703C117.531 41.5156 116.431 40.9883 115.09 40.9883C113.788 40.9883 112.694 41.5091 111.809 42.5508C110.936 43.5794 110.5 45.1224 110.5 47.1797ZM129.309 47.3359C129.309 45.513 129.758 43.7487 130.656 42.043C131.555 40.3372 132.824 39.0352 134.465 38.1367C136.118 37.2383 137.961 36.7891 139.992 36.7891C143.13 36.7891 145.702 37.8112 147.707 39.8555C149.712 41.8867 150.715 44.4583 150.715 47.5703C150.715 50.7083 149.699 53.3125 147.668 55.3828C145.65 57.4401 143.104 58.4688 140.031 58.4688C138.13 58.4688 136.314 58.0391 134.582 57.1797C132.863 56.3203 131.555 55.0638 130.656 53.4102C129.758 51.7435 129.309 49.7188 129.309 47.3359ZM134.934 47.6289C134.934 49.6862 135.422 51.2617 136.398 52.3555C137.375 53.4492 138.579 53.9961 140.012 53.9961C141.444 53.9961 142.642 53.4492 143.605 52.3555C144.582 51.2617 145.07 49.6732 145.07 47.5898C145.07 45.5586 144.582 43.9961 143.605 42.9023C142.642 41.8086 141.444 41.2617 140.012 41.2617C138.579 41.2617 137.375 41.8086 136.398 42.9023C135.422 43.9961 134.934 45.5716 134.934 47.6289ZM158.898 58L152.336 37.2578H157.668L161.555 50.8516L165.129 37.2578H170.422L173.879 50.8516L177.844 37.2578H183.254L176.594 58H171.32L167.746 44.6602L164.23 58H158.898ZM205.031 58H199.543V47.4141C199.543 45.1745 199.426 43.7292 199.191 43.0781C198.957 42.4141 198.573 41.8997 198.039 41.5352C197.518 41.1706 196.887 40.9883 196.145 40.9883C195.194 40.9883 194.341 41.2487 193.586 41.7695C192.831 42.2904 192.31 42.9805 192.023 43.8398C191.75 44.6992 191.613 46.2878 191.613 48.6055V58H186.125V37.2578H191.223V40.3047C193.033 37.9609 195.311 36.7891 198.059 36.7891C199.27 36.7891 200.376 37.0104 201.379 37.4531C202.382 37.8828 203.137 38.4362 203.645 39.1133C204.165 39.7904 204.523 40.5586 204.719 41.418C204.927 42.2773 205.031 43.5078 205.031 45.1094V58Z" fill="black"/>
<rect x="110" y="127" width="91" height="116" rx="3" fill="#D9D9D9" stroke="#C5C5C5" stroke-width="4"/>
<rect x="162.896" y="95.9999" width="150.695" height="14.0919" rx="7.04596" transform="rotate(90 162.896 95.9999)" fill="#B92429"/>
<path d="M156.009 274.229L132.619 233.715L179.4 233.715L156.009 274.229Z" fill="#B92429"/>
</svg>
