<svg width="300" height="300" viewBox="0 0 300 300" fill="none" xmlns="http://www.w3.org/2000/svg">
<rect width="300" height="300" fill="white"/>
<path d="M167.044 168.236L164.316 171.925L160.193 181L155.402 169.902L148.217 164.189L150.612 172.252L150.946 180.643C150.946 180.643 162.588 190.045 163.618 190.402C164.649 190.73 175.715 190.432 175.715 190.432L187.599 179.304L180.748 172.61L177.655 173.948L175.26 178.65L174.927 169.902L167.044 168.236Z" fill="#218D24"/>
<path d="M77.2781 284.756C75.4591 285.053 73.64 284.161 72.7305 282.673C71.821 280.888 72.4274 279.102 72.4274 277.317C74.5496 260.655 78.794 245.481 82.432 228.521C84.2511 220.19 84.8574 212.157 86.0701 203.825C86.3733 202.635 86.9796 201.743 88.1923 201.445C90.6177 201.148 93.6494 201.445 94.8621 203.825C95.4684 205.611 95.1653 207.396 95.1653 209.181C93.0431 227.331 87.8891 243.695 84.2511 262.143C83.0384 269.284 82.7352 276.127 81.2194 283.268C80.9162 284.756 78.794 285.053 77.2781 284.756Z" fill="black"/>
<path d="M159.374 239.882L159.344 240.477C159.222 242.352 157.949 243.512 156.524 243.006L89.4926 219.858C88.0677 219.382 87.0066 217.448 87.1582 215.544L87.1885 214.948C87.3098 213.074 88.5831 211.914 90.008 212.419L157.039 235.568C158.464 236.103 159.495 238.008 159.374 239.882Z" fill="black"/>
<path d="M153.946 241.371L153.037 239.794C152.097 238.157 152.673 236.045 154.371 235.122C172.319 225.125 190.266 215.187 208.214 205.19C210.246 204.03 212.337 202.899 214.399 201.739C214.611 201.62 215.703 201.025 217.067 201.411C217.946 201.649 218.734 202.215 219.159 203.048L220.068 204.625C221.008 206.261 220.432 208.374 218.734 209.296L158.737 242.68C157.039 243.602 154.886 243.007 153.946 241.371Z" fill="black"/>
<path d="M39.5602 150.562C35.4067 117.982 54.7794 87.5141 83.4292 83.9436C107.562 80.9385 133.089 95.0418 140.668 123.576C141.426 126.432 142.063 131.163 142.154 134.198L132.452 135.596C132.452 135.596 136.06 145.088 135.423 145.236C129.208 146.694 106.713 158.001 106.773 159.25C106.895 162.047 139.334 171.36 139.334 171.36C132.27 188.974 117.688 201.887 99.467 204.178C70.8172 207.749 43.8349 183.797 39.5602 150.562Z" fill="black"/>
<path d="M45.9265 150.473C42.1369 121.731 57.8715 93.6432 82.8832 90.4596C105.621 87.5735 128.874 100.754 135.423 125.45C136.09 127.92 136.272 128.604 136.636 131.222L124.963 132.829C125.024 134.436 127.055 139.404 128.147 142.588C128.329 143.124 101.104 152.228 99.2848 159.964C97.7993 166.242 131.3 174.544 131.3 174.544C125.115 189.837 112.958 195.907 97.0414 197.93C71.9993 201.084 49.7162 179.215 45.9265 150.473Z" fill="#BC8166"/>
<path d="M96.011 131.4C99.6109 131.4 102.529 128.536 102.529 125.003C102.529 121.47 99.6109 118.605 96.011 118.605C92.4111 118.605 89.4928 121.47 89.4928 125.003C89.4928 128.536 92.4111 131.4 96.011 131.4Z" fill="black"/>
<path d="M92.2209 146.695C92.5847 145.356 94.2521 144.761 95.3739 145.594C98.9816 148.272 100.649 154.282 99.1332 160.56C97.587 166.868 93.3426 171.42 88.886 172.015C87.5217 172.194 86.3696 170.974 86.6425 169.635C86.8547 168.683 87.6733 167.939 88.6434 167.88C91.7964 167.731 93.9793 164.458 95.1919 159.489C96.4046 154.49 95.9499 150.593 93.1607 148.986C92.4028 148.51 91.9783 147.588 92.2209 146.695Z" fill="black"/>
<path d="M186.842 186.177C183.78 195.728 171.744 200.518 160.011 196.888C148.248 193.258 141.214 182.547 144.307 172.996L186.842 186.177Z" fill="#6D6D6D"/>
<path d="M252.356 212.866L175.138 190.104C173.228 189.539 172.167 187.575 172.743 185.701C173.319 183.826 175.32 182.785 177.23 183.35L254.448 206.112C256.358 206.677 257.419 208.641 256.843 210.515C256.267 212.39 254.266 213.431 252.356 212.866Z" fill="#6D6D6D"/>
<path d="M190.904 194.897C190.904 194.897 190.661 203.199 193.087 205.876C195.482 208.554 197.21 214.951 207.123 215.279C217.067 215.606 225.283 209.566 226.648 206.204C228.012 202.842 233.166 189.75 227.678 188.381C222.191 187.042 221.16 188.709 221.16 188.709C221.16 188.709 218.068 184.662 213.975 183.68C209.852 182.669 206.456 185.346 206.456 185.346C206.456 185.346 203.364 181.3 200.969 180.973C198.574 180.645 192.298 187.905 192.298 187.905C192.298 187.905 197.877 189.036 198.574 191.714C199.241 194.451 197.422 196.563 190.904 194.897Z" fill="black"/>
<path d="M138.004 44.3203L141.637 44.7695C141.064 46.8919 140.003 48.5391 138.453 49.7109C136.904 50.8828 134.924 51.4688 132.516 51.4688C129.482 51.4688 127.073 50.5378 125.289 48.6758C123.518 46.8008 122.633 44.1771 122.633 40.8047C122.633 37.3151 123.531 34.6068 125.328 32.6797C127.125 30.7526 129.456 29.7891 132.32 29.7891C135.094 29.7891 137.359 30.7331 139.117 32.6211C140.875 34.5091 141.754 37.1654 141.754 40.5898C141.754 40.7982 141.747 41.1107 141.734 41.5273H126.266C126.396 43.806 127.04 45.5508 128.199 46.7617C129.358 47.9727 130.803 48.5781 132.535 48.5781C133.824 48.5781 134.924 48.2396 135.836 47.5625C136.747 46.8854 137.47 45.8047 138.004 44.3203ZM126.461 38.6367H138.043C137.887 36.8919 137.444 35.5833 136.715 34.7109C135.595 33.3568 134.143 32.6797 132.359 32.6797C130.745 32.6797 129.384 33.2201 128.277 34.3008C127.184 35.3815 126.578 36.8268 126.461 38.6367ZM159.605 48.4414C158.303 49.5482 157.047 50.3294 155.836 50.7852C154.638 51.2409 153.349 51.4688 151.969 51.4688C149.69 51.4688 147.939 50.9154 146.715 49.8086C145.491 48.6888 144.879 47.263 144.879 45.5312C144.879 44.5156 145.107 43.5911 145.562 42.7578C146.031 41.9115 146.637 41.2344 147.379 40.7266C148.134 40.2188 148.98 39.8346 149.918 39.5742C150.608 39.3919 151.65 39.2161 153.043 39.0469C155.882 38.7083 157.971 38.3047 159.312 37.8359C159.326 37.3542 159.332 37.0482 159.332 36.918C159.332 35.4857 159 34.4766 158.336 33.8906C157.438 33.0964 156.103 32.6992 154.332 32.6992C152.678 32.6992 151.454 32.9922 150.66 33.5781C149.879 34.151 149.299 35.1732 148.922 36.6445L145.484 36.1758C145.797 34.7044 146.311 33.5195 147.027 32.6211C147.743 31.7096 148.779 31.013 150.133 30.5312C151.487 30.0365 153.056 29.7891 154.84 29.7891C156.611 29.7891 158.049 29.9974 159.156 30.4141C160.263 30.8307 161.077 31.3581 161.598 31.9961C162.118 32.6211 162.483 33.4154 162.691 34.3789C162.809 34.9779 162.867 36.0586 162.867 37.6211V42.3086C162.867 45.5768 162.939 47.6471 163.082 48.5195C163.238 49.3789 163.538 50.2057 163.98 51H160.309C159.944 50.2708 159.71 49.418 159.605 48.4414ZM159.312 40.5898C158.036 41.1107 156.122 41.5534 153.57 41.918C152.125 42.1263 151.103 42.3607 150.504 42.6211C149.905 42.8815 149.443 43.2656 149.117 43.7734C148.792 44.2682 148.629 44.8216 148.629 45.4336C148.629 46.3711 148.98 47.1523 149.684 47.7773C150.4 48.4023 151.441 48.7148 152.809 48.7148C154.163 48.7148 155.367 48.4219 156.422 47.8359C157.477 47.237 158.251 46.4232 158.746 45.3945C159.124 44.6003 159.312 43.4284 159.312 41.8789V40.5898ZM176.012 47.8555L176.52 50.9609C175.53 51.1693 174.645 51.2734 173.863 51.2734C172.587 51.2734 171.598 51.0716 170.895 50.668C170.191 50.2643 169.697 49.737 169.41 49.0859C169.124 48.4219 168.98 47.0352 168.98 44.9258V32.9922H166.402V30.2578H168.98V25.1211L172.477 23.0117V30.2578H176.012V32.9922H172.477V45.1211C172.477 46.1237 172.535 46.7682 172.652 47.0547C172.783 47.3411 172.984 47.569 173.258 47.7383C173.544 47.9076 173.948 47.9922 174.469 47.9922C174.859 47.9922 175.374 47.9466 176.012 47.8555Z" fill="black"/>
</svg>
