<svg width="300" height="300" viewBox="0 0 300 300" fill="none" xmlns="http://www.w3.org/2000/svg">
<path d="M167.045 168.236L164.316 171.925L160.193 181L155.403 169.902L148.218 164.189L150.613 172.252L150.946 180.643C150.946 180.643 162.588 190.045 163.619 190.402C164.65 190.73 175.715 190.432 175.715 190.432L187.6 179.304L180.748 172.61L177.656 173.948L175.261 178.65L174.927 169.902L167.045 168.236Z" fill="#218D24"/>
<path d="M77.2782 284.756C75.4592 285.053 73.6402 284.161 72.7307 282.673C71.8211 280.888 72.4275 279.103 72.4275 277.317C74.5497 260.655 78.7941 245.481 82.4322 228.521C84.2512 220.19 84.8575 212.157 86.0702 203.826C86.3734 202.635 86.9797 201.743 88.1924 201.445C90.6178 201.148 93.6495 201.445 94.8622 203.826C95.4686 205.611 95.1654 207.396 95.1654 209.181C93.0432 227.331 87.8893 243.696 84.2512 262.143C83.0385 269.284 82.7353 276.127 81.2195 283.268C80.9163 284.756 78.7941 285.053 77.2782 284.756Z" fill="black"/>
<path d="M159.374 239.882L159.343 240.477C159.222 242.352 157.949 243.512 156.524 243.006L89.4924 219.858C88.0675 219.382 87.0064 217.448 87.158 215.544L87.1883 214.949C87.3096 213.074 88.5829 211.914 90.0078 212.42L157.039 235.568C158.464 236.103 159.495 238.008 159.374 239.882Z" fill="black"/>
<path d="M153.947 241.371L153.037 239.794C152.098 238.157 152.674 236.045 154.371 235.122C172.319 225.125 190.267 215.187 208.215 205.19C210.246 204.03 212.338 202.899 214.399 201.739C214.612 201.62 215.703 201.025 217.067 201.411C217.947 201.649 218.735 202.215 219.159 203.048L220.069 204.625C221.009 206.261 220.433 208.374 218.735 209.296L158.737 242.68C157.039 243.602 154.887 243.007 153.947 241.371Z" fill="black"/>
<path d="M39.5602 150.562C35.4067 117.982 54.7794 87.5141 83.4292 83.9436C107.562 80.9385 133.089 95.0418 140.668 123.576C141.426 126.432 142.063 131.163 142.154 134.198L132.452 135.596C132.452 135.596 136.06 145.088 135.423 145.236C129.208 146.694 106.713 158.001 106.773 159.25C106.895 162.047 139.334 171.36 139.334 171.36C132.27 188.974 117.688 201.887 99.467 204.178C70.8172 207.749 43.8349 183.797 39.5602 150.562Z" fill="black"/>
<path d="M45.9267 150.473C42.137 121.731 57.8716 93.6432 82.8833 90.4596C105.621 87.5735 128.875 100.754 135.423 125.45C136.09 127.92 136.272 128.604 136.636 131.222L124.964 132.829C125.024 134.436 127.056 139.404 128.147 142.588C128.329 143.124 101.104 152.228 99.2849 159.964C97.7994 166.242 131.3 174.544 131.3 174.544C125.115 189.837 112.958 195.907 97.0415 197.93C71.9995 201.084 49.7163 179.215 45.9267 150.473Z" fill="#BC8166"/>
<path d="M96.0114 131.4C99.6113 131.4 102.53 128.536 102.53 125.003C102.53 121.47 99.6113 118.605 96.0114 118.605C92.4115 118.605 89.4932 121.47 89.4932 125.003C89.4932 128.536 92.4115 131.4 96.0114 131.4Z" fill="black"/>
<path d="M92.2212 146.695C92.585 145.356 94.2525 144.761 95.3742 145.594C98.982 148.272 100.649 154.282 99.1335 160.56C97.5874 166.868 93.343 171.42 88.8863 172.015C87.5221 172.194 86.37 170.974 86.6429 169.635C86.8551 168.683 87.6736 167.939 88.6438 167.88C91.7968 167.731 93.9796 164.458 95.1923 159.489C96.405 154.49 95.9503 150.593 93.1611 148.986C92.4031 148.51 91.9787 147.587 92.2212 146.695Z" fill="black"/>
<path d="M186.842 186.177C183.78 195.728 171.744 200.518 160.011 196.888C148.248 193.258 141.215 182.547 144.307 172.996L186.842 186.177Z" fill="#6D6D6D"/>
<path d="M252.357 212.866L175.139 190.105C173.229 189.539 172.167 187.575 172.744 185.701C173.32 183.827 175.32 182.785 177.23 183.35L254.448 206.112C256.358 206.677 257.419 208.641 256.843 210.516C256.267 212.39 254.266 213.431 252.357 212.866Z" fill="#6D6D6D"/>
<path d="M190.904 194.897C190.904 194.897 190.662 203.198 193.087 205.876C195.482 208.554 197.21 214.951 207.124 215.278C217.068 215.606 225.284 209.566 226.648 206.204C228.012 202.841 233.166 189.75 227.679 188.381C222.192 187.042 221.161 188.708 221.161 188.708C221.161 188.708 218.068 184.662 213.976 183.68C209.852 182.668 206.457 185.346 206.457 185.346C206.457 185.346 203.365 181.3 200.97 180.972C198.574 180.645 192.299 187.905 192.299 187.905C192.299 187.905 197.877 189.036 198.574 191.714C199.241 194.451 197.422 196.563 190.904 194.897Z" fill="black"/>
<path d="M134.957 44.3984L140.426 45.3164C139.723 47.3216 138.609 48.8516 137.086 49.9062C135.576 50.9479 133.681 51.4688 131.402 51.4688C127.796 51.4688 125.126 50.2904 123.395 47.9336C122.027 46.0456 121.344 43.6628 121.344 40.7852C121.344 37.3477 122.242 34.6589 124.039 32.7188C125.836 30.7656 128.108 29.7891 130.855 29.7891C133.941 29.7891 136.376 30.8112 138.16 32.8555C139.944 34.8867 140.797 38.0052 140.719 42.2109H126.969C127.008 43.8385 127.451 45.1081 128.297 46.0195C129.143 46.918 130.198 47.3672 131.461 47.3672C132.32 47.3672 133.043 47.1328 133.629 46.6641C134.215 46.1953 134.658 45.4401 134.957 44.3984ZM135.27 38.8516C135.23 37.263 134.82 36.0586 134.039 35.2383C133.258 34.4049 132.307 33.9883 131.188 33.9883C129.99 33.9883 129 34.4245 128.219 35.2969C127.438 36.1693 127.053 37.3542 127.066 38.8516H135.27ZM149.312 36.5859L144.332 35.6875C144.892 33.6823 145.855 32.1979 147.223 31.2344C148.59 30.2708 150.621 29.7891 153.316 29.7891C155.764 29.7891 157.587 30.082 158.785 30.668C159.983 31.2409 160.823 31.9766 161.305 32.875C161.799 33.7604 162.047 35.3945 162.047 37.7773L161.988 44.1836C161.988 46.0065 162.073 47.3542 162.242 48.2266C162.424 49.0859 162.757 50.0104 163.238 51H157.809C157.665 50.6354 157.49 50.0951 157.281 49.3789C157.19 49.0534 157.125 48.8385 157.086 48.7344C156.148 49.6458 155.146 50.3294 154.078 50.7852C153.01 51.2409 151.871 51.4688 150.66 51.4688C148.525 51.4688 146.839 50.8893 145.602 49.7305C144.378 48.5716 143.766 47.1068 143.766 45.3359C143.766 44.1641 144.046 43.1224 144.605 42.2109C145.165 41.2865 145.947 40.5833 146.949 40.1016C147.965 39.6068 149.423 39.1771 151.324 38.8125C153.889 38.3307 155.667 37.8815 156.656 37.4648V36.918C156.656 35.8633 156.396 35.1146 155.875 34.6719C155.354 34.2161 154.371 33.9883 152.926 33.9883C151.949 33.9883 151.188 34.1836 150.641 34.5742C150.094 34.9518 149.651 35.6224 149.312 36.5859ZM156.656 41.0391C155.953 41.2734 154.84 41.5534 153.316 41.8789C151.793 42.2044 150.797 42.5234 150.328 42.8359C149.612 43.3438 149.254 43.9883 149.254 44.7695C149.254 45.5378 149.54 46.2018 150.113 46.7617C150.686 47.3216 151.415 47.6016 152.301 47.6016C153.29 47.6016 154.234 47.276 155.133 46.625C155.797 46.1302 156.233 45.5247 156.441 44.8086C156.585 44.3398 156.656 43.4479 156.656 42.1328V41.0391ZM176.988 30.2578V34.6328H173.238V42.9922C173.238 44.6849 173.271 45.6745 173.336 45.9609C173.414 46.2344 173.577 46.4622 173.824 46.6445C174.085 46.8268 174.397 46.918 174.762 46.918C175.27 46.918 176.005 46.7422 176.969 46.3906L177.438 50.6484C176.161 51.1953 174.716 51.4688 173.102 51.4688C172.112 51.4688 171.22 51.306 170.426 50.9805C169.632 50.6419 169.046 50.2122 168.668 49.6914C168.303 49.1576 168.049 48.4414 167.906 47.543C167.789 46.9049 167.73 45.6159 167.73 43.6758V34.6328H165.211V30.2578H167.73V26.1367L173.238 22.9336V30.2578H176.988Z" fill="black"/>
</svg>
