<svg width="300" height="300" viewBox="0 0 300 300" fill="none" xmlns="http://www.w3.org/2000/svg">
<path d="M72.7305 31.2578H75.7773V29.6953C75.7773 27.9505 75.9596 26.6484 76.3242 25.7891C76.7018 24.9297 77.3854 24.2331 78.375 23.6992C79.3776 23.1523 80.6406 22.8789 82.1641 22.8789C83.7266 22.8789 85.2565 23.1133 86.7539 23.582L86.0117 27.4102C85.1393 27.2018 84.2995 27.0977 83.4922 27.0977C82.6979 27.0977 82.125 27.2865 81.7734 27.6641C81.4349 28.0286 81.2656 28.7383 81.2656 29.793V31.2578H85.3672V35.5742H81.2656V52H75.7773V35.5742H72.7305V31.2578ZM88.4531 28.4453V23.3672H93.9414V28.4453H88.4531ZM88.4531 52V31.2578H93.9414V52H88.4531ZM118.453 52H112.965V41.4141C112.965 39.1745 112.848 37.7292 112.613 37.0781C112.379 36.4141 111.995 35.8997 111.461 35.5352C110.94 35.1706 110.309 34.9883 109.566 34.9883C108.616 34.9883 107.763 35.2487 107.008 35.7695C106.253 36.2904 105.732 36.9805 105.445 37.8398C105.172 38.6992 105.035 40.2878 105.035 42.6055V52H99.5469V31.2578H104.645V34.3047C106.454 31.9609 108.733 30.7891 111.48 30.7891C112.691 30.7891 113.798 31.0104 114.801 31.4531C115.803 31.8828 116.559 32.4362 117.066 33.1133C117.587 33.7904 117.945 34.5586 118.141 35.418C118.349 36.2773 118.453 37.5078 118.453 39.1094V52ZM124.039 28.4453V23.3672H129.527V28.4453H124.039ZM124.039 52V31.2578H129.527V52H124.039ZM133.238 46.082L138.746 45.2422C138.98 46.3099 139.456 47.1237 140.172 47.6836C140.888 48.2305 141.891 48.5039 143.18 48.5039C144.599 48.5039 145.667 48.2435 146.383 47.7227C146.865 47.3581 147.105 46.8698 147.105 46.2578C147.105 45.8411 146.975 45.4961 146.715 45.2227C146.441 44.9622 145.829 44.7214 144.879 44.5C140.452 43.5234 137.646 42.6315 136.461 41.8242C134.82 40.7044 134 39.1484 134 37.1562C134 35.3594 134.71 33.849 136.129 32.625C137.548 31.401 139.749 30.7891 142.73 30.7891C145.569 30.7891 147.678 31.2513 149.059 32.1758C150.439 33.1003 151.389 34.4674 151.91 36.2773L146.734 37.2344C146.513 36.4271 146.09 35.8086 145.465 35.3789C144.853 34.9492 143.974 34.7344 142.828 34.7344C141.383 34.7344 140.348 34.9362 139.723 35.3398C139.306 35.6263 139.098 35.9974 139.098 36.4531C139.098 36.8438 139.28 37.1758 139.645 37.4492C140.139 37.8138 141.845 38.3281 144.762 38.9922C147.691 39.6562 149.736 40.4701 150.895 41.4336C152.04 42.4102 152.613 43.7708 152.613 45.5156C152.613 47.4167 151.819 49.0508 150.23 50.418C148.642 51.7852 146.292 52.4688 143.18 52.4688C140.354 52.4688 138.115 51.8958 136.461 50.75C134.82 49.6042 133.746 48.0482 133.238 46.082ZM162.906 23.3672V33.8945C164.677 31.8242 166.793 30.7891 169.254 30.7891C170.517 30.7891 171.656 31.0234 172.672 31.4922C173.688 31.9609 174.449 32.5599 174.957 33.2891C175.478 34.0182 175.829 34.8255 176.012 35.7109C176.207 36.5964 176.305 37.9701 176.305 39.832V52H170.816V41.043C170.816 38.8685 170.712 37.4883 170.504 36.9023C170.296 36.3164 169.924 35.8542 169.391 35.5156C168.87 35.1641 168.212 34.9883 167.418 34.9883C166.507 34.9883 165.693 35.2096 164.977 35.6523C164.26 36.0951 163.733 36.7656 163.395 37.6641C163.069 38.5495 162.906 39.8646 162.906 41.6094V52H157.418V23.3672H162.906ZM193.902 45.3984L199.371 46.3164C198.668 48.3216 197.555 49.8516 196.031 50.9062C194.521 51.9479 192.626 52.4688 190.348 52.4688C186.741 52.4688 184.072 51.2904 182.34 48.9336C180.973 47.0456 180.289 44.6628 180.289 41.7852C180.289 38.3477 181.188 35.6589 182.984 33.7188C184.781 31.7656 187.053 30.7891 189.801 30.7891C192.887 30.7891 195.322 31.8112 197.105 33.8555C198.889 35.8867 199.742 39.0052 199.664 43.2109H185.914C185.953 44.8385 186.396 46.1081 187.242 47.0195C188.089 47.918 189.143 48.3672 190.406 48.3672C191.266 48.3672 191.988 48.1328 192.574 47.6641C193.16 47.1953 193.603 46.4401 193.902 45.3984ZM194.215 39.8516C194.176 38.263 193.766 37.0586 192.984 36.2383C192.203 35.4049 191.253 34.9883 190.133 34.9883C188.935 34.9883 187.945 35.4245 187.164 36.2969C186.383 37.1693 185.999 38.3542 186.012 39.8516H194.215ZM223.18 52H218.082V48.9531C217.236 50.138 216.233 51.0234 215.074 51.6094C213.928 52.1823 212.77 52.4688 211.598 52.4688C209.215 52.4688 207.171 51.5117 205.465 49.5977C203.772 47.6706 202.926 44.9883 202.926 41.5508C202.926 38.0352 203.753 35.3659 205.406 33.543C207.06 31.707 209.15 30.7891 211.676 30.7891C213.993 30.7891 215.999 31.7526 217.691 33.6797V23.3672H223.18V52ZM208.531 41.1797C208.531 43.3932 208.837 44.9948 209.449 45.9844C210.335 47.4167 211.572 48.1328 213.16 48.1328C214.423 48.1328 215.497 47.599 216.383 46.5312C217.268 45.4505 217.711 43.8424 217.711 41.707C217.711 39.3242 217.281 37.612 216.422 36.5703C215.562 35.5156 214.462 34.9883 213.121 34.9883C211.819 34.9883 210.725 35.5091 209.84 36.5508C208.967 37.5794 208.531 39.1224 208.531 41.1797Z" fill="black"/>
<rect x="78.457" y="83.6647" width="11.75" height="11.75" transform="rotate(-5.56142 78.457 83.6647)" fill="white"/>
<rect x="80.7344" y="107.054" width="11.75" height="11.75" transform="rotate(-5.56142 80.7344 107.054)" fill="white"/>
<rect x="83.0117" y="130.443" width="11.75" height="11.75" transform="rotate(-5.56142 83.0117 130.443)" fill="white"/>
<rect x="85.2891" y="153.833" width="11.75" height="11.75" transform="rotate(-5.56142 85.2891 153.833)" fill="white"/>
<rect x="208.238" y="82.8334" width="11.75" height="11.75" transform="rotate(-5.56142 208.238 82.8334)" fill="white"/>
<rect x="210.516" y="106.223" width="11.75" height="11.75" transform="rotate(-5.56142 210.516 106.223)" fill="white"/>
<rect x="212.793" y="129.612" width="11.75" height="11.75" transform="rotate(-5.56142 212.793 129.612)" fill="white"/>
<rect x="215.07" y="153.002" width="11.75" height="11.75" transform="rotate(-5.56142 215.07 153.002)" fill="white"/>
<rect x="125.236" y="79.1098" width="11.75" height="11.75" transform="rotate(-5.56142 125.236 79.1098)" fill="white"/>
<rect x="127.514" y="102.499" width="11.75" height="11.75" transform="rotate(-5.56142 127.514 102.499)" fill="white"/>
<rect x="129.791" y="125.889" width="11.75" height="11.75" transform="rotate(-5.56142 129.791 125.889)" fill="white"/>
<rect x="132.068" y="149.278" width="11.75" height="11.75" transform="rotate(-5.56142 132.068 149.278)" fill="white"/>
<rect x="114.68" y="91.9432" width="11.75" height="11.75" transform="rotate(-5.56142 114.68 91.9432)" fill="white"/>
<rect x="116.957" y="115.333" width="11.75" height="11.75" transform="rotate(-5.56142 116.957 115.333)" fill="white"/>
<rect x="119.234" y="138.722" width="11.75" height="11.75" transform="rotate(-5.56142 119.234 138.722)" fill="white"/>
<rect x="121.512" y="162.111" width="11.75" height="11.75" transform="rotate(-5.56142 121.512 162.111)" fill="white"/>
<rect x="172.014" y="74.5549" width="11.75" height="11.75" transform="rotate(-5.56142 172.014 74.5549)" fill="white"/>
<rect x="174.293" y="97.9443" width="11.75" height="11.75" transform="rotate(-5.56142 174.293 97.9443)" fill="white"/>
<rect x="176.57" y="121.334" width="11.75" height="11.75" transform="rotate(-5.56142 176.57 121.334)" fill="white"/>
<rect x="178.848" y="144.723" width="11.75" height="11.75" transform="rotate(-5.56142 178.848 144.723)" fill="white"/>
<rect x="161.459" y="87.3883" width="11.75" height="11.75" transform="rotate(-5.56142 161.459 87.3883)" fill="white"/>
<rect x="163.736" y="110.778" width="11.75" height="11.75" transform="rotate(-5.56142 163.736 110.778)" fill="white"/>
<rect x="166.014" y="134.167" width="11.75" height="11.75" transform="rotate(-5.56142 166.014 134.167)" fill="white"/>
<rect x="168.291" y="157.556" width="11.75" height="11.75" transform="rotate(-5.56142 168.291 157.556)" fill="white"/>
<rect x="101.846" y="81.3872" width="11.75" height="11.75" transform="rotate(-5.56142 101.846 81.3872)" fill="white"/>
<rect x="104.123" y="104.777" width="11.75" height="11.75" transform="rotate(-5.56142 104.123 104.777)" fill="white"/>
<rect x="106.4" y="128.166" width="11.75" height="11.75" transform="rotate(-5.56142 106.4 128.166)" fill="white"/>
<rect x="108.68" y="151.555" width="11.75" height="11.75" transform="rotate(-5.56142 108.68 151.555)" fill="white"/>
<rect x="91.291" y="94.2206" width="11.75" height="11.75" transform="rotate(-5.56142 91.291 94.2206)" fill="white"/>
<rect x="93.5684" y="117.61" width="11.75" height="11.75" transform="rotate(-5.56142 93.5684 117.61)" fill="white"/>
<rect x="95.8457" y="140.999" width="11.75" height="11.75" transform="rotate(-5.56142 95.8457 140.999)" fill="white"/>
<rect x="98.123" y="164.389" width="11.75" height="11.75" transform="rotate(-5.56142 98.123 164.389)" fill="white"/>
<rect x="148.625" y="76.8323" width="11.75" height="11.75" transform="rotate(-5.56142 148.625 76.8323)" fill="white"/>
<rect x="150.902" y="100.222" width="11.75" height="11.75" transform="rotate(-5.56142 150.902 100.222)" fill="white"/>
<rect x="153.18" y="123.611" width="11.75" height="11.75" transform="rotate(-5.56142 153.18 123.611)" fill="white"/>
<rect x="155.457" y="147" width="11.75" height="11.75" transform="rotate(-5.56142 155.457 147)" fill="white"/>
<rect x="138.068" y="89.6658" width="11.75" height="11.75" transform="rotate(-5.56142 138.068 89.6658)" fill="white"/>
<rect x="140.346" y="113.055" width="11.75" height="11.75" transform="rotate(-5.56142 140.346 113.055)" fill="white"/>
<rect x="142.625" y="136.445" width="11.75" height="11.75" transform="rotate(-5.56142 142.625 136.445)" fill="white"/>
<rect x="144.902" y="159.834" width="11.75" height="11.75" transform="rotate(-5.56142 144.902 159.834)" fill="white"/>
<rect x="195.404" y="72.2774" width="11.75" height="11.75" transform="rotate(-5.56142 195.404 72.2774)" fill="white"/>
<rect x="197.682" y="95.6668" width="11.75" height="11.75" transform="rotate(-5.56142 197.682 95.6668)" fill="white"/>
<rect x="199.959" y="119.056" width="11.75" height="11.75" transform="rotate(-5.56142 199.959 119.056)" fill="white"/>
<rect x="202.236" y="142.446" width="11.75" height="11.75" transform="rotate(-5.56142 202.236 142.446)" fill="white"/>
<rect x="184.848" y="85.1108" width="11.75" height="11.75" transform="rotate(-5.56142 184.848 85.1108)" fill="white"/>
<rect x="187.125" y="108.5" width="11.75" height="11.75" transform="rotate(-5.56142 187.125 108.5)" fill="white"/>
<rect x="189.402" y="131.89" width="11.75" height="11.75" transform="rotate(-5.56142 189.402 131.89)" fill="white"/>
<rect x="191.68" y="155.279" width="11.75" height="11.75" transform="rotate(-5.56142 191.68 155.279)" fill="white"/>
<rect x="90.1523" y="82.5259" width="11.75" height="11.75" transform="rotate(-5.56142 90.1523 82.5259)" fill="black"/>
<rect x="92.4297" y="105.915" width="11.75" height="11.75" transform="rotate(-5.56142 92.4297 105.915)" fill="black"/>
<rect x="94.707" y="129.305" width="11.75" height="11.75" transform="rotate(-5.56142 94.707 129.305)" fill="black"/>
<rect x="96.9844" y="152.694" width="11.75" height="11.75" transform="rotate(-5.56142 96.9844 152.694)" fill="black"/>
<rect x="79.5957" y="95.3594" width="11.75" height="11.75" transform="rotate(-5.56142 79.5957 95.3594)" fill="black"/>
<rect x="81.873" y="118.749" width="11.75" height="11.75" transform="rotate(-5.56142 81.873 118.749)" fill="black"/>
<rect x="84.1504" y="142.138" width="11.75" height="11.75" transform="rotate(-5.56142 84.1504 142.138)" fill="black"/>
<rect x="86.4277" y="165.528" width="11.75" height="11.75" transform="rotate(-5.56142 86.4277 165.528)" fill="black"/>
<rect x="136.93" y="77.9711" width="11.75" height="11.75" transform="rotate(-5.56142 136.93 77.9711)" fill="black"/>
<rect x="139.207" y="101.36" width="11.75" height="11.75" transform="rotate(-5.56142 139.207 101.36)" fill="black"/>
<rect x="141.486" y="124.75" width="11.75" height="11.75" transform="rotate(-5.56142 141.486 124.75)" fill="black"/>
<rect x="143.764" y="148.139" width="11.75" height="11.75" transform="rotate(-5.56142 143.764 148.139)" fill="black"/>
<rect x="126.375" y="90.8044" width="11.75" height="11.75" transform="rotate(-5.56142 126.375 90.8044)" fill="black"/>
<rect x="128.652" y="114.194" width="11.75" height="11.75" transform="rotate(-5.56142 128.652 114.194)" fill="black"/>
<rect x="130.93" y="137.583" width="11.75" height="11.75" transform="rotate(-5.56142 130.93 137.583)" fill="black"/>
<rect x="133.207" y="160.973" width="11.75" height="11.75" transform="rotate(-5.56142 133.207 160.973)" fill="black"/>
<rect x="183.709" y="73.4161" width="11.75" height="11.75" transform="rotate(-5.56142 183.709 73.4161)" fill="black"/>
<rect x="185.986" y="96.8055" width="11.75" height="11.75" transform="rotate(-5.56142 185.986 96.8055)" fill="black"/>
<rect x="188.264" y="120.195" width="11.75" height="11.75" transform="rotate(-5.56142 188.264 120.195)" fill="black"/>
<rect x="190.541" y="143.584" width="11.75" height="11.75" transform="rotate(-5.56142 190.541 143.584)" fill="black"/>
<rect x="173.152" y="86.2496" width="11.75" height="11.75" transform="rotate(-5.56142 173.152 86.2496)" fill="black"/>
<rect x="175.432" y="109.639" width="11.75" height="11.75" transform="rotate(-5.56142 175.432 109.639)" fill="black"/>
<rect x="177.709" y="133.028" width="11.75" height="11.75" transform="rotate(-5.56142 177.709 133.028)" fill="black"/>
<rect x="179.986" y="156.418" width="11.75" height="11.75" transform="rotate(-5.56142 179.986 156.418)" fill="black"/>
<rect x="113.541" y="80.2485" width="11.75" height="11.75" transform="rotate(-5.56142 113.541 80.2485)" fill="black"/>
<rect x="115.818" y="103.638" width="11.75" height="11.75" transform="rotate(-5.56142 115.818 103.638)" fill="black"/>
<rect x="118.096" y="127.027" width="11.75" height="11.75" transform="rotate(-5.56142 118.096 127.027)" fill="black"/>
<rect x="120.373" y="150.417" width="11.75" height="11.75" transform="rotate(-5.56142 120.373 150.417)" fill="black"/>
<rect x="102.984" y="93.0819" width="11.75" height="11.75" transform="rotate(-5.56142 102.984 93.0819)" fill="black"/>
<rect x="105.262" y="116.471" width="11.75" height="11.75" transform="rotate(-5.56142 105.262 116.471)" fill="black"/>
<rect x="107.539" y="139.861" width="11.75" height="11.75" transform="rotate(-5.56142 107.539 139.861)" fill="black"/>
<rect x="109.818" y="163.25" width="11.75" height="11.75" transform="rotate(-5.56142 109.818 163.25)" fill="black"/>
<rect x="160.32" y="75.6936" width="11.75" height="11.75" transform="rotate(-5.56142 160.32 75.6936)" fill="black"/>
<rect x="162.598" y="99.083" width="11.75" height="11.75" transform="rotate(-5.56142 162.598 99.083)" fill="black"/>
<rect x="164.875" y="122.472" width="11.75" height="11.75" transform="rotate(-5.56142 164.875 122.472)" fill="black"/>
<rect x="167.152" y="145.862" width="11.75" height="11.75" transform="rotate(-5.56142 167.152 145.862)" fill="black"/>
<rect x="149.764" y="88.527" width="11.75" height="11.75" transform="rotate(-5.56142 149.764 88.527)" fill="black"/>
<rect x="152.041" y="111.916" width="11.75" height="11.75" transform="rotate(-5.56142 152.041 111.916)" fill="black"/>
<rect x="154.318" y="135.306" width="11.75" height="11.75" transform="rotate(-5.56142 154.318 135.306)" fill="black"/>
<rect x="156.596" y="158.695" width="11.75" height="11.75" transform="rotate(-5.56142 156.596 158.695)" fill="black"/>
<rect x="207.1" y="71.1387" width="11.75" height="11.75" transform="rotate(-5.56142 207.1 71.1387)" fill="black"/>
<rect x="209.377" y="94.5281" width="11.75" height="11.75" transform="rotate(-5.56142 209.377 94.5281)" fill="black"/>
<rect x="211.654" y="117.917" width="11.75" height="11.75" transform="rotate(-5.56142 211.654 117.917)" fill="black"/>
<rect x="213.932" y="141.307" width="11.75" height="11.75" transform="rotate(-5.56142 213.932 141.307)" fill="black"/>
<rect x="196.543" y="83.9721" width="11.75" height="11.75" transform="rotate(-5.56142 196.543 83.9721)" fill="black"/>
<rect x="198.82" y="107.362" width="11.75" height="11.75" transform="rotate(-5.56142 198.82 107.362)" fill="black"/>
<rect x="201.098" y="130.751" width="11.75" height="11.75" transform="rotate(-5.56142 201.098 130.751)" fill="black"/>
<rect x="203.375" y="154.14" width="11.75" height="11.75" transform="rotate(-5.56142 203.375 154.14)" fill="black"/>
<rect x="79.5492" y="84.5631" width="139" height="92" transform="rotate(-5.56142 79.5492 84.5631)" stroke="black" stroke-width="2"/>
<rect x="72" y="79.2697" width="6" height="209" rx="3" transform="rotate(-5.56142 72 79.2697)" fill="black"/>
</svg>
