<svg width="312" height="312" viewBox="0 0 312 312" fill="none" xmlns="http://www.w3.org/2000/svg">
<rect x="6" y="6" width="300" height="300" rx="20" fill="#E3F4FF"/>
<rect x="6" y="6" width="300" height="300" rx="20" stroke="#1684D9" stroke-width="11"/>
<path d="M78.7305 37.2578H81.7773V35.6953C81.7773 33.9505 81.9596 32.6484 82.3242 31.7891C82.7018 30.9297 83.3854 30.2331 84.375 29.6992C85.3776 29.1523 86.6406 28.8789 88.1641 28.8789C89.7266 28.8789 91.2565 29.1133 92.7539 29.582L92.0117 33.4102C91.1393 33.2018 90.2995 33.0977 89.4922 33.0977C88.6979 33.0977 88.125 33.2865 87.7734 33.6641C87.4349 34.0286 87.2656 34.7383 87.2656 35.793V37.2578H91.3672V41.5742H87.2656V58H81.7773V41.5742H78.7305V37.2578ZM94.4531 34.4453V29.3672H99.9414V34.4453H94.4531ZM94.4531 58V37.2578H99.9414V58H94.4531ZM124.453 58H118.965V47.4141C118.965 45.1745 118.848 43.7292 118.613 43.0781C118.379 42.4141 117.995 41.8997 117.461 41.5352C116.94 41.1706 116.309 40.9883 115.566 40.9883C114.616 40.9883 113.763 41.2487 113.008 41.7695C112.253 42.2904 111.732 42.9805 111.445 43.8398C111.172 44.6992 111.035 46.2878 111.035 48.6055V58H105.547V37.2578H110.645V40.3047C112.454 37.9609 114.733 36.7891 117.48 36.7891C118.691 36.7891 119.798 37.0104 120.801 37.4531C121.803 37.8828 122.559 38.4362 123.066 39.1133C123.587 39.7904 123.945 40.5586 124.141 41.418C124.349 42.2773 124.453 43.5078 124.453 45.1094V58ZM130.039 34.4453V29.3672H135.527V34.4453H130.039ZM130.039 58V37.2578H135.527V58H130.039ZM139.238 52.082L144.746 51.2422C144.98 52.3099 145.456 53.1237 146.172 53.6836C146.888 54.2305 147.891 54.5039 149.18 54.5039C150.599 54.5039 151.667 54.2435 152.383 53.7227C152.865 53.3581 153.105 52.8698 153.105 52.2578C153.105 51.8411 152.975 51.4961 152.715 51.2227C152.441 50.9622 151.829 50.7214 150.879 50.5C146.452 49.5234 143.646 48.6315 142.461 47.8242C140.82 46.7044 140 45.1484 140 43.1562C140 41.3594 140.71 39.849 142.129 38.625C143.548 37.401 145.749 36.7891 148.73 36.7891C151.569 36.7891 153.678 37.2513 155.059 38.1758C156.439 39.1003 157.389 40.4674 157.91 42.2773L152.734 43.2344C152.513 42.4271 152.09 41.8086 151.465 41.3789C150.853 40.9492 149.974 40.7344 148.828 40.7344C147.383 40.7344 146.348 40.9362 145.723 41.3398C145.306 41.6263 145.098 41.9974 145.098 42.4531C145.098 42.8438 145.28 43.1758 145.645 43.4492C146.139 43.8138 147.845 44.3281 150.762 44.9922C153.691 45.6562 155.736 46.4701 156.895 47.4336C158.04 48.4102 158.613 49.7708 158.613 51.5156C158.613 53.4167 157.819 55.0508 156.23 56.418C154.642 57.7852 152.292 58.4688 149.18 58.4688C146.354 58.4688 144.115 57.8958 142.461 56.75C140.82 55.6042 139.746 54.0482 139.238 52.082ZM168.906 29.3672V39.8945C170.677 37.8242 172.793 36.7891 175.254 36.7891C176.517 36.7891 177.656 37.0234 178.672 37.4922C179.688 37.9609 180.449 38.5599 180.957 39.2891C181.478 40.0182 181.829 40.8255 182.012 41.7109C182.207 42.5964 182.305 43.9701 182.305 45.832V58H176.816V47.043C176.816 44.8685 176.712 43.4883 176.504 42.9023C176.296 42.3164 175.924 41.8542 175.391 41.5156C174.87 41.1641 174.212 40.9883 173.418 40.9883C172.507 40.9883 171.693 41.2096 170.977 41.6523C170.26 42.0951 169.733 42.7656 169.395 43.6641C169.069 44.5495 168.906 45.8646 168.906 47.6094V58H163.418V29.3672H168.906ZM199.902 51.3984L205.371 52.3164C204.668 54.3216 203.555 55.8516 202.031 56.9062C200.521 57.9479 198.626 58.4688 196.348 58.4688C192.741 58.4688 190.072 57.2904 188.34 54.9336C186.973 53.0456 186.289 50.6628 186.289 47.7852C186.289 44.3477 187.188 41.6589 188.984 39.7188C190.781 37.7656 193.053 36.7891 195.801 36.7891C198.887 36.7891 201.322 37.8112 203.105 39.8555C204.889 41.8867 205.742 45.0052 205.664 49.2109H191.914C191.953 50.8385 192.396 52.1081 193.242 53.0195C194.089 53.918 195.143 54.3672 196.406 54.3672C197.266 54.3672 197.988 54.1328 198.574 53.6641C199.16 53.1953 199.603 52.4401 199.902 51.3984ZM200.215 45.8516C200.176 44.263 199.766 43.0586 198.984 42.2383C198.203 41.4049 197.253 40.9883 196.133 40.9883C194.935 40.9883 193.945 41.4245 193.164 42.2969C192.383 43.1693 191.999 44.3542 192.012 45.8516H200.215ZM229.18 58H224.082V54.9531C223.236 56.138 222.233 57.0234 221.074 57.6094C219.928 58.1823 218.77 58.4688 217.598 58.4688C215.215 58.4688 213.171 57.5117 211.465 55.5977C209.772 53.6706 208.926 50.9883 208.926 47.5508C208.926 44.0352 209.753 41.3659 211.406 39.543C213.06 37.707 215.15 36.7891 217.676 36.7891C219.993 36.7891 221.999 37.7526 223.691 39.6797V29.3672H229.18V58ZM214.531 47.1797C214.531 49.3932 214.837 50.9948 215.449 51.9844C216.335 53.4167 217.572 54.1328 219.16 54.1328C220.423 54.1328 221.497 53.599 222.383 52.5312C223.268 51.4505 223.711 49.8424 223.711 47.707C223.711 45.3242 223.281 43.612 222.422 42.5703C221.562 41.5156 220.462 40.9883 219.121 40.9883C217.819 40.9883 216.725 41.5091 215.84 42.5508C214.967 43.5794 214.531 45.1224 214.531 47.1797Z" fill="black"/>
<rect x="84.4561" y="89.6647" width="11.75" height="11.75" transform="rotate(-5.56142 84.4561 89.6647)" fill="white"/>
<rect x="86.7335" y="113.054" width="11.75" height="11.75" transform="rotate(-5.56142 86.7335 113.054)" fill="white"/>
<rect x="89.011" y="136.443" width="11.75" height="11.75" transform="rotate(-5.56142 89.011 136.443)" fill="white"/>
<rect x="91.2884" y="159.833" width="11.75" height="11.75" transform="rotate(-5.56142 91.2884 159.833)" fill="white"/>
<rect x="214.236" y="88.8334" width="11.75" height="11.75" transform="rotate(-5.56142 214.236 88.8334)" fill="white"/>
<rect x="216.514" y="112.223" width="11.75" height="11.75" transform="rotate(-5.56142 216.514 112.223)" fill="white"/>
<rect x="218.791" y="135.612" width="11.75" height="11.75" transform="rotate(-5.56142 218.791 135.612)" fill="white"/>
<rect x="221.069" y="159.002" width="11.75" height="11.75" transform="rotate(-5.56142 221.069 159.002)" fill="white"/>
<rect x="131.235" y="85.1098" width="11.75" height="11.75" transform="rotate(-5.56142 131.235 85.1098)" fill="white"/>
<rect x="133.512" y="108.499" width="11.75" height="11.75" transform="rotate(-5.56142 133.512 108.499)" fill="white"/>
<rect x="135.79" y="131.889" width="11.75" height="11.75" transform="rotate(-5.56142 135.79 131.889)" fill="white"/>
<rect x="138.067" y="155.278" width="11.75" height="11.75" transform="rotate(-5.56142 138.067 155.278)" fill="white"/>
<rect x="120.679" y="97.9432" width="11.75" height="11.75" transform="rotate(-5.56142 120.679 97.9432)" fill="white"/>
<rect x="122.956" y="121.333" width="11.75" height="11.75" transform="rotate(-5.56142 122.956 121.333)" fill="white"/>
<rect x="125.234" y="144.722" width="11.75" height="11.75" transform="rotate(-5.56142 125.234 144.722)" fill="white"/>
<rect x="127.511" y="168.111" width="11.75" height="11.75" transform="rotate(-5.56142 127.511 168.111)" fill="white"/>
<rect x="178.014" y="80.5549" width="11.75" height="11.75" transform="rotate(-5.56142 178.014 80.5549)" fill="white"/>
<rect x="180.291" y="103.944" width="11.75" height="11.75" transform="rotate(-5.56142 180.291 103.944)" fill="white"/>
<rect x="182.568" y="127.334" width="11.75" height="11.75" transform="rotate(-5.56142 182.568 127.334)" fill="white"/>
<rect x="184.846" y="150.723" width="11.75" height="11.75" transform="rotate(-5.56142 184.846 150.723)" fill="white"/>
<rect x="167.458" y="93.3883" width="11.75" height="11.75" transform="rotate(-5.56142 167.458 93.3883)" fill="white"/>
<rect x="169.735" y="116.778" width="11.75" height="11.75" transform="rotate(-5.56142 169.735 116.778)" fill="white"/>
<rect x="172.013" y="140.167" width="11.75" height="11.75" transform="rotate(-5.56142 172.013 140.167)" fill="white"/>
<rect x="174.29" y="163.556" width="11.75" height="11.75" transform="rotate(-5.56142 174.29 163.556)" fill="white"/>
<rect x="107.845" y="87.3872" width="11.75" height="11.75" transform="rotate(-5.56142 107.845 87.3872)" fill="white"/>
<rect x="110.123" y="110.777" width="11.75" height="11.75" transform="rotate(-5.56142 110.123 110.777)" fill="white"/>
<rect x="112.4" y="134.166" width="11.75" height="11.75" transform="rotate(-5.56142 112.4 134.166)" fill="white"/>
<rect x="114.678" y="157.555" width="11.75" height="11.75" transform="rotate(-5.56142 114.678 157.555)" fill="white"/>
<rect x="97.2895" y="100.221" width="11.75" height="11.75" transform="rotate(-5.56142 97.2895 100.221)" fill="white"/>
<rect x="99.5669" y="123.61" width="11.75" height="11.75" transform="rotate(-5.56142 99.5669 123.61)" fill="white"/>
<rect x="101.844" y="146.999" width="11.75" height="11.75" transform="rotate(-5.56142 101.844 146.999)" fill="white"/>
<rect x="104.122" y="170.389" width="11.75" height="11.75" transform="rotate(-5.56142 104.122 170.389)" fill="white"/>
<rect x="154.624" y="82.8323" width="11.75" height="11.75" transform="rotate(-5.56142 154.624 82.8323)" fill="white"/>
<rect x="156.902" y="106.222" width="11.75" height="11.75" transform="rotate(-5.56142 156.902 106.222)" fill="white"/>
<rect x="159.179" y="129.611" width="11.75" height="11.75" transform="rotate(-5.56142 159.179 129.611)" fill="white"/>
<rect x="161.457" y="153" width="11.75" height="11.75" transform="rotate(-5.56142 161.457 153)" fill="white"/>
<rect x="144.068" y="95.6658" width="11.75" height="11.75" transform="rotate(-5.56142 144.068 95.6658)" fill="white"/>
<rect x="146.346" y="119.055" width="11.75" height="11.75" transform="rotate(-5.56142 146.346 119.055)" fill="white"/>
<rect x="148.623" y="142.445" width="11.75" height="11.75" transform="rotate(-5.56142 148.623 142.445)" fill="white"/>
<rect x="150.901" y="165.834" width="11.75" height="11.75" transform="rotate(-5.56142 150.901 165.834)" fill="white"/>
<rect x="201.403" y="78.2774" width="11.75" height="11.75" transform="rotate(-5.56142 201.403 78.2774)" fill="white"/>
<rect x="203.68" y="101.667" width="11.75" height="11.75" transform="rotate(-5.56142 203.68 101.667)" fill="white"/>
<rect x="205.958" y="125.056" width="11.75" height="11.75" transform="rotate(-5.56142 205.958 125.056)" fill="white"/>
<rect x="208.235" y="148.446" width="11.75" height="11.75" transform="rotate(-5.56142 208.235 148.446)" fill="white"/>
<rect x="190.847" y="91.1109" width="11.75" height="11.75" transform="rotate(-5.56142 190.847 91.1109)" fill="white"/>
<rect x="193.124" y="114.5" width="11.75" height="11.75" transform="rotate(-5.56142 193.124 114.5)" fill="white"/>
<rect x="195.402" y="137.89" width="11.75" height="11.75" transform="rotate(-5.56142 195.402 137.89)" fill="white"/>
<rect x="197.679" y="161.279" width="11.75" height="11.75" transform="rotate(-5.56142 197.679 161.279)" fill="white"/>
<rect x="96.1508" y="88.526" width="11.75" height="11.75" transform="rotate(-5.56142 96.1508 88.526)" fill="black"/>
<rect x="98.4282" y="111.915" width="11.75" height="11.75" transform="rotate(-5.56142 98.4282 111.915)" fill="black"/>
<rect x="100.706" y="135.305" width="11.75" height="11.75" transform="rotate(-5.56142 100.706 135.305)" fill="black"/>
<rect x="102.983" y="158.694" width="11.75" height="11.75" transform="rotate(-5.56142 102.983 158.694)" fill="black"/>
<rect x="85.5948" y="101.359" width="11.75" height="11.75" transform="rotate(-5.56142 85.5948 101.359)" fill="black"/>
<rect x="87.8722" y="124.749" width="11.75" height="11.75" transform="rotate(-5.56142 87.8722 124.749)" fill="black"/>
<rect x="90.1497" y="148.138" width="11.75" height="11.75" transform="rotate(-5.56142 90.1497 148.138)" fill="black"/>
<rect x="92.4271" y="171.528" width="11.75" height="11.75" transform="rotate(-5.56142 92.4271 171.528)" fill="black"/>
<rect x="142.93" y="83.9711" width="11.75" height="11.75" transform="rotate(-5.56142 142.93 83.9711)" fill="black"/>
<rect x="145.207" y="107.36" width="11.75" height="11.75" transform="rotate(-5.56142 145.207 107.36)" fill="black"/>
<rect x="147.484" y="130.75" width="11.75" height="11.75" transform="rotate(-5.56142 147.484 130.75)" fill="black"/>
<rect x="149.762" y="154.139" width="11.75" height="11.75" transform="rotate(-5.56142 149.762 154.139)" fill="black"/>
<rect x="132.374" y="96.8045" width="11.75" height="11.75" transform="rotate(-5.56142 132.374 96.8045)" fill="black"/>
<rect x="134.651" y="120.194" width="11.75" height="11.75" transform="rotate(-5.56142 134.651 120.194)" fill="black"/>
<rect x="136.928" y="143.583" width="11.75" height="11.75" transform="rotate(-5.56142 136.928 143.583)" fill="black"/>
<rect x="139.206" y="166.973" width="11.75" height="11.75" transform="rotate(-5.56142 139.206 166.973)" fill="black"/>
<rect x="189.708" y="79.4162" width="11.75" height="11.75" transform="rotate(-5.56142 189.708 79.4162)" fill="black"/>
<rect x="191.986" y="102.806" width="11.75" height="11.75" transform="rotate(-5.56142 191.986 102.806)" fill="black"/>
<rect x="194.263" y="126.195" width="11.75" height="11.75" transform="rotate(-5.56142 194.263 126.195)" fill="black"/>
<rect x="196.541" y="149.584" width="11.75" height="11.75" transform="rotate(-5.56142 196.541 149.584)" fill="black"/>
<rect x="179.152" y="92.2496" width="11.75" height="11.75" transform="rotate(-5.56142 179.152 92.2496)" fill="black"/>
<rect x="181.43" y="115.639" width="11.75" height="11.75" transform="rotate(-5.56142 181.43 115.639)" fill="black"/>
<rect x="183.707" y="139.028" width="11.75" height="11.75" transform="rotate(-5.56142 183.707 139.028)" fill="black"/>
<rect x="185.985" y="162.418" width="11.75" height="11.75" transform="rotate(-5.56142 185.985 162.418)" fill="black"/>
<rect x="119.54" y="86.2485" width="11.75" height="11.75" transform="rotate(-5.56142 119.54 86.2485)" fill="black"/>
<rect x="121.818" y="109.638" width="11.75" height="11.75" transform="rotate(-5.56142 121.818 109.638)" fill="black"/>
<rect x="124.095" y="133.027" width="11.75" height="11.75" transform="rotate(-5.56142 124.095 133.027)" fill="black"/>
<rect x="126.372" y="156.417" width="11.75" height="11.75" transform="rotate(-5.56142 126.372 156.417)" fill="black"/>
<rect x="108.984" y="99.0819" width="11.75" height="11.75" transform="rotate(-5.56142 108.984 99.0819)" fill="black"/>
<rect x="111.262" y="122.471" width="11.75" height="11.75" transform="rotate(-5.56142 111.262 122.471)" fill="black"/>
<rect x="113.539" y="145.861" width="11.75" height="11.75" transform="rotate(-5.56142 113.539 145.861)" fill="black"/>
<rect x="115.816" y="169.25" width="11.75" height="11.75" transform="rotate(-5.56142 115.816 169.25)" fill="black"/>
<rect x="166.319" y="81.6936" width="11.75" height="11.75" transform="rotate(-5.56142 166.319 81.6936)" fill="black"/>
<rect x="168.596" y="105.083" width="11.75" height="11.75" transform="rotate(-5.56142 168.596 105.083)" fill="black"/>
<rect x="170.874" y="128.472" width="11.75" height="11.75" transform="rotate(-5.56142 170.874 128.472)" fill="black"/>
<rect x="173.151" y="151.862" width="11.75" height="11.75" transform="rotate(-5.56142 173.151 151.862)" fill="black"/>
<rect x="155.763" y="94.527" width="11.75" height="11.75" transform="rotate(-5.56142 155.763 94.527)" fill="black"/>
<rect x="158.04" y="117.916" width="11.75" height="11.75" transform="rotate(-5.56142 158.04 117.916)" fill="black"/>
<rect x="160.318" y="141.306" width="11.75" height="11.75" transform="rotate(-5.56142 160.318 141.306)" fill="black"/>
<rect x="162.595" y="164.695" width="11.75" height="11.75" transform="rotate(-5.56142 162.595 164.695)" fill="black"/>
<rect x="213.098" y="77.1387" width="11.75" height="11.75" transform="rotate(-5.56142 213.098 77.1387)" fill="black"/>
<rect x="215.375" y="100.528" width="11.75" height="11.75" transform="rotate(-5.56142 215.375 100.528)" fill="black"/>
<rect x="217.653" y="123.917" width="11.75" height="11.75" transform="rotate(-5.56142 217.653 123.917)" fill="black"/>
<rect x="219.93" y="147.307" width="11.75" height="11.75" transform="rotate(-5.56142 219.93 147.307)" fill="black"/>
<rect x="202.542" y="89.9721" width="11.75" height="11.75" transform="rotate(-5.56142 202.542 89.9721)" fill="black"/>
<rect x="204.819" y="113.362" width="11.75" height="11.75" transform="rotate(-5.56142 204.819 113.362)" fill="black"/>
<rect x="207.097" y="136.751" width="11.75" height="11.75" transform="rotate(-5.56142 207.097 136.751)" fill="black"/>
<rect x="209.374" y="160.14" width="11.75" height="11.75" transform="rotate(-5.56142 209.374 160.14)" fill="black"/>
<rect x="85.5483" y="90.5631" width="139" height="92" transform="rotate(-5.56142 85.5483 90.5631)" stroke="black" stroke-width="2"/>
<rect x="78" y="85.2697" width="6" height="209" rx="3" transform="rotate(-5.56142 78 85.2697)" fill="black"/>
</svg>
