<svg width="312" height="312" viewBox="0 0 312 312" fill="none" xmlns="http://www.w3.org/2000/svg">
<rect x="6" y="6" width="300" height="300" rx="20" fill="#E2FFE2"/>
<rect x="6" y="6" width="300" height="300" rx="20" stroke="#1ADF1D" stroke-width="11"/>
<path d="M128.789 37.2578H131.836V35.6953C131.836 33.9505 132.018 32.6484 132.383 31.7891C132.76 30.9297 133.444 30.2331 134.434 29.6992C135.436 29.1523 136.699 28.8789 138.223 28.8789C139.785 28.8789 141.315 29.1133 142.812 29.582L142.07 33.4102C141.198 33.2018 140.358 33.0977 139.551 33.0977C138.757 33.0977 138.184 33.2865 137.832 33.6641C137.493 34.0286 137.324 34.7383 137.324 35.793V37.2578H141.426V41.5742H137.324V58H131.836V41.5742H128.789V37.2578ZM143.242 47.3359C143.242 45.513 143.691 43.7487 144.59 42.043C145.488 40.3372 146.758 39.0352 148.398 38.1367C150.052 37.2383 151.895 36.7891 153.926 36.7891C157.064 36.7891 159.635 37.8112 161.641 39.8555C163.646 41.8867 164.648 44.4583 164.648 47.5703C164.648 50.7083 163.633 53.3125 161.602 55.3828C159.583 57.4401 157.038 58.4688 153.965 58.4688C152.064 58.4688 150.247 58.0391 148.516 57.1797C146.797 56.3203 145.488 55.0638 144.59 53.4102C143.691 51.7435 143.242 49.7188 143.242 47.3359ZM148.867 47.6289C148.867 49.6862 149.355 51.2617 150.332 52.3555C151.309 53.4492 152.513 53.9961 153.945 53.9961C155.378 53.9961 156.576 53.4492 157.539 52.3555C158.516 51.2617 159.004 49.6732 159.004 47.5898C159.004 45.5586 158.516 43.9961 157.539 42.9023C156.576 41.8086 155.378 41.2617 153.945 41.2617C152.513 41.2617 151.309 41.8086 150.332 42.9023C149.355 43.9961 148.867 45.5716 148.867 47.6289ZM174.219 58H168.73V37.2578H173.828V40.207C174.701 38.8138 175.482 37.8958 176.172 37.4531C176.875 37.0104 177.669 36.7891 178.555 36.7891C179.805 36.7891 181.009 37.1341 182.168 37.8242L180.469 42.6094C179.544 42.0104 178.685 41.7109 177.891 41.7109C177.122 41.7109 176.471 41.9258 175.938 42.3555C175.404 42.7721 174.98 43.5339 174.668 44.6406C174.368 45.7474 174.219 48.0651 174.219 51.5938V58Z" fill="black"/>
<path fill-rule="evenodd" clip-rule="evenodd" d="M275 159.685L227.5 254.185L119 202.185L106.5 163.185L131 124.685L174 120.685L275 159.685ZM130.377 159.114C135.003 160.931 140.145 158.863 141.862 154.493C143.578 150.124 141.219 145.109 136.593 143.291C131.967 141.473 126.825 143.542 125.108 147.911C123.392 152.281 125.75 157.296 130.377 159.114Z" fill="#FDFF96"/>
<path d="M227.5 254.185L226.726 255.799L228.31 256.558L229.099 254.988L227.5 254.185ZM275 159.685L276.599 160.488L277.485 158.725L275.645 158.015L275 159.685ZM119 202.185L117.295 202.731L117.531 203.465L118.226 203.799L119 202.185ZM106.5 163.185L104.99 162.224L104.539 162.932L104.795 163.731L106.5 163.185ZM131 124.685L130.834 122.902L129.961 122.984L129.49 123.724L131 124.685ZM174 120.685L174.645 119.015L174.253 118.863L173.834 118.902L174 120.685ZM141.862 154.493L140.196 153.839L140.196 153.839L141.862 154.493ZM136.593 143.291L137.248 141.625L137.248 141.625L136.593 143.291ZM125.108 147.911L126.774 148.566L126.774 148.566L125.108 147.911ZM229.099 254.988L276.599 160.488L273.401 158.881L225.901 253.381L229.099 254.988ZM118.226 203.799L226.726 255.799L228.274 252.57L119.774 200.57L118.226 203.799ZM104.795 163.731L117.295 202.731L120.705 201.638L108.205 162.638L104.795 163.731ZM129.49 123.724L104.99 162.224L108.01 164.146L132.51 125.646L129.49 123.724ZM173.834 118.902L130.834 122.902L131.166 126.467L174.166 122.467L173.834 118.902ZM275.645 158.015L174.645 119.015L173.355 122.354L274.355 161.354L275.645 158.015ZM140.196 153.839C138.875 157.2 134.828 158.94 131.031 157.448L129.722 160.78C135.178 162.923 141.415 160.526 143.528 155.148L140.196 153.839ZM135.939 144.957C139.736 146.449 141.516 150.478 140.196 153.839L143.528 155.148C145.641 149.77 142.703 143.768 137.248 141.625L135.939 144.957ZM126.774 148.566C128.095 145.205 132.141 143.465 135.939 144.957L137.248 141.625C131.792 139.482 125.555 141.879 123.442 147.257L126.774 148.566ZM131.031 157.448C127.234 155.956 125.454 151.927 126.774 148.566L123.442 147.257C121.329 152.635 124.267 158.636 129.722 160.78L131.031 157.448Z" fill="black"/>
<path d="M133 158C133.333 138 127.9 108.3 107.5 111.5C82 115.5 88 146.185 62.5 160.185C42.1 171.385 22.5 162 22.5 162M114 190.184C101.333 192.635 73.3 194.465 62.5 182.184C51.7 169.904 45.3333 140.401 43.5 127.185" stroke="black" stroke-width="2" stroke-linecap="round"/>
<path d="M131.5 191.685L218.5 232.185" stroke="black" stroke-width="2.57826" stroke-linecap="round"/>
<path d="M165.456 143.909L184.286 152.543L182.016 157.495L169.075 151.561L166.237 157.75L177.453 162.893L175.354 167.469L164.138 162.327L159.065 173.393L153.175 170.692L165.456 143.909ZM186.226 169.776C185.71 170.901 185.331 172.059 185.088 173.249C184.881 174.425 184.871 175.57 185.056 176.684C185.241 177.798 185.676 178.83 186.361 179.78C187.057 180.704 188.067 181.47 189.393 182.078C190.718 182.685 191.958 182.951 193.113 182.875C194.279 182.775 195.344 182.431 196.309 181.844C197.275 181.258 198.123 180.497 198.855 179.561C199.623 178.612 200.265 177.574 200.781 176.449C201.32 175.274 201.704 174.073 201.933 172.846C202.188 171.631 202.222 170.467 202.037 169.353C201.863 168.214 201.428 167.182 200.732 166.258C200.048 165.308 199.043 164.53 197.717 163.922C196.392 163.314 195.146 163.061 193.98 163.162C192.825 163.238 191.76 163.582 190.783 164.193C189.818 164.78 188.946 165.56 188.166 166.534C187.412 167.52 186.765 168.6 186.226 169.776ZM180.337 167.075C181.254 165.075 182.403 163.362 183.783 161.936C185.174 160.486 186.725 159.381 188.435 158.622C190.145 157.862 191.979 157.493 193.937 157.513C195.92 157.544 197.937 158.03 199.988 158.971C202.063 159.922 203.748 161.133 205.041 162.604C206.334 164.074 207.25 165.705 207.791 167.497C208.331 169.288 208.506 171.184 208.315 173.185C208.136 175.161 207.587 177.149 206.67 179.149C205.776 181.1 204.639 182.788 203.259 184.213C201.89 185.614 200.357 186.681 198.658 187.415C196.959 188.15 195.131 188.507 193.173 188.487C191.226 188.442 189.215 187.943 187.14 186.992C185.089 186.052 183.399 184.853 182.069 183.396C180.777 181.925 179.854 180.307 179.302 178.541C178.75 176.774 178.558 174.916 178.726 172.965C178.906 170.989 179.442 169.026 180.337 167.075ZM217.222 182.308L223.674 185.266C225.024 185.885 226.174 186.05 227.125 185.759C228.075 185.468 228.86 184.648 229.479 183.297C230.075 181.997 230.168 180.904 229.756 180.02C229.356 179.11 228.481 178.345 227.131 177.726L220.679 174.768L217.222 182.308ZM216.888 167.491L231.33 174.113C232.53 174.663 233.514 175.356 234.28 176.192C235.084 177.015 235.668 177.918 236.034 178.903C236.424 179.899 236.588 180.928 236.526 181.989C236.5 183.036 236.251 184.072 235.781 185.097C235.059 186.673 234.096 187.881 232.894 188.722C231.716 189.574 230.239 189.956 228.464 189.868L228.429 189.943C229.063 190.476 229.52 191.064 229.8 191.707C230.092 192.325 230.256 192.99 230.292 193.703C230.34 194.391 230.271 195.101 230.087 195.833C229.927 196.577 229.718 197.299 229.458 197.997C229.288 198.433 229.084 198.945 228.845 199.532C228.607 200.118 228.375 200.723 228.149 201.346C227.949 201.981 227.786 202.602 227.658 203.209C227.568 203.803 227.574 204.351 227.677 204.852L221.788 202.152C221.852 201.153 222.117 200.048 222.58 198.838C223.044 197.628 223.448 196.451 223.791 195.307C224.233 193.815 224.278 192.595 223.926 191.647C223.574 190.698 222.66 189.886 221.184 189.209L215.295 186.509L210.497 196.975L204.607 194.274L216.888 167.491ZM243.356 195.971L237.467 193.27L240.116 187.493L246.005 190.194L243.356 195.971ZM234.027 200.773L239.917 203.473L237.268 209.25L231.378 206.549L234.027 200.773Z" fill="black"/>
</svg>
