<svg width="300" height="300" viewBox="0 0 300 300" fill="none" xmlns="http://www.w3.org/2000/svg">
<path d="M122.789 31.2578H125.836V29.6953C125.836 27.9505 126.018 26.6484 126.383 25.7891C126.76 24.9297 127.444 24.2331 128.434 23.6992C129.436 23.1523 130.699 22.8789 132.223 22.8789C133.785 22.8789 135.315 23.1133 136.812 23.582L136.07 27.4102C135.198 27.2018 134.358 27.0977 133.551 27.0977C132.757 27.0977 132.184 27.2865 131.832 27.6641C131.493 28.0286 131.324 28.7383 131.324 29.793V31.2578H135.426V35.5742H131.324V52H125.836V35.5742H122.789V31.2578ZM137.242 41.3359C137.242 39.513 137.691 37.7487 138.59 36.043C139.488 34.3372 140.758 33.0352 142.398 32.1367C144.052 31.2383 145.895 30.7891 147.926 30.7891C151.064 30.7891 153.635 31.8112 155.641 33.8555C157.646 35.8867 158.648 38.4583 158.648 41.5703C158.648 44.7083 157.633 47.3125 155.602 49.3828C153.583 51.4401 151.038 52.4688 147.965 52.4688C146.064 52.4688 144.247 52.0391 142.516 51.1797C140.797 50.3203 139.488 49.0638 138.59 47.4102C137.691 45.7435 137.242 43.7188 137.242 41.3359ZM142.867 41.6289C142.867 43.6862 143.355 45.2617 144.332 46.3555C145.309 47.4492 146.513 47.9961 147.945 47.9961C149.378 47.9961 150.576 47.4492 151.539 46.3555C152.516 45.2617 153.004 43.6732 153.004 41.5898C153.004 39.5586 152.516 37.9961 151.539 36.9023C150.576 35.8086 149.378 35.2617 147.945 35.2617C146.513 35.2617 145.309 35.8086 144.332 36.9023C143.355 37.9961 142.867 39.5716 142.867 41.6289ZM168.219 52H162.73V31.2578H167.828V34.207C168.701 32.8138 169.482 31.8958 170.172 31.4531C170.875 31.0104 171.669 30.7891 172.555 30.7891C173.805 30.7891 175.009 31.1341 176.168 31.8242L174.469 36.6094C173.544 36.0104 172.685 35.7109 171.891 35.7109C171.122 35.7109 170.471 35.9258 169.938 36.3555C169.404 36.7721 168.98 37.5339 168.668 38.6406C168.368 39.7474 168.219 42.0651 168.219 45.5938V52Z" fill="black"/>
<path fill-rule="evenodd" clip-rule="evenodd" d="M269 153.685L221.5 248.185L113 196.185L100.5 157.185L125 118.685L168 114.685L269 153.685ZM124.377 153.114C129.003 154.931 134.145 152.863 135.862 148.493C137.578 144.124 135.219 139.109 130.593 137.291C125.967 135.473 120.825 137.542 119.108 141.911C117.392 146.281 119.75 151.296 124.377 153.114Z" fill="#FDFF96"/>
<path d="M221.5 248.185L220.726 249.799L222.31 250.558L223.099 248.988L221.5 248.185ZM269 153.685L270.599 154.488L271.485 152.725L269.645 152.015L269 153.685ZM113 196.185L111.295 196.731L111.531 197.465L112.226 197.799L113 196.185ZM100.5 157.185L98.9898 156.224L98.5392 156.932L98.7954 157.731L100.5 157.185ZM125 118.685L124.834 116.902L123.961 116.984L123.49 117.724L125 118.685ZM168 114.685L168.645 113.015L168.253 112.863L167.834 112.902L168 114.685ZM135.862 148.493L134.196 147.839L134.196 147.839L135.862 148.493ZM130.593 137.291L131.248 135.625L131.248 135.625L130.593 137.291ZM119.108 141.911L120.774 142.566L120.774 142.566L119.108 141.911ZM221.5 248.185L223.099 248.988L270.599 154.488L269 153.685L267.401 152.881L219.901 247.381L221.5 248.185ZM113 196.185L112.226 197.799L220.726 249.799L221.5 248.185L222.274 246.57L113.774 194.57L113 196.185ZM100.5 157.185L98.7954 157.731L111.295 196.731L113 196.185L114.705 195.638L102.205 156.638L100.5 157.185ZM125 118.685L123.49 117.724L98.9898 156.224L100.5 157.185L102.01 158.146L126.51 119.646L125 118.685ZM168 114.685L167.834 112.902L124.834 116.902L125 118.685L125.166 120.467L168.166 116.467L168 114.685ZM269 153.685L269.645 152.015L168.645 113.015L168 114.685L167.355 116.354L268.355 155.354L269 153.685ZM135.862 148.493L134.196 147.839C132.875 151.2 128.828 152.94 125.031 151.448L124.377 153.114L123.722 154.78C129.178 156.923 135.415 154.526 137.528 149.148L135.862 148.493ZM130.593 137.291L129.939 138.957C133.736 140.449 135.516 144.478 134.196 147.839L135.862 148.493L137.528 149.148C139.641 143.77 136.703 137.768 131.248 135.625L130.593 137.291ZM119.108 141.911L120.774 142.566C122.095 139.205 126.141 137.465 129.939 138.957L130.593 137.291L131.248 135.625C125.792 133.482 119.555 135.879 117.442 141.257L119.108 141.911ZM124.377 153.114L125.031 151.448C121.234 149.956 119.454 145.927 120.774 142.566L119.108 141.911L117.442 141.257C115.329 146.635 118.267 152.636 123.722 154.78L124.377 153.114Z" fill="black"/>
<path d="M127 152C127.333 132 121.9 102.3 101.5 105.5C76 109.5 82 140.185 56.5 154.185C36.1 165.385 16.5 156 16.5 156M108 184.185C95.3333 186.635 67.3 188.465 56.5 176.185C45.7 163.904 39.3333 134.401 37.5 121.185" stroke="black" stroke-width="2" stroke-linecap="round"/>
<path d="M125.5 185.685L212.5 226.185" stroke="black" stroke-width="2.57826" stroke-linecap="round"/>
<path d="M159.455 137.909L178.285 146.543L176.015 151.495L163.074 145.561L160.236 151.75L171.452 156.893L169.353 161.469L158.137 156.327L153.064 167.393L147.174 164.692L159.455 137.909ZM180.225 163.776C179.709 164.901 179.33 166.059 179.087 167.249C178.88 168.425 178.87 169.57 179.055 170.684C179.24 171.798 179.675 172.83 180.36 173.78C181.056 174.704 182.066 175.47 183.392 176.078C184.717 176.685 185.957 176.951 187.112 176.875C188.278 176.775 189.343 176.431 190.308 175.844C191.274 175.258 192.122 174.497 192.854 173.561C193.622 172.612 194.264 171.575 194.78 170.449C195.319 169.274 195.703 168.073 195.932 166.846C196.187 165.631 196.221 164.467 196.036 163.353C195.862 162.214 195.427 161.182 194.731 160.258C194.047 159.308 193.042 158.53 191.716 157.922C190.391 157.314 189.145 157.061 187.979 157.162C186.824 157.238 185.759 157.582 184.782 158.193C183.817 158.78 182.945 159.56 182.165 160.534C181.411 161.52 180.764 162.6 180.225 163.776ZM174.336 161.075C175.253 159.075 176.402 157.362 177.782 155.937C179.173 154.486 180.724 153.381 182.434 152.622C184.144 151.862 185.978 151.493 187.936 151.513C189.919 151.544 191.936 152.03 193.987 152.971C196.062 153.922 197.747 155.133 199.04 156.604C200.333 158.074 201.249 159.705 201.79 161.497C202.331 163.288 202.505 165.184 202.314 167.185C202.135 169.161 201.586 171.149 200.669 173.15C199.775 175.1 198.638 176.788 197.258 178.213C195.889 179.614 194.356 180.681 192.657 181.416C190.958 182.15 189.13 182.507 187.172 182.487C185.225 182.442 183.214 181.943 181.139 180.992C179.088 180.052 177.398 178.853 176.069 177.396C174.776 175.925 173.853 174.307 173.301 172.541C172.749 170.774 172.557 168.916 172.725 166.965C172.905 164.989 173.442 163.026 174.336 161.075ZM211.221 176.308L217.673 179.266C219.023 179.885 220.173 180.05 221.124 179.759C222.074 179.468 222.859 178.648 223.478 177.297C224.074 175.997 224.167 174.904 223.755 174.02C223.355 173.11 222.48 172.345 221.13 171.726L214.678 168.768L211.221 176.308ZM210.887 161.491L225.329 168.113C226.529 168.663 227.513 169.356 228.279 170.192C229.083 171.015 229.667 171.918 230.033 172.903C230.423 173.899 230.587 174.928 230.525 175.989C230.499 177.036 230.25 178.072 229.78 179.097C229.058 180.673 228.095 181.881 226.893 182.722C225.715 183.574 224.238 183.956 222.463 183.869L222.428 183.944C223.062 184.476 223.519 185.064 223.799 185.707C224.091 186.325 224.255 186.99 224.291 187.703C224.339 188.391 224.27 189.101 224.086 189.833C223.926 190.578 223.717 191.299 223.457 191.997C223.287 192.433 223.083 192.945 222.844 193.532C222.606 194.118 222.374 194.723 222.148 195.346C221.948 195.981 221.785 196.602 221.657 197.209C221.567 197.803 221.573 198.351 221.676 198.852L215.787 196.152C215.851 195.153 216.116 194.048 216.58 192.838C217.043 191.628 217.447 190.452 217.79 189.307C218.232 187.815 218.277 186.595 217.925 185.647C217.573 184.698 216.659 183.886 215.184 183.209L209.294 180.509L204.496 190.975L198.606 188.274L210.887 161.491ZM237.355 189.971L231.466 187.27L234.115 181.493L240.004 184.194L237.355 189.971ZM228.026 194.773L233.916 197.473L231.267 203.25L225.378 200.549L228.026 194.773Z" fill="black"/>
</svg>
