<svg width="312" height="312" viewBox="0 0 312 312" fill="none" xmlns="http://www.w3.org/2000/svg">
<rect x="6" y="6" width="300" height="300" rx="20" fill="#FFE3FF"/>
<rect x="6" y="6" width="300" height="300" rx="20" stroke="#FE05FC" stroke-width="11"/>
<path d="M127.844 59.3672L134.113 60.1289C134.217 60.8581 134.458 61.3594 134.836 61.6328C135.357 62.0234 136.177 62.2188 137.297 62.2188C138.729 62.2188 139.803 62.0039 140.52 61.5742C141.001 61.2878 141.366 60.8255 141.613 60.1875C141.783 59.7318 141.867 58.8919 141.867 57.668V54.6406C140.227 56.8802 138.156 58 135.656 58C132.87 58 130.663 56.8216 129.035 54.4648C127.759 52.6029 127.121 50.2852 127.121 47.5117C127.121 44.0352 127.954 41.3789 129.621 39.543C131.301 37.707 133.384 36.7891 135.871 36.7891C138.436 36.7891 140.552 37.9154 142.219 40.168V37.2578H147.355V55.8711C147.355 58.319 147.154 60.1484 146.75 61.3594C146.346 62.5703 145.78 63.5208 145.051 64.2109C144.322 64.901 143.345 65.4414 142.121 65.832C140.91 66.2227 139.374 66.418 137.512 66.418C133.996 66.418 131.503 65.8125 130.031 64.6016C128.56 63.4036 127.824 61.8802 127.824 60.0312C127.824 59.849 127.831 59.6276 127.844 59.3672ZM132.746 47.1992C132.746 49.3997 133.169 51.0143 134.016 52.043C134.875 53.0586 135.93 53.5664 137.18 53.5664C138.521 53.5664 139.654 53.0456 140.578 52.0039C141.503 50.9492 141.965 49.3932 141.965 47.3359C141.965 45.1875 141.522 43.5924 140.637 42.5508C139.751 41.5091 138.632 40.9883 137.277 40.9883C135.962 40.9883 134.875 41.5026 134.016 42.5312C133.169 43.5469 132.746 45.1029 132.746 47.1992ZM164.816 51.3984L170.285 52.3164C169.582 54.3216 168.469 55.8516 166.945 56.9062C165.435 57.9479 163.54 58.4688 161.262 58.4688C157.655 58.4688 154.986 57.2904 153.254 54.9336C151.887 53.0456 151.203 50.6628 151.203 47.7852C151.203 44.3477 152.102 41.6589 153.898 39.7188C155.695 37.7656 157.967 36.7891 160.715 36.7891C163.801 36.7891 166.236 37.8112 168.02 39.8555C169.803 41.8867 170.656 45.0052 170.578 49.2109H156.828C156.867 50.8385 157.31 52.1081 158.156 53.0195C159.003 53.918 160.057 54.3672 161.32 54.3672C162.18 54.3672 162.902 54.1328 163.488 53.6641C164.074 53.1953 164.517 52.4401 164.816 51.3984ZM165.129 45.8516C165.09 44.263 164.68 43.0586 163.898 42.2383C163.117 41.4049 162.167 40.9883 161.047 40.9883C159.849 40.9883 158.859 41.4245 158.078 42.2969C157.297 43.1693 156.913 44.3542 156.926 45.8516H165.129ZM184.582 37.2578V41.6328H180.832V49.9922C180.832 51.6849 180.865 52.6745 180.93 52.9609C181.008 53.2344 181.171 53.4622 181.418 53.6445C181.678 53.8268 181.991 53.918 182.355 53.918C182.863 53.918 183.599 53.7422 184.562 53.3906L185.031 57.6484C183.755 58.1953 182.31 58.4688 180.695 58.4688C179.706 58.4688 178.814 58.306 178.02 57.9805C177.225 57.6419 176.639 57.2122 176.262 56.6914C175.897 56.1576 175.643 55.4414 175.5 54.543C175.383 53.9049 175.324 52.6159 175.324 50.6758V41.6328H172.805V37.2578H175.324V33.1367L180.832 29.9336V37.2578H184.582Z" fill="black"/>
<rect x="169" y="149.293" width="91.2475" height="91.2475" fill="#B92429" stroke="black" stroke-width="3.70996"/>
<path d="M168.801 239.593L49 222.478M160.52 143.531L49 122" stroke="black" stroke-width="9.93741" stroke-linecap="round"/>
<g filter="url(#filter0_d_128_1314)">
<path d="M168.801 148.5V182.177C156.103 176.104 156.655 143.531 158.864 140.771C161.072 138.01 184.811 135.25 191.988 135.25C197.73 135.25 207.262 144.083 211.311 148.5H168.801Z" fill="black"/>
<path d="M168.801 148.5V182.177C156.103 176.104 156.655 143.531 158.864 140.771C161.072 138.01 184.811 135.25 191.988 135.25C197.73 135.25 207.262 144.083 211.311 148.5H168.801Z" stroke="black" stroke-width="1.10416" stroke-linecap="round"/>
</g>
<path d="M166.858 202.549C168.916 198.431 172.005 193.284 176.122 195.343C180.24 197.402 177.152 201.519 175.093 205.637C173.034 209.754 170.194 213.318 171.223 216.406C172.253 219.494 179.29 213.872 188.475 209.228C197.141 204.847 202.886 202.549 204.945 205.637C207 208.72 202.888 211.008 197.763 213.859L197.739 213.872C192.603 216.729 188.377 219.039 184.259 221.098C180.142 223.157 180.947 227.447 187.019 225.791C193.092 224.134 196.947 221.313 201.374 220.048C208.579 217.989 212.735 216.406 214.209 220.048C216.268 225.134 210.609 225.865 208.551 226.895C205.462 228.439 188.475 232.968 188.475 236.518C188.475 238.577 195.68 238.577 199.798 236.518C203.915 234.459 209.062 232.401 211.121 234.459C213.18 236.518 211.121 239.606 209.062 241.665C207.003 243.724 183.328 250.929 176.122 249.9C168.916 248.871 163.769 239.606 160.681 236.518C157.593 233.43 156.564 226.224 157.593 222.107C158.623 217.989 164.799 206.666 166.858 202.549Z" fill="black" stroke="black" stroke-width="2.05875" stroke-linecap="round"/>
<defs>
<filter id="filter0_d_128_1314" x="152.663" y="134.698" width="64.3193" height="57.188" filterUnits="userSpaceOnUse" color-interpolation-filters="sRGB">
<feFlood flood-opacity="0" result="BackgroundImageFix"/>
<feColorMatrix in="SourceAlpha" type="matrix" values="0 0 0 0 0 0 0 0 0 0 0 0 0 0 0 0 0 0 127 0" result="hardAlpha"/>
<feOffset dy="4.41662"/>
<feGaussianBlur stdDeviation="2.20831"/>
<feComposite in2="hardAlpha" operator="out"/>
<feColorMatrix type="matrix" values="0 0 0 0 0 0 0 0 0 0 0 0 0 0 0 0 0 0 0.25 0"/>
<feBlend mode="normal" in2="BackgroundImageFix" result="effect1_dropShadow_128_1314"/>
<feBlend mode="normal" in="SourceGraphic" in2="effect1_dropShadow_128_1314" result="shape"/>
</filter>
</defs>
</svg>
