<svg width="300" height="300" viewBox="0 0 300 300" fill="none" xmlns="http://www.w3.org/2000/svg">
<path d="M121.844 53.3672L128.113 54.1289C128.217 54.8581 128.458 55.3594 128.836 55.6328C129.357 56.0234 130.177 56.2188 131.297 56.2188C132.729 56.2188 133.803 56.0039 134.52 55.5742C135.001 55.2878 135.366 54.8255 135.613 54.1875C135.783 53.7318 135.867 52.8919 135.867 51.668V48.6406C134.227 50.8802 132.156 52 129.656 52C126.87 52 124.663 50.8216 123.035 48.4648C121.759 46.6029 121.121 44.2852 121.121 41.5117C121.121 38.0352 121.954 35.3789 123.621 33.543C125.301 31.707 127.384 30.7891 129.871 30.7891C132.436 30.7891 134.552 31.9154 136.219 34.168V31.2578H141.355V49.8711C141.355 52.319 141.154 54.1484 140.75 55.3594C140.346 56.5703 139.78 57.5208 139.051 58.2109C138.322 58.901 137.345 59.4414 136.121 59.832C134.91 60.2227 133.374 60.418 131.512 60.418C127.996 60.418 125.503 59.8125 124.031 58.6016C122.56 57.4036 121.824 55.8802 121.824 54.0312C121.824 53.849 121.831 53.6276 121.844 53.3672ZM126.746 41.1992C126.746 43.3997 127.169 45.0143 128.016 46.043C128.875 47.0586 129.93 47.5664 131.18 47.5664C132.521 47.5664 133.654 47.0456 134.578 46.0039C135.503 44.9492 135.965 43.3932 135.965 41.3359C135.965 39.1875 135.522 37.5924 134.637 36.5508C133.751 35.5091 132.632 34.9883 131.277 34.9883C129.962 34.9883 128.875 35.5026 128.016 36.5312C127.169 37.5469 126.746 39.1029 126.746 41.1992ZM158.816 45.3984L164.285 46.3164C163.582 48.3216 162.469 49.8516 160.945 50.9062C159.435 51.9479 157.54 52.4688 155.262 52.4688C151.655 52.4688 148.986 51.2904 147.254 48.9336C145.887 47.0456 145.203 44.6628 145.203 41.7852C145.203 38.3477 146.102 35.6589 147.898 33.7188C149.695 31.7656 151.967 30.7891 154.715 30.7891C157.801 30.7891 160.236 31.8112 162.02 33.8555C163.803 35.8867 164.656 39.0052 164.578 43.2109H150.828C150.867 44.8385 151.31 46.1081 152.156 47.0195C153.003 47.918 154.057 48.3672 155.32 48.3672C156.18 48.3672 156.902 48.1328 157.488 47.6641C158.074 47.1953 158.517 46.4401 158.816 45.3984ZM159.129 39.8516C159.09 38.263 158.68 37.0586 157.898 36.2383C157.117 35.4049 156.167 34.9883 155.047 34.9883C153.849 34.9883 152.859 35.4245 152.078 36.2969C151.297 37.1693 150.913 38.3542 150.926 39.8516H159.129ZM178.582 31.2578V35.6328H174.832V43.9922C174.832 45.6849 174.865 46.6745 174.93 46.9609C175.008 47.2344 175.171 47.4622 175.418 47.6445C175.678 47.8268 175.991 47.918 176.355 47.918C176.863 47.918 177.599 47.7422 178.562 47.3906L179.031 51.6484C177.755 52.1953 176.31 52.4688 174.695 52.4688C173.706 52.4688 172.814 52.306 172.02 51.9805C171.225 51.6419 170.639 51.2122 170.262 50.6914C169.897 50.1576 169.643 49.4414 169.5 48.543C169.383 47.9049 169.324 46.6159 169.324 44.6758V35.6328H166.805V31.2578H169.324V27.1367L174.832 23.9336V31.2578H178.582Z" fill="black"/>
<rect x="163" y="143.293" width="91.2475" height="91.2475" fill="#B92429" stroke="black" stroke-width="3.70996"/>
<path d="M162.801 233.593L43 216.478M154.52 137.531L43 116" stroke="black" stroke-width="9.93741" stroke-linecap="round"/>
<g filter="url(#filter0_d_28_324)">
<path d="M162.802 142.5V176.177C150.104 170.104 150.656 137.531 152.864 134.771C155.073 132.01 178.812 129.25 185.989 129.25C191.731 129.25 201.263 138.083 205.312 142.5H162.802Z" fill="black"/>
<path d="M162.802 142.5V176.177C150.104 170.104 150.656 137.531 152.864 134.771C155.073 132.01 178.812 129.25 185.989 129.25C191.731 129.25 201.263 138.083 205.312 142.5H162.802Z" stroke="black" stroke-width="1.10416" stroke-linecap="round"/>
</g>
<path d="M160.857 196.549C162.916 192.431 166.004 187.284 170.122 189.343C174.239 191.402 171.151 195.519 169.092 199.637C167.034 203.754 164.194 207.318 165.223 210.406C166.252 213.494 173.29 207.872 182.474 203.228C191.141 198.847 196.886 196.549 198.944 199.637C201 202.72 196.888 205.008 191.762 207.859L191.739 207.872C186.602 210.729 182.376 213.039 178.259 215.098C174.141 217.157 174.946 221.447 181.019 219.791C187.092 218.134 190.947 215.313 195.373 214.048C202.579 211.989 206.735 210.406 208.209 214.048C210.268 219.134 204.609 219.865 202.55 220.895C199.462 222.439 182.474 226.968 182.474 230.518C182.474 232.577 189.68 232.577 193.798 230.518C197.915 228.459 203.062 226.401 205.121 228.459C207.179 230.518 205.121 233.606 203.062 235.665C201.003 237.724 177.328 244.929 170.122 243.9C162.916 242.871 157.769 233.606 154.681 230.518C151.593 227.43 150.564 220.224 151.593 216.107C152.622 211.989 158.799 200.666 160.857 196.549Z" fill="black" stroke="black" stroke-width="2.05875" stroke-linecap="round"/>
<defs>
<filter id="filter0_d_28_324" x="146.663" y="128.698" width="64.3196" height="57.1879" filterUnits="userSpaceOnUse" color-interpolation-filters="sRGB">
<feFlood flood-opacity="0" result="BackgroundImageFix"/>
<feColorMatrix in="SourceAlpha" type="matrix" values="0 0 0 0 0 0 0 0 0 0 0 0 0 0 0 0 0 0 127 0" result="hardAlpha"/>
<feOffset dy="4.41662"/>
<feGaussianBlur stdDeviation="2.20831"/>
<feComposite in2="hardAlpha" operator="out"/>
<feColorMatrix type="matrix" values="0 0 0 0 0 0 0 0 0 0 0 0 0 0 0 0 0 0 0.25 0"/>
<feBlend mode="normal" in2="BackgroundImageFix" result="effect1_dropShadow_28_324"/>
<feBlend mode="normal" in="SourceGraphic" in2="effect1_dropShadow_28_324" result="shape"/>
</filter>
</defs>
</svg>
