<svg width="300" height="300" viewBox="0 0 300 300" fill="none" xmlns="http://www.w3.org/2000/svg">
<g clip-path="url(#clip0_28_687)">
<path d="M111.805 53.3672L118.074 54.1289C118.178 54.8581 118.419 55.3594 118.797 55.6328C119.318 56.0234 120.138 56.2188 121.258 56.2188C122.69 56.2188 123.764 56.0039 124.48 55.5742C124.962 55.2878 125.327 54.8255 125.574 54.1875C125.743 53.7318 125.828 52.8919 125.828 51.668V48.6406C124.188 50.8802 122.117 52 119.617 52C116.831 52 114.624 50.8216 112.996 48.4648C111.72 46.6029 111.082 44.2852 111.082 41.5117C111.082 38.0352 111.915 35.3789 113.582 33.543C115.262 31.707 117.345 30.7891 119.832 30.7891C122.397 30.7891 124.513 31.9154 126.18 34.168V31.2578H131.316V49.8711C131.316 52.319 131.115 54.1484 130.711 55.3594C130.307 56.5703 129.741 57.5208 129.012 58.2109C128.283 58.901 127.306 59.4414 126.082 59.832C124.871 60.2227 123.335 60.418 121.473 60.418C117.957 60.418 115.464 59.8125 113.992 58.6016C112.521 57.4036 111.785 55.8802 111.785 54.0312C111.785 53.849 111.792 53.6276 111.805 53.3672ZM116.707 41.1992C116.707 43.3997 117.13 45.0143 117.977 46.043C118.836 47.0586 119.891 47.5664 121.141 47.5664C122.482 47.5664 123.615 47.0456 124.539 46.0039C125.464 44.9492 125.926 43.3932 125.926 41.3359C125.926 39.1875 125.483 37.5924 124.598 36.5508C123.712 35.5091 122.592 34.9883 121.238 34.9883C119.923 34.9883 118.836 35.5026 117.977 36.5312C117.13 37.5469 116.707 39.1029 116.707 41.1992ZM136.766 28.4453V23.3672H142.254V28.4453H136.766ZM136.766 52V31.2578H142.254V52H136.766ZM153.602 52L145.242 31.2578H151.004L154.91 41.8438L156.043 45.3789C156.342 44.4805 156.531 43.888 156.609 43.6016C156.792 43.0156 156.987 42.4297 157.195 41.8438L161.141 31.2578H166.785L158.543 52H153.602ZM182.176 45.3984L187.645 46.3164C186.941 48.3216 185.828 49.8516 184.305 50.9062C182.794 51.9479 180.9 52.4688 178.621 52.4688C175.014 52.4688 172.345 51.2904 170.613 48.9336C169.246 47.0456 168.562 44.6628 168.562 41.7852C168.562 38.3477 169.461 35.6589 171.258 33.7188C173.055 31.7656 175.327 30.7891 178.074 30.7891C181.16 30.7891 183.595 31.8112 185.379 33.8555C187.163 35.8867 188.016 39.0052 187.938 43.2109H174.188C174.227 44.8385 174.669 46.1081 175.516 47.0195C176.362 47.918 177.417 48.3672 178.68 48.3672C179.539 48.3672 180.262 48.1328 180.848 47.6641C181.434 47.1953 181.876 46.4401 182.176 45.3984ZM182.488 39.8516C182.449 38.263 182.039 37.0586 181.258 36.2383C180.477 35.4049 179.526 34.9883 178.406 34.9883C177.208 34.9883 176.219 35.4245 175.438 36.2969C174.656 37.1693 174.272 38.3542 174.285 39.8516H182.488Z" fill="black"/>
<path d="M223.065 77.8469C247.62 75.555 270.069 96.0349 272.701 124.235C275.333 152.434 257.062 176.714 232.507 179.006C207.952 181.297 185.504 160.818 182.872 132.619C180.24 104.42 198.51 80.139 223.065 77.8469Z" fill="#BC8166" stroke="black" stroke-width="4.87675"/>
<path d="M195.055 160.494C195.055 160.494 201.824 162.579 210.159 158.529C218.494 154.48 220.886 150.095 222.499 146" stroke="black" stroke-width="5.58965" stroke-linecap="round"/>
<path d="M209.008 115.725C210.652 116.327 211.187 117.87 210.808 118.903C210.43 119.936 209.026 120.769 207.381 120.167C205.737 119.564 205.202 118.021 205.581 116.988C205.959 115.955 207.364 115.123 209.008 115.725Z" fill="black" stroke="black" stroke-width="5.87382"/>
<path d="M70.0648 77.8469C94.6197 75.555 117.069 96.0349 119.701 124.235C122.333 152.434 104.062 176.714 79.5068 179.006C54.9521 181.297 32.504 160.818 29.8717 132.619C27.2396 104.42 45.5101 80.139 70.0648 77.8469Z" fill="#BC8166" stroke="black" stroke-width="4.87675"/>
<path d="M77.1266 150.102C77.1266 150.102 79.0034 156.932 86.8958 161.788C94.7883 166.645 99.7716 166.308 104.092 165.469" stroke="black" stroke-width="5.58965" stroke-linecap="round"/>
<path d="M98.5044 118.725C100.149 119.327 100.683 120.87 100.304 121.903C99.9261 122.936 98.5219 123.769 96.8776 123.167C95.2331 122.564 94.6983 121.021 95.0767 119.988C95.4551 118.955 96.8601 118.123 98.5044 118.725Z" fill="black" stroke="black" stroke-width="5.87382"/>
<path d="M68.9961 181C70.6628 201.833 69.0961 252.2 49.4961 287" stroke="black" stroke-width="5" stroke-linecap="round"/>
<path d="M69.4961 200L90.4961 243L114.996 251.5" stroke="black" stroke-width="5" stroke-linecap="round"/>
<rect x="121.176" y="202.68" width="52.64" height="53.64" fill="#B92429" stroke="black" stroke-width="3.36"/>
<path d="M117.831 228.448C113.13 231.916 110.565 236.861 109.996 244C109.996 248.529 109.19 249.918 112.776 254.663C116.361 259.408 118.143 258.807 123.5 259.977C128.857 261.148 127.665 260.557 131.831 261.137C135.782 261.687 140.507 261.474 140.496 258.5C140.485 255.526 134.321 256.111 133.001 255.78C131.681 255.449 129.341 256.102 129.33 253.128C129.324 251.247 131.269 251.397 133.538 251.128C138.831 250.5 145.996 250.976 145.996 246.5C145.996 243.971 135.656 245.99 132.996 246C130.001 246.011 129.33 245.033 129.33 242.628C129.33 240.223 132.873 239.487 135.996 239C139.789 238.408 144.996 237.417 144.496 234.417C143.888 230.768 134.949 233.633 130.496 234.417L130.453 234.424C126.738 235.078 119.847 236.29 119.84 234.417C119.829 231.443 126.781 231.628 126.331 227.128C126.031 224.128 122.331 225.128 117.831 228.448Z" fill="black" stroke="black" stroke-width="2.65976" stroke-linecap="round"/>
<path d="M240.5 178.5C239.839 182.107 239.324 187.44 239.056 193.5M259.5 283C255 270.5 244 248 240.5 227C238.877 217.263 238.58 204.241 239.056 193.5M239.056 193.5L272 255.5L228.5 271" stroke="black" stroke-width="4.86" stroke-linecap="round"/>
<path d="M226.819 244C230.53 244 228.674 255.261 230.53 261.696C230.53 266.522 234.485 267.919 232.386 269.74C228.675 272.957 226.819 274.566 219.396 276.174C213.996 277.345 200.841 287.435 197.13 285.827C194.161 284.54 202.697 282.609 202.697 277.783C197.13 278.856 182.285 282.27 182.285 279.392C182.285 276.514 189.708 280.164 204.552 269.74H189.708C180.43 269.74 179.118 267.66 180.43 266.522C182.286 264.913 197.13 266.522 211.975 263.305C216.307 262.366 221.252 259.551 223.108 258.478V248.826V248.825C223.108 245.608 223.108 244 226.819 244Z" fill="black" stroke="black" stroke-width="2.57826" stroke-linecap="round"/>
</g>
<defs>
<clipPath id="clip0_28_687">
<rect width="300" height="300" rx="20" fill="white"/>
</clipPath>
</defs>
</svg>
