<svg width="312" height="312" viewBox="0 0 312 312" fill="none" xmlns="http://www.w3.org/2000/svg">
<g clip-path="url(#clip0_129_1362)">
<rect x="6" y="6" width="300" height="300" rx="20" fill="#FFE3FF"/>
<path d="M117.805 59.3672L124.074 60.1289C124.178 60.8581 124.419 61.3594 124.797 61.6328C125.318 62.0234 126.138 62.2188 127.258 62.2188C128.69 62.2188 129.764 62.0039 130.48 61.5742C130.962 61.2878 131.327 60.8255 131.574 60.1875C131.743 59.7318 131.828 58.8919 131.828 57.668V54.6406C130.188 56.8802 128.117 58 125.617 58C122.831 58 120.624 56.8216 118.996 54.4648C117.72 52.6029 117.082 50.2852 117.082 47.5117C117.082 44.0352 117.915 41.3789 119.582 39.543C121.262 37.707 123.345 36.7891 125.832 36.7891C128.397 36.7891 130.513 37.9154 132.18 40.168V37.2578H137.316V55.8711C137.316 58.319 137.115 60.1484 136.711 61.3594C136.307 62.5703 135.741 63.5208 135.012 64.2109C134.283 64.901 133.306 65.4414 132.082 65.832C130.871 66.2227 129.335 66.418 127.473 66.418C123.957 66.418 121.464 65.8125 119.992 64.6016C118.521 63.4036 117.785 61.8802 117.785 60.0312C117.785 59.849 117.792 59.6276 117.805 59.3672ZM122.707 47.1992C122.707 49.3997 123.13 51.0143 123.977 52.043C124.836 53.0586 125.891 53.5664 127.141 53.5664C128.482 53.5664 129.615 53.0456 130.539 52.0039C131.464 50.9492 131.926 49.3932 131.926 47.3359C131.926 45.1875 131.483 43.5924 130.598 42.5508C129.712 41.5091 128.592 40.9883 127.238 40.9883C125.923 40.9883 124.836 41.5026 123.977 42.5312C123.13 43.5469 122.707 45.1029 122.707 47.1992ZM142.766 34.4453V29.3672H148.254V34.4453H142.766ZM142.766 58V37.2578H148.254V58H142.766ZM159.602 58L151.242 37.2578H157.004L160.91 47.8438L162.043 51.3789C162.342 50.4805 162.531 49.888 162.609 49.6016C162.792 49.0156 162.987 48.4297 163.195 47.8438L167.141 37.2578H172.785L164.543 58H159.602ZM188.176 51.3984L193.645 52.3164C192.941 54.3216 191.828 55.8516 190.305 56.9062C188.794 57.9479 186.9 58.4688 184.621 58.4688C181.014 58.4688 178.345 57.2904 176.613 54.9336C175.246 53.0456 174.562 50.6628 174.562 47.7852C174.562 44.3477 175.461 41.6589 177.258 39.7188C179.055 37.7656 181.327 36.7891 184.074 36.7891C187.16 36.7891 189.595 37.8112 191.379 39.8555C193.163 41.8867 194.016 45.0052 193.938 49.2109H180.188C180.227 50.8385 180.669 52.1081 181.516 53.0195C182.362 53.918 183.417 54.3672 184.68 54.3672C185.539 54.3672 186.262 54.1328 186.848 53.6641C187.434 53.1953 187.876 52.4401 188.176 51.3984ZM188.488 45.8516C188.449 44.263 188.039 43.0586 187.258 42.2383C186.477 41.4049 185.526 40.9883 184.406 40.9883C183.208 40.9883 182.219 41.4245 181.438 42.2969C180.656 43.1693 180.272 44.3542 180.285 45.8516H188.488Z" fill="black"/>
<path d="M278.7 130.234C281.332 158.434 263.061 182.714 238.506 185.006C213.951 187.298 191.503 166.818 188.87 138.619C186.238 110.419 204.509 86.1386 229.064 83.8467C253.619 81.5548 276.068 102.034 278.7 130.234Z" fill="#BC8166" stroke="black" stroke-width="4.87675"/>
<path d="M201.055 166.494C201.055 166.494 207.824 168.579 216.159 164.529C224.494 160.48 226.886 156.095 228.499 152" stroke="black" stroke-width="5.58965" stroke-linecap="round"/>
<path d="M216.808 124.903C216.43 125.936 215.026 126.769 213.381 126.167C211.737 125.564 211.203 124.022 211.581 122.989C211.959 121.956 213.364 121.123 215.008 121.725C216.653 122.327 217.187 123.87 216.808 124.903Z" fill="black" stroke="black" stroke-width="5.87382"/>
<path d="M125.7 130.234C128.332 158.434 110.061 182.714 85.5061 185.006C60.9512 187.298 38.5025 166.818 35.8704 138.619C33.2383 110.419 51.5092 86.1386 76.0641 83.8467C100.619 81.5548 123.068 102.034 125.7 130.234Z" fill="#BC8166" stroke="black" stroke-width="4.87675"/>
<path d="M83.1272 156.102C83.1272 156.102 85.004 162.932 92.8965 167.788C100.789 172.645 105.772 172.308 110.093 171.469" stroke="black" stroke-width="5.58965" stroke-linecap="round"/>
<path d="M106.304 127.903C105.925 128.936 104.521 129.769 102.877 129.167C101.232 128.564 100.698 127.022 101.076 125.989C101.455 124.956 102.859 124.123 104.503 124.725C106.148 125.327 106.682 126.87 106.304 127.903Z" fill="black" stroke="black" stroke-width="5.87382"/>
<path d="M74.9952 187C76.6619 207.833 75.0952 258.2 55.4952 293" stroke="black" stroke-width="5" stroke-linecap="round"/>
<path d="M75.4952 206L96.4952 249L120.995 257.5" stroke="black" stroke-width="5" stroke-linecap="round"/>
<rect x="127.175" y="208.68" width="52.64" height="53.64" fill="#B92429" stroke="black" stroke-width="3.36"/>
<path d="M123.83 234.448C119.129 237.916 116.564 242.861 115.995 250C115.995 254.529 115.19 255.918 118.775 260.663C122.361 265.408 124.143 264.807 129.5 265.977C134.857 267.148 133.665 266.557 137.83 267.137C141.782 267.687 146.506 267.474 146.495 264.5C146.485 261.526 140.321 262.111 139 261.78C137.68 261.449 135.341 262.102 135.33 259.128C135.323 257.247 137.268 257.397 139.537 257.128C144.83 256.5 151.995 256.976 151.995 252.5C151.995 249.971 141.655 251.99 138.995 252C136 252.011 135.33 251.033 135.33 248.628C135.33 246.223 138.872 245.487 141.995 245C145.788 244.408 150.995 243.417 150.495 240.417C149.887 236.768 140.948 239.633 136.495 240.417L136.453 240.424C132.738 241.078 125.846 242.29 125.839 240.417C125.828 237.443 132.78 237.628 132.33 233.128C132.03 230.128 128.33 231.128 123.83 234.448Z" fill="black" stroke="black" stroke-width="2.65976" stroke-linecap="round"/>
<path d="M246.5 184.5C245.839 188.107 245.324 193.44 245.056 199.5M265.5 289C261 276.5 250 254 246.5 233C244.877 223.263 244.58 210.241 245.056 199.5M245.056 199.5L278 261.5L234.5 277" stroke="black" stroke-width="4.86" stroke-linecap="round"/>
<path d="M232.819 250C236.53 250 234.674 261.261 236.53 267.696C236.53 272.522 240.485 273.919 238.386 275.74C234.675 278.957 232.819 280.566 225.396 282.174C219.996 283.345 206.841 293.435 203.13 291.827C200.161 290.54 208.697 288.609 208.697 283.783C203.13 284.856 188.285 288.27 188.285 285.392C188.285 282.514 195.708 286.164 210.552 275.74H195.708C186.43 275.74 185.118 273.66 186.43 272.522C188.286 270.913 203.13 272.522 217.975 269.305C222.307 268.366 227.252 265.551 229.108 264.478V254.826V254.825C229.108 251.608 229.108 250 232.819 250Z" fill="black" stroke="black" stroke-width="2.57826" stroke-linecap="round"/>
</g>
<rect x="6" y="6" width="300" height="300" rx="20" stroke="#FE05FC" stroke-width="11"/>
<defs>
<clipPath id="clip0_129_1362">
<rect x="6" y="6" width="300" height="300" rx="20" fill="white"/>
</clipPath>
</defs>
</svg>
