<svg width="300" height="300" viewBox="0 0 300 300" fill="none" xmlns="http://www.w3.org/2000/svg">
<path d="M127.41 53.3672L133.68 54.1289C133.784 54.8581 134.025 55.3594 134.402 55.6328C134.923 56.0234 135.743 56.2188 136.863 56.2188C138.296 56.2188 139.37 56.0039 140.086 55.5742C140.568 55.2878 140.932 54.8255 141.18 54.1875C141.349 53.7318 141.434 52.8919 141.434 51.668V48.6406C139.793 50.8802 137.723 52 135.223 52C132.436 52 130.229 50.8216 128.602 48.4648C127.326 46.6029 126.688 44.2852 126.688 41.5117C126.688 38.0352 127.521 35.3789 129.188 33.543C130.867 31.707 132.951 30.7891 135.438 30.7891C138.003 30.7891 140.118 31.9154 141.785 34.168V31.2578H146.922V49.8711C146.922 52.319 146.72 54.1484 146.316 55.3594C145.913 56.5703 145.346 57.5208 144.617 58.2109C143.888 58.901 142.911 59.4414 141.688 59.832C140.477 60.2227 138.94 60.418 137.078 60.418C133.562 60.418 131.069 59.8125 129.598 58.6016C128.126 57.4036 127.391 55.8802 127.391 54.0312C127.391 53.849 127.397 53.6276 127.41 53.3672ZM132.312 41.1992C132.312 43.3997 132.736 45.0143 133.582 46.043C134.441 47.0586 135.496 47.5664 136.746 47.5664C138.087 47.5664 139.22 47.0456 140.145 46.0039C141.069 44.9492 141.531 43.3932 141.531 41.3359C141.531 39.1875 141.089 37.5924 140.203 36.5508C139.318 35.5091 138.198 34.9883 136.844 34.9883C135.529 34.9883 134.441 35.5026 133.582 36.5312C132.736 37.5469 132.312 39.1029 132.312 41.1992ZM151.102 41.3359C151.102 39.513 151.551 37.7487 152.449 36.043C153.348 34.3372 154.617 33.0352 156.258 32.1367C157.911 31.2383 159.754 30.7891 161.785 30.7891C164.923 30.7891 167.495 31.8112 169.5 33.8555C171.505 35.8867 172.508 38.4583 172.508 41.5703C172.508 44.7083 171.492 47.3125 169.461 49.3828C167.443 51.4401 164.897 52.4688 161.824 52.4688C159.923 52.4688 158.107 52.0391 156.375 51.1797C154.656 50.3203 153.348 49.0638 152.449 47.4102C151.551 45.7435 151.102 43.7188 151.102 41.3359ZM156.727 41.6289C156.727 43.6862 157.215 45.2617 158.191 46.3555C159.168 47.4492 160.372 47.9961 161.805 47.9961C163.237 47.9961 164.435 47.4492 165.398 46.3555C166.375 45.2617 166.863 43.6732 166.863 41.5898C166.863 39.5586 166.375 37.9961 165.398 36.9023C164.435 35.8086 163.237 35.2617 161.805 35.2617C160.372 35.2617 159.168 35.8086 158.191 36.9023C157.215 37.9961 156.727 39.5716 156.727 41.6289Z" fill="black"/>
<path d="M264 169.5L183.75 215.832L183.75 123.168L264 169.5Z" fill="#009735"/>
<rect x="36" y="153" width="162" height="33" fill="#009735"/>
</svg>
