<svg width="300" height="300" viewBox="0 0 300 300" fill="none" xmlns="http://www.w3.org/2000/svg">
<rect width="300" height="300" fill="white"/>
<path d="M129.227 53.7188L132.645 54.2266C132.788 55.2812 133.185 56.0495 133.836 56.5312C134.708 57.1823 135.9 57.5078 137.41 57.5078C139.038 57.5078 140.294 57.1823 141.18 56.5312C142.065 55.8802 142.664 54.9688 142.977 53.7969C143.159 53.0807 143.243 51.5768 143.23 49.2852C141.694 51.0951 139.78 52 137.488 52C134.637 52 132.43 50.9714 130.867 48.9141C129.305 46.8568 128.523 44.3893 128.523 41.5117C128.523 39.5326 128.882 37.7096 129.598 36.043C130.314 34.3633 131.349 33.0677 132.703 32.1562C134.07 31.2448 135.672 30.7891 137.508 30.7891C139.956 30.7891 141.974 31.7786 143.562 33.7578V31.2578H146.805V49.1875C146.805 52.4167 146.473 54.7018 145.809 56.043C145.158 57.3971 144.116 58.4648 142.684 59.2461C141.264 60.0273 139.513 60.418 137.43 60.418C134.956 60.418 132.957 59.8581 131.434 58.7383C129.91 57.6315 129.174 55.9583 129.227 53.7188ZM132.137 41.2578C132.137 43.9792 132.677 45.9648 133.758 47.2148C134.839 48.4648 136.193 49.0898 137.82 49.0898C139.435 49.0898 140.789 48.4714 141.883 47.2344C142.977 45.9844 143.523 44.0312 143.523 41.375C143.523 38.8359 142.957 36.9219 141.824 35.6328C140.704 34.3438 139.35 33.6992 137.762 33.6992C136.199 33.6992 134.871 34.3372 133.777 35.6133C132.684 36.8763 132.137 38.7578 132.137 41.2578ZM150.828 41.6289C150.828 37.7878 151.896 34.9427 154.031 33.0938C155.815 31.5573 157.99 30.7891 160.555 30.7891C163.406 30.7891 165.737 31.7266 167.547 33.6016C169.357 35.4635 170.262 38.0417 170.262 41.3359C170.262 44.0052 169.858 46.1081 169.051 47.6445C168.257 49.168 167.091 50.3529 165.555 51.1992C164.031 52.0456 162.365 52.4688 160.555 52.4688C157.651 52.4688 155.301 51.5378 153.504 49.6758C151.72 47.8138 150.828 45.1315 150.828 41.6289ZM154.441 41.6289C154.441 44.2852 155.021 46.2773 156.18 47.6055C157.339 48.9206 158.797 49.5781 160.555 49.5781C162.299 49.5781 163.751 48.9141 164.91 47.5859C166.069 46.2578 166.648 44.2331 166.648 41.5117C166.648 38.9466 166.062 37.0065 164.891 35.6914C163.732 34.3633 162.286 33.6992 160.555 33.6992C158.797 33.6992 157.339 34.3568 156.18 35.6719C155.021 36.987 154.441 38.9727 154.441 41.6289Z" fill="black"/>
<path d="M264 169.5L183.75 215.832L183.75 123.168L264 169.5Z" fill="#009735"/>
<rect x="36" y="153" width="162" height="33" fill="#009735"/>
</svg>
