<svg width="312" height="312" viewBox="0 0 312 312" fill="none" xmlns="http://www.w3.org/2000/svg">
<rect x="6" y="6" width="300" height="300" rx="20" fill="#E3F4FF"/>
<rect x="6" y="6" width="300" height="300" rx="20" stroke="#1684D9" stroke-width="11"/>
<path d="M108.457 59.3672L114.727 60.1289C114.831 60.8581 115.072 61.3594 115.449 61.6328C115.97 62.0234 116.79 62.2188 117.91 62.2188C119.342 62.2188 120.417 62.0039 121.133 61.5742C121.615 61.2878 121.979 60.8255 122.227 60.1875C122.396 59.7318 122.48 58.8919 122.48 57.668V54.6406C120.84 56.8802 118.77 58 116.27 58C113.483 58 111.276 56.8216 109.648 54.4648C108.372 52.6029 107.734 50.2852 107.734 47.5117C107.734 44.0352 108.568 41.3789 110.234 39.543C111.914 37.707 113.997 36.7891 116.484 36.7891C119.049 36.7891 121.165 37.9154 122.832 40.168V37.2578H127.969V55.8711C127.969 58.319 127.767 60.1484 127.363 61.3594C126.96 62.5703 126.393 63.5208 125.664 64.2109C124.935 64.901 123.958 65.4414 122.734 65.832C121.523 66.2227 119.987 66.418 118.125 66.418C114.609 66.418 112.116 65.8125 110.645 64.6016C109.173 63.4036 108.438 61.8802 108.438 60.0312C108.438 59.849 108.444 59.6276 108.457 59.3672ZM113.359 47.1992C113.359 49.3997 113.783 51.0143 114.629 52.043C115.488 53.0586 116.543 53.5664 117.793 53.5664C119.134 53.5664 120.267 53.0456 121.191 52.0039C122.116 50.9492 122.578 49.3932 122.578 47.3359C122.578 45.1875 122.135 43.5924 121.25 42.5508C120.365 41.5091 119.245 40.9883 117.891 40.9883C116.576 40.9883 115.488 41.5026 114.629 42.5312C113.783 43.5469 113.359 45.1029 113.359 47.1992ZM132.148 47.3359C132.148 45.513 132.598 43.7487 133.496 42.043C134.395 40.3372 135.664 39.0352 137.305 38.1367C138.958 37.2383 140.801 36.7891 142.832 36.7891C145.97 36.7891 148.542 37.8112 150.547 39.8555C152.552 41.8867 153.555 44.4583 153.555 47.5703C153.555 50.7083 152.539 53.3125 150.508 55.3828C148.49 57.4401 145.944 58.4688 142.871 58.4688C140.97 58.4688 139.154 58.0391 137.422 57.1797C135.703 56.3203 134.395 55.0638 133.496 53.4102C132.598 51.7435 132.148 49.7188 132.148 47.3359ZM137.773 47.6289C137.773 49.6862 138.262 51.2617 139.238 52.3555C140.215 53.4492 141.419 53.9961 142.852 53.9961C144.284 53.9961 145.482 53.4492 146.445 52.3555C147.422 51.2617 147.91 49.6732 147.91 47.5898C147.91 45.5586 147.422 43.9961 146.445 42.9023C145.482 41.8086 144.284 41.2617 142.852 41.2617C141.419 41.2617 140.215 41.8086 139.238 42.9023C138.262 43.9961 137.773 45.5716 137.773 47.6289ZM156.602 47.3359C156.602 45.513 157.051 43.7487 157.949 42.043C158.848 40.3372 160.117 39.0352 161.758 38.1367C163.411 37.2383 165.254 36.7891 167.285 36.7891C170.423 36.7891 172.995 37.8112 175 39.8555C177.005 41.8867 178.008 44.4583 178.008 47.5703C178.008 50.7083 176.992 53.3125 174.961 55.3828C172.943 57.4401 170.397 58.4688 167.324 58.4688C165.423 58.4688 163.607 58.0391 161.875 57.1797C160.156 56.3203 158.848 55.0638 157.949 53.4102C157.051 51.7435 156.602 49.7188 156.602 47.3359ZM162.227 47.6289C162.227 49.6862 162.715 51.2617 163.691 52.3555C164.668 53.4492 165.872 53.9961 167.305 53.9961C168.737 53.9961 169.935 53.4492 170.898 52.3555C171.875 51.2617 172.363 49.6732 172.363 47.5898C172.363 45.5586 171.875 43.9961 170.898 42.9023C169.935 41.8086 168.737 41.2617 167.305 41.2617C165.872 41.2617 164.668 41.8086 163.691 42.9023C162.715 43.9961 162.227 45.5716 162.227 47.6289ZM201.348 58H196.25V54.9531C195.404 56.138 194.401 57.0234 193.242 57.6094C192.096 58.1823 190.938 58.4688 189.766 58.4688C187.383 58.4688 185.339 57.5117 183.633 55.5977C181.94 53.6706 181.094 50.9883 181.094 47.5508C181.094 44.0352 181.921 41.3659 183.574 39.543C185.228 37.707 187.318 36.7891 189.844 36.7891C192.161 36.7891 194.167 37.7526 195.859 39.6797V29.3672H201.348V58ZM186.699 47.1797C186.699 49.3932 187.005 50.9948 187.617 51.9844C188.503 53.4167 189.74 54.1328 191.328 54.1328C192.591 54.1328 193.665 53.599 194.551 52.5312C195.436 51.4505 195.879 49.8424 195.879 47.707C195.879 45.3242 195.449 43.612 194.59 42.5703C193.73 41.5156 192.63 40.9883 191.289 40.9883C189.987 40.9883 188.893 41.5091 188.008 42.5508C187.135 43.5794 186.699 45.1224 186.699 47.1797Z" fill="black"/>
<path d="M171.722 139.006C173.201 163.316 156.829 183.599 135.763 184.881C114.696 186.164 95.9845 168.016 94.5047 143.706C93.0249 119.396 109.397 99.113 130.464 97.8306C151.53 96.5483 170.242 114.696 171.722 139.006Z" fill="#BC8166" stroke="black" stroke-width="4.97477"/>
<path d="M117.902 164.071C117.902 164.071 123.203 168.981 132.656 168.945C142.109 168.908 145.87 165.382 149.163 162.33" stroke="black" stroke-width="4.7" stroke-linecap="round"/>
<path d="M150.884 128.392C150.499 129.446 149.066 130.295 147.389 129.681C145.711 129.067 145.166 127.493 145.552 126.439C145.938 125.385 147.37 124.536 149.048 125.15C150.725 125.765 151.27 127.338 150.884 128.392Z" fill="black" stroke="black" stroke-width="5.99189"/>
<path d="M120.884 131.392C120.499 132.446 119.066 133.295 117.389 132.681C115.711 132.067 115.166 130.493 115.552 129.439C115.938 128.385 117.37 127.536 119.048 128.15C120.725 128.765 121.27 130.338 120.884 131.392Z" fill="black" stroke="black" stroke-width="5.99189"/>
<path d="M135.361 188.5C137.061 209.752 135.361 244 126.879 276.5" stroke="black" stroke-width="6.1" stroke-linecap="round"/>
<path d="M92 276.17L85 237.17L134.379 198.5L206 231V191" stroke="black" stroke-width="6.1" stroke-linecap="round"/>
<path d="M211.619 159.341C213.102 151.617 217.467 137.022 223.06 138.052C228.781 140.626 224.671 149.253 223.06 155.479C221.409 161.865 221.71 165.92 223.06 171.569C224.587 177.956 222.68 182.461 216.96 189.541C211.239 196.621 199.798 195.205 194.077 194.046C188.356 192.888 182 194.046 182 185.679C182 181.013 186.715 182.708 187.085 181.817C187.456 180.926 183.271 181.174 183.271 174.738C183.271 168.995 187.771 169.688 188.101 168.351C188.431 167.014 183.526 165.131 185.814 159.341C188.101 153.55 203.144 158.268 211.619 159.341Z" fill="black" stroke="black" stroke-linecap="round"/>
</svg>
