<svg width="300" height="300" viewBox="0 0 300 300" fill="none" xmlns="http://www.w3.org/2000/svg">
<path d="M102.457 53.3672L108.727 54.1289C108.831 54.8581 109.072 55.3594 109.449 55.6328C109.97 56.0234 110.79 56.2188 111.91 56.2188C113.342 56.2188 114.417 56.0039 115.133 55.5742C115.615 55.2878 115.979 54.8255 116.227 54.1875C116.396 53.7318 116.48 52.8919 116.48 51.668V48.6406C114.84 50.8802 112.77 52 110.27 52C107.483 52 105.276 50.8216 103.648 48.4648C102.372 46.6029 101.734 44.2852 101.734 41.5117C101.734 38.0352 102.568 35.3789 104.234 33.543C105.914 31.707 107.997 30.7891 110.484 30.7891C113.049 30.7891 115.165 31.9154 116.832 34.168V31.2578H121.969V49.8711C121.969 52.319 121.767 54.1484 121.363 55.3594C120.96 56.5703 120.393 57.5208 119.664 58.2109C118.935 58.901 117.958 59.4414 116.734 59.832C115.523 60.2227 113.987 60.418 112.125 60.418C108.609 60.418 106.116 59.8125 104.645 58.6016C103.173 57.4036 102.438 55.8802 102.438 54.0312C102.438 53.849 102.444 53.6276 102.457 53.3672ZM107.359 41.1992C107.359 43.3997 107.783 45.0143 108.629 46.043C109.488 47.0586 110.543 47.5664 111.793 47.5664C113.134 47.5664 114.267 47.0456 115.191 46.0039C116.116 44.9492 116.578 43.3932 116.578 41.3359C116.578 39.1875 116.135 37.5924 115.25 36.5508C114.365 35.5091 113.245 34.9883 111.891 34.9883C110.576 34.9883 109.488 35.5026 108.629 36.5312C107.783 37.5469 107.359 39.1029 107.359 41.1992ZM126.148 41.3359C126.148 39.513 126.598 37.7487 127.496 36.043C128.395 34.3372 129.664 33.0352 131.305 32.1367C132.958 31.2383 134.801 30.7891 136.832 30.7891C139.97 30.7891 142.542 31.8112 144.547 33.8555C146.552 35.8867 147.555 38.4583 147.555 41.5703C147.555 44.7083 146.539 47.3125 144.508 49.3828C142.49 51.4401 139.944 52.4688 136.871 52.4688C134.97 52.4688 133.154 52.0391 131.422 51.1797C129.703 50.3203 128.395 49.0638 127.496 47.4102C126.598 45.7435 126.148 43.7188 126.148 41.3359ZM131.773 41.6289C131.773 43.6862 132.262 45.2617 133.238 46.3555C134.215 47.4492 135.419 47.9961 136.852 47.9961C138.284 47.9961 139.482 47.4492 140.445 46.3555C141.422 45.2617 141.91 43.6732 141.91 41.5898C141.91 39.5586 141.422 37.9961 140.445 36.9023C139.482 35.8086 138.284 35.2617 136.852 35.2617C135.419 35.2617 134.215 35.8086 133.238 36.9023C132.262 37.9961 131.773 39.5716 131.773 41.6289ZM150.602 41.3359C150.602 39.513 151.051 37.7487 151.949 36.043C152.848 34.3372 154.117 33.0352 155.758 32.1367C157.411 31.2383 159.254 30.7891 161.285 30.7891C164.423 30.7891 166.995 31.8112 169 33.8555C171.005 35.8867 172.008 38.4583 172.008 41.5703C172.008 44.7083 170.992 47.3125 168.961 49.3828C166.943 51.4401 164.397 52.4688 161.324 52.4688C159.423 52.4688 157.607 52.0391 155.875 51.1797C154.156 50.3203 152.848 49.0638 151.949 47.4102C151.051 45.7435 150.602 43.7188 150.602 41.3359ZM156.227 41.6289C156.227 43.6862 156.715 45.2617 157.691 46.3555C158.668 47.4492 159.872 47.9961 161.305 47.9961C162.737 47.9961 163.935 47.4492 164.898 46.3555C165.875 45.2617 166.363 43.6732 166.363 41.5898C166.363 39.5586 165.875 37.9961 164.898 36.9023C163.935 35.8086 162.737 35.2617 161.305 35.2617C159.872 35.2617 158.668 35.8086 157.691 36.9023C156.715 37.9961 156.227 39.5716 156.227 41.6289ZM195.348 52H190.25V48.9531C189.404 50.138 188.401 51.0234 187.242 51.6094C186.096 52.1823 184.938 52.4688 183.766 52.4688C181.383 52.4688 179.339 51.5117 177.633 49.5977C175.94 47.6706 175.094 44.9883 175.094 41.5508C175.094 38.0352 175.921 35.3659 177.574 33.543C179.228 31.707 181.318 30.7891 183.844 30.7891C186.161 30.7891 188.167 31.7526 189.859 33.6797V23.3672H195.348V52ZM180.699 41.1797C180.699 43.3932 181.005 44.9948 181.617 45.9844C182.503 47.4167 183.74 48.1328 185.328 48.1328C186.591 48.1328 187.665 47.599 188.551 46.5312C189.436 45.4505 189.879 43.8424 189.879 41.707C189.879 39.3242 189.449 37.612 188.59 36.5703C187.73 35.5156 186.63 34.9883 185.289 34.9883C183.987 34.9883 182.893 35.5091 182.008 36.5508C181.135 37.5794 180.699 39.1224 180.699 41.1797Z" fill="black"/>
<path d="M124.463 91.8305C145.529 90.5482 164.242 108.696 165.721 133.006C167.201 157.316 150.828 177.599 129.762 178.881C108.695 180.163 89.984 162.016 88.504 137.707C87.0243 113.397 103.396 93.1131 124.463 91.8305Z" fill="#BC8166" stroke="black" stroke-width="4.97477"/>
<path d="M111.902 158.071C111.902 158.071 117.203 162.981 126.656 162.945C136.109 162.908 139.87 159.382 143.163 156.33" stroke="black" stroke-width="4.7" stroke-linecap="round"/>
<path d="M143.048 119.15C144.726 119.765 145.271 121.338 144.885 122.392C144.499 123.446 143.066 124.295 141.389 123.681C139.712 123.067 139.167 121.493 139.553 120.439C139.939 119.385 141.371 118.536 143.048 119.15Z" fill="black" stroke="black" stroke-width="5.99189"/>
<path d="M113.048 122.15C114.726 122.765 115.271 124.338 114.885 125.392C114.499 126.446 113.066 127.295 111.389 126.681C109.712 126.067 109.167 124.493 109.553 123.439C109.939 122.385 111.371 121.536 113.048 122.15Z" fill="black" stroke="black" stroke-width="5.99189"/>
<path d="M129.361 182.5C131.061 203.752 129.361 238 120.879 270.5" stroke="black" stroke-width="6.1" stroke-linecap="round"/>
<path d="M86 270.17L79 231.17L128.379 192.5L200 225V185" stroke="black" stroke-width="6.1" stroke-linecap="round"/>
<path d="M205.619 153.341C207.102 145.617 211.467 131.022 217.06 132.052C222.781 134.626 218.671 143.253 217.06 149.479C215.409 155.865 215.71 159.92 217.06 165.569C218.587 171.956 216.68 176.461 210.96 183.541C205.239 190.621 193.798 189.205 188.077 188.046C182.356 186.888 176 188.046 176 179.679C176 175.013 180.715 176.708 181.085 175.817C181.456 174.926 177.271 175.174 177.271 168.738C177.271 162.995 181.771 163.688 182.101 162.351C182.431 161.014 177.526 159.131 179.814 153.341C182.101 147.55 197.144 152.268 205.619 153.341Z" fill="black" stroke="black" stroke-linecap="round"/>
</svg>
