<svg width="300" height="300" viewBox="0 0 300 300" fill="none" xmlns="http://www.w3.org/2000/svg">
<rect x="5.5" y="5.5" width="289" height="289" rx="14.5" fill="#FFE3FF"/>
<rect x="5.5" y="5.5" width="289" height="289" rx="14.5" stroke="#FE05FC" stroke-width="11"/>
<path d="M111.715 23.3672V33.8945C113.486 31.8242 115.602 30.7891 118.062 30.7891C119.326 30.7891 120.465 31.0234 121.48 31.4922C122.496 31.9609 123.258 32.5599 123.766 33.2891C124.286 34.0182 124.638 34.8255 124.82 35.7109C125.016 36.5964 125.113 37.9701 125.113 39.832V52H119.625V41.043C119.625 38.8685 119.521 37.4883 119.312 36.9023C119.104 36.3164 118.733 35.8542 118.199 35.5156C117.678 35.1641 117.021 34.9883 116.227 34.9883C115.315 34.9883 114.501 35.2096 113.785 35.6523C113.069 36.0951 112.542 36.7656 112.203 37.6641C111.878 38.5495 111.715 39.8646 111.715 41.6094V52H106.227V23.3672H111.715ZM134.801 37.5859L129.82 36.6875C130.38 34.6823 131.344 33.1979 132.711 32.2344C134.078 31.2708 136.109 30.7891 138.805 30.7891C141.253 30.7891 143.076 31.082 144.273 31.668C145.471 32.2409 146.311 32.9766 146.793 33.875C147.288 34.7604 147.535 36.3945 147.535 38.7773L147.477 45.1836C147.477 47.0065 147.561 48.3542 147.73 49.2266C147.913 50.0859 148.245 51.0104 148.727 52H143.297C143.154 51.6354 142.978 51.0951 142.77 50.3789C142.678 50.0534 142.613 49.8385 142.574 49.7344C141.637 50.6458 140.634 51.3294 139.566 51.7852C138.499 52.2409 137.359 52.4688 136.148 52.4688C134.013 52.4688 132.327 51.8893 131.09 50.7305C129.866 49.5716 129.254 48.1068 129.254 46.3359C129.254 45.1641 129.534 44.1224 130.094 43.2109C130.654 42.2865 131.435 41.5833 132.438 41.1016C133.453 40.6068 134.911 40.1771 136.812 39.8125C139.378 39.3307 141.155 38.8815 142.145 38.4648V37.918C142.145 36.8633 141.884 36.1146 141.363 35.6719C140.842 35.2161 139.859 34.9883 138.414 34.9883C137.438 34.9883 136.676 35.1836 136.129 35.5742C135.582 35.9518 135.139 36.6224 134.801 37.5859ZM142.145 42.0391C141.441 42.2734 140.328 42.5534 138.805 42.8789C137.281 43.2044 136.285 43.5234 135.816 43.8359C135.1 44.3438 134.742 44.9883 134.742 45.7695C134.742 46.5378 135.029 47.2018 135.602 47.7617C136.174 48.3216 136.904 48.6016 137.789 48.6016C138.779 48.6016 139.723 48.276 140.621 47.625C141.285 47.1302 141.721 46.5247 141.93 45.8086C142.073 45.3398 142.145 44.4479 142.145 43.1328V42.0391ZM158.668 52L150.309 31.2578H156.07L159.977 41.8438L161.109 45.3789C161.409 44.4805 161.598 43.888 161.676 43.6016C161.858 43.0156 162.053 42.4297 162.262 41.8438L166.207 31.2578H171.852L163.609 52H158.668ZM187.242 45.3984L192.711 46.3164C192.008 48.3216 190.895 49.8516 189.371 50.9062C187.861 51.9479 185.966 52.4688 183.688 52.4688C180.081 52.4688 177.411 51.2904 175.68 48.9336C174.312 47.0456 173.629 44.6628 173.629 41.7852C173.629 38.3477 174.527 35.6589 176.324 33.7188C178.121 31.7656 180.393 30.7891 183.141 30.7891C186.227 30.7891 188.661 31.8112 190.445 33.8555C192.229 35.8867 193.082 39.0052 193.004 43.2109H179.254C179.293 44.8385 179.736 46.1081 180.582 47.0195C181.428 47.918 182.483 48.3672 183.746 48.3672C184.605 48.3672 185.328 48.1328 185.914 47.6641C186.5 47.1953 186.943 46.4401 187.242 45.3984ZM187.555 39.8516C187.516 38.263 187.105 37.0586 186.324 36.2383C185.543 35.4049 184.592 34.9883 183.473 34.9883C182.275 34.9883 181.285 35.4245 180.504 36.2969C179.723 37.1693 179.339 38.3542 179.352 39.8516H187.555Z" fill="black"/>
<path d="M151.764 181.901V188.694M151.764 218.132V188.694M151.764 188.694L81 223.793L108.74 253.231M151.764 188.694L218 223.793L198.186 253.231" stroke="black" stroke-width="4.52893" stroke-linecap="round"/>
<path d="M194.313 131.528C196.192 158.854 177.954 181.898 154.16 183.534C130.365 185.171 109.145 164.841 107.265 137.514C105.386 110.188 123.624 87.1441 147.418 85.5077C171.213 83.8713 192.434 104.201 194.313 131.528Z" fill="#BC8166" stroke="black" stroke-width="4.71638"/>
<circle cx="166.935" cy="122.943" r="7.07458" fill="black"/>
<circle cx="134.523" cy="122.943" r="7.07458" fill="black"/>
<path d="M130.846 158.455C134.242 161.692 139.483 167.595 150.941 168.332C158.116 168.793 166.521 165.403 170.846 160.874" stroke="black" stroke-width="5.50245" stroke-linecap="round"/>
<rect x="121.398" y="205.315" width="59.6007" height="59.6007" fill="#B92429" stroke="black" stroke-width="3.8043"/>
<path d="M108.818 237.758C105.971 238.707 104.826 239.492 103.464 242.503C102.288 245.1 102.331 246.232 102.898 250.761C103.363 254.484 106.446 257.924 108.818 260.296C111.19 262.669 118.308 268.6 121.867 269.786C125.425 270.972 126.611 271.417 132.543 270.972C137.288 270.616 136.101 266.227 133.729 266.227C132.051 266.227 130.17 266.227 125.425 265.041C120.822 263.89 121.867 261.483 121.867 260.296C121.867 259.11 129.632 260.296 135.563 260.296C141.494 260.296 145.356 259.753 145.356 256.194C145.356 252.636 138.474 254.365 133.729 254.365C128.984 254.365 120.68 254.365 120.68 253.179C120.68 251.993 128.235 250.515 131.356 248.434C134.915 246.062 140.435 246.062 138.656 242.503C137.47 240.13 131.356 242.503 127.798 243.689C126.672 244.064 117.122 248.434 114.749 248.434C112.377 248.434 112.377 243.689 113.563 242.503C114.402 241.664 117.122 241.317 119.494 240.13C121.867 238.944 121.572 236.168 120.68 235.385C119.494 234.344 112.377 236.572 108.818 237.758Z" fill="black" stroke="black" stroke-width="2.37245" stroke-linecap="round"/>
<path d="M196.043 239.705C199.008 240.54 200.201 241.231 201.62 243.881C202.844 246.166 202.799 247.163 202.209 251.148C201.724 254.424 198.514 257.451 196.043 259.539C193.573 261.627 186.161 266.846 182.454 267.89C178.748 268.934 177.513 269.325 171.336 268.934C166.395 268.621 167.63 264.758 170.101 264.758C171.848 264.758 173.807 264.758 178.748 263.714C183.542 262.702 182.454 260.583 182.454 259.539C182.454 258.495 174.367 259.539 168.19 259.539C162.014 259.539 157.992 259.061 157.992 255.929C157.992 252.798 165.159 254.32 170.101 254.32C175.042 254.32 183.69 254.32 183.69 253.276C183.69 252.232 175.822 250.931 172.572 249.1C168.865 247.012 163.117 247.012 164.97 243.881C166.205 241.793 172.572 243.881 176.278 244.925C177.45 245.255 187.396 249.1 189.867 249.1C192.337 249.1 192.337 244.925 191.102 243.881C190.228 243.143 187.396 242.837 184.925 241.793C182.454 240.749 182.761 238.306 183.69 237.618C184.925 236.701 192.337 238.661 196.043 239.705Z" fill="black" stroke="black" stroke-width="2.46032" stroke-linecap="round"/>
</svg>
