<svg width="300" height="300" viewBox="0 0 300 300" fill="none" xmlns="http://www.w3.org/2000/svg">
<rect width="300" height="300" fill="white"/>
<path d="M129.871 52V23.3672H133.387V33.6406C135.027 31.7396 137.098 30.7891 139.598 30.7891C141.134 30.7891 142.469 31.0951 143.602 31.707C144.734 32.306 145.542 33.1393 146.023 34.207C146.518 35.2747 146.766 36.8242 146.766 38.8555V52H143.25V38.8555C143.25 37.0977 142.866 35.8216 142.098 35.0273C141.342 34.2201 140.268 33.8164 138.875 33.8164C137.833 33.8164 136.85 34.0898 135.926 34.6367C135.014 35.1706 134.363 35.8997 133.973 36.8242C133.582 37.7487 133.387 39.0247 133.387 40.6523V52H129.871ZM166.336 45.3203L169.969 45.7695C169.396 47.8919 168.335 49.5391 166.785 50.7109C165.236 51.8828 163.257 52.4688 160.848 52.4688C157.814 52.4688 155.405 51.5378 153.621 49.6758C151.85 47.8008 150.965 45.1771 150.965 41.8047C150.965 38.3151 151.863 35.6068 153.66 33.6797C155.457 31.7526 157.788 30.7891 160.652 30.7891C163.426 30.7891 165.691 31.7331 167.449 33.6211C169.207 35.5091 170.086 38.1654 170.086 41.5898C170.086 41.7982 170.079 42.1107 170.066 42.5273H154.598C154.728 44.806 155.372 46.5508 156.531 47.7617C157.69 48.9727 159.135 49.5781 160.867 49.5781C162.156 49.5781 163.257 49.2396 164.168 48.5625C165.079 47.8854 165.802 46.8047 166.336 45.3203ZM154.793 39.6367H166.375C166.219 37.8919 165.776 36.5833 165.047 35.7109C163.927 34.3568 162.475 33.6797 160.691 33.6797C159.077 33.6797 157.716 34.2201 156.609 35.3008C155.516 36.3815 154.91 37.8268 154.793 39.6367Z" fill="black"/>
<path d="M239.13 169.91C239.13 207.566 211.943 237.451 179.154 237.451C146.364 237.451 119.177 207.566 119.177 169.91C119.177 132.254 146.364 102.369 179.154 102.369C211.943 102.369 239.13 132.254 239.13 169.91Z" fill="#BC8166" stroke="black" stroke-width="6.48395"/>
<circle cx="153.679" cy="153.993" r="9.72592" fill="black"/>
<circle cx="203.489" cy="153.993" r="9.72592" fill="black"/>
<path d="M148.623 201.86C152.045 206.382 162.023 215.521 174.559 215.895C187.094 216.269 199.234 208.565 203.736 204.667" stroke="black" stroke-width="7.56461" stroke-linecap="round"/>
<path d="M136.171 147.379C144.887 141.152 152.255 131.814 157.963 126.366C164.449 131.555 179.747 139.578 177.42 134.149C175.085 128.701 169.118 125.069 168.859 117.805C171.972 123.253 184.891 128.701 196.098 131.814C210.107 135.705 207.773 128.7 223.338 134.149C235.791 138.508 229.564 152.827 241.239 165.28L248.243 137.262C246.687 120.14 242.173 105.819 230.343 95.2336C215.556 82.0014 203.102 75.0017 182.867 75C164.966 74.9985 154.849 85.8959 151.736 95.2336C139.802 92.8987 125.119 96.9458 118.27 110.021C111.421 123.096 113.861 145.304 118.271 160.61C120.606 158.016 127.454 153.605 136.171 147.379Z" fill="black" stroke="black" stroke-width="1.55656" stroke-linecap="round"/>
<path d="M112.463 221.055L93.8036 261.672L67.9579 225.204L112.463 221.055Z" fill="#B92429"/>
<rect x="79.0756" y="235.932" width="12.9033" height="61.6492" transform="rotate(54.6743 79.0756 235.932)" fill="#B92429"/>
</svg>
