<svg width="300" height="300" viewBox="0 0 300 300" fill="none" xmlns="http://www.w3.org/2000/svg">
<rect x="5.5" y="5.5" width="289" height="289" rx="14.5" fill="#FFF0E2"/>
<rect x="5.5" y="5.5" width="289" height="289" rx="14.5" stroke="#FF7602" stroke-width="11"/>
<path d="M134.48 23.3672V33.8945C136.251 31.8242 138.367 30.7891 140.828 30.7891C142.091 30.7891 143.23 31.0234 144.246 31.4922C145.262 31.9609 146.023 32.5599 146.531 33.2891C147.052 34.0182 147.404 34.8255 147.586 35.7109C147.781 36.5964 147.879 37.9701 147.879 39.832V52H142.391V41.043C142.391 38.8685 142.286 37.4883 142.078 36.9023C141.87 36.3164 141.499 35.8542 140.965 35.5156C140.444 35.1641 139.786 34.9883 138.992 34.9883C138.081 34.9883 137.267 35.2096 136.551 35.6523C135.835 36.0951 135.307 36.7656 134.969 37.6641C134.643 38.5495 134.48 39.8646 134.48 41.6094V52H128.992V23.3672H134.48ZM165.477 45.3984L170.945 46.3164C170.242 48.3216 169.129 49.8516 167.605 50.9062C166.095 51.9479 164.201 52.4688 161.922 52.4688C158.315 52.4688 155.646 51.2904 153.914 48.9336C152.547 47.0456 151.863 44.6628 151.863 41.7852C151.863 38.3477 152.762 35.6589 154.559 33.7188C156.355 31.7656 158.628 30.7891 161.375 30.7891C164.461 30.7891 166.896 31.8112 168.68 33.8555C170.464 35.8867 171.316 39.0052 171.238 43.2109H157.488C157.527 44.8385 157.97 46.1081 158.816 47.0195C159.663 47.918 160.717 48.3672 161.98 48.3672C162.84 48.3672 163.562 48.1328 164.148 47.6641C164.734 47.1953 165.177 46.4401 165.477 45.3984ZM165.789 39.8516C165.75 38.263 165.34 37.0586 164.559 36.2383C163.777 35.4049 162.827 34.9883 161.707 34.9883C160.509 34.9883 159.52 35.4245 158.738 36.2969C157.957 37.1693 157.573 38.3542 157.586 39.8516H165.789Z" fill="black"/>
<path d="M239.13 169.91C239.13 207.566 211.943 237.451 179.154 237.451C146.364 237.451 119.177 207.566 119.177 169.91C119.177 132.254 146.364 102.369 179.154 102.369C211.943 102.369 239.13 132.254 239.13 169.91Z" fill="#BC8166" stroke="black" stroke-width="6.48395"/>
<circle cx="153.679" cy="153.993" r="9.72592" fill="black"/>
<circle cx="203.489" cy="153.993" r="9.72592" fill="black"/>
<path d="M148.623 201.86C152.045 206.382 162.023 215.521 174.559 215.895C187.094 216.269 199.234 208.565 203.736 204.667" stroke="black" stroke-width="7.56461" stroke-linecap="round"/>
<path d="M136.171 147.379C144.887 141.152 152.255 131.814 157.963 126.366C164.449 131.555 179.747 139.578 177.42 134.149C175.085 128.701 169.118 125.069 168.859 117.805C171.972 123.253 184.891 128.701 196.098 131.814C210.107 135.705 207.773 128.7 223.338 134.149C235.791 138.508 229.564 152.827 241.239 165.28L248.243 137.262C246.687 120.14 242.173 105.819 230.343 95.2336C215.556 82.0014 203.102 75.0017 182.867 75C164.966 74.9985 154.849 85.8959 151.736 95.2336C139.802 92.8987 125.119 96.9458 118.27 110.021C111.421 123.096 113.861 145.304 118.271 160.61C120.606 158.016 127.454 153.605 136.171 147.379Z" fill="black" stroke="black" stroke-width="1.55656" stroke-linecap="round"/>
<path d="M112.463 221.055L93.8037 261.672L67.9581 225.204L112.463 221.055Z" fill="#B92429"/>
<rect x="79.0757" y="235.932" width="12.9033" height="61.6492" transform="rotate(54.6743 79.0757 235.932)" fill="#B92429"/>
</svg>
