<svg width="300" height="300" viewBox="0 0 300 300" fill="none" xmlns="http://www.w3.org/2000/svg">
<rect width="300" height="300" fill="white"/>
<path d="M113.785 52V23.3672H117.301V33.6406C118.941 31.7396 121.012 30.7891 123.512 30.7891C125.048 30.7891 126.383 31.0951 127.516 31.707C128.648 32.306 129.456 33.1393 129.938 34.207C130.432 35.2747 130.68 36.8242 130.68 38.8555V52H127.164V38.8555C127.164 37.0977 126.78 35.8216 126.012 35.0273C125.257 34.2201 124.182 33.8164 122.789 33.8164C121.747 33.8164 120.764 34.0898 119.84 34.6367C118.928 35.1706 118.277 35.8997 117.887 36.8242C117.496 37.7487 117.301 39.0247 117.301 40.6523V52H113.785ZM150.25 45.3203L153.883 45.7695C153.31 47.8919 152.249 49.5391 150.699 50.7109C149.15 51.8828 147.171 52.4688 144.762 52.4688C141.728 52.4688 139.319 51.5378 137.535 49.6758C135.764 47.8008 134.879 45.1771 134.879 41.8047C134.879 38.3151 135.777 35.6068 137.574 33.6797C139.371 31.7526 141.702 30.7891 144.566 30.7891C147.34 30.7891 149.605 31.7331 151.363 33.6211C153.121 35.5091 154 38.1654 154 41.5898C154 41.7982 153.993 42.1107 153.98 42.5273H138.512C138.642 44.806 139.286 46.5508 140.445 47.7617C141.604 48.9727 143.049 49.5781 144.781 49.5781C146.07 49.5781 147.171 49.2396 148.082 48.5625C148.993 47.8854 149.716 46.8047 150.25 45.3203ZM138.707 39.6367H150.289C150.133 37.8919 149.69 36.5833 148.961 35.7109C147.841 34.3568 146.389 33.6797 144.605 33.6797C142.991 33.6797 141.63 34.2201 140.523 35.3008C139.43 36.3815 138.824 37.8268 138.707 39.6367ZM158.238 52V23.3672H161.754V52H158.238ZM167.223 59.9492V31.2578H170.426V33.9531C171.181 32.8984 172.034 32.1107 172.984 31.5898C173.935 31.056 175.087 30.7891 176.441 30.7891C178.212 30.7891 179.775 31.2448 181.129 32.1562C182.483 33.0677 183.505 34.3568 184.195 36.0234C184.885 37.6771 185.23 39.4935 185.23 41.4727C185.23 43.5951 184.846 45.5091 184.078 47.2148C183.323 48.9076 182.216 50.2096 180.758 51.1211C179.312 52.0195 177.789 52.4688 176.188 52.4688C175.016 52.4688 173.961 52.2214 173.023 51.7266C172.099 51.2318 171.337 50.6068 170.738 49.8516V59.9492H167.223ZM170.406 41.7461C170.406 44.4154 170.947 46.388 172.027 47.6641C173.108 48.9401 174.417 49.5781 175.953 49.5781C177.516 49.5781 178.85 48.9206 179.957 47.6055C181.077 46.2773 181.637 44.2266 181.637 41.4531C181.637 38.8099 181.09 36.8307 179.996 35.5156C178.915 34.2005 177.62 33.543 176.109 33.543C174.612 33.543 173.284 34.2461 172.125 35.6523C170.979 37.0456 170.406 39.0768 170.406 41.7461Z" fill="black"/>
<path d="M112.486 100.629C109.82 112.365 99.2958 119.573 89.321 117.307C79.3461 115.041 72.9687 103.993 75.6348 92.2574C78.3008 80.5214 88.8254 73.3132 98.8003 75.5791C108.775 77.8451 115.153 88.893 112.486 100.629Z" fill="#BC8166" stroke="black" stroke-width="4"/>
<path d="M234.322 175.268C231.656 187.004 221.132 194.212 211.157 191.946C201.182 189.68 194.805 178.632 197.471 166.896C200.137 155.16 210.661 147.952 220.636 150.218C230.611 152.484 236.988 163.532 234.322 175.268Z" fill="#BC8166" stroke="black" stroke-width="4"/>
<path d="M86.0634 118.393C85.8804 125.893 84.6364 143.418 81.124 153.517C79.5401 158.071 76.1107 166.442 72.2856 175.469M46 253.949L59.1715 239.131V205.654C62.3855 198.422 67.6288 186.459 72.2856 175.469M99.2349 239.131L83.3193 237.485L93.7467 201.263L72.2856 175.469" stroke="black" stroke-width="4.39051" stroke-linecap="round"/>
<path d="M114.602 156.261C111.528 154.944 94.6616 137.418 86.6123 128.82C91.1857 139.797 100.881 162.408 103.077 165.042C105.821 168.335 138.201 175.469 143.689 174.921C148.079 174.482 153.568 169.798 156.312 167.786C153.019 165.042 118.443 157.907 114.602 156.261Z" stroke="black" stroke-width="4.39051" stroke-linecap="round"/>
<path d="M158.369 169.57L172.775 194.679L205.704 201.264M205.704 201.264L230.949 214.436C231.864 228.705 234.352 257.573 236.986 258.89C239.621 260.207 249.426 259.438 254 258.89M205.704 201.264C205.704 197.752 208.265 193.581 209.546 191.934M205.704 201.264C203.326 216.814 201.862 238.39 201.862 242.974C201.862 255.048 204.423 262.548 205.704 264.378M205.704 264.378L157.408 258.89L103.076 280.842L93.7461 269.317M205.704 264.378L168.385 221.57L129.419 249.56L111.857 242.974" stroke="black" stroke-width="4.39051" stroke-linecap="round"/>
<path d="M157.41 169.434L145.336 166.689" stroke="black" stroke-width="4.39051" stroke-linecap="round"/>
</svg>
