<svg width="300" height="300" viewBox="0 0 300 300" fill="none" xmlns="http://www.w3.org/2000/svg">
<rect x="5.5" y="5.5" width="289" height="289" rx="14.5" fill="#FFE3FF"/>
<rect x="5.5" y="5.5" width="289" height="289" rx="14.5" stroke="#FE05FC" stroke-width="11"/>
<path d="M116.688 23.3672V33.8945C118.458 31.8242 120.574 30.7891 123.035 30.7891C124.298 30.7891 125.438 31.0234 126.453 31.4922C127.469 31.9609 128.23 32.5599 128.738 33.2891C129.259 34.0182 129.611 34.8255 129.793 35.7109C129.988 36.5964 130.086 37.9701 130.086 39.832V52H124.598V41.043C124.598 38.8685 124.493 37.4883 124.285 36.9023C124.077 36.3164 123.706 35.8542 123.172 35.5156C122.651 35.1641 121.993 34.9883 121.199 34.9883C120.288 34.9883 119.474 35.2096 118.758 35.6523C118.042 36.0951 117.514 36.7656 117.176 37.6641C116.85 38.5495 116.688 39.8646 116.688 41.6094V52H111.199V23.3672H116.688ZM147.684 45.3984L153.152 46.3164C152.449 48.3216 151.336 49.8516 149.812 50.9062C148.302 51.9479 146.408 52.4688 144.129 52.4688C140.522 52.4688 137.853 51.2904 136.121 48.9336C134.754 47.0456 134.07 44.6628 134.07 41.7852C134.07 38.3477 134.969 35.6589 136.766 33.7188C138.562 31.7656 140.835 30.7891 143.582 30.7891C146.668 30.7891 149.103 31.8112 150.887 33.8555C152.671 35.8867 153.523 39.0052 153.445 43.2109H139.695C139.734 44.8385 140.177 46.1081 141.023 47.0195C141.87 47.918 142.924 48.3672 144.188 48.3672C145.047 48.3672 145.77 48.1328 146.355 47.6641C146.941 47.1953 147.384 46.4401 147.684 45.3984ZM147.996 39.8516C147.957 38.263 147.547 37.0586 146.766 36.2383C145.984 35.4049 145.034 34.9883 143.914 34.9883C142.716 34.9883 141.727 35.4245 140.945 36.2969C140.164 37.1693 139.78 38.3542 139.793 39.8516H147.996ZM157.938 52V23.3672H163.426V52H157.938ZM168.914 31.2578H174.031V34.3047C174.695 33.263 175.594 32.4167 176.727 31.7656C177.859 31.1146 179.116 30.7891 180.496 30.7891C182.905 30.7891 184.949 31.7331 186.629 33.6211C188.309 35.5091 189.148 38.1393 189.148 41.5117C189.148 44.9753 188.302 47.6706 186.609 49.5977C184.917 51.5117 182.866 52.4688 180.457 52.4688C179.311 52.4688 178.27 52.2409 177.332 51.7852C176.408 51.3294 175.431 50.5482 174.402 49.4414V59.8906H168.914V31.2578ZM174.344 41.2773C174.344 43.6081 174.806 45.3333 175.73 46.4531C176.655 47.5599 177.781 48.1133 179.109 48.1133C180.385 48.1133 181.447 47.6055 182.293 46.5898C183.139 45.5612 183.562 43.8815 183.562 41.5508C183.562 39.3763 183.126 37.7617 182.254 36.707C181.382 35.6523 180.301 35.125 179.012 35.125C177.671 35.125 176.557 35.6458 175.672 36.6875C174.786 37.7161 174.344 39.2461 174.344 41.2773Z" fill="black"/>
<path d="M112.486 100.629C109.82 112.365 99.2958 119.573 89.321 117.307C79.3461 115.041 72.9687 103.993 75.6348 92.2574C78.3008 80.5214 88.8254 73.3132 98.8003 75.5791C108.775 77.8451 115.153 88.893 112.486 100.629Z" fill="#BC8166" stroke="black" stroke-width="4"/>
<path d="M234.322 175.268C231.656 187.004 221.132 194.212 211.157 191.946C201.182 189.68 194.805 178.632 197.471 166.896C200.137 155.16 210.661 147.952 220.636 150.218C230.611 152.484 236.988 163.532 234.322 175.268Z" fill="#BC8166" stroke="black" stroke-width="4"/>
<path d="M86.0634 118.393C85.8804 125.893 84.6364 143.418 81.124 153.517C79.5401 158.071 76.1107 166.442 72.2856 175.469M46 253.949L59.1715 239.131V205.654C62.3855 198.422 67.6288 186.459 72.2856 175.469M99.2349 239.131L83.3193 237.485L93.7467 201.263L72.2856 175.469" stroke="black" stroke-width="4.39051" stroke-linecap="round"/>
<path d="M114.602 156.261C111.528 154.944 94.6616 137.418 86.6123 128.82C91.1857 139.797 100.881 162.408 103.077 165.042C105.821 168.335 138.201 175.469 143.689 174.921C148.079 174.482 153.568 169.798 156.312 167.786C153.019 165.042 118.443 157.907 114.602 156.261Z" stroke="black" stroke-width="4.39051" stroke-linecap="round"/>
<path d="M158.369 169.57L172.775 194.679L205.704 201.264M205.704 201.264L230.949 214.436C231.864 228.705 234.352 257.573 236.986 258.89C239.621 260.207 249.426 259.438 254 258.89M205.704 201.264C205.704 197.752 208.265 193.581 209.546 191.934M205.704 201.264C203.326 216.814 201.862 238.39 201.862 242.974C201.862 255.048 204.423 262.548 205.704 264.378M205.704 264.378L157.408 258.89L103.076 280.842L93.7461 269.317M205.704 264.378L168.385 221.57L129.419 249.56L111.857 242.974" stroke="black" stroke-width="4.39051" stroke-linecap="round"/>
<path d="M157.41 169.434L145.336 166.689" stroke="black" stroke-width="4.39051" stroke-linecap="round"/>
</svg>
