<svg width="312" height="312" viewBox="0 0 312 312" fill="none" xmlns="http://www.w3.org/2000/svg">
<rect x="6" y="6" width="300" height="300" rx="20" fill="#E2FFE2"/>
<rect x="6" y="6" width="300" height="300" rx="20" stroke="#1ADF1D" stroke-width="11"/>
<path d="M121.555 29.3672V39.8945C123.326 37.8242 125.441 36.7891 127.902 36.7891C129.165 36.7891 130.305 37.0234 131.32 37.4922C132.336 37.9609 133.098 38.5599 133.605 39.2891C134.126 40.0182 134.478 40.8255 134.66 41.7109C134.855 42.5964 134.953 43.9701 134.953 45.832V58H129.465V47.043C129.465 44.8685 129.361 43.4883 129.152 42.9023C128.944 42.3164 128.573 41.8542 128.039 41.5156C127.518 41.1641 126.861 40.9883 126.066 40.9883C125.155 40.9883 124.341 41.2096 123.625 41.6523C122.909 42.0951 122.382 42.7656 122.043 43.6641C121.717 44.5495 121.555 45.8646 121.555 47.6094V58H116.066V29.3672H121.555ZM152.551 51.3984L158.02 52.3164C157.316 54.3216 156.203 55.8516 154.68 56.9062C153.169 57.9479 151.275 58.4688 148.996 58.4688C145.389 58.4688 142.72 57.2904 140.988 54.9336C139.621 53.0456 138.938 50.6628 138.938 47.7852C138.938 44.3477 139.836 41.6589 141.633 39.7188C143.43 37.7656 145.702 36.7891 148.449 36.7891C151.535 36.7891 153.97 37.8112 155.754 39.8555C157.538 41.8867 158.391 45.0052 158.312 49.2109H144.562C144.602 50.8385 145.044 52.1081 145.891 53.0195C146.737 53.918 147.792 54.3672 149.055 54.3672C149.914 54.3672 150.637 54.1328 151.223 53.6641C151.809 53.1953 152.251 52.4401 152.551 51.3984ZM152.863 45.8516C152.824 44.263 152.414 43.0586 151.633 42.2383C150.852 41.4049 149.901 40.9883 148.781 40.9883C147.583 40.9883 146.594 41.4245 145.812 42.2969C145.031 43.1693 144.647 44.3542 144.66 45.8516H152.863ZM168.059 58H162.57V37.2578H167.668V40.207C168.54 38.8138 169.322 37.8958 170.012 37.4531C170.715 37.0104 171.509 36.7891 172.395 36.7891C173.645 36.7891 174.849 37.1341 176.008 37.8242L174.309 42.6094C173.384 42.0104 172.525 41.7109 171.73 41.7109C170.962 41.7109 170.311 41.9258 169.777 42.3555C169.243 42.7721 168.82 43.5339 168.508 44.6406C168.208 45.7474 168.059 48.0651 168.059 51.5938V58ZM190.402 51.3984L195.871 52.3164C195.168 54.3216 194.055 55.8516 192.531 56.9062C191.021 57.9479 189.126 58.4688 186.848 58.4688C183.241 58.4688 180.572 57.2904 178.84 54.9336C177.473 53.0456 176.789 50.6628 176.789 47.7852C176.789 44.3477 177.688 41.6589 179.484 39.7188C181.281 37.7656 183.553 36.7891 186.301 36.7891C189.387 36.7891 191.822 37.8112 193.605 39.8555C195.389 41.8867 196.242 45.0052 196.164 49.2109H182.414C182.453 50.8385 182.896 52.1081 183.742 53.0195C184.589 53.918 185.643 54.3672 186.906 54.3672C187.766 54.3672 188.488 54.1328 189.074 53.6641C189.66 53.1953 190.103 52.4401 190.402 51.3984ZM190.715 45.8516C190.676 44.263 190.266 43.0586 189.484 42.2383C188.703 41.4049 187.753 40.9883 186.633 40.9883C185.435 40.9883 184.445 41.4245 183.664 42.2969C182.883 43.1693 182.499 44.3542 182.512 45.8516H190.715Z" fill="black"/>
<path d="M46.8624 260.485L90.6376 161.515H270.138L226.362 260.485H46.8624Z" fill="#B92429" stroke="black" stroke-width="5.03"/>
<path d="M71 98L141 132L175 186" stroke="black" stroke-width="12.03" stroke-linecap="round"/>
<path d="M156 195.278C156 191.678 159 188.778 160.5 187.778C162 185.278 164.6 181.378 169 179.778C174.5 177.778 178.5 177.778 182 178.278C185.5 178.778 193.5 184.778 198.5 190.278C203.5 195.778 203 197.778 201.5 201.278C200.3 204.078 192.5 208.278 192.5 212.278C192.5 216.278 190 225.278 190 229.278C190 234.278 182 233.278 182 229.278V207C182 201 177.5 198.778 173 195.278C168.5 191.778 166 197.778 167.5 203.278C169 208.778 166 212.278 162.5 212.278C159 212.278 156 199.778 156 195.278Z" fill="black" stroke="black" stroke-linecap="round"/>
<path d="M197 232.5L215 226M175.5 232L159 222.5M191.5 239L208 244M177.5 239L157.5 244" stroke="black" stroke-width="2" stroke-linecap="round"/>
</svg>
