<svg width="300" height="300" viewBox="0 0 300 300" fill="none" xmlns="http://www.w3.org/2000/svg">
<path d="M115.555 23.3672V33.8945C117.326 31.8242 119.441 30.7891 121.902 30.7891C123.165 30.7891 124.305 31.0234 125.32 31.4922C126.336 31.9609 127.098 32.5599 127.605 33.2891C128.126 34.0182 128.478 34.8255 128.66 35.7109C128.855 36.5964 128.953 37.9701 128.953 39.832V52H123.465V41.043C123.465 38.8685 123.361 37.4883 123.152 36.9023C122.944 36.3164 122.573 35.8542 122.039 35.5156C121.518 35.1641 120.861 34.9883 120.066 34.9883C119.155 34.9883 118.341 35.2096 117.625 35.6523C116.909 36.0951 116.382 36.7656 116.043 37.6641C115.717 38.5495 115.555 39.8646 115.555 41.6094V52H110.066V23.3672H115.555ZM146.551 45.3984L152.02 46.3164C151.316 48.3216 150.203 49.8516 148.68 50.9062C147.169 51.9479 145.275 52.4688 142.996 52.4688C139.389 52.4688 136.72 51.2904 134.988 48.9336C133.621 47.0456 132.938 44.6628 132.938 41.7852C132.938 38.3477 133.836 35.6589 135.633 33.7188C137.43 31.7656 139.702 30.7891 142.449 30.7891C145.535 30.7891 147.97 31.8112 149.754 33.8555C151.538 35.8867 152.391 39.0052 152.312 43.2109H138.562C138.602 44.8385 139.044 46.1081 139.891 47.0195C140.737 47.918 141.792 48.3672 143.055 48.3672C143.914 48.3672 144.637 48.1328 145.223 47.6641C145.809 47.1953 146.251 46.4401 146.551 45.3984ZM146.863 39.8516C146.824 38.263 146.414 37.0586 145.633 36.2383C144.852 35.4049 143.901 34.9883 142.781 34.9883C141.583 34.9883 140.594 35.4245 139.812 36.2969C139.031 37.1693 138.647 38.3542 138.66 39.8516H146.863ZM162.059 52H156.57V31.2578H161.668V34.207C162.54 32.8138 163.322 31.8958 164.012 31.4531C164.715 31.0104 165.509 30.7891 166.395 30.7891C167.645 30.7891 168.849 31.1341 170.008 31.8242L168.309 36.6094C167.384 36.0104 166.525 35.7109 165.73 35.7109C164.962 35.7109 164.311 35.9258 163.777 36.3555C163.243 36.7721 162.82 37.5339 162.508 38.6406C162.208 39.7474 162.059 42.0651 162.059 45.5938V52ZM184.402 45.3984L189.871 46.3164C189.168 48.3216 188.055 49.8516 186.531 50.9062C185.021 51.9479 183.126 52.4688 180.848 52.4688C177.241 52.4688 174.572 51.2904 172.84 48.9336C171.473 47.0456 170.789 44.6628 170.789 41.7852C170.789 38.3477 171.688 35.6589 173.484 33.7188C175.281 31.7656 177.553 30.7891 180.301 30.7891C183.387 30.7891 185.822 31.8112 187.605 33.8555C189.389 35.8867 190.242 39.0052 190.164 43.2109H176.414C176.453 44.8385 176.896 46.1081 177.742 47.0195C178.589 47.918 179.643 48.3672 180.906 48.3672C181.766 48.3672 182.488 48.1328 183.074 47.6641C183.66 47.1953 184.103 46.4401 184.402 45.3984ZM184.715 39.8516C184.676 38.263 184.266 37.0586 183.484 36.2383C182.703 35.4049 181.753 34.9883 180.633 34.9883C179.435 34.9883 178.445 35.4245 177.664 36.2969C176.883 37.1693 176.499 38.3542 176.512 39.8516H184.715Z" fill="black"/>
<path d="M264.138 155.515L220.362 254.485H40.8623L84.6377 155.515H264.138Z" fill="#B92429" stroke="black" stroke-width="5.03"/>
<path d="M65 92L135 126L169 180" stroke="black" stroke-width="12.03" stroke-linecap="round"/>
<path d="M150 189.278C150 185.678 153 182.778 154.5 181.778C156 179.278 158.6 175.378 163 173.778C168.5 171.778 172.5 171.778 176 172.278C179.5 172.778 187.5 178.778 192.5 184.278C197.5 189.778 197 191.778 195.5 195.278C194.3 198.078 186.5 202.278 186.5 206.278C186.5 210.278 184 219.278 184 223.278C184 228.278 176 227.278 176 223.278V201C176 195 171.5 192.778 167 189.278C162.5 185.778 160 191.778 161.5 197.278C163 202.778 160 206.278 156.5 206.278C153 206.278 150 193.778 150 189.278Z" fill="black" stroke="black" stroke-linecap="round"/>
<path d="M191 226.5L209 220M169.5 226L153 216.5M185.5 233L202 238M171.5 233L151.5 238" stroke="black" stroke-width="2" stroke-linecap="round"/>
</svg>
