<svg width="300" height="300" viewBox="0 0 300 300" fill="none" xmlns="http://www.w3.org/2000/svg">
<path d="M173.828 75.4258C199.61 75.4258 220.986 98.9241 220.986 128.532C220.986 158.14 199.609 181.638 173.828 181.638C148.047 181.638 126.67 158.14 126.67 128.532C126.67 98.9241 148.047 75.4259 173.828 75.4258Z" fill="#BC8166" stroke="black" stroke-width="5.09817"/>
<path d="M173.828 181.213C170.288 191.126 163.546 218.685 164.906 234.319C166.266 249.953 168.305 275.954 169.154 287" stroke="black" stroke-width="5.94787"/>
<path d="M171.704 197.782L221.836 215.626L215.888 251.313" stroke="black" stroke-width="5.94787"/>
<path d="M195.98 251.218C196.66 247.819 209.575 245.27 218.073 248.668C222.321 252.916 221.896 259.715 220.622 263.964C219.347 268.212 211.275 280.958 206.602 279.258C202.863 277.899 211.7 272.461 211.7 263.964C206.602 270.761 194.536 282.317 192.157 279.258C189.778 276.199 199.379 268.212 206.602 260.565C199.379 263.964 188.078 267.702 187.058 263.964C186.039 260.225 198.104 259.29 206.602 253.767C202.495 254.333 195.3 254.617 195.98 251.218Z" fill="black" stroke="black" stroke-width="0.849695"/>
<path d="M169.155 197.782L81.6364 238.568L65.917 203.305" stroke="black" stroke-width="5.94787"/>
<path d="M59.5445 194.385C57.5052 198.463 61.6686 203.448 64.2177 205.006L68.891 203.307L67.6164 197.359C69.4574 199.483 69.7407 203.307 75.6883 199.483C77.6061 198.25 74.8389 194.81 73.9892 191.836C76.9631 193.96 77.8128 199.483 82.0613 196.509C86.4095 193.465 82.0613 190.136 79.9368 186.313C84.1855 188.437 84.541 194.998 89.2837 191.836C94.3818 188.437 89.2837 185.463 85.8849 180.365C92.2576 175.267 104.863 166.344 102.879 163.795C100.499 160.738 90.1336 170.168 84.1855 173.992C81.5839 175.665 62.0935 189.286 59.5445 194.385Z" fill="black" stroke="black" stroke-width="0.849695"/>
<circle cx="157.26" cy="118.76" r="7.64726" fill="black"/>
<circle cx="194.645" cy="118.76" r="7.64726" fill="black"/>
<path d="M152.16 151.899C154.851 155.455 162.696 162.64 172.553 162.935C182.409 163.229 191.954 157.172 195.495 154.106" stroke="black" stroke-width="5.94787" stroke-linecap="round"/>
<path d="M146.168 51V22.3672H151.949V51H146.168Z" fill="black"/>
</svg>
