<svg width="300" height="300" viewBox="0 0 300 300" fill="none" xmlns="http://www.w3.org/2000/svg">
<path d="M134.078 28.4453V23.3672H139.566V28.4453H134.078ZM134.078 52V31.2578H139.566V52H134.078ZM164.078 52H158.59V41.4141C158.59 39.1745 158.473 37.7292 158.238 37.0781C158.004 36.4141 157.62 35.8997 157.086 35.5352C156.565 35.1706 155.934 34.9883 155.191 34.9883C154.241 34.9883 153.388 35.2487 152.633 35.7695C151.878 36.2904 151.357 36.9805 151.07 37.8398C150.797 38.6992 150.66 40.2878 150.66 42.6055V52H145.172V31.2578H150.27V34.3047C152.079 31.9609 154.358 30.7891 157.105 30.7891C158.316 30.7891 159.423 31.0104 160.426 31.4531C161.428 31.8828 162.184 32.4362 162.691 33.1133C163.212 33.7904 163.57 34.5586 163.766 35.418C163.974 36.2773 164.078 37.5078 164.078 39.1094V52Z" fill="black"/>
<path d="M49.7886 163.038C49.1239 165.364 50.4705 167.788 52.7964 168.453C55.1223 169.118 57.5466 167.771 58.2114 165.445L49.7886 163.038ZM104 97L104 101.38L104 97ZM172.966 199.155L185.361 150.122L136.699 163.904L172.966 199.155ZM54 164.241C58.2114 165.445 58.2112 165.446 58.2111 165.446C58.2112 165.446 58.2111 165.446 58.2113 165.445C58.2115 165.445 58.2121 165.443 58.2129 165.44C58.2146 165.434 58.2174 165.424 58.2214 165.41C58.2293 165.383 58.2419 165.339 58.2592 165.281C58.2936 165.163 58.3464 164.985 58.4174 164.749C58.5594 164.277 58.774 163.577 59.0593 162.681C59.6301 160.889 60.4828 158.317 61.602 155.226C63.845 149.032 67.1375 140.812 71.351 132.625C75.5844 124.4 80.6397 116.423 86.3412 110.56C92.0727 104.666 97.9833 101.38 104 101.38L104 97L104 92.62C94.6254 92.62 86.5904 97.7388 80.0611 104.453C73.5017 111.198 67.9809 120.031 63.5621 128.616C59.1234 137.24 55.6876 145.83 53.3654 152.244C52.202 155.457 51.3128 158.138 50.7124 160.023C50.4121 160.966 50.1838 161.71 50.0293 162.224C49.952 162.48 49.8932 162.679 49.853 162.816C49.8329 162.885 49.8175 162.938 49.8067 162.975C49.8014 162.993 49.7972 163.008 49.7941 163.019C49.7926 163.024 49.7914 163.028 49.7905 163.031C49.79 163.033 49.7896 163.034 49.7893 163.035C49.7889 163.037 49.7886 163.038 54 164.241ZM104 97L104 101.38C117.298 101.38 128.191 108.932 137.247 120.73C146.316 132.547 153.092 148.079 158.078 162.64L162.222 161.221L166.366 159.802C161.264 144.904 154.119 128.326 144.196 115.396C134.258 102.449 121.083 92.62 104 92.62L104 97Z" fill="#B92429"/>
<path d="M112.621 136.655V247H243.656V136.655" stroke="black" stroke-width="18.9655" stroke-linecap="round"/>
</svg>
