<svg width="312" height="312" viewBox="0 0 312 312" fill="none" xmlns="http://www.w3.org/2000/svg">
<rect x="6" y="6" width="300" height="300" rx="20" fill="#E2FFE2"/>
<rect x="6" y="6" width="300" height="300" rx="20" stroke="#1ADF1D" stroke-width="11"/>
<path d="M140.078 34.4453V29.3672H145.566V34.4453H140.078ZM140.078 58V37.2578H145.566V58H140.078ZM170.078 58H164.59V47.4141C164.59 45.1745 164.473 43.7292 164.238 43.0781C164.004 42.4141 163.62 41.8997 163.086 41.5352C162.565 41.1706 161.934 40.9883 161.191 40.9883C160.241 40.9883 159.388 41.2487 158.633 41.7695C157.878 42.2904 157.357 42.9805 157.07 43.8398C156.797 44.6992 156.66 46.2878 156.66 48.6055V58H151.172V37.2578H156.27V40.3047C158.079 37.9609 160.358 36.7891 163.105 36.7891C164.316 36.7891 165.423 37.0104 166.426 37.4531C167.428 37.8828 168.184 38.4362 168.691 39.1133C169.212 39.7904 169.57 40.5586 169.766 41.418C169.974 42.2773 170.078 43.5078 170.078 45.1094V58Z" fill="black"/>
<path d="M55.7886 169.038C55.1239 171.364 56.4705 173.788 58.7964 174.453C61.1223 175.118 63.5466 173.771 64.2114 171.445L55.7886 169.038ZM110 103L110 107.38L110 103ZM178.966 205.155L191.361 156.122L142.699 169.904L178.966 205.155ZM60 170.241C64.2114 171.445 64.2112 171.446 64.2111 171.446C64.2112 171.446 64.2111 171.446 64.2113 171.445C64.2115 171.445 64.2121 171.443 64.2129 171.44C64.2146 171.434 64.2174 171.424 64.2214 171.41C64.2293 171.383 64.2419 171.339 64.2592 171.281C64.2936 171.163 64.3464 170.985 64.4174 170.749C64.5594 170.277 64.774 169.577 65.0593 168.681C65.6301 166.889 66.4828 164.317 67.602 161.226C69.845 155.032 73.1375 146.812 77.351 138.625C81.5844 130.4 86.6397 122.423 92.3412 116.56C98.0727 110.666 103.983 107.38 110 107.38L110 98.62C100.625 98.62 92.5904 103.739 86.0611 110.453C79.5017 117.198 73.9809 126.031 69.5621 134.616C65.1234 143.24 61.6876 151.83 59.3654 158.244C58.202 161.457 57.3128 164.138 56.7124 166.023C56.4121 166.966 56.1838 167.71 56.0293 168.224C55.952 168.48 55.8932 168.679 55.853 168.816C55.8329 168.885 55.8175 168.938 55.8067 168.975C55.8014 168.993 55.7972 169.008 55.7941 169.019C55.7926 169.024 55.7914 169.028 55.7905 169.031C55.79 169.033 55.7896 169.034 55.7893 169.035C55.7889 169.037 55.7886 169.038 60 170.241ZM110 107.38C123.298 107.38 134.191 114.932 143.247 126.73C152.316 138.547 159.092 154.079 164.078 168.64L172.366 165.802C167.264 150.904 160.119 134.326 150.196 121.396C140.258 108.449 127.083 98.62 110 98.62L110 107.38Z" fill="#B92429"/>
<path d="M118.621 142.655V253H249.655V142.655" stroke="black" stroke-width="18.9655" stroke-linecap="round"/>
</svg>
