<svg width="300" height="300" viewBox="0 0 300 300" fill="none" xmlns="http://www.w3.org/2000/svg">
<rect x="5.5" y="5.5" width="289" height="289" rx="14.5" fill="#FFE3FF"/>
<rect x="5.5" y="5.5" width="289" height="289" rx="14.5" stroke="#FE05FC" stroke-width="11"/>
<path d="M133.374 150.872C133.374 157.976 133.662 169.592 133.374 177.464C133.182 181.304 132.798 187.16 127.326 186.872C123.39 186.68 121.758 183.32 121.566 177.56C121.47 171.608 121.278 161.72 121.374 155.672C121.47 152.12 120.702 144.728 123.102 141.464C124.83 139.352 130.59 139.256 132.222 141.656C133.182 143.192 133.374 147.704 133.374 150.872ZM129.726 131.48C125.79 132.536 122.91 130.328 122.334 126.68C121.278 121.208 126.654 118.136 131.166 121.4C135.582 124.568 134.814 129.848 129.726 131.48ZM164.753 170.36C159.857 167.288 152.273 167.48 147.473 163.928C142.289 159.992 141.521 153.656 144.785 147.8C148.337 141.656 157.265 139.928 163.889 141.08C168.305 141.848 173.873 143.576 175.505 148.664C176.561 152.024 173.969 154.904 170.513 154.328C166.769 153.656 163.985 150.584 160.049 150.584C154.289 150.392 151.793 155.768 157.169 158.648C162.161 161.24 169.073 161.144 173.489 164.792C182.033 171.608 176.561 184.856 166.289 187.064C158.897 188.6 148.433 187.16 143.249 181.208C139.697 176.984 143.345 169.592 148.433 172.856C152.657 175.64 160.049 178.616 163.793 176.216C166.577 174.392 166.577 171.608 164.753 170.36Z" fill="black"/>
</svg>
