<svg width="300" height="300" viewBox="0 0 300 300" fill="none" xmlns="http://www.w3.org/2000/svg">
<rect width="300" height="300" fill="white"/>
<path d="M75.6017 210.731C72.0725 216.54 68.6175 221.015 65.1656 232.998L72.9998 241.5L74.4998 241L82.4998 232.998C90.5789 226.919 84.4529 235.946 91.028 232.998C95.3293 231.07 94.2947 225.976 91.9998 222.25C90.7865 220.281 89.0108 220.064 87.9444 217.903C97.1649 217.903 92.3431 230.232 100.463 230.232C110.138 230.232 108.234 215.026 100.463 209.265C113.049 210.731 105.899 224.153 113.049 224.153C125.657 224.153 123.465 204.067 113.194 199.775C126.198 192.162 151.341 179.431 149.356 173.512C146.975 166.413 125.256 181.075 113.585 186.309C108.48 188.598 81.5093 201.006 75.6017 210.731Z" fill="black" stroke="black" stroke-width="0.60865"/>
<path d="M70.1359 236.698L32 262.998" stroke="black" stroke-width="13.1503" stroke-linecap="round"/>
<path d="M142.137 27.4102V23.3672H145.652V27.4102H142.137ZM142.137 52V31.2578H145.652V52H142.137ZM158.699 48.8555L159.207 51.9609C158.217 52.1693 157.332 52.2734 156.551 52.2734C155.275 52.2734 154.285 52.0716 153.582 51.668C152.879 51.2643 152.384 50.737 152.098 50.0859C151.811 49.4219 151.668 48.0352 151.668 45.9258V33.9922H149.09V31.2578H151.668V26.1211L155.164 24.0117V31.2578H158.699V33.9922H155.164V46.1211C155.164 47.1237 155.223 47.7682 155.34 48.0547C155.47 48.3411 155.672 48.569 155.945 48.7383C156.232 48.9076 156.635 48.9922 157.156 48.9922C157.547 48.9922 158.061 48.9466 158.699 48.8555Z" fill="black"/>
<rect x="166.36" y="113.36" width="105.28" height="105.28" fill="#B92429" stroke="black" stroke-width="6.72"/>
</svg>
