<svg width="300" height="300" viewBox="0 0 300 300" fill="none" xmlns="http://www.w3.org/2000/svg">
<path d="M75.6019 210.731C72.0728 216.54 68.6178 221.015 65.1659 232.998L73 241.5L74.5 241L82.5 232.998C90.5791 226.919 84.4531 235.946 91.0283 232.998C95.3296 231.07 94.295 225.976 92 222.25C90.7867 220.281 89.0111 220.064 87.9446 217.903C97.1651 217.903 92.3433 230.232 100.463 230.232C110.139 230.232 108.234 215.026 100.463 209.265C113.049 210.731 105.899 224.153 113.049 224.153C125.657 224.153 123.466 204.067 113.194 199.775C126.198 192.162 151.342 179.431 149.357 173.512C146.976 166.413 125.257 181.075 113.585 186.309C108.48 188.598 81.5095 201.006 75.6019 210.731Z" fill="black" stroke="black" stroke-width="0.60865"/>
<path d="M70.1359 236.698L32 262.998" stroke="black" stroke-width="13.1503" stroke-linecap="round"/>
<path d="M140.145 28.4453V23.3672H145.633V28.4453H140.145ZM140.145 52V31.2578H145.633V52H140.145ZM160.789 31.2578V35.6328H157.039V43.9922C157.039 45.6849 157.072 46.6745 157.137 46.9609C157.215 47.2344 157.378 47.4622 157.625 47.6445C157.885 47.8268 158.198 47.918 158.562 47.918C159.07 47.918 159.806 47.7422 160.77 47.3906L161.238 51.6484C159.962 52.1953 158.517 52.4688 156.902 52.4688C155.913 52.4688 155.021 52.306 154.227 51.9805C153.432 51.6419 152.846 51.2122 152.469 50.6914C152.104 50.1576 151.85 49.4414 151.707 48.543C151.59 47.9049 151.531 46.6159 151.531 44.6758V35.6328H149.012V31.2578H151.531V27.1367L157.039 23.9336V31.2578H160.789Z" fill="black"/>
<rect x="166.36" y="113.36" width="105.28" height="105.28" fill="#B92429" stroke="black" stroke-width="6.72"/>
</svg>
