<svg width="300" height="300" viewBox="0 0 300 300" fill="none" xmlns="http://www.w3.org/2000/svg">
<rect width="300" height="300" fill="white"/>
<path d="M104.938 52V23.3672H108.453V39.6953L116.773 31.2578H121.324L113.395 38.9531L122.125 52H117.789L110.934 41.3945L108.453 43.7773V52H104.938ZM124.918 52V31.2578H128.082V34.207C129.605 31.9284 131.806 30.7891 134.684 30.7891C135.934 30.7891 137.079 31.0169 138.121 31.4727C139.176 31.9154 139.964 32.5013 140.484 33.2305C141.005 33.9596 141.37 34.8255 141.578 35.8281C141.708 36.4792 141.773 37.6185 141.773 39.2461V52H138.258V39.3828C138.258 37.9505 138.121 36.8828 137.848 36.1797C137.574 35.4635 137.086 34.8971 136.383 34.4805C135.693 34.0508 134.879 33.8359 133.941 33.8359C132.444 33.8359 131.148 34.3112 130.055 35.2617C128.974 36.2122 128.434 38.0156 128.434 40.6719V52H124.918ZM145.875 41.6289C145.875 37.7878 146.943 34.9427 149.078 33.0938C150.862 31.5573 153.036 30.7891 155.602 30.7891C158.453 30.7891 160.784 31.7266 162.594 33.6016C164.404 35.4635 165.309 38.0417 165.309 41.3359C165.309 44.0052 164.905 46.1081 164.098 47.6445C163.303 49.168 162.138 50.3529 160.602 51.1992C159.078 52.0456 157.411 52.4688 155.602 52.4688C152.698 52.4688 150.348 51.5378 148.551 49.6758C146.767 47.8138 145.875 45.1315 145.875 41.6289ZM149.488 41.6289C149.488 44.2852 150.068 46.2773 151.227 47.6055C152.385 48.9206 153.844 49.5781 155.602 49.5781C157.346 49.5781 158.798 48.9141 159.957 47.5859C161.116 46.2578 161.695 44.2331 161.695 41.5117C161.695 38.9466 161.109 37.0065 159.938 35.6914C158.779 34.3633 157.333 33.6992 155.602 33.6992C153.844 33.6992 152.385 34.3568 151.227 35.6719C150.068 36.987 149.488 38.9727 149.488 41.6289ZM173.277 52L166.93 31.2578H170.562L173.863 43.2305L175.094 47.6836C175.146 47.4622 175.504 46.0365 176.168 43.4062L179.469 31.2578H183.082L186.188 43.2891L187.223 47.2539L188.414 43.25L191.969 31.2578H195.387L188.902 52H185.25L181.949 39.5781L181.148 36.043L176.949 52H173.277Z" fill="black"/>
<path d="M184.291 109.409C183.199 125.384 170.798 137.274 156.887 136.324C142.976 135.373 132.309 121.906 133.401 105.93C134.493 89.9546 146.894 78.0645 160.804 79.0153C174.715 79.9662 185.383 93.4332 184.291 109.409Z" fill="#BC8166" stroke="black" stroke-width="2.75721"/>
<circle cx="2.58781" cy="2.58781" r="2.58781" transform="matrix(-1 0 0 1 151.702 93.8418)" fill="black"/>
<circle cx="2.58781" cy="2.58781" r="2.58781" transform="matrix(-1 0 0 1 174.859 98.4746)" fill="black"/>
<path d="M149.169 119.316C151.484 121.394 158.054 124.782 165.817 121.719" stroke="black" stroke-width="3.61263" stroke-linecap="round"/>
<path d="M156.669 137.842L156.534 148.373" stroke="black" stroke-width="5.17563" stroke-linecap="round"/>
<path d="M124.526 135.527C130.547 138.769 143.053 144.597 150 147.106C156.368 153.474 160.421 148.264 162.737 148.264L195.737 159.843C196.604 164.281 196.428 173.969 188.789 177.211C188.878 177.783 173.93 172.387 169.684 166.211L179.526 197.474H133.211L140.737 162.738C148.842 162.738 119.084 161.695 113.526 159.843C106.579 157.527 117 131.474 124.526 135.527Z" fill="#4B9E45"/>
<path d="M124.526 135.527C130.547 138.769 143.053 144.597 150 147.106C156.368 153.474 160.421 148.264 162.737 148.264L195.737 159.843M124.526 135.527C117 131.474 106.579 157.527 113.526 159.843M124.526 135.527C123.561 142.474 122.789 155.211 113.526 159.843M113.526 159.843C119.084 161.695 148.842 162.738 140.737 162.738L133.211 197.474H179.526L169.684 166.211C173.93 172.387 188.878 177.783 188.789 177.211M188.789 177.211C187.632 169.685 193.421 162.544 195.737 159.843M188.789 177.211C196.428 173.969 196.604 164.281 195.737 159.843" stroke="black" stroke-width="1.15789" stroke-linecap="round"/>
<path d="M108.895 94.4211L123.369 136.105L122.211 144.789C122.211 144.789 119.316 145.368 117.579 144.211C115.843 143.053 104.264 96.7368 104.264 96.7368C102.527 95.5785 100.79 95.8685 97.3158 95C93.8415 94.1315 88.0535 89.2116 89.2111 86.8947C90.6575 84 95.0002 90.3684 97.3162 90.3684C99.6322 90.3684 89.7901 78.2101 93.8425 76.4737C96.8528 75.1838 100.79 88.6315 102.527 86.8947C104.264 85.158 100.211 73 104.264 73C108.317 73 105.96 90.9887 110.053 86.8947C115.842 81.1048 117.58 81.1057 114.685 88.0531C113.646 90.546 109.86 93.8421 108.895 94.4211Z" fill="black"/>
<path d="M187.632 196.895L189.369 176.053C189.369 172.579 189.948 170.649 190.527 167.947C192.65 168.719 195.853 170.726 196.316 172.579C196.779 174.432 194.965 189.561 194 196.895H187.632Z" fill="black"/>
<path d="M108.895 94.4211L123.369 136.105L122.211 144.789C122.211 144.789 119.316 145.368 117.579 144.211C115.843 143.053 104.264 96.7368 104.264 96.7368C102.527 95.5785 100.79 95.8685 97.3158 95C93.8415 94.1315 88.0535 89.2116 89.2111 86.8947C90.6575 84 95.0002 90.3684 97.3162 90.3684C99.6322 90.3684 89.7901 78.2101 93.8425 76.4737C96.8528 75.1838 100.79 88.6315 102.527 86.8947C104.264 85.158 100.211 73 104.264 73C108.317 73 105.96 90.9887 110.053 86.8947C115.842 81.1048 117.58 81.1057 114.685 88.0531C113.646 90.546 109.86 93.8421 108.895 94.4211Z" stroke="black" stroke-width="1.15789" stroke-linecap="round"/>
<path d="M187.632 196.895L189.369 176.053C189.369 172.579 189.948 170.649 190.527 167.947C192.65 168.719 195.853 170.726 196.316 172.579C196.779 174.432 194.965 189.561 194 196.895H187.632Z" stroke="black" stroke-width="1.15789" stroke-linecap="round"/>
<rect x="84" y="191.105" width="132" height="16.2105" rx="2.31579" fill="#494949"/>
<rect x="97.8945" y="209.631" width="104.211" height="55.5789" fill="#494949"/>
<rect x="97.8945" y="251.316" width="12.7368" height="27.7895" fill="#494949"/>
<rect x="189.368" y="251.316" width="12.7368" height="27.7895" fill="#494949"/>
</svg>
