<svg width="300" height="300" viewBox="0 0 300 300" fill="none" xmlns="http://www.w3.org/2000/svg">
<path d="M101.023 52V23.3672H106.512V38.5625L112.938 31.2578H119.695L112.605 38.8359L120.203 52H114.285L109.07 42.6836L106.512 45.3594V52H101.023ZM142.352 52H136.863V41.4141C136.863 39.1745 136.746 37.7292 136.512 37.0781C136.277 36.4141 135.893 35.8997 135.359 35.5352C134.839 35.1706 134.207 34.9883 133.465 34.9883C132.514 34.9883 131.661 35.2487 130.906 35.7695C130.151 36.2904 129.63 36.9805 129.344 37.8398C129.07 38.6992 128.934 40.2878 128.934 42.6055V52H123.445V31.2578H128.543V34.3047C130.353 31.9609 132.632 30.7891 135.379 30.7891C136.59 30.7891 137.697 31.0104 138.699 31.4531C139.702 31.8828 140.457 32.4362 140.965 33.1133C141.486 33.7904 141.844 34.5586 142.039 35.418C142.247 36.2773 142.352 37.5078 142.352 39.1094V52ZM146.668 41.3359C146.668 39.513 147.117 37.7487 148.016 36.043C148.914 34.3372 150.184 33.0352 151.824 32.1367C153.478 31.2383 155.32 30.7891 157.352 30.7891C160.49 30.7891 163.061 31.8112 165.066 33.8555C167.072 35.8867 168.074 38.4583 168.074 41.5703C168.074 44.7083 167.059 47.3125 165.027 49.3828C163.009 51.4401 160.464 52.4688 157.391 52.4688C155.49 52.4688 153.673 52.0391 151.941 51.1797C150.223 50.3203 148.914 49.0638 148.016 47.4102C147.117 45.7435 146.668 43.7188 146.668 41.3359ZM152.293 41.6289C152.293 43.6862 152.781 45.2617 153.758 46.3555C154.734 47.4492 155.939 47.9961 157.371 47.9961C158.803 47.9961 160.001 47.4492 160.965 46.3555C161.941 45.2617 162.43 43.6732 162.43 41.5898C162.43 39.5586 161.941 37.9961 160.965 36.9023C160.001 35.8086 158.803 35.2617 157.371 35.2617C155.939 35.2617 154.734 35.8086 153.758 36.9023C152.781 37.9961 152.293 39.5716 152.293 41.6289ZM176.258 52L169.695 31.2578H175.027L178.914 44.8516L182.488 31.2578H187.781L191.238 44.8516L195.203 31.2578H200.613L193.953 52H188.68L185.105 38.6602L181.59 52H176.258Z" fill="black"/>
<path d="M160.804 79.0156C174.715 79.9665 185.382 93.4332 184.29 109.409C183.198 125.384 170.798 137.274 156.887 136.323C142.976 135.372 132.309 121.906 133.401 105.93C134.493 89.9547 146.894 78.0648 160.804 79.0156Z" fill="#BC8166" stroke="black" stroke-width="2.75721"/>
<circle cx="2.58781" cy="2.58781" r="2.58781" transform="matrix(-1 0 0 1 151.702 93.8418)" fill="black"/>
<circle cx="2.58781" cy="2.58781" r="2.58781" transform="matrix(-1 0 0 1 174.859 98.4746)" fill="black"/>
<path d="M149.169 119.316C151.484 121.394 158.054 124.782 165.817 121.719" stroke="black" stroke-width="3.61263" stroke-linecap="round"/>
<path d="M156.669 137.842L156.534 148.373" stroke="black" stroke-width="5.17563" stroke-linecap="round"/>
<path d="M124.526 135.527C130.547 138.769 143.053 144.597 150 147.106C156.368 153.474 160.421 148.264 162.737 148.264L195.737 159.843C196.604 164.281 196.428 173.969 188.789 177.211C188.878 177.783 173.93 172.387 169.684 166.211L179.526 197.474H133.211L140.737 162.738C148.842 162.738 119.084 161.695 113.526 159.843C106.579 157.527 117 131.474 124.526 135.527Z" fill="#4B9E45"/>
<path d="M124.526 135.527C130.547 138.769 143.053 144.597 150 147.106C156.368 153.474 160.421 148.264 162.737 148.264L195.737 159.843M124.526 135.527C117 131.474 106.579 157.527 113.526 159.843M124.526 135.527C123.561 142.474 122.789 155.211 113.526 159.843M113.526 159.843C119.084 161.695 148.842 162.738 140.737 162.738L133.211 197.474H179.526L169.684 166.211C173.93 172.387 188.878 177.783 188.789 177.211M188.789 177.211C187.632 169.685 193.421 162.544 195.737 159.843M188.789 177.211C196.428 173.969 196.604 164.281 195.737 159.843" stroke="black" stroke-width="1.15789" stroke-linecap="round"/>
<path d="M108.895 94.4211L123.369 136.105L122.211 144.789C122.211 144.789 119.316 145.368 117.579 144.211C115.843 143.053 104.264 96.7368 104.264 96.7368C102.527 95.5785 100.79 95.8685 97.3158 95C93.8415 94.1315 88.0535 89.2116 89.2111 86.8947C90.6575 84 95.0002 90.3684 97.3162 90.3684C99.6322 90.3684 89.7901 78.2101 93.8425 76.4737C96.8528 75.1838 100.79 88.6315 102.527 86.8947C104.264 85.158 100.211 73 104.264 73C108.317 73 105.96 90.9887 110.053 86.8947C115.842 81.1048 117.58 81.1057 114.685 88.0531C113.646 90.546 109.86 93.8421 108.895 94.4211Z" fill="black"/>
<path d="M187.632 196.895L189.369 176.053C189.369 172.579 189.948 170.649 190.527 167.947C192.65 168.719 195.853 170.726 196.316 172.579C196.779 174.432 194.965 189.561 194 196.895H187.632Z" fill="black"/>
<path d="M108.895 94.4211L123.369 136.105L122.211 144.789C122.211 144.789 119.316 145.368 117.579 144.211C115.843 143.053 104.264 96.7368 104.264 96.7368C102.527 95.5785 100.79 95.8685 97.3158 95C93.8415 94.1315 88.0535 89.2116 89.2111 86.8947C90.6575 84 95.0002 90.3684 97.3162 90.3684C99.6322 90.3684 89.7901 78.2101 93.8425 76.4737C96.8528 75.1838 100.79 88.6315 102.527 86.8947C104.264 85.158 100.211 73 104.264 73C108.317 73 105.96 90.9887 110.053 86.8947C115.842 81.1048 117.58 81.1057 114.685 88.0531C113.646 90.546 109.86 93.8421 108.895 94.4211Z" stroke="black" stroke-width="1.15789" stroke-linecap="round"/>
<path d="M187.632 196.895L189.369 176.053C189.369 172.579 189.948 170.649 190.527 167.947C192.65 168.719 195.853 170.726 196.316 172.579C196.779 174.432 194.965 189.561 194 196.895H187.632Z" stroke="black" stroke-width="1.15789" stroke-linecap="round"/>
<rect x="84" y="191.105" width="132" height="16.2105" rx="2.31579" fill="#494949"/>
<rect x="97.8945" y="209.631" width="104.211" height="55.5789" fill="#494949"/>
<rect x="97.8945" y="251.316" width="12.7368" height="27.7895" fill="#494949"/>
<rect x="189.368" y="251.316" width="12.7368" height="27.7895" fill="#494949"/>
</svg>
