<svg width="300" height="300" viewBox="0 0 300 300" fill="none" xmlns="http://www.w3.org/2000/svg">
<rect width="300" height="300" fill="white"/>
<path d="M221.102 282.808C218.68 283.346 216.257 281.462 215.988 279.04C215.988 278.232 215.988 277.156 215.988 276.348C213.566 256.97 215.988 238.129 217.603 218.75C218.411 207.984 218.141 197.488 217.065 186.722C217.065 185.376 216.796 183.761 217.334 182.415C217.603 181.608 218.411 180.8 219.487 180.531C222.179 179.993 225.139 181.339 225.408 184.299C225.408 185.107 225.408 186.183 225.408 186.991C227.831 206.37 225.408 225.21 223.793 244.589C222.986 255.355 223.255 265.851 224.332 276.617C224.332 277.963 224.601 279.578 224.063 280.924C223.793 282 222.717 283.077 221.102 282.808Z" fill="black"/>
<path d="M200.646 251.963L198.601 250.994C197.201 250.321 196.609 248.652 197.282 247.253L217.872 203.866C218.545 202.466 220.213 201.874 221.613 202.547L223.659 203.516C225.058 204.189 225.65 205.858 224.977 207.257L204.387 250.644C203.742 252.017 202.046 252.609 200.646 251.963Z" fill="black"/>
<path d="M250.44 247.119L248.529 248.33C247.21 249.164 245.487 248.787 244.653 247.468L218.895 206.908C218.061 205.589 218.438 203.866 219.757 203.032L221.668 201.821C222.986 200.986 224.709 201.363 225.543 202.682L251.301 243.243C252.135 244.562 251.732 246.284 250.44 247.119Z" fill="black"/>
<path d="M259.321 282.188L256.441 282.942C255.149 283.292 253.804 282.511 253.454 281.193L244.41 246.93C244.06 245.638 244.841 244.292 246.16 243.942L249.04 243.189C250.332 242.839 251.677 243.619 252.027 244.938L261.071 279.201C261.394 280.493 260.613 281.839 259.321 282.188Z" fill="black"/>
<path d="M202.532 282.807H199.302C198.037 282.807 196.987 281.784 196.987 280.492V248.732C196.987 247.467 198.01 246.418 199.302 246.418H202.532C203.797 246.418 204.847 247.44 204.847 248.732V280.492C204.847 281.784 203.824 282.807 202.532 282.807Z" fill="black"/>
<path d="M70.1092 283.076C68.2252 283.345 66.072 282.538 65.8028 280.654C65.8028 275.809 66.6103 271.234 66.8794 266.389C67.1486 260.199 67.1486 254.008 66.6103 247.818C65.8028 238.128 64.1879 228.439 63.6496 218.75C63.3805 209.599 63.6496 200.717 64.7262 191.566C64.9954 189.951 66.072 188.605 67.6869 188.067C69.8401 187.528 72.8007 187.798 73.0698 190.489C73.0698 195.334 72.2624 199.909 71.9932 204.754C71.7241 210.944 71.7241 217.135 72.2624 223.325C73.0698 233.015 74.6847 242.704 75.223 252.393C75.4922 261.544 75.223 270.426 74.1464 279.577C73.8773 281.461 72.2624 283.076 70.1092 283.076Z" fill="black"/>
<path d="M165.927 245.61L165.658 246.229C164.824 248.14 162.563 249.028 160.652 248.167L70.3256 208.333C68.4146 207.498 67.5264 205.237 68.3877 203.326L68.6568 202.707C69.4912 200.796 71.7521 199.908 73.663 200.769L163.989 240.604C165.9 241.465 166.762 243.699 165.927 245.61Z" fill="black"/>
<path d="M40.2608 247.224L38.3768 245.959C37.0849 245.098 36.735 243.349 37.5962 242.057L64.2689 202.115C65.1302 200.823 66.8797 200.473 68.1716 201.335L70.0556 202.6C71.3475 203.461 71.6974 205.21 70.8361 206.502L44.1635 246.444C43.3022 247.736 41.5527 248.086 40.2608 247.224Z" fill="black"/>
<path d="M36.9772 282.808L34.0704 282.404C32.7247 282.216 31.7827 280.978 31.9711 279.632L37.1387 242.947C37.3271 241.601 38.5652 240.659 39.911 240.847L42.8178 241.251C44.1635 241.44 45.1055 242.678 44.9171 244.023L39.7495 280.708C39.5611 282.054 38.323 282.996 36.9772 282.808Z" fill="black"/>
<path d="M163.559 246.122L161.944 246.471C160.275 246.821 158.606 245.772 158.256 244.076C154.381 226.178 150.532 208.279 146.656 190.381C146.198 188.335 145.768 186.263 145.31 184.217C145.256 184.002 145.041 182.925 145.741 181.876C146.171 181.203 146.871 180.691 147.706 180.53L149.321 180.18C150.989 179.83 152.658 180.88 153.008 182.575L165.954 242.434C166.304 244.103 165.227 245.772 163.559 246.122Z" fill="black"/>
<path d="M158.22 169.102C156.605 173.947 158.929 177.495 154.084 183.954C150.451 188.799 141.973 188.799 136.051 184.493C130.458 177.148 123.967 168.909 127.17 165.922C132.776 161.055 135.286 170.711 135.782 169.959C136.051 169.959 130.674 162.324 133.36 160.269C139.31 155.72 142.528 165.922 143.049 165.114C143.049 165.114 137.588 157.496 142.126 155.081C146.665 152.665 149.493 159.445 152.185 159.445C154.084 158.641 156.208 156.629 156.208 156.629C156.208 156.629 160.634 152.606 163.45 155.082C166.267 157.032 164.872 160.216 162.646 162.324C161.047 163.837 159.081 166.492 158.22 169.102Z" fill="black"/>
<path d="M119.883 146.933C124.772 117.306 108.224 89.9044 82.9237 85.7299C57.6232 81.5555 33.1502 102.189 28.2619 131.816C23.3736 161.444 39.9209 188.845 65.2215 193.02C90.522 197.194 114.995 176.561 119.883 146.933Z" fill="black"/>
<path d="M114.78 145.615C119.17 118.995 104.596 94.4248 82.2291 90.7366C59.8619 87.0484 38.1713 105.639 33.7818 132.259C29.3922 158.88 43.966 183.45 66.3331 187.138C88.7003 190.826 110.391 172.236 114.78 145.615Z" fill="#BC8166"/>
<path d="M74.2809 133.158C77.4768 133.158 80.0676 130.567 80.0676 127.371C80.0676 124.176 77.4768 121.585 74.2809 121.585C71.085 121.585 68.4942 124.176 68.4942 127.371C68.4942 130.567 71.085 133.158 74.2809 133.158Z" fill="black"/>
<path d="M106.848 137.197C110.044 137.197 112.635 134.606 112.635 131.41C112.635 128.214 110.044 125.623 106.848 125.623C103.652 125.623 101.061 128.214 101.061 131.41C101.061 134.606 103.652 137.197 106.848 137.197Z" fill="black"/>
<path d="M94.0903 167.18C94.6286 167.315 94.8977 167.88 94.7093 168.391C92.3408 174.959 84.6701 178.565 77.0801 176.493C69.4093 174.42 64.5916 167.315 65.9911 160.398C66.0719 159.967 66.5294 159.698 66.9332 159.806L69.3555 160.452C69.7323 160.559 69.9745 160.936 69.8938 161.34C68.9518 166.346 72.4507 171.46 77.9952 172.967C83.5127 174.447 89.0572 171.863 90.8336 167.126C90.9951 166.696 91.4795 166.454 91.9371 166.561L94.0903 167.18Z" fill="black"/>
<path d="M267.803 138.001C269.016 107.999 249.23 82.8369 223.609 81.8008C197.988 80.7646 176.234 104.247 175.021 134.249C173.808 164.252 193.594 189.414 219.215 190.45C244.836 191.486 266.59 168.004 267.803 138.001Z" fill="black"/>
<path d="M262.327 137.328C263.418 110.37 245.94 87.7734 223.289 86.8573C200.639 85.9412 181.393 107.052 180.303 134.01C179.212 160.968 196.69 183.564 219.341 184.48C241.991 185.396 261.237 164.285 262.327 137.328Z" fill="#BC8166"/>
<path d="M223.66 130.146C226.856 130.146 229.446 127.555 229.446 124.359C229.446 121.163 226.856 118.572 223.66 118.572C220.464 118.572 217.873 121.163 217.873 124.359C217.873 127.555 220.464 130.146 223.66 130.146Z" fill="black"/>
<path d="M190.93 127.507C194.126 127.507 196.717 124.916 196.717 121.72C196.717 118.525 194.126 115.934 190.93 115.934C187.735 115.934 185.144 118.525 185.144 121.72C185.144 124.916 187.735 127.507 190.93 127.507Z" fill="black"/>
<path d="M198.36 159.186C198.844 159.159 199.248 159.482 199.329 159.966C200.109 164.972 205.008 168.633 210.714 168.283C216.447 167.933 220.915 163.627 221.022 158.54C221.022 158.136 221.345 157.813 221.749 157.786L224.252 157.625C224.683 157.598 225.059 157.948 225.059 158.378C225.033 165.457 218.869 171.432 210.929 171.916C203.07 172.401 196.314 167.314 195.319 160.397C195.238 159.859 195.642 159.347 196.18 159.32L198.36 159.186Z" fill="black"/>
<path d="M89.9922 51V22.3672H93.5078V51H89.9922ZM113.176 44.3203L116.809 44.7695C116.236 46.8919 115.174 48.5391 113.625 49.7109C112.076 50.8828 110.096 51.4688 107.688 51.4688C104.654 51.4688 102.245 50.5378 100.461 48.6758C98.6901 46.8008 97.8047 44.1771 97.8047 40.8047C97.8047 37.3151 98.7031 34.6068 100.5 32.6797C102.297 30.7526 104.628 29.7891 107.492 29.7891C110.266 29.7891 112.531 30.7331 114.289 32.6211C116.047 34.5091 116.926 37.1654 116.926 40.5898C116.926 40.7982 116.919 41.1107 116.906 41.5273H101.438C101.568 43.806 102.212 45.5508 103.371 46.7617C104.53 47.9727 105.975 48.5781 107.707 48.5781C108.996 48.5781 110.096 48.2396 111.008 47.5625C111.919 46.8854 112.642 45.8047 113.176 44.3203ZM101.633 38.6367H113.215C113.059 36.8919 112.616 35.5833 111.887 34.7109C110.767 33.3568 109.315 32.6797 107.531 32.6797C105.917 32.6797 104.556 33.2201 103.449 34.3008C102.355 35.3815 101.75 36.8268 101.633 38.6367ZM128.918 47.8555L129.426 50.9609C128.436 51.1693 127.551 51.2734 126.77 51.2734C125.493 51.2734 124.504 51.0716 123.801 50.668C123.098 50.2643 122.603 49.737 122.316 49.0859C122.03 48.4219 121.887 47.0352 121.887 44.9258V32.9922H119.309V30.2578H121.887V25.1211L125.383 23.0117V30.2578H128.918V32.9922H125.383V45.1211C125.383 46.1237 125.441 46.7682 125.559 47.0547C125.689 47.3411 125.891 47.569 126.164 47.7383C126.451 47.9076 126.854 47.9922 127.375 47.9922C127.766 47.9922 128.28 47.9466 128.918 47.8555ZM132.16 26.1562V22.0742H135.93V25.2969C135.93 27.0417 135.728 28.2982 135.324 29.0664C134.764 30.1211 133.892 30.9154 132.707 31.4492L131.848 30.0625C132.551 29.776 133.072 29.3268 133.41 28.7148C133.762 28.0898 133.957 27.237 133.996 26.1562H132.16ZM139.133 44.8086L142.609 44.2617C142.805 45.6549 143.345 46.7227 144.23 47.4648C145.129 48.207 146.379 48.5781 147.98 48.5781C149.595 48.5781 150.793 48.2526 151.574 47.6016C152.355 46.9375 152.746 46.1628 152.746 45.2773C152.746 44.4831 152.401 43.8581 151.711 43.4023C151.229 43.0898 150.031 42.6927 148.117 42.2109C145.539 41.5599 143.749 41 142.746 40.5312C141.757 40.0495 141.001 39.3919 140.48 38.5586C139.973 37.7122 139.719 36.7812 139.719 35.7656C139.719 34.8411 139.927 33.9883 140.344 33.207C140.773 32.4128 141.353 31.7552 142.082 31.2344C142.629 30.8307 143.371 30.4922 144.309 30.2188C145.259 29.9323 146.275 29.7891 147.355 29.7891C148.983 29.7891 150.409 30.0234 151.633 30.4922C152.87 30.9609 153.781 31.599 154.367 32.4062C154.953 33.2005 155.357 34.2682 155.578 35.6094L152.141 36.0781C151.984 35.0104 151.529 34.1771 150.773 33.5781C150.031 32.9792 148.977 32.6797 147.609 32.6797C145.995 32.6797 144.842 32.9466 144.152 33.4805C143.462 34.0143 143.117 34.6393 143.117 35.3555C143.117 35.8112 143.26 36.2214 143.547 36.5859C143.833 36.9635 144.283 37.276 144.895 37.5234C145.246 37.6536 146.281 37.9531 148 38.4219C150.487 39.0859 152.219 39.6328 153.195 40.0625C154.185 40.4792 154.96 41.0911 155.52 41.8984C156.079 42.7057 156.359 43.7083 156.359 44.9062C156.359 46.0781 156.014 47.1849 155.324 48.2266C154.647 49.2552 153.664 50.056 152.375 50.6289C151.086 51.1888 149.628 51.4688 148 51.4688C145.305 51.4688 143.247 50.9089 141.828 49.7891C140.422 48.6693 139.523 47.0091 139.133 44.8086ZM171.027 52.7188L174.445 53.2266C174.589 54.2812 174.986 55.0495 175.637 55.5312C176.509 56.1823 177.701 56.5078 179.211 56.5078C180.839 56.5078 182.095 56.1823 182.98 55.5312C183.866 54.8802 184.465 53.9688 184.777 52.7969C184.96 52.0807 185.044 50.5768 185.031 48.2852C183.495 50.0951 181.581 51 179.289 51C176.438 51 174.23 49.9714 172.668 47.9141C171.105 45.8568 170.324 43.3893 170.324 40.5117C170.324 38.5326 170.682 36.7096 171.398 35.043C172.115 33.3633 173.15 32.0677 174.504 31.1562C175.871 30.2448 177.473 29.7891 179.309 29.7891C181.757 29.7891 183.775 30.7786 185.363 32.7578V30.2578H188.605V48.1875C188.605 51.4167 188.273 53.7018 187.609 55.043C186.958 56.3971 185.917 57.4648 184.484 58.2461C183.065 59.0273 181.314 59.418 179.23 59.418C176.757 59.418 174.758 58.8581 173.234 57.7383C171.711 56.6315 170.975 54.9583 171.027 52.7188ZM173.938 40.2578C173.938 42.9792 174.478 44.9648 175.559 46.2148C176.639 47.4648 177.993 48.0898 179.621 48.0898C181.236 48.0898 182.59 47.4714 183.684 46.2344C184.777 44.9844 185.324 43.0312 185.324 40.375C185.324 37.8359 184.758 35.9219 183.625 34.6328C182.505 33.3438 181.151 32.6992 179.562 32.6992C178 32.6992 176.672 33.3372 175.578 34.6133C174.484 35.8763 173.938 37.7578 173.938 40.2578ZM192.629 40.6289C192.629 36.7878 193.697 33.9427 195.832 32.0938C197.616 30.5573 199.79 29.7891 202.355 29.7891C205.207 29.7891 207.538 30.7266 209.348 32.6016C211.158 34.4635 212.062 37.0417 212.062 40.3359C212.062 43.0052 211.659 45.1081 210.852 46.6445C210.057 48.168 208.892 49.3529 207.355 50.1992C205.832 51.0456 204.165 51.4688 202.355 51.4688C199.452 51.4688 197.102 50.5378 195.305 48.6758C193.521 46.8138 192.629 44.1315 192.629 40.6289ZM196.242 40.6289C196.242 43.2852 196.822 45.2773 197.98 46.6055C199.139 47.9206 200.598 48.5781 202.355 48.5781C204.1 48.5781 205.552 47.9141 206.711 46.5859C207.87 45.2578 208.449 43.2331 208.449 40.5117C208.449 37.9466 207.863 36.0065 206.691 34.6914C205.533 33.3633 204.087 32.6992 202.355 32.6992C200.598 32.6992 199.139 33.3568 197.98 34.6719C196.822 35.987 196.242 37.9727 196.242 40.6289Z" fill="black"/>
</svg>
