<svg width="300" height="300" viewBox="0 0 300 300" fill="none" xmlns="http://www.w3.org/2000/svg">
<rect width="300" height="300" fill="white"/>
<path d="M122.02 52V23.3672H125.535V52H122.02ZM131.023 27.4102V23.3672H134.539V27.4102H131.023ZM131.023 52V31.2578H134.539V52H131.023ZM139.93 52V23.3672H143.445V39.6953L151.766 31.2578H156.316L148.387 38.9531L157.117 52H152.781L145.926 41.3945L143.445 43.7773V52H139.93ZM174.109 45.3203L177.742 45.7695C177.169 47.8919 176.108 49.5391 174.559 50.7109C173.009 51.8828 171.03 52.4688 168.621 52.4688C165.587 52.4688 163.178 51.5378 161.395 49.6758C159.624 47.8008 158.738 45.1771 158.738 41.8047C158.738 38.3151 159.637 35.6068 161.434 33.6797C163.23 31.7526 165.561 30.7891 168.426 30.7891C171.199 30.7891 173.465 31.7331 175.223 33.6211C176.98 35.5091 177.859 38.1654 177.859 41.5898C177.859 41.7982 177.853 42.1107 177.84 42.5273H162.371C162.501 44.806 163.146 46.5508 164.305 47.7617C165.464 48.9727 166.909 49.5781 168.641 49.5781C169.93 49.5781 171.03 49.2396 171.941 48.5625C172.853 47.8854 173.576 46.8047 174.109 45.3203ZM162.566 39.6367H174.148C173.992 37.8919 173.549 36.5833 172.82 35.7109C171.701 34.3568 170.249 33.6797 168.465 33.6797C166.85 33.6797 165.49 34.2201 164.383 35.3008C163.289 36.3815 162.684 37.8268 162.566 39.6367Z" fill="black"/>
<path d="M192.643 122.341C201.48 149.249 189.066 176.984 165.636 184.679C142.205 192.374 115.765 177.399 106.928 150.491C98.0907 123.583 110.505 95.8473 133.935 88.1525C157.366 80.4576 183.806 95.4326 192.643 122.341Z" fill="#BC8166" stroke="black" stroke-width="4.87675"/>
<rect x="98.9599" y="208.493" width="81.7548" height="81.7548" transform="rotate(-30.4861 98.9599 208.493)" fill="#B92429" stroke="black" stroke-width="2.03"/>
<path d="M132 159.461C135.367 161.956 144.342 166.361 153.309 164.019C162.275 161.678 169.28 153.691 171.662 149.99" stroke="black" stroke-width="5.58965" stroke-linecap="round"/>
<path d="M167.316 121.623C165.389 126.142 160.164 128.243 155.645 126.316C151.126 124.389 149.025 119.164 150.952 114.645C152.879 110.126 158.104 108.025 162.623 109.952C167.142 111.879 169.243 117.104 167.316 121.623Z" fill="white" stroke="black" stroke-width="4.87"/>
<path d="M131.746 122.343C132.036 127.247 128.294 131.457 123.39 131.746C118.486 132.035 114.276 128.294 113.987 123.39C113.698 118.486 117.439 114.276 122.343 113.987C127.247 113.697 131.457 117.439 131.746 122.343Z" fill="white" stroke="black" stroke-width="4.87"/>
<path d="M161.902 116.213C161.47 117.225 160.025 117.983 158.414 117.296C156.803 116.609 156.35 115.041 156.781 114.029C157.213 113.017 158.658 112.258 160.269 112.945C161.88 113.632 162.333 115.201 161.902 116.213Z" fill="black" stroke="black" stroke-width="5.87382"/>
<path d="M125.111 120.353C124.927 121.438 123.698 122.512 121.971 122.219C120.245 121.926 119.439 120.506 119.623 119.422C119.807 118.337 121.036 117.263 122.763 117.556C124.489 117.849 125.295 119.269 125.111 120.353Z" fill="black" stroke="black" stroke-width="5.87382"/>
<path d="M101.5 226L136 214.5M186 187.5L218.5 208.5L168.5 253.5" stroke="black" stroke-width="8" stroke-linecap="round"/>
<path d="M132 203.5C131.293 207.036 132.499 217 138.999 222.5C147 225.5 158.5 226 158.5 222.5C158.5 218.469 144.5 220.5 145.499 217C152.999 214 162.4 215.7 162 212.5C161.312 207 144.999 213.5 144 210C147 207.5 162 208 162 203.5C162 199 144 204.5 141.499 204.5C138.5 201 142.999 198.584 145.499 196.5C148 194.416 147 191.5 144 191.5C138.999 191.5 133 198.5 132 203.5Z" fill="black" stroke="black" stroke-linecap="round"/>
<path d="M153 230.156C156.352 227.665 165 240 175 240.658C180.987 241.051 179.5 246 175 252.156C173.021 254.864 165.5 260 162.5 262.5C159.5 265 151.5 269.5 146.5 270.5C143.068 271.186 142 269.5 143.5 267C144.885 264.691 145.332 265.612 148.5 263.5C151.5 261.5 156 259.5 156 257C156 254.5 133.123 260.381 134.5 253.5C135.5 248.5 153.91 250.96 156 249.5C158.09 248.04 137.895 245.56 139 240.658C140.5 234.002 156 243.625 160 242C162.501 240.984 148.5 233.5 153 230.156Z" fill="black" stroke="black" stroke-linecap="round"/>
</svg>
