<svg width="300" height="300" viewBox="0 0 300 300" fill="none" xmlns="http://www.w3.org/2000/svg">
<path d="M118.973 52V23.3672H124.461V52H118.973ZM130.105 28.4453V23.3672H135.594V28.4453H130.105ZM130.105 52V31.2578H135.594V52H130.105ZM141.043 52V23.3672H146.531V38.5625L152.957 31.2578H159.715L152.625 38.8359L160.223 52H154.305L149.09 42.6836L146.531 45.3594V52H141.043ZM175.516 45.3984L180.984 46.3164C180.281 48.3216 179.168 49.8516 177.645 50.9062C176.134 51.9479 174.24 52.4688 171.961 52.4688C168.354 52.4688 165.685 51.2904 163.953 48.9336C162.586 47.0456 161.902 44.6628 161.902 41.7852C161.902 38.3477 162.801 35.6589 164.598 33.7188C166.395 31.7656 168.667 30.7891 171.414 30.7891C174.5 30.7891 176.935 31.8112 178.719 33.8555C180.503 35.8867 181.355 39.0052 181.277 43.2109H167.527C167.566 44.8385 168.009 46.1081 168.855 47.0195C169.702 47.918 170.757 48.3672 172.02 48.3672C172.879 48.3672 173.602 48.1328 174.188 47.6641C174.773 47.1953 175.216 46.4401 175.516 45.3984ZM175.828 39.8516C175.789 38.263 175.379 37.0586 174.598 36.2383C173.816 35.4049 172.866 34.9883 171.746 34.9883C170.548 34.9883 169.559 35.4245 168.777 36.2969C167.996 37.1693 167.612 38.3542 167.625 39.8516H175.828Z" fill="black"/>
<path d="M133.935 88.1527C157.365 80.4579 183.807 95.433 192.644 122.341C201.48 149.249 189.066 176.984 165.635 184.679C142.205 192.374 115.765 177.399 106.928 150.491C98.091 123.583 110.505 95.8477 133.935 88.1527Z" fill="#BC8166" stroke="black" stroke-width="4.87675"/>
<rect x="98.9599" y="208.493" width="81.7548" height="81.7548" transform="rotate(-30.4861 98.9599 208.493)" fill="#B92429" stroke="black" stroke-width="2.03"/>
<path d="M132 159.461C135.367 161.956 144.342 166.361 153.309 164.019C162.275 161.678 169.28 153.691 171.662 149.99" stroke="black" stroke-width="5.58965" stroke-linecap="round"/>
<path d="M162.623 109.951C167.142 111.878 169.243 117.104 167.316 121.623C165.389 126.142 160.164 128.242 155.645 126.316C151.126 124.389 149.025 119.163 150.952 114.645C152.878 110.126 158.104 108.024 162.623 109.951Z" fill="white" stroke="black" stroke-width="4.87"/>
<path d="M122.343 113.986C127.247 113.697 131.457 117.439 131.746 122.343C132.035 127.247 128.294 131.456 123.39 131.745C118.486 132.034 114.276 128.294 113.987 123.39C113.698 118.486 117.439 114.275 122.343 113.986Z" fill="white" stroke="black" stroke-width="4.87"/>
<path d="M160.27 112.945C161.88 113.632 162.333 115.201 161.902 116.213C161.471 117.224 160.025 117.983 158.414 117.296C156.803 116.61 156.349 115.041 156.781 114.029C157.212 113.017 158.659 112.258 160.27 112.945Z" fill="black" stroke="black" stroke-width="5.87382"/>
<path d="M122.763 117.555C124.489 117.849 125.295 119.269 125.111 120.353C124.927 121.437 123.698 122.512 121.972 122.219C120.245 121.926 119.438 120.506 119.622 119.421C119.806 118.337 121.036 117.262 122.763 117.555Z" fill="black" stroke="black" stroke-width="5.87382"/>
<path d="M101.5 226L136 214.5M186 187.5L218.5 208.5L168.5 253.5" stroke="black" stroke-width="8" stroke-linecap="round"/>
<path d="M132 203.5C131.293 207.036 132.499 217 138.999 222.5C147 225.5 158.5 226 158.5 222.5C158.5 218.469 144.5 220.5 145.499 217C152.999 214 162.4 215.7 162 212.5C161.312 207 144.999 213.5 144 210C147 207.5 162 208 162 203.5C162 199 144 204.5 141.499 204.5C138.5 201 142.999 198.584 145.499 196.5C148 194.416 147 191.5 144 191.5C138.999 191.5 133 198.5 132 203.5Z" fill="black" stroke="black" stroke-linecap="round"/>
<path d="M153 230.156C156.352 227.665 165 240 175 240.658C180.987 241.051 179.5 246 175 252.156C173.021 254.864 165.5 260 162.5 262.5C159.5 265 151.5 269.5 146.5 270.5C143.068 271.186 142 269.5 143.5 267C144.885 264.691 145.332 265.612 148.5 263.5C151.5 261.5 156 259.5 156 257C156 254.5 133.123 260.381 134.5 253.5C135.5 248.5 153.91 250.96 156 249.5C158.09 248.04 137.895 245.56 139 240.658C140.5 234.002 156 243.625 160 242C162.501 240.984 148.5 233.5 153 230.156Z" fill="black" stroke="black" stroke-linecap="round"/>
</svg>
