<svg width="300" height="300" viewBox="0 0 300 300" fill="none" xmlns="http://www.w3.org/2000/svg">
<rect width="300" height="300" fill="white"/>
<path d="M114.84 52V23.3672H118.355V52H114.84ZM122.516 41.6289C122.516 37.7878 123.583 34.9427 125.719 33.0938C127.503 31.5573 129.677 30.7891 132.242 30.7891C135.094 30.7891 137.424 31.7266 139.234 33.6016C141.044 35.4635 141.949 38.0417 141.949 41.3359C141.949 44.0052 141.546 46.1081 140.738 47.6445C139.944 49.168 138.779 50.3529 137.242 51.1992C135.719 52.0456 134.052 52.4688 132.242 52.4688C129.339 52.4688 126.988 51.5378 125.191 49.6758C123.408 47.8138 122.516 45.1315 122.516 41.6289ZM126.129 41.6289C126.129 44.2852 126.708 46.2773 127.867 47.6055C129.026 48.9206 130.484 49.5781 132.242 49.5781C133.987 49.5781 135.439 48.9141 136.598 47.5859C137.757 46.2578 138.336 44.2331 138.336 41.5117C138.336 38.9466 137.75 37.0065 136.578 35.6914C135.419 34.3633 133.974 33.6992 132.242 33.6992C130.484 33.6992 129.026 34.3568 127.867 35.6719C126.708 36.987 126.129 38.9727 126.129 41.6289ZM144.781 41.6289C144.781 37.7878 145.849 34.9427 147.984 33.0938C149.768 31.5573 151.943 30.7891 154.508 30.7891C157.359 30.7891 159.69 31.7266 161.5 33.6016C163.31 35.4635 164.215 38.0417 164.215 41.3359C164.215 44.0052 163.811 46.1081 163.004 47.6445C162.21 49.168 161.044 50.3529 159.508 51.1992C157.984 52.0456 156.318 52.4688 154.508 52.4688C151.604 52.4688 149.254 51.5378 147.457 49.6758C145.673 47.8138 144.781 45.1315 144.781 41.6289ZM148.395 41.6289C148.395 44.2852 148.974 46.2773 150.133 47.6055C151.292 48.9206 152.75 49.5781 154.508 49.5781C156.253 49.5781 157.704 48.9141 158.863 47.5859C160.022 46.2578 160.602 44.2331 160.602 41.5117C160.602 38.9466 160.016 37.0065 158.844 35.6914C157.685 34.3633 156.24 33.6992 154.508 33.6992C152.75 33.6992 151.292 34.3568 150.133 35.6719C148.974 36.987 148.395 38.9727 148.395 41.6289ZM168.375 52V23.3672H171.891V39.6953L180.211 31.2578H184.762L176.832 38.9531L185.562 52H181.227L174.371 41.3945L171.891 43.7773V52H168.375Z" fill="black"/>
<path d="M109.179 249.912L122.588 243.207C124.451 244.511 128.064 247.677 127.617 249.912C127.058 252.705 120.353 252.147 118.677 253.823C117.001 255.499 119.236 272.261 115.883 273.379C113.202 274.273 110.296 258.107 109.179 249.912Z" fill="black" stroke="black" stroke-width="1.11746"/>
<path d="M169.521 275.613C167.733 275.166 168.776 268.722 169.521 265.556C169.967 263.321 174.55 260.528 176.785 259.41V268.35C181.814 268.35 191.983 268.797 192.43 270.585C192.989 272.82 171.756 276.172 169.521 275.613Z" fill="black" stroke="black" stroke-width="1.11746"/>
<path d="M146.055 183.423C153.691 183.236 169.41 182.976 171.198 183.423L184.049 213.035L185.725 264.998L165.611 267.232L171.198 220.858L157.789 201.302L154.995 228.121L127.617 258.851L115.325 240.972L143.262 218.623L146.055 183.423Z" fill="black" stroke="black" stroke-width="1.11746"/>
<path d="M154.995 131.461C160.023 130.344 171.384 126.669 181.813 124.248C186.842 124.248 185.725 144.871 185.725 144.871C185.725 144.871 174.551 146.547 167.288 147.106L177.903 185.1C171.198 189.011 173.433 189.458 160.023 191.246C149.408 192.661 149.594 189.756 141.027 187.335C141.958 173.553 144.938 153.363 142.703 153.81C139.909 154.369 130.873 155.928 125.844 159.839C121.49 159.839 120.033 155.559 118.694 151.627L118.677 151.575C117.185 147.194 117.039 144.63 119.698 140.842C126.725 139.002 147.904 133.037 154.995 131.461Z" fill="#007D88"/>
<path d="M181.813 124.248C171.384 126.669 160.023 130.344 154.995 131.461C147.904 133.037 126.725 139.002 119.698 140.842M181.813 124.248C186.842 124.248 185.725 144.871 185.725 144.871M181.813 124.248C178.461 125.056 181.813 134.814 181.813 138.166C181.813 141.519 184.049 145.115 185.725 144.871M119.698 140.842C121.471 140.842 125.844 159.839 125.844 159.839M119.698 140.842C117.039 144.63 117.185 147.194 118.677 151.575C120.02 155.522 121.471 159.839 125.844 159.839M125.844 159.839C130.873 155.928 139.909 154.369 142.703 153.81C144.938 153.363 141.958 173.553 141.027 187.335C149.594 189.756 149.408 192.661 160.023 191.246C173.433 189.458 171.198 189.011 177.903 185.1L167.288 147.106C174.551 146.547 185.725 144.871 185.725 144.871" stroke="black" stroke-width="1.11746"/>
<path d="M172.566 95.0688C176.881 108.208 170.82 121.75 159.379 125.508C147.938 129.265 135.028 121.953 130.713 108.814C126.398 95.6751 132.459 82.1325 143.9 78.3752C155.341 74.618 168.251 81.93 172.566 95.0688Z" fill="#BC8166" stroke="black" stroke-width="2.38123"/>
<path d="M189.636 121.404C188.742 123.638 183.304 124.57 180.696 124.756V130.902C184.794 130.343 193.547 127.662 195.782 121.404C198.576 113.581 189.636 85.086 187.96 81.7336C186.284 78.3812 180.696 78.3812 176.226 78.9399C172.651 79.3869 166.914 80.9886 164.493 81.7336C167.287 86.7622 181.367 84.5272 184.049 86.7622C187.401 89.5558 190.754 118.61 189.636 121.404Z" fill="black" stroke="black" stroke-width="1.11746"/>
<circle cx="2.23493" cy="2.23493" r="2.23493" transform="matrix(-1 0 0 1 160.582 90.1152)" fill="black"/>
<path d="M111.973 147.663C112.867 145.429 117.746 142.635 119.795 142.076L122.03 148.781C120.912 148.967 118.342 149.563 117.001 150.457C115.325 151.575 111.973 192.362 111.973 196.832C111.973 201.302 104.709 206.889 102.474 206.33C100.239 205.772 100.798 197.949 102.474 195.156C103.815 192.921 106.385 190.5 107.503 189.568C108.62 176.531 111.079 149.898 111.973 147.663Z" fill="black" stroke="black" stroke-width="1.11746" stroke-linecap="round"/>
<path d="M157.885 109.813C157.655 109.607 157.302 109.626 157.096 109.855C156.89 110.085 156.909 110.438 157.139 110.644L157.885 109.813ZM157.139 110.644C159.249 112.539 165.142 115.567 172.095 112.823L171.685 111.784C165.228 114.331 159.772 111.506 157.885 109.813L157.139 110.644Z" fill="black"/>
<path d="M152.76 127.549L154.436 136.489" stroke="black" stroke-width="4.46986" stroke-linecap="round"/>
</svg>
