<svg width="300" height="300" viewBox="0 0 300 300" fill="none" xmlns="http://www.w3.org/2000/svg">
<path d="M111.219 52V23.3672H116.707V52H111.219ZM121.082 41.3359C121.082 39.513 121.531 37.7487 122.43 36.043C123.328 34.3372 124.598 33.0352 126.238 32.1367C127.892 31.2383 129.734 30.7891 131.766 30.7891C134.904 30.7891 137.475 31.8112 139.48 33.8555C141.486 35.8867 142.488 38.4583 142.488 41.5703C142.488 44.7083 141.473 47.3125 139.441 49.3828C137.423 51.4401 134.878 52.4688 131.805 52.4688C129.904 52.4688 128.087 52.0391 126.355 51.1797C124.637 50.3203 123.328 49.0638 122.43 47.4102C121.531 45.7435 121.082 43.7188 121.082 41.3359ZM126.707 41.6289C126.707 43.6862 127.195 45.2617 128.172 46.3555C129.148 47.4492 130.353 47.9961 131.785 47.9961C133.217 47.9961 134.415 47.4492 135.379 46.3555C136.355 45.2617 136.844 43.6732 136.844 41.5898C136.844 39.5586 136.355 37.9961 135.379 36.9023C134.415 35.8086 133.217 35.2617 131.785 35.2617C130.353 35.2617 129.148 35.8086 128.172 36.9023C127.195 37.9961 126.707 39.5716 126.707 41.6289ZM145.535 41.3359C145.535 39.513 145.984 37.7487 146.883 36.043C147.781 34.3372 149.051 33.0352 150.691 32.1367C152.345 31.2383 154.188 30.7891 156.219 30.7891C159.357 30.7891 161.928 31.8112 163.934 33.8555C165.939 35.8867 166.941 38.4583 166.941 41.5703C166.941 44.7083 165.926 47.3125 163.895 49.3828C161.876 51.4401 159.331 52.4688 156.258 52.4688C154.357 52.4688 152.54 52.0391 150.809 51.1797C149.09 50.3203 147.781 49.0638 146.883 47.4102C145.984 45.7435 145.535 43.7188 145.535 41.3359ZM151.16 41.6289C151.16 43.6862 151.648 45.2617 152.625 46.3555C153.602 47.4492 154.806 47.9961 156.238 47.9961C157.671 47.9961 158.868 47.4492 159.832 46.3555C160.809 45.2617 161.297 43.6732 161.297 41.5898C161.297 39.5586 160.809 37.9961 159.832 36.9023C158.868 35.8086 157.671 35.2617 156.238 35.2617C154.806 35.2617 153.602 35.8086 152.625 36.9023C151.648 37.9961 151.16 39.5716 151.16 41.6289ZM171.062 52V23.3672H176.551V38.5625L182.977 31.2578H189.734L182.645 38.8359L190.242 52H184.324L179.109 42.6836L176.551 45.3594V52H171.062Z" fill="black"/>
<path d="M109.179 249.912L122.588 243.207C124.451 244.511 128.064 247.677 127.617 249.912C127.058 252.705 120.353 252.147 118.677 253.823C117.001 255.499 119.236 272.261 115.883 273.379C113.202 274.273 110.296 258.107 109.179 249.912Z" fill="black" stroke="black" stroke-width="1.11746"/>
<path d="M169.521 275.613C167.733 275.166 168.776 268.722 169.521 265.556C169.967 263.321 174.55 260.528 176.785 259.41V268.35C181.814 268.35 191.983 268.797 192.43 270.585C192.989 272.82 171.756 276.172 169.521 275.613Z" fill="black" stroke="black" stroke-width="1.11746"/>
<path d="M146.055 183.423C153.691 183.236 169.41 182.976 171.198 183.423L184.049 213.035L185.725 264.998L165.611 267.232L171.198 220.858L157.789 201.302L154.995 228.121L127.617 258.851L115.325 240.972L143.262 218.623L146.055 183.423Z" fill="black" stroke="black" stroke-width="1.11746"/>
<path d="M154.995 131.461C160.023 130.344 171.384 126.669 181.813 124.248C186.842 124.248 185.725 144.871 185.725 144.871C185.725 144.871 174.551 146.547 167.288 147.106L177.903 185.1C171.198 189.011 173.433 189.458 160.023 191.246C149.408 192.661 149.594 189.756 141.027 187.335C141.958 173.553 144.938 153.363 142.703 153.81C139.909 154.369 130.873 155.928 125.844 159.839C121.49 159.839 120.033 155.559 118.694 151.627L118.677 151.575C117.185 147.194 117.039 144.63 119.698 140.842C126.725 139.002 147.904 133.037 154.995 131.461Z" fill="#007D88"/>
<path d="M181.813 124.248C171.384 126.669 160.023 130.344 154.995 131.461C147.904 133.037 126.725 139.002 119.698 140.842M181.813 124.248C186.842 124.248 185.725 144.871 185.725 144.871M181.813 124.248C178.461 125.056 181.813 134.814 181.813 138.166C181.813 141.519 184.049 145.115 185.725 144.871M119.698 140.842C121.471 140.842 125.844 159.839 125.844 159.839M119.698 140.842C117.039 144.63 117.185 147.194 118.677 151.575C120.02 155.522 121.471 159.839 125.844 159.839M125.844 159.839C130.873 155.928 139.909 154.369 142.703 153.81C144.938 153.363 141.958 173.553 141.027 187.335C149.594 189.756 149.408 192.661 160.023 191.246C173.433 189.458 171.198 189.011 177.903 185.1L167.288 147.106C174.551 146.547 185.725 144.871 185.725 144.871" stroke="black" stroke-width="1.11746"/>
<path d="M143.9 78.3752C155.341 74.6179 168.251 81.9301 172.566 95.0689C176.881 108.208 170.819 121.751 159.379 125.508C147.938 129.265 135.028 121.953 130.713 108.814C126.398 95.6753 132.459 82.1325 143.9 78.3752Z" fill="#BC8166" stroke="black" stroke-width="2.38123"/>
<path d="M189.636 121.404C188.742 123.639 183.304 124.57 180.696 124.756V130.902C184.794 130.344 193.547 127.662 195.782 121.404C198.576 113.581 189.636 85.086 187.96 81.7336C186.284 78.3812 180.696 78.3812 176.227 78.94C172.651 79.3869 166.914 80.9886 164.493 81.7336C167.287 86.7622 181.367 84.5273 184.049 86.7622C187.401 89.5559 190.754 118.61 189.636 121.404Z" fill="black" stroke="black" stroke-width="1.11746"/>
<circle cx="2.23493" cy="2.23493" r="2.23493" transform="matrix(-1 0 0 1 160.582 90.1152)" fill="black"/>
<path d="M111.973 147.663C112.867 145.429 117.746 142.635 119.795 142.076L122.03 148.781C120.912 148.967 118.342 149.563 117.001 150.457C115.325 151.575 111.973 192.362 111.973 196.832C111.973 201.302 104.709 206.889 102.474 206.33C100.239 205.772 100.798 197.949 102.474 195.156C103.815 192.921 106.385 190.5 107.503 189.568C108.62 176.531 111.079 149.898 111.973 147.663Z" fill="black" stroke="black" stroke-width="1.11746" stroke-linecap="round"/>
<path d="M157.885 109.813C157.655 109.607 157.302 109.626 157.096 109.855C156.89 110.085 156.909 110.438 157.139 110.644L157.885 109.813ZM157.512 110.229L157.139 110.644C159.249 112.539 165.142 115.567 172.095 112.823L171.89 112.304L171.685 111.784C165.228 114.331 159.772 111.506 157.885 109.813L157.512 110.229Z" fill="black"/>
<path d="M152.76 127.549L154.436 136.489" stroke="black" stroke-width="4.46986" stroke-linecap="round"/>
</svg>
