<svg width="300" height="300" viewBox="0 0 300 300" fill="none" xmlns="http://www.w3.org/2000/svg">
<path d="M100.77 31.2578H105.828V34.0898C107.638 31.8893 109.793 30.7891 112.293 30.7891C113.621 30.7891 114.773 31.0625 115.75 31.6094C116.727 32.1562 117.527 32.9831 118.152 34.0898C119.064 32.9831 120.047 32.1562 121.102 31.6094C122.156 31.0625 123.283 30.7891 124.48 30.7891C126.004 30.7891 127.293 31.1016 128.348 31.7266C129.402 32.3385 130.19 33.2435 130.711 34.4414C131.089 35.3268 131.277 36.7591 131.277 38.7383V52H125.789V40.1445C125.789 38.0872 125.6 36.7591 125.223 36.1602C124.715 35.3789 123.934 34.9883 122.879 34.9883C122.111 34.9883 121.388 35.2227 120.711 35.6914C120.034 36.1602 119.546 36.8503 119.246 37.7617C118.947 38.6602 118.797 40.0859 118.797 42.0391V52H113.309V40.6328C113.309 38.6146 113.211 37.3125 113.016 36.7266C112.82 36.1406 112.514 35.7044 112.098 35.418C111.694 35.1315 111.141 34.9883 110.438 34.9883C109.591 34.9883 108.829 35.2161 108.152 35.6719C107.475 36.1276 106.987 36.7852 106.688 37.6445C106.401 38.5039 106.258 39.9297 106.258 41.9219V52H100.77V31.2578ZM140.867 37.5859L135.887 36.6875C136.447 34.6823 137.41 33.1979 138.777 32.2344C140.145 31.2708 142.176 30.7891 144.871 30.7891C147.319 30.7891 149.142 31.082 150.34 31.668C151.538 32.2409 152.378 32.9766 152.859 33.875C153.354 34.7604 153.602 36.3945 153.602 38.7773L153.543 45.1836C153.543 47.0065 153.628 48.3542 153.797 49.2266C153.979 50.0859 154.311 51.0104 154.793 52H149.363C149.22 51.6354 149.044 51.0951 148.836 50.3789C148.745 50.0534 148.68 49.8385 148.641 49.7344C147.703 50.6458 146.701 51.3294 145.633 51.7852C144.565 52.2409 143.426 52.4688 142.215 52.4688C140.079 52.4688 138.393 51.8893 137.156 50.7305C135.932 49.5716 135.32 48.1068 135.32 46.3359C135.32 45.1641 135.6 44.1224 136.16 43.2109C136.72 42.2865 137.501 41.5833 138.504 41.1016C139.52 40.6068 140.978 40.1771 142.879 39.8125C145.444 39.3307 147.221 38.8815 148.211 38.4648V37.918C148.211 36.8633 147.951 36.1146 147.43 35.6719C146.909 35.2161 145.926 34.9883 144.48 34.9883C143.504 34.9883 142.742 35.1836 142.195 35.5742C141.648 35.9518 141.206 36.6224 140.867 37.5859ZM148.211 42.0391C147.508 42.2734 146.395 42.5534 144.871 42.8789C143.348 43.2044 142.352 43.5234 141.883 43.8359C141.167 44.3438 140.809 44.9883 140.809 45.7695C140.809 46.5378 141.095 47.2018 141.668 47.7617C142.241 48.3216 142.97 48.6016 143.855 48.6016C144.845 48.6016 145.789 48.276 146.688 47.625C147.352 47.1302 147.788 46.5247 147.996 45.8086C148.139 45.3398 148.211 44.4479 148.211 43.1328V42.0391ZM158.836 52V23.3672H164.324V38.5625L170.75 31.2578H177.508L170.418 38.8359L178.016 52H172.098L166.883 42.6836L164.324 45.3594V52H158.836ZM193.309 45.3984L198.777 46.3164C198.074 48.3216 196.961 49.8516 195.438 50.9062C193.927 51.9479 192.033 52.4688 189.754 52.4688C186.147 52.4688 183.478 51.2904 181.746 48.9336C180.379 47.0456 179.695 44.6628 179.695 41.7852C179.695 38.3477 180.594 35.6589 182.391 33.7188C184.188 31.7656 186.46 30.7891 189.207 30.7891C192.293 30.7891 194.728 31.8112 196.512 33.8555C198.296 35.8867 199.148 39.0052 199.07 43.2109H185.32C185.359 44.8385 185.802 46.1081 186.648 47.0195C187.495 47.918 188.549 48.3672 189.812 48.3672C190.672 48.3672 191.395 48.1328 191.98 47.6641C192.566 47.1953 193.009 46.4401 193.309 45.3984ZM193.621 39.8516C193.582 38.263 193.172 37.0586 192.391 36.2383C191.609 35.4049 190.659 34.9883 189.539 34.9883C188.341 34.9883 187.352 35.4245 186.57 36.2969C185.789 37.1693 185.405 38.3542 185.418 39.8516H193.621Z" fill="black"/>
<rect x="157.773" y="183.194" width="11" height="81.7015" transform="rotate(-7.93263 157.773 183.194)" fill="#9D632B"/>
<path d="M103.223 81.8018C127.778 79.5099 150.227 99.9898 152.859 128.189C155.491 156.389 137.22 180.669 112.665 182.961C88.1103 185.252 65.6622 164.773 63.0299 136.574C60.3978 108.375 78.6683 84.094 103.223 81.8018Z" fill="#BC8166" stroke="black" stroke-width="4.87675"/>
<path d="M112.23 156.115C112.23 156.115 115.961 162.135 124.905 164.562C133.848 166.989 138.533 165.257 142.44 163.23" stroke="black" stroke-width="5.58965" stroke-linecap="round"/>
<path d="M128.008 115.725C129.652 116.327 130.187 117.87 129.808 118.903C129.43 119.936 128.026 120.769 126.381 120.167C124.737 119.564 124.202 118.021 124.581 116.988C124.959 115.955 126.364 115.123 128.008 115.725Z" fill="black" stroke="black" stroke-width="5.87382"/>
<path d="M91.5 181C93.1667 201.833 91.6 252.2 72 287" stroke="black" stroke-width="5" stroke-linecap="round"/>
<path d="M92 200L113.5 231L156.5 243" stroke="black" stroke-width="5" stroke-linecap="round"/>
<path d="M230 177.5L187.25 178.799L187.25 176.201L230 177.5Z" fill="black"/>
<rect x="203.68" y="169.68" width="52.64" height="94.64" fill="#B92429" stroke="black" stroke-width="3.36"/>
<path d="M159.501 223.32C154.8 226.788 151.408 231.704 150.839 238.843C152.041 242.407 150.86 244.79 154.446 249.535C158.031 254.28 159.814 253.679 165.17 254.849C170.527 256.02 169.336 255.429 173.501 256.009C177.453 256.559 180.511 255.974 180.501 253C180.49 250.026 175.991 250.983 174.671 250.652C173.351 250.321 171.011 250.974 171.001 248C170.994 246.119 172.923 246 175.208 246C178.001 246 180.501 245.976 180.501 241.5C180.501 239.5 177.868 239.99 175.208 240C172.213 240.011 171.001 239.905 171.001 237.5C171.001 235.095 172.085 235.079 175.208 234.592C179.001 234 179.501 233.5 179.001 230.5C178.393 226.851 175.777 227.453 172.213 228.655C168.649 229.858 161.517 231.169 161.51 229.289C161.499 226.315 168.451 226.5 168.001 222C167.701 219 164.001 220 159.501 223.32Z" fill="black" stroke="black" stroke-width="2.65976" stroke-linecap="round"/>
<path d="M157.774 183.194L168.669 181.676L174.501 223.5L164.001 228.5L157.774 183.194Z" fill="#9D632B"/>
<rect x="169.607" y="166.557" width="11" height="21" transform="rotate(-8.13874 169.607 166.557)" fill="black"/>
<ellipse cx="162.679" cy="178.155" rx="11.5" ry="8.5" transform="rotate(-8.13874 162.679 178.155)" fill="black"/>
<path d="M164.197 179.217C164.471 181.13 159.596 183.41 153.309 184.309C147.021 185.209 141.703 184.386 141.429 182.473C141.155 180.559 146.03 178.279 152.318 177.38C158.605 176.481 163.924 177.303 164.197 179.217Z" fill="black"/>
<path d="M191 177.5L187.25 180.531L187.25 174.469L191 177.5Z" fill="black"/>
</svg>
