<svg width="312" height="312" viewBox="0 0 312 312" fill="none" xmlns="http://www.w3.org/2000/svg">
<rect x="6" y="6" width="300" height="300" rx="20" fill="#FFE3FF"/>
<rect x="6" y="6" width="300" height="300" rx="20" stroke="#FE05FC" stroke-width="11"/>
<path d="M106.77 37.2578H111.828V40.0898C113.638 37.8893 115.793 36.7891 118.293 36.7891C119.621 36.7891 120.773 37.0625 121.75 37.6094C122.727 38.1562 123.527 38.9831 124.152 40.0898C125.064 38.9831 126.047 38.1562 127.102 37.6094C128.156 37.0625 129.283 36.7891 130.48 36.7891C132.004 36.7891 133.293 37.1016 134.348 37.7266C135.402 38.3385 136.19 39.2435 136.711 40.4414C137.089 41.3268 137.277 42.7591 137.277 44.7383V58H131.789V46.1445C131.789 44.0872 131.6 42.7591 131.223 42.1602C130.715 41.3789 129.934 40.9883 128.879 40.9883C128.111 40.9883 127.388 41.2227 126.711 41.6914C126.034 42.1602 125.546 42.8503 125.246 43.7617C124.947 44.6602 124.797 46.0859 124.797 48.0391V58H119.309V46.6328C119.309 44.6146 119.211 43.3125 119.016 42.7266C118.82 42.1406 118.514 41.7044 118.098 41.418C117.694 41.1315 117.141 40.9883 116.438 40.9883C115.591 40.9883 114.829 41.2161 114.152 41.6719C113.475 42.1276 112.987 42.7852 112.688 43.6445C112.401 44.5039 112.258 45.9297 112.258 47.9219V58H106.77V37.2578ZM146.867 43.5859L141.887 42.6875C142.447 40.6823 143.41 39.1979 144.777 38.2344C146.145 37.2708 148.176 36.7891 150.871 36.7891C153.319 36.7891 155.142 37.082 156.34 37.668C157.538 38.2409 158.378 38.9766 158.859 39.875C159.354 40.7604 159.602 42.3945 159.602 44.7773L159.543 51.1836C159.543 53.0065 159.628 54.3542 159.797 55.2266C159.979 56.0859 160.311 57.0104 160.793 58H155.363C155.22 57.6354 155.044 57.0951 154.836 56.3789C154.745 56.0534 154.68 55.8385 154.641 55.7344C153.703 56.6458 152.701 57.3294 151.633 57.7852C150.565 58.2409 149.426 58.4688 148.215 58.4688C146.079 58.4688 144.393 57.8893 143.156 56.7305C141.932 55.5716 141.32 54.1068 141.32 52.3359C141.32 51.1641 141.6 50.1224 142.16 49.2109C142.72 48.2865 143.501 47.5833 144.504 47.1016C145.52 46.6068 146.978 46.1771 148.879 45.8125C151.444 45.3307 153.221 44.8815 154.211 44.4648V43.918C154.211 42.8633 153.951 42.1146 153.43 41.6719C152.909 41.2161 151.926 40.9883 150.48 40.9883C149.504 40.9883 148.742 41.1836 148.195 41.5742C147.648 41.9518 147.206 42.6224 146.867 43.5859ZM154.211 48.0391C153.508 48.2734 152.395 48.5534 150.871 48.8789C149.348 49.2044 148.352 49.5234 147.883 49.8359C147.167 50.3438 146.809 50.9883 146.809 51.7695C146.809 52.5378 147.095 53.2018 147.668 53.7617C148.241 54.3216 148.97 54.6016 149.855 54.6016C150.845 54.6016 151.789 54.276 152.688 53.625C153.352 53.1302 153.788 52.5247 153.996 51.8086C154.139 51.3398 154.211 50.4479 154.211 49.1328V48.0391ZM164.836 58V29.3672H170.324V44.5625L176.75 37.2578H183.508L176.418 44.8359L184.016 58H178.098L172.883 48.6836L170.324 51.3594V58H164.836ZM199.309 51.3984L204.777 52.3164C204.074 54.3216 202.961 55.8516 201.438 56.9062C199.927 57.9479 198.033 58.4688 195.754 58.4688C192.147 58.4688 189.478 57.2904 187.746 54.9336C186.379 53.0456 185.695 50.6628 185.695 47.7852C185.695 44.3477 186.594 41.6589 188.391 39.7188C190.188 37.7656 192.46 36.7891 195.207 36.7891C198.293 36.7891 200.728 37.8112 202.512 39.8555C204.296 41.8867 205.148 45.0052 205.07 49.2109H191.32C191.359 50.8385 191.802 52.1081 192.648 53.0195C193.495 53.918 194.549 54.3672 195.812 54.3672C196.672 54.3672 197.395 54.1328 197.98 53.6641C198.566 53.1953 199.009 52.4401 199.309 51.3984ZM199.621 45.8516C199.582 44.263 199.172 43.0586 198.391 42.2383C197.609 41.4049 196.659 40.9883 195.539 40.9883C194.341 40.9883 193.352 41.4245 192.57 42.2969C191.789 43.1693 191.405 44.3542 191.418 45.8516H199.621Z" fill="black"/>
<rect x="163.773" y="189.194" width="11" height="81.7015" transform="rotate(-7.93263 163.773 189.194)" fill="#9D632B"/>
<path d="M158.859 134.189C161.491 162.389 143.22 186.669 118.665 188.961C94.11 191.253 71.6613 170.773 69.0292 142.573C66.3971 114.374 84.668 90.0935 109.223 87.8016C133.778 85.5097 156.227 105.989 158.859 134.189Z" fill="#BC8166" stroke="black" stroke-width="4.87675"/>
<path d="M118.23 162.115C118.23 162.115 121.961 168.135 130.905 170.562C139.848 172.989 144.533 171.257 148.44 169.23" stroke="black" stroke-width="5.58965" stroke-linecap="round"/>
<path d="M135.808 124.903C135.43 125.936 134.026 126.769 132.381 126.167C130.737 125.564 130.203 124.022 130.581 122.989C130.959 121.956 132.364 121.123 134.008 121.725C135.653 122.327 136.187 123.87 135.808 124.903Z" fill="black" stroke="black" stroke-width="5.87382"/>
<path d="M97.5 187C99.1667 207.833 97.6 258.2 78 293" stroke="black" stroke-width="5" stroke-linecap="round"/>
<path d="M98 206L119.5 237L162.5 249" stroke="black" stroke-width="5" stroke-linecap="round"/>
<path d="M236 183.5L193.25 184.799L193.25 182.201L236 183.5Z" fill="black"/>
<rect x="209.68" y="175.68" width="52.64" height="94.64" fill="#B92429" stroke="black" stroke-width="3.36"/>
<path d="M165.5 229.32C160.799 232.788 157.407 237.704 156.838 244.843C158.04 248.407 156.859 250.79 160.445 255.535C164.03 260.28 165.813 259.679 171.169 260.849C176.526 262.02 175.335 261.429 179.5 262.009C183.452 262.559 186.511 261.974 186.5 259C186.489 256.026 181.99 256.983 180.67 256.652C179.35 256.321 177.01 256.974 177 254C176.993 252.119 178.922 252 181.207 252C184 252 186.5 251.976 186.5 247.5C186.5 245.5 183.867 245.99 181.207 246C178.212 246.011 177 245.905 177 243.5C177 241.095 178.084 241.08 181.207 240.592C185 240 185.5 239.5 185 236.5C184.392 232.851 181.776 233.453 178.212 234.655C174.648 235.858 167.516 237.169 167.509 235.289C167.498 232.315 174.45 232.5 174 228C173.7 225 170 226 165.5 229.32Z" fill="black" stroke="black" stroke-width="2.65976" stroke-linecap="round"/>
<path d="M163.773 189.194L174.668 187.676L180.5 229.5L170 234.5L163.773 189.194Z" fill="#9D632B"/>
<rect x="175.607" y="172.557" width="11" height="21" transform="rotate(-8.13874 175.607 172.557)" fill="black"/>
<ellipse cx="168.679" cy="184.155" rx="11.5" ry="8.5" transform="rotate(-8.13874 168.679 184.155)" fill="black"/>
<path d="M170.198 185.217C170.472 187.13 165.597 189.41 159.31 190.309C153.023 191.209 147.704 190.386 147.43 188.473C147.156 186.559 152.032 184.279 158.319 183.38C164.606 182.481 169.925 183.303 170.198 185.217Z" fill="black"/>
<path d="M197 183.5L193.25 186.531L193.25 180.469L197 183.5Z" fill="black"/>
</svg>
