<svg width="312" height="312" viewBox="0 0 312 312" fill="none" xmlns="http://www.w3.org/2000/svg">
<rect x="6" y="6" width="300" height="300" rx="20" fill="#E3F4FF"/>
<rect x="6" y="6" width="300" height="300" rx="20" stroke="#1684D9" stroke-width="11"/>
<path d="M108.516 37.2578H113.574V40.0898C115.384 37.8893 117.539 36.7891 120.039 36.7891C121.367 36.7891 122.52 37.0625 123.496 37.6094C124.473 38.1562 125.273 38.9831 125.898 40.0898C126.81 38.9831 127.793 38.1562 128.848 37.6094C129.902 37.0625 131.029 36.7891 132.227 36.7891C133.75 36.7891 135.039 37.1016 136.094 37.7266C137.148 38.3385 137.936 39.2435 138.457 40.4414C138.835 41.3268 139.023 42.7591 139.023 44.7383V58H133.535V46.1445C133.535 44.0872 133.346 42.7591 132.969 42.1602C132.461 41.3789 131.68 40.9883 130.625 40.9883C129.857 40.9883 129.134 41.2227 128.457 41.6914C127.78 42.1602 127.292 42.8503 126.992 43.7617C126.693 44.6602 126.543 46.0859 126.543 48.0391V58H121.055V46.6328C121.055 44.6146 120.957 43.3125 120.762 42.7266C120.566 42.1406 120.26 41.7044 119.844 41.418C119.44 41.1315 118.887 40.9883 118.184 40.9883C117.337 40.9883 116.576 41.2161 115.898 41.6719C115.221 42.1276 114.733 42.7852 114.434 43.6445C114.147 44.5039 114.004 45.9297 114.004 47.9219V58H108.516V37.2578ZM143.242 47.3359C143.242 45.513 143.691 43.7487 144.59 42.043C145.488 40.3372 146.758 39.0352 148.398 38.1367C150.052 37.2383 151.895 36.7891 153.926 36.7891C157.064 36.7891 159.635 37.8112 161.641 39.8555C163.646 41.8867 164.648 44.4583 164.648 47.5703C164.648 50.7083 163.633 53.3125 161.602 55.3828C159.583 57.4401 157.038 58.4688 153.965 58.4688C152.064 58.4688 150.247 58.0391 148.516 57.1797C146.797 56.3203 145.488 55.0638 144.59 53.4102C143.691 51.7435 143.242 49.7188 143.242 47.3359ZM148.867 47.6289C148.867 49.6862 149.355 51.2617 150.332 52.3555C151.309 53.4492 152.513 53.9961 153.945 53.9961C155.378 53.9961 156.576 53.4492 157.539 52.3555C158.516 51.2617 159.004 49.6732 159.004 47.5898C159.004 45.5586 158.516 43.9961 157.539 42.9023C156.576 41.8086 155.378 41.2617 153.945 41.2617C152.513 41.2617 151.309 41.8086 150.332 42.9023C149.355 43.9961 148.867 45.5716 148.867 47.6289ZM174.219 58H168.73V37.2578H173.828V40.207C174.701 38.8138 175.482 37.8958 176.172 37.4531C176.875 37.0104 177.669 36.7891 178.555 36.7891C179.805 36.7891 181.009 37.1341 182.168 37.8242L180.469 42.6094C179.544 42.0104 178.685 41.7109 177.891 41.7109C177.122 41.7109 176.471 41.9258 175.938 42.3555C175.404 42.7721 174.98 43.5339 174.668 44.6406C174.368 45.7474 174.219 48.0651 174.219 51.5938V58ZM196.562 51.3984L202.031 52.3164C201.328 54.3216 200.215 55.8516 198.691 56.9062C197.181 57.9479 195.286 58.4688 193.008 58.4688C189.401 58.4688 186.732 57.2904 185 54.9336C183.633 53.0456 182.949 50.6628 182.949 47.7852C182.949 44.3477 183.848 41.6589 185.645 39.7188C187.441 37.7656 189.714 36.7891 192.461 36.7891C195.547 36.7891 197.982 37.8112 199.766 39.8555C201.549 41.8867 202.402 45.0052 202.324 49.2109H188.574C188.613 50.8385 189.056 52.1081 189.902 53.0195C190.749 53.918 191.803 54.3672 193.066 54.3672C193.926 54.3672 194.648 54.1328 195.234 53.6641C195.82 53.1953 196.263 52.4401 196.562 51.3984ZM196.875 45.8516C196.836 44.263 196.426 43.0586 195.645 42.2383C194.863 41.4049 193.913 40.9883 192.793 40.9883C191.595 40.9883 190.605 41.4245 189.824 42.2969C189.043 43.1693 188.659 44.3542 188.672 45.8516H196.875Z" fill="black"/>
<rect x="93.4443" y="274.203" width="57.9795" height="10.1095" rx="5.05475" transform="rotate(-46.3412 93.4443 274.203)" fill="black"/>
<path d="M150.681 221.377L142.756 253.989L118.476 230.819L150.681 221.377Z" fill="black"/>
<rect x="36.5215" y="149.077" width="36.2718" height="36.7066" transform="rotate(14.909 36.5215 149.077)" fill="#B92429" stroke="black" stroke-width="5.03"/>
<rect x="44.7842" y="121.902" width="36.2718" height="36.7066" transform="rotate(-6.51917 44.7842 121.902)" fill="#B92429" stroke="black" stroke-width="5.03"/>
<rect x="177.522" y="120.972" width="36.2718" height="36.7066" transform="rotate(14.909 177.522 120.972)" fill="#B92429" stroke="black" stroke-width="5.03"/>
<rect x="191.274" y="96.7793" width="36.2718" height="36.7066" transform="rotate(-18.6387 191.274 96.7793)" fill="#B92429" stroke="black" stroke-width="5.03"/>
<rect x="244.124" y="116.572" width="36.2718" height="36.7066" transform="rotate(44.2122 244.124 116.572)" fill="#B92429" stroke="black" stroke-width="5.03"/>
<rect x="202.657" y="168.66" width="36.2718" height="36.7066" transform="rotate(-3.33265 202.657 168.66)" fill="#B92429" stroke="black" stroke-width="5.03"/>
<rect x="217.522" y="202.972" width="36.2718" height="36.7066" transform="rotate(14.909 217.522 202.972)" fill="#B92429" stroke="black" stroke-width="5.03"/>
<rect x="244.31" y="173.7" width="36.2718" height="36.7066" transform="rotate(-23.5531 244.31 173.7)" fill="#B92429" stroke="black" stroke-width="5.03"/>
<rect x="153.557" y="201.133" width="36.2718" height="36.7066" transform="rotate(-45.0753 153.557 201.133)" fill="#B92429" stroke="black" stroke-width="5.03"/>
</svg>
