<svg width="300" height="300" viewBox="0 0 300 300" fill="none" xmlns="http://www.w3.org/2000/svg">
<path d="M102.516 31.2578H107.574V34.0898C109.384 31.8893 111.539 30.7891 114.039 30.7891C115.367 30.7891 116.52 31.0625 117.496 31.6094C118.473 32.1562 119.273 32.9831 119.898 34.0898C120.81 32.9831 121.793 32.1562 122.848 31.6094C123.902 31.0625 125.029 30.7891 126.227 30.7891C127.75 30.7891 129.039 31.1016 130.094 31.7266C131.148 32.3385 131.936 33.2435 132.457 34.4414C132.835 35.3268 133.023 36.7591 133.023 38.7383V52H127.535V40.1445C127.535 38.0872 127.346 36.7591 126.969 36.1602C126.461 35.3789 125.68 34.9883 124.625 34.9883C123.857 34.9883 123.134 35.2227 122.457 35.6914C121.78 36.1602 121.292 36.8503 120.992 37.7617C120.693 38.6602 120.543 40.0859 120.543 42.0391V52H115.055V40.6328C115.055 38.6146 114.957 37.3125 114.762 36.7266C114.566 36.1406 114.26 35.7044 113.844 35.418C113.44 35.1315 112.887 34.9883 112.184 34.9883C111.337 34.9883 110.576 35.2161 109.898 35.6719C109.221 36.1276 108.733 36.7852 108.434 37.6445C108.147 38.5039 108.004 39.9297 108.004 41.9219V52H102.516V31.2578ZM137.242 41.3359C137.242 39.513 137.691 37.7487 138.59 36.043C139.488 34.3372 140.758 33.0352 142.398 32.1367C144.052 31.2383 145.895 30.7891 147.926 30.7891C151.064 30.7891 153.635 31.8112 155.641 33.8555C157.646 35.8867 158.648 38.4583 158.648 41.5703C158.648 44.7083 157.633 47.3125 155.602 49.3828C153.583 51.4401 151.038 52.4688 147.965 52.4688C146.064 52.4688 144.247 52.0391 142.516 51.1797C140.797 50.3203 139.488 49.0638 138.59 47.4102C137.691 45.7435 137.242 43.7188 137.242 41.3359ZM142.867 41.6289C142.867 43.6862 143.355 45.2617 144.332 46.3555C145.309 47.4492 146.513 47.9961 147.945 47.9961C149.378 47.9961 150.576 47.4492 151.539 46.3555C152.516 45.2617 153.004 43.6732 153.004 41.5898C153.004 39.5586 152.516 37.9961 151.539 36.9023C150.576 35.8086 149.378 35.2617 147.945 35.2617C146.513 35.2617 145.309 35.8086 144.332 36.9023C143.355 37.9961 142.867 39.5716 142.867 41.6289ZM168.219 52H162.73V31.2578H167.828V34.207C168.701 32.8138 169.482 31.8958 170.172 31.4531C170.875 31.0104 171.669 30.7891 172.555 30.7891C173.805 30.7891 175.009 31.1341 176.168 31.8242L174.469 36.6094C173.544 36.0104 172.685 35.7109 171.891 35.7109C171.122 35.7109 170.471 35.9258 169.938 36.3555C169.404 36.7721 168.98 37.5339 168.668 38.6406C168.368 39.7474 168.219 42.0651 168.219 45.5938V52ZM190.562 45.3984L196.031 46.3164C195.328 48.3216 194.215 49.8516 192.691 50.9062C191.181 51.9479 189.286 52.4688 187.008 52.4688C183.401 52.4688 180.732 51.2904 179 48.9336C177.633 47.0456 176.949 44.6628 176.949 41.7852C176.949 38.3477 177.848 35.6589 179.645 33.7188C181.441 31.7656 183.714 30.7891 186.461 30.7891C189.547 30.7891 191.982 31.8112 193.766 33.8555C195.549 35.8867 196.402 39.0052 196.324 43.2109H182.574C182.613 44.8385 183.056 46.1081 183.902 47.0195C184.749 47.918 185.803 48.3672 187.066 48.3672C187.926 48.3672 188.648 48.1328 189.234 47.6641C189.82 47.1953 190.263 46.4401 190.562 45.3984ZM190.875 39.8516C190.836 38.263 190.426 37.0586 189.645 36.2383C188.863 35.4049 187.913 34.9883 186.793 34.9883C185.595 34.9883 184.605 35.4245 183.824 36.2969C183.043 37.1693 182.659 38.3542 182.672 39.8516H190.875Z" fill="black"/>
<rect x="87.4453" y="268.203" width="57.9795" height="10.1095" rx="5.05475" transform="rotate(-46.3412 87.4453 268.203)" fill="black"/>
<path d="M144.682 215.377L136.757 247.989L112.477 224.819L144.682 215.377Z" fill="black"/>
<rect x="30.5215" y="143.077" width="36.2718" height="36.7066" transform="rotate(14.909 30.5215 143.077)" fill="#B92429" stroke="black" stroke-width="5.03"/>
<rect x="38.7843" y="115.902" width="36.2718" height="36.7066" transform="rotate(-6.51917 38.7843 115.902)" fill="#B92429" stroke="black" stroke-width="5.03"/>
<rect x="171.522" y="114.972" width="36.2718" height="36.7066" transform="rotate(14.909 171.522 114.972)" fill="#B92429" stroke="black" stroke-width="5.03"/>
<rect x="185.275" y="90.7793" width="36.2718" height="36.7066" transform="rotate(-18.6387 185.275 90.7793)" fill="#B92429" stroke="black" stroke-width="5.03"/>
<rect x="238.123" y="110.572" width="36.2718" height="36.7066" transform="rotate(44.2122 238.123 110.572)" fill="#B92429" stroke="black" stroke-width="5.03"/>
<rect x="196.657" y="162.66" width="36.2718" height="36.7066" transform="rotate(-3.33265 196.657 162.66)" fill="#B92429" stroke="black" stroke-width="5.03"/>
<rect x="211.522" y="196.972" width="36.2718" height="36.7066" transform="rotate(14.909 211.522 196.972)" fill="#B92429" stroke="black" stroke-width="5.03"/>
<rect x="238.31" y="167.7" width="36.2718" height="36.7066" transform="rotate(-23.5531 238.31 167.7)" fill="#B92429" stroke="black" stroke-width="5.03"/>
<rect x="147.557" y="195.133" width="36.2718" height="36.7066" transform="rotate(-45.0753 147.557 195.133)" fill="#B92429" stroke="black" stroke-width="5.03"/>
</svg>
