<svg width="300" height="300" viewBox="0 0 300 300" fill="none" xmlns="http://www.w3.org/2000/svg">
<rect width="300" height="300" fill="white"/>
<path d="M107.105 52V31.2578H110.27V34.207C111.793 31.9284 113.993 30.7891 116.871 30.7891C118.121 30.7891 119.267 31.0169 120.309 31.4727C121.363 31.9154 122.151 32.5013 122.672 33.2305C123.193 33.9596 123.557 34.8255 123.766 35.8281C123.896 36.4792 123.961 37.6185 123.961 39.2461V52H120.445V39.3828C120.445 37.9505 120.309 36.8828 120.035 36.1797C119.762 35.4635 119.273 34.8971 118.57 34.4805C117.88 34.0508 117.066 33.8359 116.129 33.8359C114.632 33.8359 113.336 34.3112 112.242 35.2617C111.161 36.2122 110.621 38.0156 110.621 40.6719V52H107.105ZM143.57 45.3203L147.203 45.7695C146.63 47.8919 145.569 49.5391 144.02 50.7109C142.47 51.8828 140.491 52.4688 138.082 52.4688C135.048 52.4688 132.639 51.5378 130.855 49.6758C129.085 47.8008 128.199 45.1771 128.199 41.8047C128.199 38.3151 129.098 35.6068 130.895 33.6797C132.691 31.7526 135.022 30.7891 137.887 30.7891C140.66 30.7891 142.926 31.7331 144.684 33.6211C146.441 35.5091 147.32 38.1654 147.32 41.5898C147.32 41.7982 147.314 42.1107 147.301 42.5273H131.832C131.962 44.806 132.607 46.5508 133.766 47.7617C134.924 48.9727 136.37 49.5781 138.102 49.5781C139.391 49.5781 140.491 49.2396 141.402 48.5625C142.314 47.8854 143.036 46.8047 143.57 45.3203ZM132.027 39.6367H143.609C143.453 37.8919 143.01 36.5833 142.281 35.7109C141.161 34.3568 139.71 33.6797 137.926 33.6797C136.311 33.6797 134.951 34.2201 133.844 35.3008C132.75 36.3815 132.145 37.8268 132.027 39.6367ZM165.836 45.3203L169.469 45.7695C168.896 47.8919 167.835 49.5391 166.285 50.7109C164.736 51.8828 162.757 52.4688 160.348 52.4688C157.314 52.4688 154.905 51.5378 153.121 49.6758C151.35 47.8008 150.465 45.1771 150.465 41.8047C150.465 38.3151 151.363 35.6068 153.16 33.6797C154.957 31.7526 157.288 30.7891 160.152 30.7891C162.926 30.7891 165.191 31.7331 166.949 33.6211C168.707 35.5091 169.586 38.1654 169.586 41.5898C169.586 41.7982 169.579 42.1107 169.566 42.5273H154.098C154.228 44.806 154.872 46.5508 156.031 47.7617C157.19 48.9727 158.635 49.5781 160.367 49.5781C161.656 49.5781 162.757 49.2396 163.668 48.5625C164.579 47.8854 165.302 46.8047 165.836 45.3203ZM154.293 39.6367H165.875C165.719 37.8919 165.276 36.5833 164.547 35.7109C163.427 34.3568 161.975 33.6797 160.191 33.6797C158.577 33.6797 157.216 34.2201 156.109 35.3008C155.016 36.3815 154.41 37.8268 154.293 39.6367ZM187.359 52V49.3828C186.044 51.4401 184.111 52.4688 181.559 52.4688C179.905 52.4688 178.382 52.013 176.988 51.1016C175.608 50.1901 174.534 48.9206 173.766 47.293C173.01 45.6523 172.633 43.7708 172.633 41.6484C172.633 39.5781 172.978 37.7031 173.668 36.0234C174.358 34.3307 175.393 33.0352 176.773 32.1367C178.154 31.2383 179.697 30.7891 181.402 30.7891C182.652 30.7891 183.766 31.056 184.742 31.5898C185.719 32.1107 186.513 32.7943 187.125 33.6406V23.3672H190.621V52H187.359ZM176.246 41.6484C176.246 44.3047 176.806 46.2904 177.926 47.6055C179.046 48.9206 180.367 49.5781 181.891 49.5781C183.427 49.5781 184.729 48.9531 185.797 47.7031C186.878 46.4401 187.418 44.5195 187.418 41.9414C187.418 39.1029 186.871 37.0195 185.777 35.6914C184.684 34.3633 183.336 33.6992 181.734 33.6992C180.172 33.6992 178.863 34.3372 177.809 35.6133C176.767 36.8893 176.246 38.901 176.246 41.6484Z" fill="black"/>
<rect x="160.68" y="135.719" width="82.64" height="82.64" fill="#B92429" stroke="black" stroke-width="3.36"/>
<path d="M112.176 189.349C108.396 188.1 105.672 194.167 96.5153 209.228C93.3092 214.501 99.7058 221.298 103.672 222.163C107.638 223.028 131.486 222.163 132.02 219.864C133.165 214.939 126.657 217.558 117.463 214.501C131.743 209.32 139.906 207.033 138.485 202.609C137.064 198.185 129.069 204.541 114.297 206.566C122.411 200.595 132.056 193.829 129.069 190.505C126.081 187.182 118.677 196.439 107.638 202.568C110.913 198.369 115.956 190.597 112.176 189.349Z" fill="black" stroke="black" stroke-width="0.694261"/>
<path d="M124.146 160.977C121.285 163.074 111.941 153.585 104.022 144.584C103.687 137.07 109.98 134.154 114.748 131.306C119.516 128.459 128.072 122.365 130.072 126.196C132.071 130.027 127.577 128.068 120.396 135.918C131.346 135.584 143.161 133.858 142.839 137.882C142.516 141.906 133.531 141.325 120.396 142.286C129.94 145.25 139.036 147.454 136.968 151.48C135.493 154.35 129.006 151.725 116.488 149.646C120.761 152.593 127.007 158.88 124.146 160.977Z" fill="black" stroke="black" stroke-width="0.694261"/>
<path d="M100.112 216.039L32 200.022M107 142.056L38.8878 126.039" stroke="black" stroke-width="9" stroke-linecap="round"/>
</svg>
