<svg width="312" height="312" viewBox="0 0 312 312" fill="none" xmlns="http://www.w3.org/2000/svg">
<rect x="6" y="6" width="300" height="300" rx="20" fill="#FFE3FF"/>
<rect x="6" y="6" width="300" height="300" rx="20" stroke="#FE05FC" stroke-width="11"/>
<path d="M130.02 58H124.531V47.4141C124.531 45.1745 124.414 43.7292 124.18 43.0781C123.945 42.4141 123.561 41.8997 123.027 41.5352C122.507 41.1706 121.875 40.9883 121.133 40.9883C120.182 40.9883 119.329 41.2487 118.574 41.7695C117.819 42.2904 117.298 42.9805 117.012 43.8398C116.738 44.6992 116.602 46.2878 116.602 48.6055V58H111.113V37.2578H116.211V40.3047C118.021 37.9609 120.299 36.7891 123.047 36.7891C124.258 36.7891 125.365 37.0104 126.367 37.4531C127.37 37.8828 128.125 38.4362 128.633 39.1133C129.154 39.7904 129.512 40.5586 129.707 41.418C129.915 42.2773 130.02 43.5078 130.02 45.1094V58ZM147.617 51.3984L153.086 52.3164C152.383 54.3216 151.27 55.8516 149.746 56.9062C148.236 57.9479 146.341 58.4688 144.062 58.4688C140.456 58.4688 137.786 57.2904 136.055 54.9336C134.688 53.0456 134.004 50.6628 134.004 47.7852C134.004 44.3477 134.902 41.6589 136.699 39.7188C138.496 37.7656 140.768 36.7891 143.516 36.7891C146.602 36.7891 149.036 37.8112 150.82 39.8555C152.604 41.8867 153.457 45.0052 153.379 49.2109H139.629C139.668 50.8385 140.111 52.1081 140.957 53.0195C141.803 53.918 142.858 54.3672 144.121 54.3672C144.98 54.3672 145.703 54.1328 146.289 53.6641C146.875 53.1953 147.318 52.4401 147.617 51.3984ZM147.93 45.8516C147.891 44.263 147.48 43.0586 146.699 42.2383C145.918 41.4049 144.967 40.9883 143.848 40.9883C142.65 40.9883 141.66 41.4245 140.879 42.2969C140.098 43.1693 139.714 44.3542 139.727 45.8516H147.93ZM169.883 51.3984L175.352 52.3164C174.648 54.3216 173.535 55.8516 172.012 56.9062C170.501 57.9479 168.607 58.4688 166.328 58.4688C162.721 58.4688 160.052 57.2904 158.32 54.9336C156.953 53.0456 156.27 50.6628 156.27 47.7852C156.27 44.3477 157.168 41.6589 158.965 39.7188C160.762 37.7656 163.034 36.7891 165.781 36.7891C168.867 36.7891 171.302 37.8112 173.086 39.8555C174.87 41.8867 175.723 45.0052 175.645 49.2109H161.895C161.934 50.8385 162.376 52.1081 163.223 53.0195C164.069 53.918 165.124 54.3672 166.387 54.3672C167.246 54.3672 167.969 54.1328 168.555 53.6641C169.141 53.1953 169.583 52.4401 169.883 51.3984ZM170.195 45.8516C170.156 44.263 169.746 43.0586 168.965 42.2383C168.184 41.4049 167.233 40.9883 166.113 40.9883C164.915 40.9883 163.926 41.4245 163.145 42.2969C162.363 43.1693 161.979 44.3542 161.992 45.8516H170.195ZM199.16 58H194.062V54.9531C193.216 56.138 192.214 57.0234 191.055 57.6094C189.909 58.1823 188.75 58.4688 187.578 58.4688C185.195 58.4688 183.151 57.5117 181.445 55.5977C179.753 53.6706 178.906 50.9883 178.906 47.5508C178.906 44.0352 179.733 41.3659 181.387 39.543C183.04 37.707 185.13 36.7891 187.656 36.7891C189.974 36.7891 191.979 37.7526 193.672 39.6797V29.3672H199.16V58ZM184.512 47.1797C184.512 49.3932 184.818 50.9948 185.43 51.9844C186.315 53.4167 187.552 54.1328 189.141 54.1328C190.404 54.1328 191.478 53.599 192.363 52.5312C193.249 51.4505 193.691 49.8424 193.691 47.707C193.691 45.3242 193.262 43.612 192.402 42.5703C191.543 41.5156 190.443 40.9883 189.102 40.9883C187.799 40.9883 186.706 41.5091 185.82 42.5508C184.948 43.5794 184.512 45.1224 184.512 47.1797Z" fill="black"/>
<rect x="166.68" y="141.719" width="82.64" height="82.64" fill="#B92429" stroke="black" stroke-width="3.36"/>
<path d="M118.176 195.349C114.396 194.1 111.672 200.167 102.515 215.228C99.3092 220.501 105.706 227.298 109.672 228.163C113.638 229.028 137.486 228.163 138.02 225.864C139.165 220.939 132.657 223.558 123.463 220.501C137.743 215.32 145.906 213.033 144.485 208.609C143.064 204.185 135.069 210.541 120.297 212.566C128.411 206.595 138.056 199.829 135.069 196.505C132.081 193.181 124.677 202.439 113.638 208.568C116.913 204.369 121.956 196.597 118.176 195.349Z" fill="black" stroke="black" stroke-width="0.694261"/>
<path d="M130.146 166.977C127.285 169.074 117.942 159.585 110.022 150.584C109.687 143.07 115.98 140.154 120.748 137.306C125.516 134.459 134.072 128.365 136.072 132.196C138.072 136.027 133.577 134.068 126.396 141.918C137.346 141.584 149.161 139.858 148.839 143.882C148.516 147.906 139.531 147.325 126.396 148.286C135.94 151.25 145.037 153.455 142.968 157.48C141.493 160.35 135.006 157.725 122.488 155.646C126.761 158.593 133.007 164.88 130.146 166.977Z" fill="black" stroke="black" stroke-width="0.694261"/>
<path d="M106.112 222.039L38 206.022M113 148.056L44.8878 132.039" stroke="black" stroke-width="9" stroke-linecap="round"/>
</svg>
