<svg width="300" height="300" viewBox="0 0 300 300" fill="none" xmlns="http://www.w3.org/2000/svg">
<path d="M124.02 52H118.531V41.4141C118.531 39.1745 118.414 37.7292 118.18 37.0781C117.945 36.4141 117.561 35.8997 117.027 35.5352C116.507 35.1706 115.875 34.9883 115.133 34.9883C114.182 34.9883 113.329 35.2487 112.574 35.7695C111.819 36.2904 111.298 36.9805 111.012 37.8398C110.738 38.6992 110.602 40.2878 110.602 42.6055V52H105.113V31.2578H110.211V34.3047C112.021 31.9609 114.299 30.7891 117.047 30.7891C118.258 30.7891 119.365 31.0104 120.367 31.4531C121.37 31.8828 122.125 32.4362 122.633 33.1133C123.154 33.7904 123.512 34.5586 123.707 35.418C123.915 36.2773 124.02 37.5078 124.02 39.1094V52ZM141.617 45.3984L147.086 46.3164C146.383 48.3216 145.27 49.8516 143.746 50.9062C142.236 51.9479 140.341 52.4688 138.062 52.4688C134.456 52.4688 131.786 51.2904 130.055 48.9336C128.688 47.0456 128.004 44.6628 128.004 41.7852C128.004 38.3477 128.902 35.6589 130.699 33.7188C132.496 31.7656 134.768 30.7891 137.516 30.7891C140.602 30.7891 143.036 31.8112 144.82 33.8555C146.604 35.8867 147.457 39.0052 147.379 43.2109H133.629C133.668 44.8385 134.111 46.1081 134.957 47.0195C135.803 47.918 136.858 48.3672 138.121 48.3672C138.98 48.3672 139.703 48.1328 140.289 47.6641C140.875 47.1953 141.318 46.4401 141.617 45.3984ZM141.93 39.8516C141.891 38.263 141.48 37.0586 140.699 36.2383C139.918 35.4049 138.967 34.9883 137.848 34.9883C136.65 34.9883 135.66 35.4245 134.879 36.2969C134.098 37.1693 133.714 38.3542 133.727 39.8516H141.93ZM163.883 45.3984L169.352 46.3164C168.648 48.3216 167.535 49.8516 166.012 50.9062C164.501 51.9479 162.607 52.4688 160.328 52.4688C156.721 52.4688 154.052 51.2904 152.32 48.9336C150.953 47.0456 150.27 44.6628 150.27 41.7852C150.27 38.3477 151.168 35.6589 152.965 33.7188C154.762 31.7656 157.034 30.7891 159.781 30.7891C162.867 30.7891 165.302 31.8112 167.086 33.8555C168.87 35.8867 169.723 39.0052 169.645 43.2109H155.895C155.934 44.8385 156.376 46.1081 157.223 47.0195C158.069 47.918 159.124 48.3672 160.387 48.3672C161.246 48.3672 161.969 48.1328 162.555 47.6641C163.141 47.1953 163.583 46.4401 163.883 45.3984ZM164.195 39.8516C164.156 38.263 163.746 37.0586 162.965 36.2383C162.184 35.4049 161.233 34.9883 160.113 34.9883C158.915 34.9883 157.926 35.4245 157.145 36.2969C156.363 37.1693 155.979 38.3542 155.992 39.8516H164.195ZM193.16 52H188.062V48.9531C187.216 50.138 186.214 51.0234 185.055 51.6094C183.909 52.1823 182.75 52.4688 181.578 52.4688C179.195 52.4688 177.151 51.5117 175.445 49.5977C173.753 47.6706 172.906 44.9883 172.906 41.5508C172.906 38.0352 173.733 35.3659 175.387 33.543C177.04 31.707 179.13 30.7891 181.656 30.7891C183.974 30.7891 185.979 31.7526 187.672 33.6797V23.3672H193.16V52ZM178.512 41.1797C178.512 43.3932 178.818 44.9948 179.43 45.9844C180.315 47.4167 181.552 48.1328 183.141 48.1328C184.404 48.1328 185.478 47.599 186.363 46.5312C187.249 45.4505 187.691 43.8424 187.691 41.707C187.691 39.3242 187.262 37.612 186.402 36.5703C185.543 35.5156 184.443 34.9883 183.102 34.9883C181.799 34.9883 180.706 35.5091 179.82 36.5508C178.948 37.5794 178.512 39.1224 178.512 41.1797Z" fill="black"/>
<rect x="160.68" y="135.719" width="82.64" height="82.64" fill="#B92429" stroke="black" stroke-width="3.36"/>
<path d="M112.176 189.349C108.396 188.1 105.672 194.167 96.5153 209.228C93.3092 214.501 99.7058 221.298 103.672 222.163C107.638 223.028 131.486 222.163 132.02 219.864C133.165 214.939 126.657 217.558 117.463 214.501C131.743 209.32 139.906 207.033 138.485 202.609C137.064 198.185 129.069 204.541 114.297 206.566C122.411 200.595 132.056 193.829 129.069 190.505C126.081 187.182 118.677 196.439 107.638 202.568C110.913 198.369 115.956 190.597 112.176 189.349Z" fill="black" stroke="black" stroke-width="0.694261"/>
<path d="M124.145 160.977C121.284 163.074 111.941 153.585 104.021 144.584C103.687 137.07 109.98 134.154 114.748 131.306C119.516 128.459 128.072 122.365 130.072 126.196C132.071 130.027 127.577 128.068 120.396 135.918C131.346 135.584 143.161 133.858 142.838 137.882C142.516 141.906 133.53 141.325 120.396 142.286C129.94 145.25 139.036 147.454 136.967 151.48C135.492 154.35 129.005 151.725 116.488 149.646C120.76 152.593 127.007 158.88 124.145 160.977Z" fill="black" stroke="black" stroke-width="0.694261"/>
<path d="M100.112 216.039L32 200.022M107 142.056L38.8878 126.039" stroke="black" stroke-width="9" stroke-linecap="round"/>
</svg>
