<svg width="312" height="312" viewBox="0 0 312 312" fill="none" xmlns="http://www.w3.org/2000/svg">
<rect x="6" y="6" width="300" height="300" rx="20" fill="#E3F4FF"/>
<rect x="6" y="6" width="300" height="300" rx="20" stroke="#1684D9" stroke-width="11"/>
<path d="M146.125 58H140.637V47.4141C140.637 45.1745 140.52 43.7292 140.285 43.0781C140.051 42.4141 139.667 41.8997 139.133 41.5352C138.612 41.1706 137.98 40.9883 137.238 40.9883C136.288 40.9883 135.435 41.2487 134.68 41.7695C133.924 42.2904 133.404 42.9805 133.117 43.8398C132.844 44.6992 132.707 46.2878 132.707 48.6055V58H127.219V37.2578H132.316V40.3047C134.126 37.9609 136.405 36.7891 139.152 36.7891C140.363 36.7891 141.47 37.0104 142.473 37.4531C143.475 37.8828 144.23 38.4362 144.738 39.1133C145.259 39.7904 145.617 40.5586 145.812 41.418C146.021 42.2773 146.125 43.5078 146.125 45.1094V58ZM150.441 47.3359C150.441 45.513 150.891 43.7487 151.789 42.043C152.688 40.3372 153.957 39.0352 155.598 38.1367C157.251 37.2383 159.094 36.7891 161.125 36.7891C164.263 36.7891 166.835 37.8112 168.84 39.8555C170.845 41.8867 171.848 44.4583 171.848 47.5703C171.848 50.7083 170.832 53.3125 168.801 55.3828C166.783 57.4401 164.237 58.4688 161.164 58.4688C159.263 58.4688 157.447 58.0391 155.715 57.1797C153.996 56.3203 152.688 55.0638 151.789 53.4102C150.891 51.7435 150.441 49.7188 150.441 47.3359ZM156.066 47.6289C156.066 49.6862 156.555 51.2617 157.531 52.3555C158.508 53.4492 159.712 53.9961 161.145 53.9961C162.577 53.9961 163.775 53.4492 164.738 52.3555C165.715 51.2617 166.203 49.6732 166.203 47.5898C166.203 45.5586 165.715 43.9961 164.738 42.9023C163.775 41.8086 162.577 41.2617 161.145 41.2617C159.712 41.2617 158.508 41.8086 157.531 42.9023C156.555 43.9961 156.066 45.5716 156.066 47.6289ZM185.676 37.2578V41.6328H181.926V49.9922C181.926 51.6849 181.958 52.6745 182.023 52.9609C182.102 53.2344 182.264 53.4622 182.512 53.6445C182.772 53.8268 183.085 53.918 183.449 53.918C183.957 53.918 184.693 53.7422 185.656 53.3906L186.125 57.6484C184.849 58.1953 183.404 58.4688 181.789 58.4688C180.799 58.4688 179.908 58.306 179.113 57.9805C178.319 57.6419 177.733 57.2122 177.355 56.6914C176.991 56.1576 176.737 55.4414 176.594 54.543C176.477 53.9049 176.418 52.6159 176.418 50.6758V41.6328H173.898V37.2578H176.418V33.1367L181.926 29.9336V37.2578H185.676Z" fill="black"/>
<path d="M80 97L231 248" stroke="#B92429" stroke-width="9" stroke-linecap="round"/>
<path d="M80 248L231 97" stroke="#B92429" stroke-width="9" stroke-linecap="round"/>
</svg>
