<svg width="300" height="300" viewBox="0 0 300 300" fill="none" xmlns="http://www.w3.org/2000/svg">
<path d="M140.125 52H134.637V41.4141C134.637 39.1745 134.52 37.7292 134.285 37.0781C134.051 36.4141 133.667 35.8997 133.133 35.5352C132.612 35.1706 131.98 34.9883 131.238 34.9883C130.288 34.9883 129.435 35.2487 128.68 35.7695C127.924 36.2904 127.404 36.9805 127.117 37.8398C126.844 38.6992 126.707 40.2878 126.707 42.6055V52H121.219V31.2578H126.316V34.3047C128.126 31.9609 130.405 30.7891 133.152 30.7891C134.363 30.7891 135.47 31.0104 136.473 31.4531C137.475 31.8828 138.23 32.4362 138.738 33.1133C139.259 33.7904 139.617 34.5586 139.812 35.418C140.021 36.2773 140.125 37.5078 140.125 39.1094V52ZM144.441 41.3359C144.441 39.513 144.891 37.7487 145.789 36.043C146.688 34.3372 147.957 33.0352 149.598 32.1367C151.251 31.2383 153.094 30.7891 155.125 30.7891C158.263 30.7891 160.835 31.8112 162.84 33.8555C164.845 35.8867 165.848 38.4583 165.848 41.5703C165.848 44.7083 164.832 47.3125 162.801 49.3828C160.783 51.4401 158.237 52.4688 155.164 52.4688C153.263 52.4688 151.447 52.0391 149.715 51.1797C147.996 50.3203 146.688 49.0638 145.789 47.4102C144.891 45.7435 144.441 43.7188 144.441 41.3359ZM150.066 41.6289C150.066 43.6862 150.555 45.2617 151.531 46.3555C152.508 47.4492 153.712 47.9961 155.145 47.9961C156.577 47.9961 157.775 47.4492 158.738 46.3555C159.715 45.2617 160.203 43.6732 160.203 41.5898C160.203 39.5586 159.715 37.9961 158.738 36.9023C157.775 35.8086 156.577 35.2617 155.145 35.2617C153.712 35.2617 152.508 35.8086 151.531 36.9023C150.555 37.9961 150.066 39.5716 150.066 41.6289ZM179.676 31.2578V35.6328H175.926V43.9922C175.926 45.6849 175.958 46.6745 176.023 46.9609C176.102 47.2344 176.264 47.4622 176.512 47.6445C176.772 47.8268 177.085 47.918 177.449 47.918C177.957 47.918 178.693 47.7422 179.656 47.3906L180.125 51.6484C178.849 52.1953 177.404 52.4688 175.789 52.4688C174.799 52.4688 173.908 52.306 173.113 51.9805C172.319 51.6419 171.733 51.2122 171.355 50.6914C170.991 50.1576 170.737 49.4414 170.594 48.543C170.477 47.9049 170.418 46.6159 170.418 44.6758V35.6328H167.898V31.2578H170.418V27.1367L175.926 23.9336V31.2578H179.676Z" fill="black"/>
<path d="M74 91L225 242" stroke="#B92429" stroke-width="9" stroke-linecap="round"/>
<path d="M74 242L225 91" stroke="#B92429" stroke-width="9" stroke-linecap="round"/>
</svg>
