<svg width="312" height="312" viewBox="0 0 312 312" fill="none" xmlns="http://www.w3.org/2000/svg">
<rect x="6" y="6" width="300" height="300" rx="20" fill="#E3F4FF"/>
<rect x="6" y="6" width="300" height="300" rx="20" stroke="#1684D9" stroke-width="11"/>
<path d="M137.219 58H131.73V47.4141C131.73 45.1745 131.613 43.7292 131.379 43.0781C131.145 42.4141 130.76 41.8997 130.227 41.5352C129.706 41.1706 129.074 40.9883 128.332 40.9883C127.382 40.9883 126.529 41.2487 125.773 41.7695C125.018 42.2904 124.497 42.9805 124.211 43.8398C123.938 44.6992 123.801 46.2878 123.801 48.6055V58H118.312V37.2578H123.41V40.3047C125.22 37.9609 127.499 36.7891 130.246 36.7891C131.457 36.7891 132.564 37.0104 133.566 37.4531C134.569 37.8828 135.324 38.4362 135.832 39.1133C136.353 39.7904 136.711 40.5586 136.906 41.418C137.115 42.2773 137.219 43.5078 137.219 45.1094V58ZM141.535 47.3359C141.535 45.513 141.984 43.7487 142.883 42.043C143.781 40.3372 145.051 39.0352 146.691 38.1367C148.345 37.2383 150.188 36.7891 152.219 36.7891C155.357 36.7891 157.928 37.8112 159.934 39.8555C161.939 41.8867 162.941 44.4583 162.941 47.5703C162.941 50.7083 161.926 53.3125 159.895 55.3828C157.876 57.4401 155.331 58.4688 152.258 58.4688C150.357 58.4688 148.54 58.0391 146.809 57.1797C145.09 56.3203 143.781 55.0638 142.883 53.4102C141.984 51.7435 141.535 49.7188 141.535 47.3359ZM147.16 47.6289C147.16 49.6862 147.648 51.2617 148.625 52.3555C149.602 53.4492 150.806 53.9961 152.238 53.9961C153.671 53.9961 154.868 53.4492 155.832 52.3555C156.809 51.2617 157.297 49.6732 157.297 47.5898C157.297 45.5586 156.809 43.9961 155.832 42.9023C154.868 41.8086 153.671 41.2617 152.238 41.2617C150.806 41.2617 149.602 41.8086 148.625 42.9023C147.648 43.9961 147.16 45.5716 147.16 47.6289ZM171.125 58L164.562 37.2578H169.895L173.781 50.8516L177.355 37.2578H182.648L186.105 50.8516L190.07 37.2578H195.48L188.82 58H183.547L179.973 44.6602L176.457 58H171.125Z" fill="black"/>
<path d="M170.31 152.052C163.367 175.397 141.033 188.839 120.804 182.822C100.574 176.806 89.2167 153.344 96.1595 129.999C103.102 106.655 125.436 93.2127 145.665 99.2292C165.895 105.246 177.252 128.708 170.31 152.052Z" fill="#BC8166" stroke="black" stroke-width="4.97477"/>
<path d="M119.393 159.783C119.393 159.783 122.487 166.312 131.276 169.795C140.064 173.277 144.868 171.402 149.059 169.795" stroke="black" stroke-width="4.7" stroke-linecap="round"/>
<path d="M160.565 137.732C160.179 138.786 158.747 139.635 157.069 139.021C155.392 138.406 154.847 136.833 155.233 135.779C155.619 134.725 157.051 133.876 158.729 134.49C160.406 135.104 160.951 136.678 160.565 137.732Z" fill="black" stroke="black" stroke-width="5.99189"/>
<path d="M134.565 130.732C134.179 131.786 132.747 132.635 131.069 132.021C129.392 131.406 128.847 129.833 129.233 128.779C129.619 127.725 131.051 126.876 132.729 127.49C134.406 128.104 134.951 129.678 134.565 130.732Z" fill="black" stroke="black" stroke-width="5.99189"/>
<path d="M124.483 184C126.183 205.252 124.483 239.5 116 272" stroke="black" stroke-width="5.1005" stroke-linecap="round"/>
<path d="M92.5002 227.5L67.5002 197H125.5L149 223L184 180.5" stroke="black" stroke-width="5.1005" stroke-linecap="round"/>
<path d="M101.328 236.141C101.328 231.375 99.5222 227.587 95.2108 224.308C92.3866 223.627 93.2576 222.647 88.6006 223.015C85.5163 223.259 82.6816 223.182 78.9853 226.64C77.9496 227.608 74.9049 230.869 73.9838 231.866C71.846 234.181 69.4769 236.746 71.3847 237.953C73.2925 239.159 76.0746 235.517 76.8831 234.804C77.6915 234.091 79.5572 230.974 81.465 232.18C82.6716 232.943 79.7073 235.486 77.9496 238.792C76.408 241.691 75.0562 244.14 76.7626 245.219C78.6705 246.425 81.4857 242.393 82.6816 240.68L82.6816 240.68C85.3557 236.849 85.6161 235.064 87.1432 235.82C88.6702 236.577 87.7593 238.921 86.918 241.702C86.0766 244.483 85.2353 247.264 87.1432 248.47C89.051 249.677 91.2294 244.981 92.0707 242.2L92.0937 242.124C92.937 239.336 94.3071 234.807 96.5025 235.064C97.9377 235.232 95.6471 240.825 97.6441 241.307C100.468 241.989 101.328 238.792 101.328 236.141Z" fill="black" stroke="black" stroke-width="0.673266" stroke-linecap="round"/>
<path d="M188.883 170.968C185.283 173.368 181.05 179.635 179.383 182.468C177.806 184.968 181.383 187.468 184.883 185.968C188.383 184.468 195.383 187.968 198.883 185.968C202.383 183.968 198.883 176.968 200.883 176.468C202.883 175.968 213.383 184.968 215.383 183.968C217.383 182.968 214.883 179.968 213.383 178.468C211.883 176.968 200.883 169.468 198.883 168.468C196.883 167.468 193.383 167.968 188.883 170.968Z" fill="black" stroke="black" stroke-width="0.5" stroke-linecap="round"/>
<circle cx="233" cy="229" r="40" fill="#F1F279" stroke="black" stroke-width="4"/>
<path d="M243 238.5L233 229.5L218 246.5" stroke="black" stroke-width="3.5" stroke-linecap="round"/>
<path d="M233 189V200.511M233 257.489V269" stroke="black" stroke-width="2.63158" stroke-linecap="round"/>
<path d="M273 229L261.489 229M204.511 229L193 229" stroke="black" stroke-width="2.63158" stroke-linecap="round"/>
<path d="M253 263.904L247.245 253.936M218.755 204.591L213 194.622" stroke="black" stroke-width="2.63158" stroke-linecap="round"/>
<path d="M267.641 249.263L257.672 243.508M208.327 215.019L198.359 209.263" stroke="black" stroke-width="2.63158" stroke-linecap="round"/>
<path d="M253 194.622L247.245 204.591M218.755 253.936L213 263.904" stroke="black" stroke-width="2.63158" stroke-linecap="round"/>
<path d="M267.641 209.263L257.672 215.019M208.327 243.508L198.359 249.263" stroke="black" stroke-width="2.63158" stroke-linecap="round"/>
<circle cx="233" cy="229" r="3" fill="black"/>
</svg>
