<svg width="300" height="300" viewBox="0 0 300 300" fill="none" xmlns="http://www.w3.org/2000/svg">
<path d="M131.219 52H125.73V41.4141C125.73 39.1745 125.613 37.7292 125.379 37.0781C125.145 36.4141 124.76 35.8997 124.227 35.5352C123.706 35.1706 123.074 34.9883 122.332 34.9883C121.382 34.9883 120.529 35.2487 119.773 35.7695C119.018 36.2904 118.497 36.9805 118.211 37.8398C117.938 38.6992 117.801 40.2878 117.801 42.6055V52H112.312V31.2578H117.41V34.3047C119.22 31.9609 121.499 30.7891 124.246 30.7891C125.457 30.7891 126.564 31.0104 127.566 31.4531C128.569 31.8828 129.324 32.4362 129.832 33.1133C130.353 33.7904 130.711 34.5586 130.906 35.418C131.115 36.2773 131.219 37.5078 131.219 39.1094V52ZM135.535 41.3359C135.535 39.513 135.984 37.7487 136.883 36.043C137.781 34.3372 139.051 33.0352 140.691 32.1367C142.345 31.2383 144.188 30.7891 146.219 30.7891C149.357 30.7891 151.928 31.8112 153.934 33.8555C155.939 35.8867 156.941 38.4583 156.941 41.5703C156.941 44.7083 155.926 47.3125 153.895 49.3828C151.876 51.4401 149.331 52.4688 146.258 52.4688C144.357 52.4688 142.54 52.0391 140.809 51.1797C139.09 50.3203 137.781 49.0638 136.883 47.4102C135.984 45.7435 135.535 43.7188 135.535 41.3359ZM141.16 41.6289C141.16 43.6862 141.648 45.2617 142.625 46.3555C143.602 47.4492 144.806 47.9961 146.238 47.9961C147.671 47.9961 148.868 47.4492 149.832 46.3555C150.809 45.2617 151.297 43.6732 151.297 41.5898C151.297 39.5586 150.809 37.9961 149.832 36.9023C148.868 35.8086 147.671 35.2617 146.238 35.2617C144.806 35.2617 143.602 35.8086 142.625 36.9023C141.648 37.9961 141.16 39.5716 141.16 41.6289ZM165.125 52L158.562 31.2578H163.895L167.781 44.8516L171.355 31.2578H176.648L180.105 44.8516L184.07 31.2578H189.48L182.82 52H177.547L173.973 38.6602L170.457 52H165.125Z" fill="black"/>
<path d="M139.666 93.2291C159.896 99.2456 171.253 122.709 164.311 146.053C157.368 169.397 135.034 182.839 114.804 176.822C94.5748 170.806 83.2176 147.344 90.1601 124C97.1029 100.656 119.436 87.2128 139.666 93.2291Z" fill="#BC8166" stroke="black" stroke-width="4.97477"/>
<path d="M113.393 153.783C113.393 153.783 116.487 160.312 125.276 163.795C134.064 167.277 138.867 165.402 143.059 163.795" stroke="black" stroke-width="4.7" stroke-linecap="round"/>
<path d="M152.728 128.49C154.405 129.104 154.951 130.678 154.565 131.732C154.179 132.785 152.746 133.635 151.069 133.021C149.391 132.406 148.847 130.832 149.233 129.779C149.619 128.725 151.051 127.876 152.728 128.49Z" fill="black" stroke="black" stroke-width="5.99189"/>
<path d="M126.728 121.49C128.405 122.104 128.951 123.678 128.565 124.732C128.179 125.785 126.746 126.635 125.069 126.021C123.391 125.406 122.847 123.832 123.233 122.779C123.619 121.725 125.051 120.876 126.728 121.49Z" fill="black" stroke="black" stroke-width="5.99189"/>
<path d="M118.482 178C120.183 199.252 118.482 233.5 110 266" stroke="black" stroke-width="5.1005" stroke-linecap="round"/>
<path d="M86.5 221.5L61.5 191H119.5L143 217L178 174.5" stroke="black" stroke-width="5.1005" stroke-linecap="round"/>
<path d="M95.3283 230.141C95.3279 225.375 93.5225 221.587 89.2111 218.308C86.3869 217.627 87.2579 216.647 82.6009 217.015C79.5166 217.259 76.6819 217.182 72.9856 220.64C71.9499 221.608 68.9052 224.869 67.9841 225.866C65.8463 228.181 63.4772 230.746 65.385 231.953C67.2929 233.159 70.0749 229.517 70.8834 228.804C71.6918 228.091 73.5575 224.974 75.4653 226.18C76.6719 226.943 73.7076 229.486 71.9499 232.792C70.4083 235.691 69.0565 238.14 70.7629 239.219C72.6708 240.425 75.486 236.393 76.6819 234.68L76.6819 234.68C79.356 230.849 79.6164 229.064 81.1435 229.82C82.6705 230.577 81.7596 232.921 80.9183 235.702C80.077 238.483 79.2356 241.264 81.1435 242.47C83.0513 243.677 85.2297 238.981 86.071 236.2L86.094 236.124C86.9373 233.336 88.3074 228.807 90.5028 229.064C91.938 229.232 89.6474 234.825 91.6444 235.307C94.4686 235.989 95.3286 232.792 95.3283 230.141Z" fill="black" stroke="black" stroke-width="0.673266" stroke-linecap="round"/>
<path d="M182.883 164.968C179.283 167.368 175.05 173.635 173.383 176.468C171.806 178.968 175.383 181.468 178.883 179.968C182.383 178.468 189.383 181.968 192.883 179.968C196.383 177.968 192.883 170.968 194.883 170.468C196.883 169.968 207.383 178.968 209.383 177.968C211.383 176.968 208.883 173.968 207.383 172.468C205.883 170.968 194.883 163.468 192.883 162.468C190.883 161.468 187.383 161.968 182.883 164.968Z" fill="black" stroke="black" stroke-width="0.5" stroke-linecap="round"/>
<circle cx="227" cy="223" r="40" fill="#F1F279" stroke="black" stroke-width="4"/>
<path d="M237 232.5L227 223.5L212 240.5" stroke="black" stroke-width="3.5" stroke-linecap="round"/>
<path d="M227 183V194.511M227 251.489V263" stroke="black" stroke-width="2.63158" stroke-linecap="round"/>
<path d="M267 223L255.489 223M198.511 223L187 223" stroke="black" stroke-width="2.63158" stroke-linecap="round"/>
<path d="M247 257.904L241.245 247.936M212.755 198.591L207 188.622" stroke="black" stroke-width="2.63158" stroke-linecap="round"/>
<path d="M261.641 243.263L251.672 237.508M202.327 209.019L192.359 203.263" stroke="black" stroke-width="2.63158" stroke-linecap="round"/>
<path d="M247 188.622L241.245 198.591M212.755 247.936L207 257.904" stroke="black" stroke-width="2.63158" stroke-linecap="round"/>
<path d="M261.641 203.263L251.672 209.019M202.327 237.508L192.359 243.263" stroke="black" stroke-width="2.63158" stroke-linecap="round"/>
<circle cx="227" cy="223" r="3" fill="black"/>
</svg>
