<svg width="312" height="312" viewBox="0 0 312 312" fill="none" xmlns="http://www.w3.org/2000/svg">
<rect x="6" y="6" width="300" height="300" rx="20" fill="#E2FFE2"/>
<rect x="6" y="6" width="300" height="300" rx="20" stroke="#1ADF1D" stroke-width="11"/>
<path d="M126.599 149.864C135.143 145.64 145.415 146.312 152.615 153.224C155.495 156.104 157.799 160.712 158.855 164.648C160.967 171.656 159.143 179.144 155.399 185.288C153.671 188.072 150.887 190.472 147.911 191.816C144.071 193.544 139.367 194.312 135.143 193.928C119.879 193.064 111.335 179.144 115.175 164.744C117.191 157.16 121.319 152.456 126.599 149.864ZM129.479 162.728C125.735 166.376 125.159 173.96 128.327 178.472C129.575 180.392 133.415 181.832 136.967 182.024C145.223 182.504 149.639 170.792 145.223 163.688C142.055 158.504 133.511 158.984 129.479 162.728ZM192.111 152.648C194.223 153.224 194.799 155.24 194.511 157.16C194.127 159.272 193.167 160.328 191.247 160.808C189.231 161.288 187.023 161.192 184.911 161.288V183.464C184.911 185 184.815 186.536 184.623 188.168C184.623 188.84 184.431 189.416 184.143 189.992C184.047 190.28 183.951 190.472 183.855 190.568C183.855 190.76 183.759 190.952 183.663 191.144C183.279 191.912 182.703 192.488 182.127 192.872C180.687 193.64 179.247 193.832 177.615 193.448C176.751 193.256 175.983 192.968 175.407 192.488C174.927 192.104 174.447 191.528 174.159 190.856C173.967 190.28 173.775 189.512 173.583 188.936C173.487 188.264 173.391 187.688 173.391 187.304V181.736C173.391 175.112 173.487 167.624 173.487 161C170.511 160.904 166.959 161.192 165.519 159.752C164.079 158.216 164.463 154.472 165.711 153.416C167.343 151.88 168.495 151.976 170.511 151.88C170.799 151.88 172.815 151.784 173.199 151.784C173.583 142.952 173.007 134.12 179.055 131.336C182.703 129.704 187.983 129.128 191.823 130.664C193.551 131.336 195.759 133.448 195.663 135.752C195.567 138.056 195.087 140.264 192.495 140.84C190.287 141.32 187.215 140.264 185.679 142.088C184.527 143.624 184.815 147.56 184.815 149.384V151.784C187.695 151.976 190.287 152.072 192.111 152.648Z" fill="black"/>
</svg>
