<svg width="300" height="300" viewBox="0 0 300 300" fill="none" xmlns="http://www.w3.org/2000/svg">
<path d="M120.599 143.864C129.143 139.64 139.415 140.312 146.615 147.224C149.495 150.104 151.799 154.712 152.855 158.648C154.967 165.656 153.143 173.144 149.399 179.288C147.671 182.072 144.887 184.472 141.911 185.816C138.071 187.544 133.367 188.312 129.143 187.928C113.879 187.064 105.335 173.144 109.175 158.744C111.191 151.16 115.319 146.456 120.599 143.864ZM123.479 156.728C119.735 160.376 119.159 167.96 122.327 172.472C123.575 174.392 127.415 175.832 130.967 176.024C139.223 176.504 143.639 164.792 139.223 157.688C136.055 152.504 127.511 152.984 123.479 156.728ZM186.111 146.648C188.223 147.224 188.799 149.24 188.511 151.16C188.127 153.272 187.167 154.328 185.247 154.808C183.231 155.288 181.023 155.192 178.911 155.288V177.464C178.911 179 178.815 180.536 178.623 182.168C178.623 182.84 178.431 183.416 178.143 183.992C178.047 184.28 177.951 184.472 177.855 184.568C177.855 184.76 177.759 184.952 177.663 185.144C177.279 185.912 176.703 186.488 176.127 186.872C174.687 187.64 173.247 187.832 171.615 187.448C170.751 187.256 169.983 186.968 169.407 186.488C168.927 186.104 168.447 185.528 168.159 184.856C167.967 184.28 167.775 183.512 167.583 182.936C167.487 182.264 167.391 181.688 167.391 181.304V175.736C167.391 169.112 167.487 161.624 167.487 155C164.511 154.904 160.959 155.192 159.519 153.752C158.079 152.216 158.463 148.472 159.711 147.416C161.343 145.88 162.495 145.976 164.511 145.88C164.799 145.88 166.815 145.784 167.199 145.784C167.583 136.952 167.007 128.12 173.055 125.336C176.703 123.704 181.983 123.128 185.823 124.664C187.551 125.336 189.759 127.448 189.663 129.752C189.567 132.056 189.087 134.264 186.495 134.84C184.287 135.32 181.215 134.264 179.679 136.088C178.527 137.624 178.815 141.56 178.815 143.384V145.784C181.695 145.976 184.287 146.072 186.111 146.648Z" fill="black"/>
</svg>
