<svg width="300" height="300" viewBox="0 0 300 300" fill="none" xmlns="http://www.w3.org/2000/svg">
<path d="M125.055 41.3359C125.055 39.513 125.504 37.7487 126.402 36.043C127.301 34.3372 128.57 33.0352 130.211 32.1367C131.865 31.2383 133.707 30.7891 135.738 30.7891C138.876 30.7891 141.448 31.8112 143.453 33.8555C145.458 35.8867 146.461 38.4583 146.461 41.5703C146.461 44.7083 145.445 47.3125 143.414 49.3828C141.396 51.4401 138.85 52.4688 135.777 52.4688C133.876 52.4688 132.06 52.0391 130.328 51.1797C128.609 50.3203 127.301 49.0638 126.402 47.4102C125.504 45.7435 125.055 43.7188 125.055 41.3359ZM130.68 41.6289C130.68 43.6862 131.168 45.2617 132.145 46.3555C133.121 47.4492 134.326 47.9961 135.758 47.9961C137.19 47.9961 138.388 47.4492 139.352 46.3555C140.328 45.2617 140.816 43.6732 140.816 41.5898C140.816 39.5586 140.328 37.9961 139.352 36.9023C138.388 35.8086 137.19 35.2617 135.758 35.2617C134.326 35.2617 133.121 35.8086 132.145 36.9023C131.168 37.9961 130.68 39.5716 130.68 41.6289ZM148.375 31.2578H151.422V29.6953C151.422 27.9505 151.604 26.6484 151.969 25.7891C152.346 24.9297 153.03 24.2331 154.02 23.6992C155.022 23.1523 156.285 22.8789 157.809 22.8789C159.371 22.8789 160.901 23.1133 162.398 23.582L161.656 27.4102C160.784 27.2018 159.944 27.0977 159.137 27.0977C158.342 27.0977 157.77 27.2865 157.418 27.6641C157.079 28.0286 156.91 28.7383 156.91 29.793V31.2578H161.012V35.5742H156.91V52H151.422V35.5742H148.375V31.2578ZM161.695 31.2578H164.742V29.6953C164.742 27.9505 164.924 26.6484 165.289 25.7891C165.667 24.9297 166.35 24.2331 167.34 23.6992C168.342 23.1523 169.605 22.8789 171.129 22.8789C172.691 22.8789 174.221 23.1133 175.719 23.582L174.977 27.4102C174.104 27.2018 173.264 27.0977 172.457 27.0977C171.663 27.0977 171.09 27.2865 170.738 27.6641C170.4 28.0286 170.23 28.7383 170.23 29.793V31.2578H174.332V35.5742H170.23V52H164.742V35.5742H161.695V31.2578Z" fill="black"/>
<rect x="43.2637" y="232.263" width="227" height="9" fill="#888E89"/>
<rect x="64.34" y="164.34" width="69.32" height="70.32" fill="#B92429" stroke="black" stroke-width="4.68"/>
<path d="M92.5825 150.786C91.3596 152.949 92.1221 155.695 94.2857 156.918C96.4493 158.14 99.1946 157.378 100.418 155.214L92.5825 150.786ZM166 99.5L166 95L166 99.5ZM247.5 209L259.063 158.341L209.41 173.657L247.5 209ZM96.5 153L100.418 155.214C104.65 147.726 112.851 134.766 124.241 123.732C135.668 112.662 149.809 104 166 104L166 99.5L166 95C146.483 95 130.208 105.421 117.979 117.268C105.712 129.151 97.0166 142.941 92.5825 150.786L96.5 153ZM166 99.5L166 104C182.297 104 195.541 112.662 206.407 125.748C217.305 138.873 225.432 156.029 231.345 171.868L235.561 170.294L239.777 168.72C233.719 152.496 225.169 134.255 213.331 119.999C201.462 105.704 185.911 95 166 95L166 99.5Z" fill="black"/>
</svg>
