<svg width="312" height="312" viewBox="0 0 312 312" fill="none" xmlns="http://www.w3.org/2000/svg">
<rect x="6" y="6" width="300" height="300" rx="20" fill="#E2FFE2"/>
<rect x="6" y="6" width="300" height="300" rx="20" stroke="#1ADF1D" stroke-width="11"/>
<path d="M131.055 47.3359C131.055 45.513 131.504 43.7487 132.402 42.043C133.301 40.3372 134.57 39.0352 136.211 38.1367C137.865 37.2383 139.707 36.7891 141.738 36.7891C144.876 36.7891 147.448 37.8112 149.453 39.8555C151.458 41.8867 152.461 44.4583 152.461 47.5703C152.461 50.7083 151.445 53.3125 149.414 55.3828C147.396 57.4401 144.85 58.4688 141.777 58.4688C139.876 58.4688 138.06 58.0391 136.328 57.1797C134.609 56.3203 133.301 55.0638 132.402 53.4102C131.504 51.7435 131.055 49.7188 131.055 47.3359ZM136.68 47.6289C136.68 49.6862 137.168 51.2617 138.145 52.3555C139.121 53.4492 140.326 53.9961 141.758 53.9961C143.19 53.9961 144.388 53.4492 145.352 52.3555C146.328 51.2617 146.816 49.6732 146.816 47.5898C146.816 45.5586 146.328 43.9961 145.352 42.9023C144.388 41.8086 143.19 41.2617 141.758 41.2617C140.326 41.2617 139.121 41.8086 138.145 42.9023C137.168 43.9961 136.68 45.5716 136.68 47.6289ZM154.375 37.2578H157.422V35.6953C157.422 33.9505 157.604 32.6484 157.969 31.7891C158.346 30.9297 159.03 30.2331 160.02 29.6992C161.022 29.1523 162.285 28.8789 163.809 28.8789C165.371 28.8789 166.901 29.1133 168.398 29.582L167.656 33.4102C166.784 33.2018 165.944 33.0977 165.137 33.0977C164.342 33.0977 163.77 33.2865 163.418 33.6641C163.079 34.0286 162.91 34.7383 162.91 35.793V37.2578H167.012V41.5742H162.91V58H157.422V41.5742H154.375V37.2578ZM167.695 37.2578H170.742V35.6953C170.742 33.9505 170.924 32.6484 171.289 31.7891C171.667 30.9297 172.35 30.2331 173.34 29.6992C174.342 29.1523 175.605 28.8789 177.129 28.8789C178.691 28.8789 180.221 29.1133 181.719 29.582L180.977 33.4102C180.104 33.2018 179.264 33.0977 178.457 33.0977C177.663 33.0977 177.09 33.2865 176.738 33.6641C176.4 34.0286 176.23 34.7383 176.23 35.793V37.2578H180.332V41.5742H176.23V58H170.742V41.5742H167.695V37.2578Z" fill="black"/>
<rect x="49.2635" y="238.263" width="227" height="9" fill="#888E89"/>
<rect x="70.34" y="170.34" width="69.32" height="70.32" fill="#B92429" stroke="black" stroke-width="4.68"/>
<path d="M98.5825 156.786C97.3596 158.949 98.1221 161.695 100.286 162.918C102.449 164.14 105.195 163.378 106.418 161.214L98.5825 156.786ZM172 105.5L172 101L172 105.5ZM253.5 215L265.063 164.341L215.41 179.657L253.5 215ZM106.418 161.214C110.65 153.726 118.851 140.766 130.241 129.732C141.668 118.662 155.809 110 172 110L172 101C152.483 101 136.208 111.421 123.979 123.268C111.712 135.151 103.017 148.941 98.5825 156.786L106.418 161.214ZM172 110C188.297 110 201.541 118.662 212.407 131.748C223.305 144.873 231.432 162.029 237.345 177.868L245.777 174.72C239.719 158.496 231.169 140.255 219.331 125.999C207.462 111.704 191.911 101 172 101L172 110Z" fill="black"/>
</svg>
