<svg width="300" height="300" viewBox="0 0 300 300" fill="none" xmlns="http://www.w3.org/2000/svg">
<path d="M126.648 41.3359C126.648 39.513 127.098 37.7487 127.996 36.043C128.895 34.3372 130.164 33.0352 131.805 32.1367C133.458 31.2383 135.301 30.7891 137.332 30.7891C140.47 30.7891 143.042 31.8112 145.047 33.8555C147.052 35.8867 148.055 38.4583 148.055 41.5703C148.055 44.7083 147.039 47.3125 145.008 49.3828C142.99 51.4401 140.444 52.4688 137.371 52.4688C135.47 52.4688 133.654 52.0391 131.922 51.1797C130.203 50.3203 128.895 49.0638 127.996 47.4102C127.098 45.7435 126.648 43.7188 126.648 41.3359ZM132.273 41.6289C132.273 43.6862 132.762 45.2617 133.738 46.3555C134.715 47.4492 135.919 47.9961 137.352 47.9961C138.784 47.9961 139.982 47.4492 140.945 46.3555C141.922 45.2617 142.41 43.6732 142.41 41.5898C142.41 39.5586 141.922 37.9961 140.945 36.9023C139.982 35.8086 138.784 35.2617 137.352 35.2617C135.919 35.2617 134.715 35.8086 133.738 36.9023C132.762 37.9961 132.273 39.5716 132.273 41.6289ZM171.238 52H165.75V41.4141C165.75 39.1745 165.633 37.7292 165.398 37.0781C165.164 36.4141 164.78 35.8997 164.246 35.5352C163.725 35.1706 163.094 34.9883 162.352 34.9883C161.401 34.9883 160.548 35.2487 159.793 35.7695C159.038 36.2904 158.517 36.9805 158.23 37.8398C157.957 38.6992 157.82 40.2878 157.82 42.6055V52H152.332V31.2578H157.43V34.3047C159.24 31.9609 161.518 30.7891 164.266 30.7891C165.477 30.7891 166.583 31.0104 167.586 31.4531C168.589 31.8828 169.344 32.4362 169.852 33.1133C170.372 33.7904 170.73 34.5586 170.926 35.418C171.134 36.2773 171.238 37.5078 171.238 39.1094V52Z" fill="black"/>
<rect x="43.2637" y="232.263" width="227" height="9" fill="#888E89"/>
<rect x="161.604" y="142.603" width="90.32" height="91.32" fill="#B92429" stroke="black" stroke-width="4.68"/>
<rect x="49.4102" y="136.117" width="111.727" height="12" rx="6" transform="rotate(45 49.4102 136.117)" fill="black"/>
<path d="M140.846 235.845L102.366 225.535L130.535 197.365L140.846 235.845Z" fill="black"/>
</svg>
