<svg width="312" height="312" viewBox="0 0 312 312" fill="none" xmlns="http://www.w3.org/2000/svg">
<rect x="6" y="6" width="300" height="300" rx="20" fill="#E2FFE2"/>
<rect x="6" y="6" width="300" height="300" rx="20" stroke="#1ADF1D" stroke-width="11"/>
<path d="M132.648 47.3359C132.648 45.513 133.098 43.7487 133.996 42.043C134.895 40.3372 136.164 39.0352 137.805 38.1367C139.458 37.2383 141.301 36.7891 143.332 36.7891C146.47 36.7891 149.042 37.8112 151.047 39.8555C153.052 41.8867 154.055 44.4583 154.055 47.5703C154.055 50.7083 153.039 53.3125 151.008 55.3828C148.99 57.4401 146.444 58.4688 143.371 58.4688C141.47 58.4688 139.654 58.0391 137.922 57.1797C136.203 56.3203 134.895 55.0638 133.996 53.4102C133.098 51.7435 132.648 49.7188 132.648 47.3359ZM138.273 47.6289C138.273 49.6862 138.762 51.2617 139.738 52.3555C140.715 53.4492 141.919 53.9961 143.352 53.9961C144.784 53.9961 145.982 53.4492 146.945 52.3555C147.922 51.2617 148.41 49.6732 148.41 47.5898C148.41 45.5586 147.922 43.9961 146.945 42.9023C145.982 41.8086 144.784 41.2617 143.352 41.2617C141.919 41.2617 140.715 41.8086 139.738 42.9023C138.762 43.9961 138.273 45.5716 138.273 47.6289ZM177.238 58H171.75V47.4141C171.75 45.1745 171.633 43.7292 171.398 43.0781C171.164 42.4141 170.78 41.8997 170.246 41.5352C169.725 41.1706 169.094 40.9883 168.352 40.9883C167.401 40.9883 166.548 41.2487 165.793 41.7695C165.038 42.2904 164.517 42.9805 164.23 43.8398C163.957 44.6992 163.82 46.2878 163.82 48.6055V58H158.332V37.2578H163.43V40.3047C165.24 37.9609 167.518 36.7891 170.266 36.7891C171.477 36.7891 172.583 37.0104 173.586 37.4531C174.589 37.8828 175.344 38.4362 175.852 39.1133C176.372 39.7904 176.73 40.5586 176.926 41.418C177.134 42.2773 177.238 43.5078 177.238 45.1094V58Z" fill="black"/>
<rect x="49.2635" y="238.263" width="227" height="9" fill="#888E89"/>
<rect x="167.604" y="148.603" width="90.32" height="91.32" fill="#B92429" stroke="black" stroke-width="4.68"/>
<rect x="55.4098" y="142.117" width="111.727" height="12" rx="6" transform="rotate(45 55.4098 142.117)" fill="black"/>
<path d="M146.845 241.845L108.366 231.535L136.535 203.365L146.845 241.845Z" fill="black"/>
</svg>
