<svg width="300" height="300" viewBox="0 0 300 300" fill="none" xmlns="http://www.w3.org/2000/svg">
<path d="M119.988 41.3359C119.988 39.513 120.438 37.7487 121.336 36.043C122.234 34.3372 123.504 33.0352 125.145 32.1367C126.798 31.2383 128.641 30.7891 130.672 30.7891C133.81 30.7891 136.382 31.8112 138.387 33.8555C140.392 35.8867 141.395 38.4583 141.395 41.5703C141.395 44.7083 140.379 47.3125 138.348 49.3828C136.329 51.4401 133.784 52.4688 130.711 52.4688C128.81 52.4688 126.993 52.0391 125.262 51.1797C123.543 50.3203 122.234 49.0638 121.336 47.4102C120.438 45.7435 119.988 43.7188 119.988 41.3359ZM125.613 41.6289C125.613 43.6862 126.102 45.2617 127.078 46.3555C128.055 47.4492 129.259 47.9961 130.691 47.9961C132.124 47.9961 133.322 47.4492 134.285 46.3555C135.262 45.2617 135.75 43.6732 135.75 41.5898C135.75 39.5586 135.262 37.9961 134.285 36.9023C133.322 35.8086 132.124 35.2617 130.691 35.2617C129.259 35.2617 128.055 35.8086 127.078 36.9023C126.102 37.9961 125.613 39.5716 125.613 41.6289ZM159.363 52V48.8945C158.608 50.0013 157.612 50.8737 156.375 51.5117C155.151 52.1497 153.855 52.4688 152.488 52.4688C151.095 52.4688 149.845 52.1628 148.738 51.5508C147.632 50.9388 146.831 50.0794 146.336 48.9727C145.841 47.8659 145.594 46.3359 145.594 44.3828V31.2578H151.082V40.7891C151.082 43.7057 151.18 45.4961 151.375 46.1602C151.583 46.8112 151.954 47.332 152.488 47.7227C153.022 48.1003 153.699 48.2891 154.52 48.2891C155.457 48.2891 156.297 48.0352 157.039 47.5273C157.781 47.0065 158.289 46.3685 158.562 45.6133C158.836 44.8451 158.973 42.9766 158.973 40.0078V31.2578H164.461V52H159.363ZM179.676 31.2578V35.6328H175.926V43.9922C175.926 45.6849 175.958 46.6745 176.023 46.9609C176.102 47.2344 176.264 47.4622 176.512 47.6445C176.772 47.8268 177.085 47.918 177.449 47.918C177.957 47.918 178.693 47.7422 179.656 47.3906L180.125 51.6484C178.849 52.1953 177.404 52.4688 175.789 52.4688C174.799 52.4688 173.908 52.306 173.113 51.9805C172.319 51.6419 171.733 51.2122 171.355 50.6914C170.991 50.1576 170.737 49.4414 170.594 48.543C170.477 47.9049 170.418 46.6159 170.418 44.6758V35.6328H167.898V31.2578H170.418V27.1367L175.926 23.9336V31.2578H179.676Z" fill="black"/>
<path d="M126.789 161.038C126.124 163.364 127.471 165.788 129.796 166.453C132.122 167.118 134.547 165.771 135.211 163.445L126.789 161.038ZM181 95L181 99.38L181 95ZM249.966 197.155L262.361 148.122L213.699 161.904L249.966 197.155ZM131 162.241C135.211 163.445 135.211 163.446 135.211 163.446C135.211 163.446 135.211 163.446 135.211 163.445C135.212 163.445 135.212 163.443 135.213 163.44C135.215 163.434 135.217 163.424 135.221 163.41C135.229 163.383 135.242 163.339 135.259 163.281C135.294 163.163 135.346 162.985 135.417 162.749C135.559 162.277 135.774 161.577 136.059 160.681C136.63 158.889 137.483 156.317 138.602 153.226C140.845 147.032 144.138 138.812 148.351 130.625C152.584 122.4 157.64 114.423 163.341 108.56C169.073 102.666 174.983 99.38 181 99.38L181 95L181 90.62C171.625 90.62 163.59 95.7388 157.061 102.453C150.502 109.198 144.981 118.031 140.562 126.616C136.123 135.24 132.688 143.83 130.365 150.244C129.202 153.457 128.313 156.138 127.712 158.023C127.412 158.966 127.184 159.71 127.029 160.224C126.952 160.48 126.893 160.679 126.853 160.816C126.833 160.885 126.817 160.938 126.807 160.975C126.801 160.993 126.797 161.008 126.794 161.019C126.793 161.024 126.791 161.028 126.79 161.031C126.79 161.033 126.79 161.034 126.789 161.035C126.789 161.037 126.789 161.038 131 162.241ZM181 95L181 99.38C194.298 99.38 205.191 106.932 214.247 118.73C223.316 130.547 230.092 146.079 235.078 160.64L239.222 159.221L243.366 157.802C238.264 142.904 231.119 126.326 221.196 113.396C211.258 100.449 198.083 90.62 181 90.62L181 95Z" fill="#B92429"/>
<path d="M51 134.655V245H182.034V134.655" stroke="black" stroke-width="18.9655" stroke-linecap="round"/>
</svg>
