<svg width="312" height="312" viewBox="0 0 312 312" fill="none" xmlns="http://www.w3.org/2000/svg">
<rect x="6" y="6" width="300" height="300" rx="20" fill="#E2FFE2"/>
<rect x="6" y="6" width="300" height="300" rx="20" stroke="#1ADF1D" stroke-width="11"/>
<path d="M125.988 47.3359C125.988 45.513 126.438 43.7487 127.336 42.043C128.234 40.3372 129.504 39.0352 131.145 38.1367C132.798 37.2383 134.641 36.7891 136.672 36.7891C139.81 36.7891 142.382 37.8112 144.387 39.8555C146.392 41.8867 147.395 44.4583 147.395 47.5703C147.395 50.7083 146.379 53.3125 144.348 55.3828C142.329 57.4401 139.784 58.4688 136.711 58.4688C134.81 58.4688 132.993 58.0391 131.262 57.1797C129.543 56.3203 128.234 55.0638 127.336 53.4102C126.438 51.7435 125.988 49.7188 125.988 47.3359ZM131.613 47.6289C131.613 49.6862 132.102 51.2617 133.078 52.3555C134.055 53.4492 135.259 53.9961 136.691 53.9961C138.124 53.9961 139.322 53.4492 140.285 52.3555C141.262 51.2617 141.75 49.6732 141.75 47.5898C141.75 45.5586 141.262 43.9961 140.285 42.9023C139.322 41.8086 138.124 41.2617 136.691 41.2617C135.259 41.2617 134.055 41.8086 133.078 42.9023C132.102 43.9961 131.613 45.5716 131.613 47.6289ZM165.363 58V54.8945C164.608 56.0013 163.612 56.8737 162.375 57.5117C161.151 58.1497 159.855 58.4688 158.488 58.4688C157.095 58.4688 155.845 58.1628 154.738 57.5508C153.632 56.9388 152.831 56.0794 152.336 54.9727C151.841 53.8659 151.594 52.3359 151.594 50.3828V37.2578H157.082V46.7891C157.082 49.7057 157.18 51.4961 157.375 52.1602C157.583 52.8112 157.954 53.332 158.488 53.7227C159.022 54.1003 159.699 54.2891 160.52 54.2891C161.457 54.2891 162.297 54.0352 163.039 53.5273C163.781 53.0065 164.289 52.3685 164.562 51.6133C164.836 50.8451 164.973 48.9766 164.973 46.0078V37.2578H170.461V58H165.363ZM185.676 37.2578V41.6328H181.926V49.9922C181.926 51.6849 181.958 52.6745 182.023 52.9609C182.102 53.2344 182.264 53.4622 182.512 53.6445C182.772 53.8268 183.085 53.918 183.449 53.918C183.957 53.918 184.693 53.7422 185.656 53.3906L186.125 57.6484C184.849 58.1953 183.404 58.4688 181.789 58.4688C180.799 58.4688 179.908 58.306 179.113 57.9805C178.319 57.6419 177.733 57.2122 177.355 56.6914C176.991 56.1576 176.737 55.4414 176.594 54.543C176.477 53.9049 176.418 52.6159 176.418 50.6758V41.6328H173.898V37.2578H176.418V33.1367L181.926 29.9336V37.2578H185.676Z" fill="black"/>
<path d="M132.789 167.038C132.124 169.364 133.471 171.788 135.796 172.453C138.122 173.118 140.547 171.771 141.211 169.445L132.789 167.038ZM187 101L187 105.38L187 101ZM255.966 203.155L268.361 154.122L219.699 167.904L255.966 203.155ZM137 168.241C141.211 169.445 141.211 169.446 141.211 169.446C141.211 169.446 141.211 169.446 141.211 169.445C141.212 169.445 141.212 169.443 141.213 169.44C141.215 169.434 141.217 169.424 141.221 169.41C141.229 169.383 141.242 169.339 141.259 169.281C141.294 169.163 141.346 168.985 141.417 168.749C141.559 168.277 141.774 167.577 142.059 166.681C142.63 164.889 143.483 162.317 144.602 159.226C146.845 153.032 150.138 144.812 154.351 136.625C158.584 128.4 163.64 120.423 169.341 114.56C175.073 108.666 180.983 105.38 187 105.38L187 96.62C177.625 96.62 169.59 101.739 163.061 108.453C156.502 115.198 150.981 124.031 146.562 132.616C142.123 141.24 138.688 149.83 136.365 156.244C135.202 159.457 134.313 162.138 133.712 164.023C133.412 164.966 133.184 165.71 133.029 166.224C132.952 166.48 132.893 166.679 132.853 166.816C132.833 166.885 132.817 166.938 132.807 166.975C132.801 166.993 132.797 167.008 132.794 167.019C132.793 167.024 132.791 167.028 132.79 167.031C132.79 167.033 132.79 167.034 132.789 167.035C132.789 167.037 132.789 167.038 137 168.241ZM187 105.38C200.298 105.38 211.191 112.932 220.247 124.73C229.316 136.547 236.092 152.079 241.078 166.64L249.366 163.802C244.264 148.904 237.119 132.326 227.196 119.396C217.258 106.449 204.083 96.62 187 96.62L187 105.38Z" fill="#B92429"/>
<path d="M57 140.655V251H188.034V140.655" stroke="black" stroke-width="18.9655" stroke-linecap="round"/>
</svg>
