<svg width="300" height="300" viewBox="0 0 300 300" fill="none" xmlns="http://www.w3.org/2000/svg">
<path d="M112.156 31.2578H117.273V34.3047C117.938 33.263 118.836 32.4167 119.969 31.7656C121.102 31.1146 122.358 30.7891 123.738 30.7891C126.147 30.7891 128.191 31.7331 129.871 33.6211C131.551 35.5091 132.391 38.1393 132.391 41.5117C132.391 44.9753 131.544 47.6706 129.852 49.5977C128.159 51.5117 126.108 52.4688 123.699 52.4688C122.553 52.4688 121.512 52.2409 120.574 51.7852C119.65 51.3294 118.673 50.5482 117.645 49.4414V59.8906H112.156V31.2578ZM117.586 41.2773C117.586 43.6081 118.048 45.3333 118.973 46.4531C119.897 47.5599 121.023 48.1133 122.352 48.1133C123.628 48.1133 124.689 47.6055 125.535 46.5898C126.382 45.5612 126.805 43.8815 126.805 41.5508C126.805 39.3763 126.368 37.7617 125.496 36.707C124.624 35.6523 123.543 35.125 122.254 35.125C120.913 35.125 119.799 35.6458 118.914 36.6875C118.029 37.7161 117.586 39.2461 117.586 41.2773ZM136.766 52V23.3672H142.254V52H136.766ZM152 37.5859L147.02 36.6875C147.579 34.6823 148.543 33.1979 149.91 32.2344C151.277 31.2708 153.309 30.7891 156.004 30.7891C158.452 30.7891 160.275 31.082 161.473 31.668C162.671 32.2409 163.51 32.9766 163.992 33.875C164.487 34.7604 164.734 36.3945 164.734 38.7773L164.676 45.1836C164.676 47.0065 164.76 48.3542 164.93 49.2266C165.112 50.0859 165.444 51.0104 165.926 52H160.496C160.353 51.6354 160.177 51.0951 159.969 50.3789C159.878 50.0534 159.812 49.8385 159.773 49.7344C158.836 50.6458 157.833 51.3294 156.766 51.7852C155.698 52.2409 154.559 52.4688 153.348 52.4688C151.212 52.4688 149.526 51.8893 148.289 50.7305C147.065 49.5716 146.453 48.1068 146.453 46.3359C146.453 45.1641 146.733 44.1224 147.293 43.2109C147.853 42.2865 148.634 41.5833 149.637 41.1016C150.652 40.6068 152.111 40.1771 154.012 39.8125C156.577 39.3307 158.354 38.8815 159.344 38.4648V37.918C159.344 36.8633 159.083 36.1146 158.562 35.6719C158.042 35.2161 157.059 34.9883 155.613 34.9883C154.637 34.9883 153.875 35.1836 153.328 35.5742C152.781 35.9518 152.339 36.6224 152 37.5859ZM159.344 42.0391C158.641 42.2734 157.527 42.5534 156.004 42.8789C154.48 43.2044 153.484 43.5234 153.016 43.8359C152.299 44.3438 151.941 44.9883 151.941 45.7695C151.941 46.5378 152.228 47.2018 152.801 47.7617C153.374 48.3216 154.103 48.6016 154.988 48.6016C155.978 48.6016 156.922 48.276 157.82 47.625C158.484 47.1302 158.921 46.5247 159.129 45.8086C159.272 45.3398 159.344 44.4479 159.344 43.1328V42.0391ZM167.566 31.2578H173.406L178.367 45.9844L183.211 31.2578H188.895L181.57 51.2188L180.262 54.832C179.78 56.043 179.318 56.9674 178.875 57.6055C178.445 58.2435 177.944 58.7578 177.371 59.1484C176.811 59.5521 176.115 59.8646 175.281 60.0859C174.461 60.3073 173.53 60.418 172.488 60.418C171.434 60.418 170.398 60.3073 169.383 60.0859L168.895 55.7891C169.754 55.9583 170.529 56.043 171.219 56.043C172.495 56.043 173.439 55.6654 174.051 54.9102C174.663 54.168 175.132 53.2174 175.457 52.0586L167.566 31.2578Z" fill="black"/>
<path d="M93.0293 89.1446C103.862 91.6054 110.787 103.603 107.892 116.347C104.997 129.092 93.5674 136.921 82.7351 134.46C71.9028 131.999 64.9774 120.001 67.8726 107.256C70.768 94.5116 82.1971 86.6839 93.0293 89.1446Z" fill="#BC8166" stroke="black" stroke-width="4.34384"/>
<path d="M85.1027 135.755C83.8358 138.108 82.062 145.529 85.1027 156.388M85.1027 156.388C88.1434 167.248 96.1434 186.252 99.7633 194.397M85.1027 156.388L128.541 163.447L131.256 201.999M85.1027 156.388L53.61 171.592L22.1172 152.588M99.7633 194.397L124.74 223.175C141.211 221.908 174.695 220.134 176.866 223.175C179.038 226.216 183.925 236.025 186.097 240.55M99.7633 194.397L73.7003 227.519L106.822 264.984L81.845 271.5" stroke="black" stroke-width="4.34384" stroke-linecap="round"/>
<ellipse cx="17.9479" cy="148.919" rx="4.30696" ry="9.39334" transform="rotate(-49.6621 17.9479 148.919)" fill="black"/>
<ellipse cx="131.859" cy="201.555" rx="4.30696" ry="9.39334" transform="rotate(-7.45576 131.859 201.555)" fill="black"/>
<path d="M206.618 72.313C215.472 71.7225 223.515 79.3242 224.21 89.7415C224.904 100.159 217.943 108.762 209.089 109.353C200.235 109.943 192.193 102.341 191.498 91.9233C190.803 81.506 197.764 72.9036 206.618 72.313Z" fill="#BC8166" stroke="black" stroke-width="3.47008"/>
<path d="M209.649 110.778C209.467 112.963 209.315 115.876 209.284 119.062M222.195 156.725C220.801 153.941 216.984 146.942 212.863 141.221C209.901 137.109 209.202 127.196 209.284 119.062M222.195 156.725L233.593 191.8L262.438 204.696L264.274 222.091M222.195 156.725L197.742 190.638L215.576 218.987L207.195 228.117M209.284 119.062L241.985 125.504L256.412 147.616M209.284 119.062L180.699 128.126L151.195 114.201" stroke="black" stroke-width="4.37306" stroke-linecap="round"/>
<ellipse cx="256.979" cy="148.607" rx="4.33593" ry="7.10622" transform="rotate(-25.6749 256.979 148.607)" fill="black"/>
<ellipse cx="149.212" cy="112.712" rx="4.33593" ry="7.10622" transform="rotate(-49.1688 149.212 112.712)" fill="black"/>
</svg>
