<svg width="312" height="312" viewBox="0 0 312 312" fill="none" xmlns="http://www.w3.org/2000/svg">
<rect x="6" y="6" width="300" height="300" rx="20" fill="#FFE3FF"/>
<rect x="6" y="6" width="300" height="300" rx="20" stroke="#FE05FC" stroke-width="11"/>
<path d="M118.156 37.2578H123.273V40.3047C123.938 39.263 124.836 38.4167 125.969 37.7656C127.102 37.1146 128.358 36.7891 129.738 36.7891C132.147 36.7891 134.191 37.7331 135.871 39.6211C137.551 41.5091 138.391 44.1393 138.391 47.5117C138.391 50.9753 137.544 53.6706 135.852 55.5977C134.159 57.5117 132.108 58.4688 129.699 58.4688C128.553 58.4688 127.512 58.2409 126.574 57.7852C125.65 57.3294 124.673 56.5482 123.645 55.4414V65.8906H118.156V37.2578ZM123.586 47.2773C123.586 49.6081 124.048 51.3333 124.973 52.4531C125.897 53.5599 127.023 54.1133 128.352 54.1133C129.628 54.1133 130.689 53.6055 131.535 52.5898C132.382 51.5612 132.805 49.8815 132.805 47.5508C132.805 45.3763 132.368 43.7617 131.496 42.707C130.624 41.6523 129.543 41.125 128.254 41.125C126.913 41.125 125.799 41.6458 124.914 42.6875C124.029 43.7161 123.586 45.2461 123.586 47.2773ZM142.766 58V29.3672H148.254V58H142.766ZM158 43.5859L153.02 42.6875C153.579 40.6823 154.543 39.1979 155.91 38.2344C157.277 37.2708 159.309 36.7891 162.004 36.7891C164.452 36.7891 166.275 37.082 167.473 37.668C168.671 38.2409 169.51 38.9766 169.992 39.875C170.487 40.7604 170.734 42.3945 170.734 44.7773L170.676 51.1836C170.676 53.0065 170.76 54.3542 170.93 55.2266C171.112 56.0859 171.444 57.0104 171.926 58H166.496C166.353 57.6354 166.177 57.0951 165.969 56.3789C165.878 56.0534 165.812 55.8385 165.773 55.7344C164.836 56.6458 163.833 57.3294 162.766 57.7852C161.698 58.2409 160.559 58.4688 159.348 58.4688C157.212 58.4688 155.526 57.8893 154.289 56.7305C153.065 55.5716 152.453 54.1068 152.453 52.3359C152.453 51.1641 152.733 50.1224 153.293 49.2109C153.853 48.2865 154.634 47.5833 155.637 47.1016C156.652 46.6068 158.111 46.1771 160.012 45.8125C162.577 45.3307 164.354 44.8815 165.344 44.4648V43.918C165.344 42.8633 165.083 42.1146 164.562 41.6719C164.042 41.2161 163.059 40.9883 161.613 40.9883C160.637 40.9883 159.875 41.1836 159.328 41.5742C158.781 41.9518 158.339 42.6224 158 43.5859ZM165.344 48.0391C164.641 48.2734 163.527 48.5534 162.004 48.8789C160.48 49.2044 159.484 49.5234 159.016 49.8359C158.299 50.3438 157.941 50.9883 157.941 51.7695C157.941 52.5378 158.228 53.2018 158.801 53.7617C159.374 54.3216 160.103 54.6016 160.988 54.6016C161.978 54.6016 162.922 54.276 163.82 53.625C164.484 53.1302 164.921 52.5247 165.129 51.8086C165.272 51.3398 165.344 50.4479 165.344 49.1328V48.0391ZM173.566 37.2578H179.406L184.367 51.9844L189.211 37.2578H194.895L187.57 57.2188L186.262 60.832C185.78 62.043 185.318 62.9674 184.875 63.6055C184.445 64.2435 183.944 64.7578 183.371 65.1484C182.811 65.5521 182.115 65.8646 181.281 66.0859C180.461 66.3073 179.53 66.418 178.488 66.418C177.434 66.418 176.398 66.3073 175.383 66.0859L174.895 61.7891C175.754 61.9583 176.529 62.043 177.219 62.043C178.495 62.043 179.439 61.6654 180.051 60.9102C180.663 60.168 181.132 59.2174 181.457 58.0586L173.566 37.2578Z" fill="black"/>
<path d="M113.892 122.348C110.997 135.093 99.5673 142.92 88.7349 140.46C77.9026 137.999 70.9771 126.001 73.8723 113.257C76.7675 100.512 88.1968 92.6839 99.0291 95.1447C109.861 97.6055 116.787 109.603 113.892 122.348Z" fill="#BC8166" stroke="black" stroke-width="4.34384"/>
<path d="M91.1032 141.755C89.8363 144.108 88.0625 151.529 91.1032 162.388M91.1032 162.388C94.1439 173.248 102.144 192.252 105.764 200.397M91.1032 162.388L134.542 169.447L137.257 207.999M91.1032 162.388L59.6105 177.592L28.1177 158.587M105.764 200.397L130.741 229.175C147.211 227.908 180.695 226.134 182.867 229.175C185.039 232.215 189.926 242.025 192.098 246.55M105.764 200.397L79.7008 233.519L112.823 270.984L87.8455 277.5" stroke="black" stroke-width="4.34384" stroke-linecap="round"/>
<ellipse cx="23.9479" cy="154.919" rx="4.30696" ry="9.39334" transform="rotate(-49.6621 23.9479 154.919)" fill="black"/>
<ellipse cx="137.859" cy="207.555" rx="4.30696" ry="9.39334" transform="rotate(-7.45576 137.859 207.555)" fill="black"/>
<path d="M230.209 95.7418C230.904 106.159 223.943 114.762 215.089 115.353C206.234 115.943 198.192 108.341 197.498 97.9235C196.803 87.5061 203.764 78.9032 212.618 78.3127C221.472 77.7222 229.514 85.3243 230.209 95.7418Z" fill="#BC8166" stroke="black" stroke-width="3.47008"/>
<path d="M215.649 116.778C215.467 118.963 215.316 121.876 215.284 125.062M228.195 162.726C226.802 159.941 222.985 152.942 218.863 147.221C215.901 143.11 215.203 133.197 215.284 125.062M228.195 162.726L239.593 197.8L268.438 210.696L270.275 228.091M228.195 162.726L203.742 196.638L221.576 224.987L213.195 234.117M215.284 125.062L247.985 131.504L262.412 153.617M215.284 125.062L186.699 134.126L157.196 120.201" stroke="black" stroke-width="4.37306" stroke-linecap="round"/>
<ellipse cx="262.979" cy="154.607" rx="4.33593" ry="7.10622" transform="rotate(-25.6749 262.979 154.607)" fill="black"/>
<ellipse cx="155.212" cy="118.712" rx="4.33593" ry="7.10622" transform="rotate(-49.1688 155.212 118.712)" fill="black"/>
</svg>
