<svg width="300" height="300" viewBox="0 0 300 300" fill="none" xmlns="http://www.w3.org/2000/svg">
<path d="M121.102 31.2578H126.219V34.3047C126.883 33.263 127.781 32.4167 128.914 31.7656C130.047 31.1146 131.303 30.7891 132.684 30.7891C135.092 30.7891 137.137 31.7331 138.816 33.6211C140.496 35.5091 141.336 38.1393 141.336 41.5117C141.336 44.9753 140.49 47.6706 138.797 49.5977C137.104 51.5117 135.053 52.4688 132.645 52.4688C131.499 52.4688 130.457 52.2409 129.52 51.7852C128.595 51.3294 127.618 50.5482 126.59 49.4414V59.8906H121.102V31.2578ZM126.531 41.2773C126.531 43.6081 126.993 45.3333 127.918 46.4531C128.842 47.5599 129.969 48.1133 131.297 48.1133C132.573 48.1133 133.634 47.6055 134.48 46.5898C135.327 45.5612 135.75 43.8815 135.75 41.5508C135.75 39.3763 135.314 37.7617 134.441 36.707C133.569 35.6523 132.488 35.125 131.199 35.125C129.858 35.125 128.745 35.6458 127.859 36.6875C126.974 37.7161 126.531 39.2461 126.531 41.2773ZM159.363 52V48.8945C158.608 50.0013 157.612 50.8737 156.375 51.5117C155.151 52.1497 153.855 52.4688 152.488 52.4688C151.095 52.4688 149.845 52.1628 148.738 51.5508C147.632 50.9388 146.831 50.0794 146.336 48.9727C145.841 47.8659 145.594 46.3359 145.594 44.3828V31.2578H151.082V40.7891C151.082 43.7057 151.18 45.4961 151.375 46.1602C151.583 46.8112 151.954 47.332 152.488 47.7227C153.022 48.1003 153.699 48.2891 154.52 48.2891C155.457 48.2891 156.297 48.0352 157.039 47.5273C157.781 47.0065 158.289 46.3685 158.562 45.6133C158.836 44.8451 158.973 42.9766 158.973 40.0078V31.2578H164.461V52H159.363ZM179.676 31.2578V35.6328H175.926V43.9922C175.926 45.6849 175.958 46.6745 176.023 46.9609C176.102 47.2344 176.264 47.4622 176.512 47.6445C176.772 47.8268 177.085 47.918 177.449 47.918C177.957 47.918 178.693 47.7422 179.656 47.3906L180.125 51.6484C178.849 52.1953 177.404 52.4688 175.789 52.4688C174.799 52.4688 173.908 52.306 173.113 51.9805C172.319 51.6419 171.733 51.2122 171.355 50.6914C170.991 50.1576 170.737 49.4414 170.594 48.543C170.477 47.9049 170.418 46.6159 170.418 44.6758V35.6328H167.898V31.2578H170.418V27.1367L175.926 23.9336V31.2578H179.676Z" fill="black"/>
<path d="M115.855 82.2017C140.216 86.0425 156.915 111.431 152.504 139.407C148.092 167.384 124.393 186.401 100.032 182.561C75.6718 178.719 58.9741 153.332 63.3848 125.356C67.7958 97.3797 91.4949 78.3611 115.855 82.2017Z" fill="#BC8166" stroke="black" stroke-width="4.87675"/>
<path d="M107.035 162.335C107.035 162.335 110.766 168.355 119.71 170.782C128.653 173.209 133.338 171.477 137.245 169.45" stroke="black" stroke-width="5.58965" stroke-linecap="round"/>
<path d="M136.86 118.889C138.504 119.491 139.038 121.034 138.66 122.067C138.282 123.1 136.877 123.932 135.233 123.33C133.589 122.728 133.054 121.185 133.432 120.152C133.811 119.119 135.216 118.286 136.86 118.889Z" fill="black" stroke="black" stroke-width="5.87382"/>
<path d="M91.5 181C93.1667 201.833 91.6 252.2 72 287" stroke="black" stroke-width="5" stroke-linecap="round"/>
<path d="M92 200L126 256L155 252.5" stroke="black" stroke-width="5" stroke-linecap="round"/>
<rect x="147.123" y="208.667" width="52.64" height="52.64" transform="rotate(-18.3175 147.123 208.667)" fill="#B92429" stroke="black" stroke-width="3.36"/>
<path d="M151.801 232.867C149.673 234.995 149.141 244.836 151.801 251.485C154.461 254.145 154.461 256.805 159.78 259.464C165.1 262.124 166.43 260.794 171.749 259.464C177.069 258.135 175.739 258.135 179.728 256.805C183.513 255.543 187.708 254.145 186.378 251.485C185.048 248.825 179.728 251.196 178.398 251.485C177.069 251.775 173.079 254.145 171.749 251.485C170.908 249.803 175.739 248.825 179.728 246.166C183.227 243.833 186.237 241.895 185.048 239.516C183.718 236.856 178.118 239.657 175.739 240.846L175.739 240.846C170.419 243.506 170.419 246.166 166.43 242.176C165.489 241.236 169.089 239.516 171.749 236.856C174.409 234.197 177.069 231.537 175.739 228.877C174.409 226.217 169.089 230.207 166.43 232.867C163.77 235.527 157.961 239.868 157.12 238.186C155.79 235.527 161.661 232.088 159.78 230.207C157.12 227.547 154.461 230.207 151.801 232.867L151.801 232.867Z" fill="black" stroke="black" stroke-width="2.65976" stroke-linecap="round"/>
<rect x="127" y="283" width="136" height="10" fill="#8C8C8A"/>
<path d="M241.5 283L229.809 262.75L253.191 262.75L241.5 283Z" fill="black"/>
<path d="M241.5 264.5C241.5 257.5 239.5 249.4 235 245.5C229 240.3 224.5 242 217.5 242" stroke="black" stroke-width="4" stroke-linecap="round"/>
</svg>
