<svg width="312" height="312" viewBox="0 0 312 312" fill="none" xmlns="http://www.w3.org/2000/svg">
<rect x="6" y="6" width="300" height="300" rx="20" fill="#FFE3FF"/>
<rect x="6" y="6" width="300" height="300" rx="20" stroke="#FE05FC" stroke-width="11"/>
<path d="M127.102 37.2578H132.219V40.3047C132.883 39.263 133.781 38.4167 134.914 37.7656C136.047 37.1146 137.303 36.7891 138.684 36.7891C141.092 36.7891 143.137 37.7331 144.816 39.6211C146.496 41.5091 147.336 44.1393 147.336 47.5117C147.336 50.9753 146.49 53.6706 144.797 55.5977C143.104 57.5117 141.053 58.4688 138.645 58.4688C137.499 58.4688 136.457 58.2409 135.52 57.7852C134.595 57.3294 133.618 56.5482 132.59 55.4414V65.8906H127.102V37.2578ZM132.531 47.2773C132.531 49.6081 132.993 51.3333 133.918 52.4531C134.842 53.5599 135.969 54.1133 137.297 54.1133C138.573 54.1133 139.634 53.6055 140.48 52.5898C141.327 51.5612 141.75 49.8815 141.75 47.5508C141.75 45.3763 141.314 43.7617 140.441 42.707C139.569 41.6523 138.488 41.125 137.199 41.125C135.858 41.125 134.745 41.6458 133.859 42.6875C132.974 43.7161 132.531 45.2461 132.531 47.2773ZM165.363 58V54.8945C164.608 56.0013 163.612 56.8737 162.375 57.5117C161.151 58.1497 159.855 58.4688 158.488 58.4688C157.095 58.4688 155.845 58.1628 154.738 57.5508C153.632 56.9388 152.831 56.0794 152.336 54.9727C151.841 53.8659 151.594 52.3359 151.594 50.3828V37.2578H157.082V46.7891C157.082 49.7057 157.18 51.4961 157.375 52.1602C157.583 52.8112 157.954 53.332 158.488 53.7227C159.022 54.1003 159.699 54.2891 160.52 54.2891C161.457 54.2891 162.297 54.0352 163.039 53.5273C163.781 53.0065 164.289 52.3685 164.562 51.6133C164.836 50.8451 164.973 48.9766 164.973 46.0078V37.2578H170.461V58H165.363ZM185.676 37.2578V41.6328H181.926V49.9922C181.926 51.6849 181.958 52.6745 182.023 52.9609C182.102 53.2344 182.264 53.4622 182.512 53.6445C182.772 53.8268 183.085 53.918 183.449 53.918C183.957 53.918 184.693 53.7422 185.656 53.3906L186.125 57.6484C184.849 58.1953 183.404 58.4688 181.789 58.4688C180.799 58.4688 179.908 58.306 179.113 57.9805C178.319 57.6419 177.733 57.2122 177.355 56.6914C176.991 56.1576 176.737 55.4414 176.594 54.543C176.477 53.9049 176.418 52.6159 176.418 50.6758V41.6328H173.898V37.2578H176.418V33.1367L181.926 29.9336V37.2578H185.676Z" fill="black"/>
<path d="M158.503 145.407C154.092 173.383 130.393 192.402 106.032 188.561C81.6716 184.72 64.9736 159.332 69.3845 131.356C73.7955 103.379 97.4949 84.3608 121.856 88.2017C146.216 92.0426 162.914 117.43 158.503 145.407Z" fill="#BC8166" stroke="black" stroke-width="4.87675"/>
<path d="M113.035 168.335C113.035 168.335 116.766 174.355 125.71 176.782C134.653 179.209 139.338 177.477 143.245 175.45" stroke="black" stroke-width="5.58965" stroke-linecap="round"/>
<path d="M144.66 128.067C144.282 129.1 142.878 129.933 141.233 129.33C139.589 128.728 139.055 127.185 139.433 126.152C139.811 125.119 141.216 124.287 142.86 124.889C144.505 125.491 145.039 127.034 144.66 128.067Z" fill="black" stroke="black" stroke-width="5.87382"/>
<path d="M97.5 187C99.1667 207.833 97.6 258.2 78 293" stroke="black" stroke-width="5" stroke-linecap="round"/>
<path d="M98 206L132 262L161 258.5" stroke="black" stroke-width="5" stroke-linecap="round"/>
<rect x="153.123" y="214.667" width="52.64" height="52.64" transform="rotate(-18.3175 153.123 214.667)" fill="#B92429" stroke="black" stroke-width="3.36"/>
<path d="M157.801 238.867C155.673 240.995 155.141 250.836 157.801 257.485C160.461 260.145 160.461 262.805 165.78 265.464C171.1 268.124 172.43 266.794 177.749 265.464C183.069 264.135 181.739 264.135 185.728 262.805C189.513 261.543 193.708 260.145 192.378 257.485C191.048 254.825 185.728 257.196 184.398 257.485C183.069 257.775 179.079 260.145 177.749 257.485C176.908 255.803 181.739 254.825 185.728 252.166C189.227 249.833 192.237 247.895 191.048 245.516C189.718 242.856 184.118 245.657 181.739 246.846L181.739 246.846C176.419 249.506 176.419 252.166 172.43 248.176C171.489 247.236 175.089 245.516 177.749 242.856C180.409 240.197 183.069 237.537 181.739 234.877C180.409 232.217 175.089 236.207 172.43 238.867C169.77 241.527 163.961 245.868 163.12 244.186C161.79 241.527 167.661 238.088 165.78 236.207C163.12 233.547 160.461 236.207 157.801 238.867L157.801 238.867Z" fill="black" stroke="black" stroke-width="2.65976" stroke-linecap="round"/>
<rect x="133" y="289" width="136" height="10" fill="#8C8C8A"/>
<path d="M247.5 289L235.809 268.75L259.191 268.75L247.5 289Z" fill="black"/>
<path d="M247.5 270.5C247.5 263.5 245.5 255.4 241 251.5C235 246.3 230.5 248 223.5 248" stroke="black" stroke-width="4" stroke-linecap="round"/>
</svg>
