<svg width="300" height="300" viewBox="0 0 300 300" fill="none" xmlns="http://www.w3.org/2000/svg">
<g clip-path="url(#clip0_28_704)">
<path d="M117.039 46.082L122.547 45.2422C122.781 46.3099 123.257 47.1237 123.973 47.6836C124.689 48.2305 125.691 48.5039 126.98 48.5039C128.4 48.5039 129.467 48.2435 130.184 47.7227C130.665 47.3581 130.906 46.8698 130.906 46.2578C130.906 45.8411 130.776 45.4961 130.516 45.2227C130.242 44.9622 129.63 44.7214 128.68 44.5C124.253 43.5234 121.447 42.6315 120.262 41.8242C118.621 40.7044 117.801 39.1484 117.801 37.1562C117.801 35.3594 118.51 33.849 119.93 32.625C121.349 31.401 123.549 30.7891 126.531 30.7891C129.37 30.7891 131.479 31.2513 132.859 32.1758C134.24 33.1003 135.19 34.4674 135.711 36.2773L130.535 37.2344C130.314 36.4271 129.891 35.8086 129.266 35.3789C128.654 34.9492 127.775 34.7344 126.629 34.7344C125.184 34.7344 124.148 34.9362 123.523 35.3398C123.107 35.6263 122.898 35.9974 122.898 36.4531C122.898 36.8438 123.081 37.1758 123.445 37.4492C123.94 37.8138 125.646 38.3281 128.562 38.9922C131.492 39.6562 133.536 40.4701 134.695 41.4336C135.841 42.4102 136.414 43.7708 136.414 45.5156C136.414 47.4167 135.62 49.0508 134.031 50.418C132.443 51.7852 130.092 52.4688 126.98 52.4688C124.155 52.4688 121.915 51.8958 120.262 50.75C118.621 49.6042 117.547 48.0482 117.039 46.082ZM145.34 37.5859L140.359 36.6875C140.919 34.6823 141.883 33.1979 143.25 32.2344C144.617 31.2708 146.648 30.7891 149.344 30.7891C151.792 30.7891 153.615 31.082 154.812 31.668C156.01 32.2409 156.85 32.9766 157.332 33.875C157.827 34.7604 158.074 36.3945 158.074 38.7773L158.016 45.1836C158.016 47.0065 158.1 48.3542 158.27 49.2266C158.452 50.0859 158.784 51.0104 159.266 52H153.836C153.693 51.6354 153.517 51.0951 153.309 50.3789C153.217 50.0534 153.152 49.8385 153.113 49.7344C152.176 50.6458 151.173 51.3294 150.105 51.7852C149.038 52.2409 147.898 52.4688 146.688 52.4688C144.552 52.4688 142.866 51.8893 141.629 50.7305C140.405 49.5716 139.793 48.1068 139.793 46.3359C139.793 45.1641 140.073 44.1224 140.633 43.2109C141.193 42.2865 141.974 41.5833 142.977 41.1016C143.992 40.6068 145.451 40.1771 147.352 39.8125C149.917 39.3307 151.694 38.8815 152.684 38.4648V37.918C152.684 36.8633 152.423 36.1146 151.902 35.6719C151.382 35.2161 150.398 34.9883 148.953 34.9883C147.977 34.9883 147.215 35.1836 146.668 35.5742C146.121 35.9518 145.678 36.6224 145.34 37.5859ZM152.684 42.0391C151.98 42.2734 150.867 42.5534 149.344 42.8789C147.82 43.2044 146.824 43.5234 146.355 43.8359C145.639 44.3438 145.281 44.9883 145.281 45.7695C145.281 46.5378 145.568 47.2018 146.141 47.7617C146.714 48.3216 147.443 48.6016 148.328 48.6016C149.318 48.6016 150.262 48.276 151.16 47.625C151.824 47.1302 152.26 46.5247 152.469 45.8086C152.612 45.3398 152.684 44.4479 152.684 43.1328V42.0391ZM160.906 31.2578H166.746L171.707 45.9844L176.551 31.2578H182.234L174.91 51.2188L173.602 54.832C173.12 56.043 172.658 56.9674 172.215 57.6055C171.785 58.2435 171.284 58.7578 170.711 59.1484C170.151 59.5521 169.454 59.8646 168.621 60.0859C167.801 60.3073 166.87 60.418 165.828 60.418C164.773 60.418 163.738 60.3073 162.723 60.0859L162.234 55.7891C163.094 55.9583 163.868 56.043 164.559 56.043C165.835 56.043 166.779 55.6654 167.391 54.9102C168.003 54.168 168.471 53.2174 168.797 52.0586L160.906 31.2578Z" fill="black"/>
<path d="M97.6149 80.0506C139.644 75.2954 178.495 109.629 183.9 157.393C189.304 205.156 159.107 247.304 117.077 252.059C75.0479 256.815 36.196 222.48 30.7916 174.717C25.3874 126.953 55.5856 84.8061 97.6149 80.0506Z" fill="#BC8166" stroke="black" stroke-width="4.87675"/>
<path d="M95.52 138.657C100.353 140.428 102.595 145.313 101.134 149.302C99.6735 153.291 94.8064 155.573 89.9731 153.803C85.1399 152.032 82.898 147.146 84.3588 143.158C85.8197 139.169 90.6868 136.887 95.52 138.657Z" fill="black" stroke="black" stroke-width="5.87382"/>
<path d="M152.247 134.294C157.08 136.064 159.322 140.95 157.861 144.938C156.4 148.927 151.533 151.209 146.7 149.439C141.866 147.669 139.625 142.783 141.085 138.794C142.546 134.806 147.413 132.524 152.247 134.294Z" fill="black" stroke="black" stroke-width="5.87382"/>
<path d="M130.038 198.905C147.885 196.17 152.212 185.81 157.08 187.964C161.947 190.118 159.704 237.713 124.629 236.654C95.6404 235.779 83.5256 197.811 89.4749 193.982C95.4241 190.152 112.19 201.641 130.038 198.905Z" fill="#E9E9E9" stroke="black" stroke-width="4" stroke-linecap="round"/>
<path d="M197 187.671C197 187.671 205 197.182 205 209.358C205 223.997 197 232.671 197 232.671" stroke="#C5C5C5" stroke-width="4" stroke-linecap="round"/>
<path d="M212 176.671C212 176.671 225 190.621 225 208.478C225 229.948 212 242.671 212 242.671" stroke="#C5C5C5" stroke-width="4" stroke-linecap="round"/>
<path d="M229 164.671C229 164.671 247 183.694 247 208.045C247 237.322 229 254.671 229 254.671" stroke="#C5C5C5" stroke-width="4" stroke-linecap="round"/>
<path d="M248 148.671C248 148.671 272 174.88 272 208.43C272 248.768 248 272.671 248 272.671" stroke="#C5C5C5" stroke-width="4" stroke-linecap="round"/>
</g>
<defs>
<clipPath id="clip0_28_704">
<rect width="300" height="300" rx="20" fill="white"/>
</clipPath>
</defs>
</svg>
