<svg width="312" height="312" viewBox="0 0 312 312" fill="none" xmlns="http://www.w3.org/2000/svg">
<g clip-path="url(#clip0_128_1260)">
<rect x="6" y="6" width="300" height="300" rx="20" fill="#FFE3FF"/>
<path d="M123.039 52.082L128.547 51.2422C128.781 52.3099 129.257 53.1237 129.973 53.6836C130.689 54.2305 131.691 54.5039 132.98 54.5039C134.4 54.5039 135.467 54.2435 136.184 53.7227C136.665 53.3581 136.906 52.8698 136.906 52.2578C136.906 51.8411 136.776 51.4961 136.516 51.2227C136.242 50.9622 135.63 50.7214 134.68 50.5C130.253 49.5234 127.447 48.6315 126.262 47.8242C124.621 46.7044 123.801 45.1484 123.801 43.1562C123.801 41.3594 124.51 39.849 125.93 38.625C127.349 37.401 129.549 36.7891 132.531 36.7891C135.37 36.7891 137.479 37.2513 138.859 38.1758C140.24 39.1003 141.19 40.4674 141.711 42.2773L136.535 43.2344C136.314 42.4271 135.891 41.8086 135.266 41.3789C134.654 40.9492 133.775 40.7344 132.629 40.7344C131.184 40.7344 130.148 40.9362 129.523 41.3398C129.107 41.6263 128.898 41.9974 128.898 42.4531C128.898 42.8438 129.081 43.1758 129.445 43.4492C129.94 43.8138 131.646 44.3281 134.562 44.9922C137.492 45.6562 139.536 46.4701 140.695 47.4336C141.841 48.4102 142.414 49.7708 142.414 51.5156C142.414 53.4167 141.62 55.0508 140.031 56.418C138.443 57.7852 136.092 58.4688 132.98 58.4688C130.155 58.4688 127.915 57.8958 126.262 56.75C124.621 55.6042 123.547 54.0482 123.039 52.082ZM151.34 43.5859L146.359 42.6875C146.919 40.6823 147.883 39.1979 149.25 38.2344C150.617 37.2708 152.648 36.7891 155.344 36.7891C157.792 36.7891 159.615 37.082 160.812 37.668C162.01 38.2409 162.85 38.9766 163.332 39.875C163.827 40.7604 164.074 42.3945 164.074 44.7773L164.016 51.1836C164.016 53.0065 164.1 54.3542 164.27 55.2266C164.452 56.0859 164.784 57.0104 165.266 58H159.836C159.693 57.6354 159.517 57.0951 159.309 56.3789C159.217 56.0534 159.152 55.8385 159.113 55.7344C158.176 56.6458 157.173 57.3294 156.105 57.7852C155.038 58.2409 153.898 58.4688 152.688 58.4688C150.552 58.4688 148.866 57.8893 147.629 56.7305C146.405 55.5716 145.793 54.1068 145.793 52.3359C145.793 51.1641 146.073 50.1224 146.633 49.2109C147.193 48.2865 147.974 47.5833 148.977 47.1016C149.992 46.6068 151.451 46.1771 153.352 45.8125C155.917 45.3307 157.694 44.8815 158.684 44.4648V43.918C158.684 42.8633 158.423 42.1146 157.902 41.6719C157.382 41.2161 156.398 40.9883 154.953 40.9883C153.977 40.9883 153.215 41.1836 152.668 41.5742C152.121 41.9518 151.678 42.6224 151.34 43.5859ZM158.684 48.0391C157.98 48.2734 156.867 48.5534 155.344 48.8789C153.82 49.2044 152.824 49.5234 152.355 49.8359C151.639 50.3438 151.281 50.9883 151.281 51.7695C151.281 52.5378 151.568 53.2018 152.141 53.7617C152.714 54.3216 153.443 54.6016 154.328 54.6016C155.318 54.6016 156.262 54.276 157.16 53.625C157.824 53.1302 158.26 52.5247 158.469 51.8086C158.612 51.3398 158.684 50.4479 158.684 49.1328V48.0391ZM166.906 37.2578H172.746L177.707 51.9844L182.551 37.2578H188.234L180.91 57.2188L179.602 60.832C179.12 62.043 178.658 62.9674 178.215 63.6055C177.785 64.2435 177.284 64.7578 176.711 65.1484C176.151 65.5521 175.454 65.8646 174.621 66.0859C173.801 66.3073 172.87 66.418 171.828 66.418C170.773 66.418 169.738 66.3073 168.723 66.0859L168.234 61.7891C169.094 61.9583 169.868 62.043 170.559 62.043C171.835 62.043 172.779 61.6654 173.391 60.9102C174.003 60.168 174.471 59.2174 174.797 58.0586L166.906 37.2578Z" fill="black"/>
<path d="M189.901 163.393C195.305 211.157 165.107 253.304 123.078 258.059C81.0482 262.815 42.1966 228.481 36.7923 180.717C31.3879 132.953 61.5858 90.8061 103.615 86.0506C145.645 81.295 184.496 115.629 189.901 163.393Z" fill="#BC8166" stroke="black" stroke-width="4.87675"/>
<path d="M107.134 155.302C105.673 159.291 100.807 161.573 95.9733 159.802C91.14 158.032 88.8983 153.147 90.3592 149.158C91.82 145.17 96.6867 142.888 101.52 144.658C106.353 146.428 108.595 151.313 107.134 155.302Z" fill="black" stroke="black" stroke-width="5.87382"/>
<path d="M163.861 150.938C162.401 154.927 157.534 157.209 152.701 155.439C147.867 153.669 145.626 148.783 147.086 144.795C148.547 140.806 153.414 138.524 158.247 140.294C163.08 142.064 165.322 146.95 163.861 150.938Z" fill="black" stroke="black" stroke-width="5.87382"/>
<path d="M136.037 204.905C153.885 202.17 158.212 191.81 163.079 193.964C167.947 196.118 165.703 243.713 130.629 242.654C101.64 241.779 89.5253 203.811 95.4746 199.982C101.424 196.152 118.19 207.641 136.037 204.905Z" fill="#E9E9E9" stroke="black" stroke-width="4" stroke-linecap="round"/>
<path d="M203 193.671C203 193.671 211 203.182 211 215.358C211 229.997 203 238.671 203 238.671" stroke="#C5C5C5" stroke-width="4" stroke-linecap="round"/>
<path d="M218 182.671C218 182.671 231 196.621 231 214.478C231 235.948 218 248.671 218 248.671" stroke="#C5C5C5" stroke-width="4" stroke-linecap="round"/>
<path d="M235 170.671C235 170.671 253 189.694 253 214.045C253 243.322 235 260.671 235 260.671" stroke="#C5C5C5" stroke-width="4" stroke-linecap="round"/>
<path d="M254 154.671C254 154.671 278 180.88 278 214.43C278 254.768 254 278.671 254 278.671" stroke="#C5C5C5" stroke-width="4" stroke-linecap="round"/>
</g>
<rect x="6" y="6" width="300" height="300" rx="20" stroke="#FE05FC" stroke-width="11"/>
<defs>
<clipPath id="clip0_128_1260">
<rect x="6" y="6" width="300" height="300" rx="20" fill="white"/>
</clipPath>
</defs>
</svg>
