<svg width="300" height="300" viewBox="0 0 300 300" fill="none" xmlns="http://www.w3.org/2000/svg">
<rect x="5.5" y="5.5" width="289" height="289" rx="14.5" fill="#FFE3FF"/>
<rect x="5.5" y="5.5" width="289" height="289" rx="14.5" stroke="#FE05FC" stroke-width="11"/>
<path d="M117.039 46.082L122.547 45.2422C122.781 46.3099 123.257 47.1237 123.973 47.6836C124.689 48.2305 125.691 48.5039 126.98 48.5039C128.4 48.5039 129.467 48.2435 130.184 47.7227C130.665 47.3581 130.906 46.8698 130.906 46.2578C130.906 45.8411 130.776 45.4961 130.516 45.2227C130.242 44.9622 129.63 44.7214 128.68 44.5C124.253 43.5234 121.447 42.6315 120.262 41.8242C118.621 40.7044 117.801 39.1484 117.801 37.1562C117.801 35.3594 118.51 33.849 119.93 32.625C121.349 31.401 123.549 30.7891 126.531 30.7891C129.37 30.7891 131.479 31.2513 132.859 32.1758C134.24 33.1003 135.19 34.4674 135.711 36.2773L130.535 37.2344C130.314 36.4271 129.891 35.8086 129.266 35.3789C128.654 34.9492 127.775 34.7344 126.629 34.7344C125.184 34.7344 124.148 34.9362 123.523 35.3398C123.107 35.6263 122.898 35.9974 122.898 36.4531C122.898 36.8438 123.081 37.1758 123.445 37.4492C123.94 37.8138 125.646 38.3281 128.562 38.9922C131.492 39.6562 133.536 40.4701 134.695 41.4336C135.841 42.4102 136.414 43.7708 136.414 45.5156C136.414 47.4167 135.62 49.0508 134.031 50.418C132.443 51.7852 130.092 52.4688 126.98 52.4688C124.155 52.4688 121.915 51.8958 120.262 50.75C118.621 49.6042 117.547 48.0482 117.039 46.082ZM153.25 45.3984L158.719 46.3164C158.016 48.3216 156.902 49.8516 155.379 50.9062C153.868 51.9479 151.974 52.4688 149.695 52.4688C146.089 52.4688 143.419 51.2904 141.688 48.9336C140.32 47.0456 139.637 44.6628 139.637 41.7852C139.637 38.3477 140.535 35.6589 142.332 33.7188C144.129 31.7656 146.401 30.7891 149.148 30.7891C152.234 30.7891 154.669 31.8112 156.453 33.8555C158.237 35.8867 159.09 39.0052 159.012 43.2109H145.262C145.301 44.8385 145.743 46.1081 146.59 47.0195C147.436 47.918 148.491 48.3672 149.754 48.3672C150.613 48.3672 151.336 48.1328 151.922 47.6641C152.508 47.1953 152.951 46.4401 153.25 45.3984ZM153.562 39.8516C153.523 38.263 153.113 37.0586 152.332 36.2383C151.551 35.4049 150.6 34.9883 149.48 34.9883C148.283 34.9883 147.293 35.4245 146.512 36.2969C145.73 37.1693 145.346 38.3542 145.359 39.8516H153.562ZM175.516 45.3984L180.984 46.3164C180.281 48.3216 179.168 49.8516 177.645 50.9062C176.134 51.9479 174.24 52.4688 171.961 52.4688C168.354 52.4688 165.685 51.2904 163.953 48.9336C162.586 47.0456 161.902 44.6628 161.902 41.7852C161.902 38.3477 162.801 35.6589 164.598 33.7188C166.395 31.7656 168.667 30.7891 171.414 30.7891C174.5 30.7891 176.935 31.8112 178.719 33.8555C180.503 35.8867 181.355 39.0052 181.277 43.2109H167.527C167.566 44.8385 168.009 46.1081 168.855 47.0195C169.702 47.918 170.757 48.3672 172.02 48.3672C172.879 48.3672 173.602 48.1328 174.188 47.6641C174.773 47.1953 175.216 46.4401 175.516 45.3984ZM175.828 39.8516C175.789 38.263 175.379 37.0586 174.598 36.2383C173.816 35.4049 172.866 34.9883 171.746 34.9883C170.548 34.9883 169.559 35.4245 168.777 36.2969C167.996 37.1693 167.612 38.3542 167.625 39.8516H175.828Z" fill="black"/>
<g opacity="0.7">
<path d="M168.862 175.315C171.847 221.098 141.16 259.587 101.295 262.186C61.4289 264.785 26.0058 230.605 23.0214 184.822C20.037 139.039 50.7232 100.55 90.5889 97.951C130.455 95.3524 165.878 129.532 168.862 175.315Z" fill="#BC8166" stroke="black" stroke-width="7.90001"/>
<path d="M122.866 148.594C123.598 148.134 124.551 148.661 124.551 149.526L124.551 167.637C124.551 168.536 123.532 169.055 122.805 168.527L109.427 158.82C108.796 158.362 108.828 157.412 109.488 156.997L122.866 148.594Z" fill="white" stroke="black" stroke-width="2.20072"/>
<ellipse cx="125.629" cy="158.7" rx="7.88098" ry="11.85" transform="rotate(-3.72957 125.629 158.7)" fill="black"/>
<path d="M105.943 216.526C110.462 221.753 123.318 232.073 138.589 231.535C145.866 231.278 153.296 228.644 159.015 221.619" stroke="black" stroke-width="9.21668" stroke-linecap="round"/>
</g>
<path d="M142.158 159.85H272" stroke="black" stroke-width="6.60216" stroke-linecap="round" stroke-dasharray="13.2 13.2"/>
</svg>
