<svg width="300" height="300" viewBox="0 0 300 300" fill="none" xmlns="http://www.w3.org/2000/svg">
<rect width="300" height="300" fill="white"/>
<path d="M118.465 45.8086L121.941 45.2617C122.137 46.6549 122.677 47.7227 123.562 48.4648C124.461 49.207 125.711 49.5781 127.312 49.5781C128.927 49.5781 130.125 49.2526 130.906 48.6016C131.688 47.9375 132.078 47.1628 132.078 46.2773C132.078 45.4831 131.733 44.8581 131.043 44.4023C130.561 44.0898 129.363 43.6927 127.449 43.2109C124.871 42.5599 123.081 42 122.078 41.5312C121.089 41.0495 120.333 40.3919 119.812 39.5586C119.305 38.7122 119.051 37.7812 119.051 36.7656C119.051 35.8411 119.259 34.9883 119.676 34.207C120.105 33.4128 120.685 32.7552 121.414 32.2344C121.961 31.8307 122.703 31.4922 123.641 31.2188C124.591 30.9323 125.607 30.7891 126.688 30.7891C128.315 30.7891 129.741 31.0234 130.965 31.4922C132.202 31.9609 133.113 32.599 133.699 33.4062C134.285 34.2005 134.689 35.2682 134.91 36.6094L131.473 37.0781C131.316 36.0104 130.861 35.1771 130.105 34.5781C129.363 33.9792 128.309 33.6797 126.941 33.6797C125.327 33.6797 124.174 33.9466 123.484 34.4805C122.794 35.0143 122.449 35.6393 122.449 36.3555C122.449 36.8112 122.592 37.2214 122.879 37.5859C123.165 37.9635 123.615 38.276 124.227 38.5234C124.578 38.6536 125.613 38.9531 127.332 39.4219C129.819 40.0859 131.551 40.6328 132.527 41.0625C133.517 41.4792 134.292 42.0911 134.852 42.8984C135.411 43.7057 135.691 44.7083 135.691 45.9062C135.691 47.0781 135.346 48.1849 134.656 49.2266C133.979 50.2552 132.996 51.056 131.707 51.6289C130.418 52.1888 128.96 52.4688 127.332 52.4688C124.637 52.4688 122.579 51.9089 121.16 50.7891C119.754 49.6693 118.855 48.0091 118.465 45.8086ZM154.07 45.3203L157.703 45.7695C157.13 47.8919 156.069 49.5391 154.52 50.7109C152.97 51.8828 150.991 52.4688 148.582 52.4688C145.548 52.4688 143.139 51.5378 141.355 49.6758C139.585 47.8008 138.699 45.1771 138.699 41.8047C138.699 38.3151 139.598 35.6068 141.395 33.6797C143.191 31.7526 145.522 30.7891 148.387 30.7891C151.16 30.7891 153.426 31.7331 155.184 33.6211C156.941 35.5091 157.82 38.1654 157.82 41.5898C157.82 41.7982 157.814 42.1107 157.801 42.5273H142.332C142.462 44.806 143.107 46.5508 144.266 47.7617C145.424 48.9727 146.87 49.5781 148.602 49.5781C149.891 49.5781 150.991 49.2396 151.902 48.5625C152.814 47.8854 153.536 46.8047 154.07 45.3203ZM142.527 39.6367H154.109C153.953 37.8919 153.51 36.5833 152.781 35.7109C151.661 34.3568 150.21 33.6797 148.426 33.6797C146.811 33.6797 145.451 34.2201 144.344 35.3008C143.25 36.3815 142.645 37.8268 142.527 39.6367ZM176.336 45.3203L179.969 45.7695C179.396 47.8919 178.335 49.5391 176.785 50.7109C175.236 51.8828 173.257 52.4688 170.848 52.4688C167.814 52.4688 165.405 51.5378 163.621 49.6758C161.85 47.8008 160.965 45.1771 160.965 41.8047C160.965 38.3151 161.863 35.6068 163.66 33.6797C165.457 31.7526 167.788 30.7891 170.652 30.7891C173.426 30.7891 175.691 31.7331 177.449 33.6211C179.207 35.5091 180.086 38.1654 180.086 41.5898C180.086 41.7982 180.079 42.1107 180.066 42.5273H164.598C164.728 44.806 165.372 46.5508 166.531 47.7617C167.69 48.9727 169.135 49.5781 170.867 49.5781C172.156 49.5781 173.257 49.2396 174.168 48.5625C175.079 47.8854 175.802 46.8047 176.336 45.3203ZM164.793 39.6367H176.375C176.219 37.8919 175.776 36.5833 175.047 35.7109C173.927 34.3568 172.475 33.6797 170.691 33.6797C169.077 33.6797 167.716 34.2201 166.609 35.3008C165.516 36.3815 164.91 37.8268 164.793 39.6367Z" fill="black"/>
<g opacity="0.7">
<path d="M168.862 175.315C171.847 221.098 141.16 259.587 101.295 262.186C61.429 264.785 26.0059 230.605 23.0215 184.822C20.0372 139.039 50.7233 100.55 90.589 97.951C130.455 95.3523 165.878 129.532 168.862 175.315Z" fill="#BC8166" stroke="black" stroke-width="7.90001"/>
<path d="M122.866 148.594C123.598 148.134 124.551 148.661 124.551 149.526L124.551 167.637C124.551 168.536 123.532 169.055 122.805 168.527L109.427 158.82C108.796 158.362 108.828 157.412 109.488 156.997L122.866 148.594Z" fill="white" stroke="black" stroke-width="2.20072"/>
<ellipse cx="125.629" cy="158.7" rx="7.88098" ry="11.85" transform="rotate(-3.72957 125.629 158.7)" fill="black"/>
<path d="M105.943 216.526C110.462 221.753 123.318 232.073 138.589 231.535C145.866 231.278 153.296 228.643 159.015 221.619" stroke="black" stroke-width="9.21668" stroke-linecap="round"/>
</g>
<path d="M142.158 159.85H272" stroke="black" stroke-width="6.60216" stroke-linecap="round" stroke-dasharray="13.2 13.2"/>
</svg>
