<svg width="300" height="300" viewBox="0 0 300 300" fill="none" xmlns="http://www.w3.org/2000/svg">
<rect width="300" height="300" fill="white"/>
<path d="M150 233C135.6 228.2 83.9996 192 89.9997 184C95.9998 176 106.364 190 108 184C109.637 178 106 133 113 118C120 103 136 81 156 81C172 81 184 87 188 90C191.334 86.6667 206.164 80.5284 216 84C233 90 250 125 250 137V184C250 207 262 186 268 197C274 208 223 227 206 233C189 239 168 239 150 233Z" fill="black" stroke="black" stroke-linecap="round"/>
<path d="M118.465 45.8086L121.941 45.2617C122.137 46.6549 122.677 47.7227 123.562 48.4648C124.461 49.207 125.711 49.5781 127.312 49.5781C128.927 49.5781 130.125 49.2526 130.906 48.6016C131.688 47.9375 132.078 47.1628 132.078 46.2773C132.078 45.4831 131.733 44.8581 131.043 44.4023C130.561 44.0898 129.363 43.6927 127.449 43.2109C124.871 42.5599 123.081 42 122.078 41.5312C121.089 41.0495 120.333 40.3919 119.812 39.5586C119.305 38.7122 119.051 37.7812 119.051 36.7656C119.051 35.8411 119.259 34.9883 119.676 34.207C120.105 33.4128 120.685 32.7552 121.414 32.2344C121.961 31.8307 122.703 31.4922 123.641 31.2188C124.591 30.9323 125.607 30.7891 126.688 30.7891C128.315 30.7891 129.741 31.0234 130.965 31.4922C132.202 31.9609 133.113 32.599 133.699 33.4062C134.285 34.2005 134.689 35.2682 134.91 36.6094L131.473 37.0781C131.316 36.0104 130.861 35.1771 130.105 34.5781C129.363 33.9792 128.309 33.6797 126.941 33.6797C125.327 33.6797 124.174 33.9466 123.484 34.4805C122.794 35.0143 122.449 35.6393 122.449 36.3555C122.449 36.8112 122.592 37.2214 122.879 37.5859C123.165 37.9635 123.615 38.276 124.227 38.5234C124.578 38.6536 125.613 38.9531 127.332 39.4219C129.819 40.0859 131.551 40.6328 132.527 41.0625C133.517 41.4792 134.292 42.0911 134.852 42.8984C135.411 43.7057 135.691 44.7083 135.691 45.9062C135.691 47.0781 135.346 48.1849 134.656 49.2266C133.979 50.2552 132.996 51.056 131.707 51.6289C130.418 52.1888 128.96 52.4688 127.332 52.4688C124.637 52.4688 122.579 51.9089 121.16 50.7891C119.754 49.6693 118.855 48.0091 118.465 45.8086ZM139.871 52V23.3672H143.387V33.6406C145.027 31.7396 147.098 30.7891 149.598 30.7891C151.134 30.7891 152.469 31.0951 153.602 31.707C154.734 32.306 155.542 33.1393 156.023 34.207C156.518 35.2747 156.766 36.8242 156.766 38.8555V52H153.25V38.8555C153.25 37.0977 152.866 35.8216 152.098 35.0273C151.342 34.2201 150.268 33.8164 148.875 33.8164C147.833 33.8164 146.85 34.0898 145.926 34.6367C145.014 35.1706 144.363 35.8997 143.973 36.8242C143.582 37.7487 143.387 39.0247 143.387 40.6523V52H139.871ZM176.336 45.3203L179.969 45.7695C179.396 47.8919 178.335 49.5391 176.785 50.7109C175.236 51.8828 173.257 52.4688 170.848 52.4688C167.814 52.4688 165.405 51.5378 163.621 49.6758C161.85 47.8008 160.965 45.1771 160.965 41.8047C160.965 38.3151 161.863 35.6068 163.66 33.6797C165.457 31.7526 167.788 30.7891 170.652 30.7891C173.426 30.7891 175.691 31.7331 177.449 33.6211C179.207 35.5091 180.086 38.1654 180.086 41.5898C180.086 41.7982 180.079 42.1107 180.066 42.5273H164.598C164.728 44.806 165.372 46.5508 166.531 47.7617C167.69 48.9727 169.135 49.5781 170.867 49.5781C172.156 49.5781 173.257 49.2396 174.168 48.5625C175.079 47.8854 175.802 46.8047 176.336 45.3203ZM164.793 39.6367H176.375C176.219 37.8919 175.776 36.5833 175.047 35.7109C173.927 34.3568 172.475 33.6797 170.691 33.6797C169.077 33.6797 167.716 34.2201 166.609 35.3008C165.516 36.3815 164.91 37.8268 164.793 39.6367Z" fill="black"/>
<path d="M239.131 169.91C239.131 207.566 211.943 237.451 179.154 237.451C146.365 237.451 119.178 207.566 119.178 169.91C119.178 132.254 146.365 102.369 179.154 102.369C211.943 102.369 239.131 132.254 239.131 169.91Z" fill="#BC8166" stroke="black" stroke-width="6.48395"/>
<circle cx="153.679" cy="153.993" r="9.72592" fill="black"/>
<circle cx="203.489" cy="153.993" r="9.72592" fill="black"/>
<path d="M148.623 201.859C152.045 206.382 162.023 215.52 174.559 215.895C187.094 216.269 199.234 208.565 203.737 204.666" stroke="black" stroke-width="7.56461" stroke-linecap="round"/>
<path d="M161 127C177 119.8 187 107.334 190 102C196.4 122 226.667 140.334 241 147.001C235 132.001 216.6 108.399 207 101.999C195 93.9993 170 94.0004 152 102C137.6 108.4 125.333 130 121 140C127.667 138.667 145 134.2 161 127Z" fill="black" stroke="black" stroke-linecap="round"/>
<path d="M112.463 221.055L93.8032 261.672L67.9576 225.204L112.463 221.055Z" fill="#B92429"/>
<rect x="79.0752" y="235.932" width="12.9033" height="61.6492" transform="rotate(54.6743 79.0752 235.932)" fill="#B92429"/>
</svg>
