<svg width="300" height="300" viewBox="0 0 300 300" fill="none" xmlns="http://www.w3.org/2000/svg">
<path d="M150 233C135.6 228.2 83.9996 192 89.9997 184C95.9998 176 106.364 190 108 184C109.637 178 106 133 113 118C120 103 136 81 156 81C172 81 184 87 188 90C191.334 86.6667 206.164 80.5284 216 84C233 90 250 125 250 137V184C250 207 262 186 268 197C274 208 223 227 206 233C189 239 168 239 150 233Z" fill="black" stroke="black" stroke-linecap="round"/>
<path d="M115.945 46.082L121.453 45.2422C121.688 46.3099 122.163 47.1237 122.879 47.6836C123.595 48.2305 124.598 48.5039 125.887 48.5039C127.306 48.5039 128.374 48.2435 129.09 47.7227C129.572 47.3581 129.812 46.8698 129.812 46.2578C129.812 45.8411 129.682 45.4961 129.422 45.2227C129.148 44.9622 128.536 44.7214 127.586 44.5C123.159 43.5234 120.353 42.6315 119.168 41.8242C117.527 40.7044 116.707 39.1484 116.707 37.1562C116.707 35.3594 117.417 33.849 118.836 32.625C120.255 31.401 122.456 30.7891 125.438 30.7891C128.276 30.7891 130.385 31.2513 131.766 32.1758C133.146 33.1003 134.096 34.4674 134.617 36.2773L129.441 37.2344C129.22 36.4271 128.797 35.8086 128.172 35.3789C127.56 34.9492 126.681 34.7344 125.535 34.7344C124.09 34.7344 123.055 34.9362 122.43 35.3398C122.013 35.6263 121.805 35.9974 121.805 36.4531C121.805 36.8438 121.987 37.1758 122.352 37.4492C122.846 37.8138 124.552 38.3281 127.469 38.9922C130.398 39.6562 132.443 40.4701 133.602 41.4336C134.747 42.4102 135.32 43.7708 135.32 45.5156C135.32 47.4167 134.526 49.0508 132.938 50.418C131.349 51.7852 128.999 52.4688 125.887 52.4688C123.061 52.4688 120.822 51.8958 119.168 50.75C117.527 49.6042 116.453 48.0482 115.945 46.082ZM145.613 23.3672V33.8945C147.384 31.8242 149.5 30.7891 151.961 30.7891C153.224 30.7891 154.363 31.0234 155.379 31.4922C156.395 31.9609 157.156 32.5599 157.664 33.2891C158.185 34.0182 158.536 34.8255 158.719 35.7109C158.914 36.5964 159.012 37.9701 159.012 39.832V52H153.523V41.043C153.523 38.8685 153.419 37.4883 153.211 36.9023C153.003 36.3164 152.632 35.8542 152.098 35.5156C151.577 35.1641 150.919 34.9883 150.125 34.9883C149.214 34.9883 148.4 35.2096 147.684 35.6523C146.967 36.0951 146.44 36.7656 146.102 37.6641C145.776 38.5495 145.613 39.8646 145.613 41.6094V52H140.125V23.3672H145.613ZM176.609 45.3984L182.078 46.3164C181.375 48.3216 180.262 49.8516 178.738 50.9062C177.228 51.9479 175.333 52.4688 173.055 52.4688C169.448 52.4688 166.779 51.2904 165.047 48.9336C163.68 47.0456 162.996 44.6628 162.996 41.7852C162.996 38.3477 163.895 35.6589 165.691 33.7188C167.488 31.7656 169.76 30.7891 172.508 30.7891C175.594 30.7891 178.029 31.8112 179.812 33.8555C181.596 35.8867 182.449 39.0052 182.371 43.2109H168.621C168.66 44.8385 169.103 46.1081 169.949 47.0195C170.796 47.918 171.85 48.3672 173.113 48.3672C173.973 48.3672 174.695 48.1328 175.281 47.6641C175.867 47.1953 176.31 46.4401 176.609 45.3984ZM176.922 39.8516C176.883 38.263 176.473 37.0586 175.691 36.2383C174.91 35.4049 173.96 34.9883 172.84 34.9883C171.642 34.9883 170.652 35.4245 169.871 36.2969C169.09 37.1693 168.706 38.3542 168.719 39.8516H176.922Z" fill="black"/>
<path d="M179.154 102.369C211.943 102.369 239.131 132.254 239.131 169.91C239.131 207.566 211.943 237.451 179.154 237.451C146.365 237.451 119.178 207.566 119.178 169.91C119.178 132.254 146.365 102.369 179.154 102.369Z" fill="#BC8166" stroke="black" stroke-width="6.48395"/>
<circle cx="153.679" cy="153.993" r="9.72592" fill="black"/>
<circle cx="203.489" cy="153.993" r="9.72592" fill="black"/>
<path d="M148.623 201.859C152.045 206.382 162.023 215.52 174.559 215.895C187.094 216.269 199.234 208.565 203.737 204.666" stroke="black" stroke-width="7.56461" stroke-linecap="round"/>
<path d="M161 127C177 119.8 187 107.334 190 102C196.4 122 226.667 140.334 241 147.001C235 132.001 216.6 108.399 207 101.999C195 93.9993 170 94.0004 152 102C137.6 108.4 125.333 130 121 140C127.667 138.667 145 134.2 161 127Z" fill="black" stroke="black" stroke-linecap="round"/>
<path d="M112.463 221.055L93.8032 261.672L67.9576 225.204L112.463 221.055Z" fill="#B92429"/>
<rect x="79.0752" y="235.932" width="12.9033" height="61.6492" transform="rotate(54.6743 79.0752 235.932)" fill="#B92429"/>
</svg>
