<svg width="300" height="300" viewBox="0 0 300 300" fill="none" xmlns="http://www.w3.org/2000/svg">
<path d="M98.1523 46.082L103.66 45.2422C103.895 46.3099 104.37 47.1237 105.086 47.6836C105.802 48.2305 106.805 48.5039 108.094 48.5039C109.513 48.5039 110.581 48.2435 111.297 47.7227C111.779 47.3581 112.02 46.8698 112.02 46.2578C112.02 45.8411 111.889 45.4961 111.629 45.2227C111.355 44.9622 110.743 44.7214 109.793 44.5C105.366 43.5234 102.56 42.6315 101.375 41.8242C99.7344 40.7044 98.9141 39.1484 98.9141 37.1562C98.9141 35.3594 99.6237 33.849 101.043 32.625C102.462 31.401 104.663 30.7891 107.645 30.7891C110.483 30.7891 112.592 31.2513 113.973 32.1758C115.353 33.1003 116.303 34.4674 116.824 36.2773L111.648 37.2344C111.427 36.4271 111.004 35.8086 110.379 35.3789C109.767 34.9492 108.888 34.7344 107.742 34.7344C106.297 34.7344 105.262 34.9362 104.637 35.3398C104.22 35.6263 104.012 35.9974 104.012 36.4531C104.012 36.8438 104.194 37.1758 104.559 37.4492C105.053 37.8138 106.759 38.3281 109.676 38.9922C112.605 39.6562 114.65 40.4701 115.809 41.4336C116.954 42.4102 117.527 43.7708 117.527 45.5156C117.527 47.4167 116.733 49.0508 115.145 50.418C113.556 51.7852 111.206 52.4688 108.094 52.4688C105.268 52.4688 103.029 51.8958 101.375 50.75C99.7344 49.6042 98.6602 48.0482 98.1523 46.082ZM121.082 41.3359C121.082 39.513 121.531 37.7487 122.43 36.043C123.328 34.3372 124.598 33.0352 126.238 32.1367C127.892 31.2383 129.734 30.7891 131.766 30.7891C134.904 30.7891 137.475 31.8112 139.48 33.8555C141.486 35.8867 142.488 38.4583 142.488 41.5703C142.488 44.7083 141.473 47.3125 139.441 49.3828C137.423 51.4401 134.878 52.4688 131.805 52.4688C129.904 52.4688 128.087 52.0391 126.355 51.1797C124.637 50.3203 123.328 49.0638 122.43 47.4102C121.531 45.7435 121.082 43.7188 121.082 41.3359ZM126.707 41.6289C126.707 43.6862 127.195 45.2617 128.172 46.3555C129.148 47.4492 130.353 47.9961 131.785 47.9961C133.217 47.9961 134.415 47.4492 135.379 46.3555C136.355 45.2617 136.844 43.6732 136.844 41.5898C136.844 39.5586 136.355 37.9961 135.379 36.9023C134.415 35.8086 133.217 35.2617 131.785 35.2617C130.353 35.2617 129.148 35.8086 128.172 36.9023C127.195 37.9961 126.707 39.5716 126.707 41.6289ZM146.395 31.2578H151.453V34.0898C153.263 31.8893 155.418 30.7891 157.918 30.7891C159.246 30.7891 160.398 31.0625 161.375 31.6094C162.352 32.1562 163.152 32.9831 163.777 34.0898C164.689 32.9831 165.672 32.1562 166.727 31.6094C167.781 31.0625 168.908 30.7891 170.105 30.7891C171.629 30.7891 172.918 31.1016 173.973 31.7266C175.027 32.3385 175.815 33.2435 176.336 34.4414C176.714 35.3268 176.902 36.7591 176.902 38.7383V52H171.414V40.1445C171.414 38.0872 171.225 36.7591 170.848 36.1602C170.34 35.3789 169.559 34.9883 168.504 34.9883C167.736 34.9883 167.013 35.2227 166.336 35.6914C165.659 36.1602 165.171 36.8503 164.871 37.7617C164.572 38.6602 164.422 40.0859 164.422 42.0391V52H158.934V40.6328C158.934 38.6146 158.836 37.3125 158.641 36.7266C158.445 36.1406 158.139 35.7044 157.723 35.418C157.319 35.1315 156.766 34.9883 156.062 34.9883C155.216 34.9883 154.454 35.2161 153.777 35.6719C153.1 36.1276 152.612 36.7852 152.312 37.6445C152.026 38.5039 151.883 39.9297 151.883 41.9219V52H146.395V31.2578ZM194.402 45.3984L199.871 46.3164C199.168 48.3216 198.055 49.8516 196.531 50.9062C195.021 51.9479 193.126 52.4688 190.848 52.4688C187.241 52.4688 184.572 51.2904 182.84 48.9336C181.473 47.0456 180.789 44.6628 180.789 41.7852C180.789 38.3477 181.688 35.6589 183.484 33.7188C185.281 31.7656 187.553 30.7891 190.301 30.7891C193.387 30.7891 195.822 31.8112 197.605 33.8555C199.389 35.8867 200.242 39.0052 200.164 43.2109H186.414C186.453 44.8385 186.896 46.1081 187.742 47.0195C188.589 47.918 189.643 48.3672 190.906 48.3672C191.766 48.3672 192.488 48.1328 193.074 47.6641C193.66 47.1953 194.103 46.4401 194.402 45.3984ZM194.715 39.8516C194.676 38.263 194.266 37.0586 193.484 36.2383C192.703 35.4049 191.753 34.9883 190.633 34.9883C189.435 34.9883 188.445 35.4245 187.664 36.2969C186.883 37.1693 186.499 38.3542 186.512 39.8516H194.715Z" fill="black"/>
<path d="M221 243.5C221 243.5 211 225 153 225C95 225 85.5 243.5 85.5 243.5" stroke="black" stroke-width="5"/>
<path d="M84.5 244.5L86.5 169.5H221V246.5C214 251.167 189.2 258.5 150 258.5C110.8 258.5 89.6667 250.167 84.5 244.5Z" fill="#B9CED8" fill-opacity="0.82"/>
<path d="M153 96.5C172.457 96.5 189.985 98.5576 202.574 101.838C208.887 103.483 213.817 105.4 217.109 107.428C220.541 109.542 221.5 111.325 221.5 112.5C221.5 113.675 220.541 115.458 217.109 117.572C213.817 119.6 208.887 121.517 202.574 123.162C189.985 126.442 172.457 128.5 153 128.5C133.543 128.5 116.015 126.442 103.426 123.162C97.1126 121.517 92.1826 119.6 88.8906 117.572C85.4594 115.458 84.5 113.675 84.5 112.5C84.5 111.325 85.4594 109.542 88.8906 107.428C92.1826 105.4 97.1126 103.483 103.426 101.838C116.015 98.5576 133.543 96.5 153 96.5Z" stroke="black" stroke-width="5"/>
<ellipse cx="153" cy="168.5" rx="68" ry="18.5" fill="#C8DEE6"/>
<path d="M221 243.5C221 243.5 205 262 153 262C103 262 85 243.5 85 243.5" stroke="black" stroke-width="5"/>
<path d="M85 244V113M221 244V113" stroke="black" stroke-width="5.5" stroke-linecap="round"/>
</svg>
