<svg width="312" height="312" viewBox="0 0 312 312" fill="none" xmlns="http://www.w3.org/2000/svg">
<rect x="6" y="6" width="300" height="300" rx="20" fill="#E3F4FF"/>
<rect x="6" y="6" width="300" height="300" rx="20" stroke="#1684D9" stroke-width="11"/>
<path d="M104.152 52.082L109.66 51.2422C109.895 52.3099 110.37 53.1237 111.086 53.6836C111.802 54.2305 112.805 54.5039 114.094 54.5039C115.513 54.5039 116.581 54.2435 117.297 53.7227C117.779 53.3581 118.02 52.8698 118.02 52.2578C118.02 51.8411 117.889 51.4961 117.629 51.2227C117.355 50.9622 116.743 50.7214 115.793 50.5C111.366 49.5234 108.56 48.6315 107.375 47.8242C105.734 46.7044 104.914 45.1484 104.914 43.1562C104.914 41.3594 105.624 39.849 107.043 38.625C108.462 37.401 110.663 36.7891 113.645 36.7891C116.483 36.7891 118.592 37.2513 119.973 38.1758C121.353 39.1003 122.303 40.4674 122.824 42.2773L117.648 43.2344C117.427 42.4271 117.004 41.8086 116.379 41.3789C115.767 40.9492 114.888 40.7344 113.742 40.7344C112.297 40.7344 111.262 40.9362 110.637 41.3398C110.22 41.6263 110.012 41.9974 110.012 42.4531C110.012 42.8438 110.194 43.1758 110.559 43.4492C111.053 43.8138 112.759 44.3281 115.676 44.9922C118.605 45.6562 120.65 46.4701 121.809 47.4336C122.954 48.4102 123.527 49.7708 123.527 51.5156C123.527 53.4167 122.733 55.0508 121.145 56.418C119.556 57.7852 117.206 58.4688 114.094 58.4688C111.268 58.4688 109.029 57.8958 107.375 56.75C105.734 55.6042 104.66 54.0482 104.152 52.082ZM127.082 47.3359C127.082 45.513 127.531 43.7487 128.43 42.043C129.328 40.3372 130.598 39.0352 132.238 38.1367C133.892 37.2383 135.734 36.7891 137.766 36.7891C140.904 36.7891 143.475 37.8112 145.48 39.8555C147.486 41.8867 148.488 44.4583 148.488 47.5703C148.488 50.7083 147.473 53.3125 145.441 55.3828C143.423 57.4401 140.878 58.4688 137.805 58.4688C135.904 58.4688 134.087 58.0391 132.355 57.1797C130.637 56.3203 129.328 55.0638 128.43 53.4102C127.531 51.7435 127.082 49.7188 127.082 47.3359ZM132.707 47.6289C132.707 49.6862 133.195 51.2617 134.172 52.3555C135.148 53.4492 136.353 53.9961 137.785 53.9961C139.217 53.9961 140.415 53.4492 141.379 52.3555C142.355 51.2617 142.844 49.6732 142.844 47.5898C142.844 45.5586 142.355 43.9961 141.379 42.9023C140.415 41.8086 139.217 41.2617 137.785 41.2617C136.353 41.2617 135.148 41.8086 134.172 42.9023C133.195 43.9961 132.707 45.5716 132.707 47.6289ZM152.395 37.2578H157.453V40.0898C159.263 37.8893 161.418 36.7891 163.918 36.7891C165.246 36.7891 166.398 37.0625 167.375 37.6094C168.352 38.1562 169.152 38.9831 169.777 40.0898C170.689 38.9831 171.672 38.1562 172.727 37.6094C173.781 37.0625 174.908 36.7891 176.105 36.7891C177.629 36.7891 178.918 37.1016 179.973 37.7266C181.027 38.3385 181.815 39.2435 182.336 40.4414C182.714 41.3268 182.902 42.7591 182.902 44.7383V58H177.414V46.1445C177.414 44.0872 177.225 42.7591 176.848 42.1602C176.34 41.3789 175.559 40.9883 174.504 40.9883C173.736 40.9883 173.013 41.2227 172.336 41.6914C171.659 42.1602 171.171 42.8503 170.871 43.7617C170.572 44.6602 170.422 46.0859 170.422 48.0391V58H164.934V46.6328C164.934 44.6146 164.836 43.3125 164.641 42.7266C164.445 42.1406 164.139 41.7044 163.723 41.418C163.319 41.1315 162.766 40.9883 162.062 40.9883C161.216 40.9883 160.454 41.2161 159.777 41.6719C159.1 42.1276 158.612 42.7852 158.312 43.6445C158.026 44.5039 157.883 45.9297 157.883 47.9219V58H152.395V37.2578ZM200.402 51.3984L205.871 52.3164C205.168 54.3216 204.055 55.8516 202.531 56.9062C201.021 57.9479 199.126 58.4688 196.848 58.4688C193.241 58.4688 190.572 57.2904 188.84 54.9336C187.473 53.0456 186.789 50.6628 186.789 47.7852C186.789 44.3477 187.688 41.6589 189.484 39.7188C191.281 37.7656 193.553 36.7891 196.301 36.7891C199.387 36.7891 201.822 37.8112 203.605 39.8555C205.389 41.8867 206.242 45.0052 206.164 49.2109H192.414C192.453 50.8385 192.896 52.1081 193.742 53.0195C194.589 53.918 195.643 54.3672 196.906 54.3672C197.766 54.3672 198.488 54.1328 199.074 53.6641C199.66 53.1953 200.103 52.4401 200.402 51.3984ZM200.715 45.8516C200.676 44.263 200.266 43.0586 199.484 42.2383C198.703 41.4049 197.753 40.9883 196.633 40.9883C195.435 40.9883 194.445 41.4245 193.664 42.2969C192.883 43.1693 192.499 44.3542 192.512 45.8516H200.715Z" fill="black"/>
<path d="M227 249.5C227 249.5 217 231 159 231C101 231 91.5 249.5 91.5 249.5" stroke="black" stroke-width="5"/>
<path d="M90.5 250.5L92.5 175.5H227V252.5C220 257.167 195.2 264.5 156 264.5C116.8 264.5 95.6667 256.167 90.5 250.5Z" fill="#B9CED8" fill-opacity="0.82"/>
<path d="M227.5 118.5C227.5 119.675 226.541 121.459 223.109 123.573C219.817 125.6 214.887 127.517 208.574 129.162C195.985 132.443 178.457 134.5 159 134.5C139.543 134.5 122.015 132.443 109.426 129.162C103.113 127.517 98.1827 125.6 94.8908 123.573C91.4594 121.459 90.5 119.675 90.5 118.5C90.5 117.325 91.4594 115.541 94.8908 113.427C98.1827 111.4 103.113 109.483 109.426 107.838C122.015 104.557 139.543 102.5 159 102.5C178.457 102.5 195.985 104.557 208.574 107.838C214.887 109.483 219.817 111.4 223.109 113.427C226.541 115.541 227.5 117.325 227.5 118.5Z" stroke="black" stroke-width="5"/>
<ellipse cx="159" cy="174.5" rx="68" ry="18.5" fill="#C8DEE6"/>
<path d="M227 249.5C227 249.5 211 268 159 268C109 268 91 249.5 91 249.5" stroke="black" stroke-width="5"/>
<path d="M91 250V119M227 250V119" stroke="black" stroke-width="5.5" stroke-linecap="round"/>
</svg>
