<svg width="300" height="300" viewBox="0 0 300 300" fill="none" xmlns="http://www.w3.org/2000/svg">
<rect width="300" height="300" fill="white"/>
<path d="M112.398 45.8086L115.875 45.2617C116.07 46.6549 116.611 47.7227 117.496 48.4648C118.395 49.207 119.645 49.5781 121.246 49.5781C122.861 49.5781 124.059 49.2526 124.84 48.6016C125.621 47.9375 126.012 47.1628 126.012 46.2773C126.012 45.4831 125.667 44.8581 124.977 44.4023C124.495 44.0898 123.297 43.6927 121.383 43.2109C118.805 42.5599 117.014 42 116.012 41.5312C115.022 41.0495 114.267 40.3919 113.746 39.5586C113.238 38.7122 112.984 37.7812 112.984 36.7656C112.984 35.8411 113.193 34.9883 113.609 34.207C114.039 33.4128 114.618 32.7552 115.348 32.2344C115.895 31.8307 116.637 31.4922 117.574 31.2188C118.525 30.9323 119.54 30.7891 120.621 30.7891C122.249 30.7891 123.674 31.0234 124.898 31.4922C126.135 31.9609 127.047 32.599 127.633 33.4062C128.219 34.2005 128.622 35.2682 128.844 36.6094L125.406 37.0781C125.25 36.0104 124.794 35.1771 124.039 34.5781C123.297 33.9792 122.242 33.6797 120.875 33.6797C119.26 33.6797 118.108 33.9466 117.418 34.4805C116.728 35.0143 116.383 35.6393 116.383 36.3555C116.383 36.8112 116.526 37.2214 116.812 37.5859C117.099 37.9635 117.548 38.276 118.16 38.5234C118.512 38.6536 119.547 38.9531 121.266 39.4219C123.753 40.0859 125.484 40.6328 126.461 41.0625C127.451 41.4792 128.225 42.0911 128.785 42.8984C129.345 43.7057 129.625 44.7083 129.625 45.9062C129.625 47.0781 129.28 48.1849 128.59 49.2266C127.913 50.2552 126.93 51.056 125.641 51.6289C124.352 52.1888 122.893 52.4688 121.266 52.4688C118.57 52.4688 116.513 51.9089 115.094 50.7891C113.688 49.6693 112.789 48.0091 112.398 45.8086ZM141.48 48.8555L141.988 51.9609C140.999 52.1693 140.113 52.2734 139.332 52.2734C138.056 52.2734 137.066 52.0716 136.363 51.668C135.66 51.2643 135.165 50.737 134.879 50.0859C134.592 49.4219 134.449 48.0352 134.449 45.9258V33.9922H131.871V31.2578H134.449V26.1211L137.945 24.0117V31.2578H141.48V33.9922H137.945V46.1211C137.945 47.1237 138.004 47.7682 138.121 48.0547C138.251 48.3411 138.453 48.569 138.727 48.7383C139.013 48.9076 139.417 48.9922 139.938 48.9922C140.328 48.9922 140.842 48.9466 141.48 48.8555ZM143.629 41.6289C143.629 37.7878 144.697 34.9427 146.832 33.0938C148.616 31.5573 150.79 30.7891 153.355 30.7891C156.207 30.7891 158.538 31.7266 160.348 33.6016C162.158 35.4635 163.062 38.0417 163.062 41.3359C163.062 44.0052 162.659 46.1081 161.852 47.6445C161.057 49.168 159.892 50.3529 158.355 51.1992C156.832 52.0456 155.165 52.4688 153.355 52.4688C150.452 52.4688 148.102 51.5378 146.305 49.6758C144.521 47.8138 143.629 45.1315 143.629 41.6289ZM147.242 41.6289C147.242 44.2852 147.822 46.2773 148.98 47.6055C150.139 48.9206 151.598 49.5781 153.355 49.5781C155.1 49.5781 156.552 48.9141 157.711 47.5859C158.87 46.2578 159.449 44.2331 159.449 41.5117C159.449 38.9466 158.863 37.0065 157.691 35.6914C156.533 34.3633 155.087 33.6992 153.355 33.6992C151.598 33.6992 150.139 34.3568 148.98 35.6719C147.822 36.987 147.242 38.9727 147.242 41.6289ZM167.203 59.9492V31.2578H170.406V33.9531C171.161 32.8984 172.014 32.1107 172.965 31.5898C173.915 31.056 175.068 30.7891 176.422 30.7891C178.193 30.7891 179.755 31.2448 181.109 32.1562C182.464 33.0677 183.486 34.3568 184.176 36.0234C184.866 37.6771 185.211 39.4935 185.211 41.4727C185.211 43.5951 184.827 45.5091 184.059 47.2148C183.303 48.9076 182.197 50.2096 180.738 51.1211C179.293 52.0195 177.77 52.4688 176.168 52.4688C174.996 52.4688 173.941 52.2214 173.004 51.7266C172.079 51.2318 171.318 50.6068 170.719 49.8516V59.9492H167.203ZM170.387 41.7461C170.387 44.4154 170.927 46.388 172.008 47.6641C173.089 48.9401 174.397 49.5781 175.934 49.5781C177.496 49.5781 178.831 48.9206 179.938 47.6055C181.057 46.2773 181.617 44.2266 181.617 41.4531C181.617 38.8099 181.07 36.8307 179.977 35.5156C178.896 34.2005 177.6 33.543 176.09 33.543C174.592 33.543 173.264 34.2461 172.105 35.6523C170.96 37.0456 170.387 39.0768 170.387 41.7461Z" fill="black"/>
<path d="M117.18 94.5207L183.398 94.4249L230.288 141.18L230.384 207.398L183.629 254.288L117.412 254.384L70.521 207.629L70.4252 141.411L117.18 94.5207Z" fill="#B92429" stroke="black" stroke-width="6"/>
<path d="M83.6451 179.418L88.1452 179.024C88.3584 180.827 88.8502 182.311 89.6207 183.475C90.4076 184.623 91.6208 185.557 93.2602 186.279C94.8996 186.983 96.7439 187.336 98.7932 187.336C100.613 187.336 102.22 187.065 103.613 186.524C105.007 185.983 106.039 185.246 106.712 184.311C107.4 183.36 107.744 182.328 107.744 181.213C107.744 180.082 107.416 179.098 106.761 178.262C106.105 177.409 105.023 176.696 103.515 176.122C102.547 175.745 100.408 175.163 97.0964 174.376C93.7848 173.573 91.465 172.819 90.1371 172.114C88.4157 171.212 87.1288 170.098 86.2763 168.77C85.4402 167.425 85.0222 165.925 85.0222 164.269C85.0222 162.45 85.5386 160.753 86.5714 159.179C87.6042 157.589 89.1125 156.384 91.0962 155.564C93.0798 154.745 95.2848 154.335 97.7112 154.335C100.383 154.335 102.736 154.769 104.769 155.638C106.818 156.491 108.392 157.753 109.49 159.425C110.589 161.097 111.179 162.991 111.261 165.106L106.687 165.45C106.441 163.171 105.605 161.45 104.179 160.286C102.769 159.122 100.678 158.54 97.9079 158.54C95.0225 158.54 92.9159 159.073 91.588 160.138C90.2765 161.187 89.6207 162.458 89.6207 163.95C89.6207 165.245 90.0879 166.311 91.0224 167.147C91.9405 167.983 94.334 168.843 98.203 169.729C102.088 170.598 104.752 171.36 106.195 172.016C108.294 172.983 109.843 174.212 110.843 175.704C111.843 177.18 112.343 178.885 112.343 180.819C112.343 182.737 111.794 184.549 110.695 186.254C109.597 187.943 108.015 189.262 105.949 190.213C103.9 191.148 101.588 191.615 99.0145 191.615C95.7521 191.615 93.0143 191.139 90.8011 190.188C88.6043 189.238 86.8747 187.811 85.6123 185.91C84.3664 183.992 83.7106 181.828 83.6451 179.418ZM128.032 191V159.204H116.154V154.949H144.729V159.204H132.803V191H128.032ZM147.262 173.442C147.262 167.458 148.869 162.778 152.082 159.4C155.295 156.007 159.443 154.31 164.525 154.31C167.853 154.31 170.853 155.105 173.525 156.695C176.198 158.286 178.231 160.507 179.624 163.36C181.034 166.196 181.739 169.417 181.739 173.024C181.739 176.68 181.001 179.95 179.526 182.836C178.05 185.721 175.96 187.91 173.255 189.402C170.55 190.877 167.632 191.615 164.501 191.615C161.107 191.615 158.074 190.795 155.402 189.156C152.73 187.516 150.705 185.278 149.328 182.442C147.951 179.606 147.262 176.606 147.262 173.442ZM152.18 173.516C152.18 177.86 153.344 181.287 155.672 183.795C158.017 186.287 160.951 187.533 164.476 187.533C168.066 187.533 171.017 186.27 173.329 183.746C175.657 181.221 176.821 177.639 176.821 172.999C176.821 170.065 176.321 167.507 175.321 165.327C174.337 163.13 172.886 161.433 170.968 160.237C169.066 159.023 166.927 158.417 164.55 158.417C161.173 158.417 158.263 159.581 155.82 161.909C153.394 164.22 152.18 168.089 152.18 173.516ZM187.911 191V154.949H201.51C203.904 154.949 205.732 155.064 206.994 155.294C208.765 155.589 210.248 156.154 211.445 156.991C212.642 157.81 213.601 158.966 214.322 160.458C215.06 161.95 215.429 163.589 215.429 165.376C215.429 168.442 214.453 171.04 212.502 173.171C210.551 175.286 207.027 176.344 201.928 176.344H192.682V191H187.911ZM192.682 172.089H202.002C205.084 172.089 207.273 171.516 208.568 170.368C209.863 169.22 210.51 167.606 210.51 165.524C210.51 164.015 210.125 162.728 209.355 161.663C208.601 160.581 207.601 159.868 206.355 159.523C205.551 159.31 204.068 159.204 201.904 159.204H192.682V172.089Z" fill="white"/>
</svg>
