<svg width="300" height="300" viewBox="0 0 300 300" fill="none" xmlns="http://www.w3.org/2000/svg">
<rect x="5.5" y="5.5" width="289" height="289" rx="14.5" fill="#FFE3FF"/>
<rect x="5.5" y="5.5" width="289" height="289" rx="14.5" stroke="#FE05FC" stroke-width="11"/>
<path d="M108.191 46.082L113.699 45.2422C113.934 46.3099 114.409 47.1237 115.125 47.6836C115.841 48.2305 116.844 48.5039 118.133 48.5039C119.552 48.5039 120.62 48.2435 121.336 47.7227C121.818 47.3581 122.059 46.8698 122.059 46.2578C122.059 45.8411 121.928 45.4961 121.668 45.2227C121.395 44.9622 120.783 44.7214 119.832 44.5C115.405 43.5234 112.599 42.6315 111.414 41.8242C109.773 40.7044 108.953 39.1484 108.953 37.1562C108.953 35.3594 109.663 33.849 111.082 32.625C112.501 31.401 114.702 30.7891 117.684 30.7891C120.522 30.7891 122.632 31.2513 124.012 32.1758C125.392 33.1003 126.342 34.4674 126.863 36.2773L121.688 37.2344C121.466 36.4271 121.043 35.8086 120.418 35.3789C119.806 34.9492 118.927 34.7344 117.781 34.7344C116.336 34.7344 115.301 34.9362 114.676 35.3398C114.259 35.6263 114.051 35.9974 114.051 36.4531C114.051 36.8438 114.233 37.1758 114.598 37.4492C115.092 37.8138 116.798 38.3281 119.715 38.9922C122.645 39.6562 124.689 40.4701 125.848 41.4336C126.993 42.4102 127.566 43.7708 127.566 45.5156C127.566 47.4167 126.772 49.0508 125.184 50.418C123.595 51.7852 121.245 52.4688 118.133 52.4688C115.307 52.4688 113.068 51.8958 111.414 50.75C109.773 49.6042 108.699 48.0482 108.191 46.082ZM141.902 31.2578V35.6328H138.152V43.9922C138.152 45.6849 138.185 46.6745 138.25 46.9609C138.328 47.2344 138.491 47.4622 138.738 47.6445C138.999 47.8268 139.311 47.918 139.676 47.918C140.184 47.918 140.919 47.7422 141.883 47.3906L142.352 51.6484C141.076 52.1953 139.63 52.4688 138.016 52.4688C137.026 52.4688 136.134 52.306 135.34 51.9805C134.546 51.6419 133.96 51.2122 133.582 50.6914C133.217 50.1576 132.964 49.4414 132.82 48.543C132.703 47.9049 132.645 46.6159 132.645 44.6758V35.6328H130.125V31.2578H132.645V27.1367L138.152 23.9336V31.2578H141.902ZM144.441 41.3359C144.441 39.513 144.891 37.7487 145.789 36.043C146.688 34.3372 147.957 33.0352 149.598 32.1367C151.251 31.2383 153.094 30.7891 155.125 30.7891C158.263 30.7891 160.835 31.8112 162.84 33.8555C164.845 35.8867 165.848 38.4583 165.848 41.5703C165.848 44.7083 164.832 47.3125 162.801 49.3828C160.783 51.4401 158.237 52.4688 155.164 52.4688C153.263 52.4688 151.447 52.0391 149.715 51.1797C147.996 50.3203 146.688 49.0638 145.789 47.4102C144.891 45.7435 144.441 43.7188 144.441 41.3359ZM150.066 41.6289C150.066 43.6862 150.555 45.2617 151.531 46.3555C152.508 47.4492 153.712 47.9961 155.145 47.9961C156.577 47.9961 157.775 47.4492 158.738 46.3555C159.715 45.2617 160.203 43.6732 160.203 41.5898C160.203 39.5586 159.715 37.9961 158.738 36.9023C157.775 35.8086 156.577 35.2617 155.145 35.2617C153.712 35.2617 152.508 35.8086 151.531 36.9023C150.555 37.9961 150.066 39.5716 150.066 41.6289ZM170.008 31.2578H175.125V34.3047C175.789 33.263 176.688 32.4167 177.82 31.7656C178.953 31.1146 180.21 30.7891 181.59 30.7891C183.999 30.7891 186.043 31.7331 187.723 33.6211C189.402 35.5091 190.242 38.1393 190.242 41.5117C190.242 44.9753 189.396 47.6706 187.703 49.5977C186.01 51.5117 183.96 52.4688 181.551 52.4688C180.405 52.4688 179.363 52.2409 178.426 51.7852C177.501 51.3294 176.525 50.5482 175.496 49.4414V59.8906H170.008V31.2578ZM175.438 41.2773C175.438 43.6081 175.9 45.3333 176.824 46.4531C177.749 47.5599 178.875 48.1133 180.203 48.1133C181.479 48.1133 182.54 47.6055 183.387 46.5898C184.233 45.5612 184.656 43.8815 184.656 41.5508C184.656 39.3763 184.22 37.7617 183.348 36.707C182.475 35.6523 181.395 35.125 180.105 35.125C178.764 35.125 177.651 35.6458 176.766 36.6875C175.88 37.7161 175.438 39.2461 175.438 41.2773Z" fill="black"/>
<path d="M117.18 94.5207L183.398 94.4249L230.289 141.18L230.384 207.398L183.629 254.288L117.412 254.384L70.5211 207.629L70.4252 141.411L117.18 94.5207Z" fill="#B92429" stroke="black" stroke-width="6"/>
<path d="M83.6451 179.418L88.1452 179.024C88.3584 180.827 88.8502 182.311 89.6207 183.475C90.4076 184.623 91.6208 185.557 93.2602 186.279C94.8996 186.983 96.7439 187.336 98.7932 187.336C100.613 187.336 102.22 187.065 103.613 186.524C105.007 185.983 106.039 185.246 106.712 184.311C107.4 183.36 107.744 182.328 107.744 181.213C107.744 180.082 107.416 179.098 106.761 178.262C106.105 177.409 105.023 176.696 103.515 176.122C102.547 175.745 100.408 175.163 97.0964 174.376C93.7848 173.573 91.465 172.819 90.1371 172.114C88.4157 171.212 87.1288 170.098 86.2763 168.77C85.4402 167.425 85.0222 165.925 85.0222 164.269C85.0222 162.45 85.5386 160.753 86.5714 159.179C87.6042 157.589 89.1125 156.384 91.0962 155.564C93.0798 154.745 95.2848 154.335 97.7112 154.335C100.383 154.335 102.736 154.769 104.769 155.638C106.818 156.491 108.392 157.753 109.49 159.425C110.589 161.097 111.179 162.991 111.261 165.106L106.687 165.45C106.441 163.171 105.605 161.45 104.179 160.286C102.769 159.122 100.678 158.54 97.9079 158.54C95.0225 158.54 92.9159 159.073 91.588 160.138C90.2765 161.187 89.6207 162.458 89.6207 163.95C89.6207 165.245 90.0879 166.311 91.0224 167.147C91.9405 167.983 94.334 168.843 98.203 169.729C102.088 170.598 104.752 171.36 106.195 172.016C108.294 172.983 109.843 174.212 110.843 175.704C111.843 177.18 112.343 178.885 112.343 180.819C112.343 182.737 111.794 184.549 110.695 186.254C109.597 187.943 108.015 189.262 105.949 190.213C103.9 191.148 101.588 191.615 99.0145 191.615C95.7521 191.615 93.0143 191.139 90.8011 190.188C88.6043 189.238 86.8747 187.811 85.6123 185.91C84.3664 183.992 83.7106 181.828 83.6451 179.418ZM128.032 191V159.204H116.154V154.949H144.729V159.204H132.803V191H128.032ZM147.262 173.442C147.262 167.458 148.869 162.778 152.082 159.4C155.295 156.007 159.443 154.31 164.525 154.31C167.853 154.31 170.853 155.105 173.525 156.695C176.198 158.286 178.231 160.507 179.624 163.36C181.034 166.196 181.739 169.417 181.739 173.024C181.739 176.68 181.001 179.95 179.526 182.836C178.05 185.721 175.96 187.91 173.255 189.402C170.55 190.877 167.632 191.615 164.501 191.615C161.107 191.615 158.074 190.795 155.402 189.156C152.73 187.516 150.705 185.278 149.328 182.442C147.951 179.606 147.262 176.606 147.262 173.442ZM152.18 173.516C152.18 177.86 153.344 181.287 155.672 183.795C158.017 186.287 160.951 187.533 164.476 187.533C168.066 187.533 171.017 186.27 173.329 183.746C175.657 181.221 176.821 177.639 176.821 172.999C176.821 170.065 176.321 167.507 175.321 165.327C174.337 163.13 172.886 161.433 170.968 160.237C169.066 159.023 166.927 158.417 164.55 158.417C161.173 158.417 158.263 159.581 155.82 161.909C153.394 164.22 152.18 168.089 152.18 173.516ZM187.911 191V154.949H201.51C203.904 154.949 205.732 155.064 206.994 155.294C208.765 155.589 210.248 156.154 211.445 156.991C212.642 157.81 213.601 158.966 214.322 160.458C215.06 161.95 215.429 163.589 215.429 165.376C215.429 168.442 214.453 171.04 212.502 173.171C210.551 175.286 207.027 176.344 201.928 176.344H192.682V191H187.911ZM192.682 172.089H202.002C205.084 172.089 207.273 171.516 208.568 170.368C209.863 169.22 210.51 167.606 210.51 165.524C210.51 164.015 210.125 162.728 209.355 161.663C208.601 160.581 207.601 159.868 206.355 159.523C205.551 159.31 204.068 159.204 201.904 159.204H192.682V172.089Z" fill="white"/>
</svg>
