<svg width="300" height="300" viewBox="0 0 300 300" fill="none" xmlns="http://www.w3.org/2000/svg">
<path d="M121.824 31.2578V35.6328H118.074V43.9922C118.074 45.6849 118.107 46.6745 118.172 46.9609C118.25 47.2344 118.413 47.4622 118.66 47.6445C118.921 47.8268 119.233 47.918 119.598 47.918C120.105 47.918 120.841 47.7422 121.805 47.3906L122.273 51.6484C120.997 52.1953 119.552 52.4688 117.938 52.4688C116.948 52.4688 116.056 52.306 115.262 51.9805C114.467 51.6419 113.882 51.2122 113.504 50.6914C113.139 50.1576 112.885 49.4414 112.742 48.543C112.625 47.9049 112.566 46.6159 112.566 44.6758V35.6328H110.047V31.2578H112.566V27.1367L118.074 23.9336V31.2578H121.824ZM129.734 37.5859L124.754 36.6875C125.314 34.6823 126.277 33.1979 127.645 32.2344C129.012 31.2708 131.043 30.7891 133.738 30.7891C136.186 30.7891 138.009 31.082 139.207 31.668C140.405 32.2409 141.245 32.9766 141.727 33.875C142.221 34.7604 142.469 36.3945 142.469 38.7773L142.41 45.1836C142.41 47.0065 142.495 48.3542 142.664 49.2266C142.846 50.0859 143.178 51.0104 143.66 52H138.23C138.087 51.6354 137.911 51.0951 137.703 50.3789C137.612 50.0534 137.547 49.8385 137.508 49.7344C136.57 50.6458 135.568 51.3294 134.5 51.7852C133.432 52.2409 132.293 52.4688 131.082 52.4688C128.947 52.4688 127.26 51.8893 126.023 50.7305C124.799 49.5716 124.188 48.1068 124.188 46.3359C124.188 45.1641 124.467 44.1224 125.027 43.2109C125.587 42.2865 126.368 41.5833 127.371 41.1016C128.387 40.6068 129.845 40.1771 131.746 39.8125C134.311 39.3307 136.089 38.8815 137.078 38.4648V37.918C137.078 36.8633 136.818 36.1146 136.297 35.6719C135.776 35.2161 134.793 34.9883 133.348 34.9883C132.371 34.9883 131.609 35.1836 131.062 35.5742C130.516 35.9518 130.073 36.6224 129.734 37.5859ZM137.078 42.0391C136.375 42.2734 135.262 42.5534 133.738 42.8789C132.215 43.2044 131.219 43.5234 130.75 43.8359C130.034 44.3438 129.676 44.9883 129.676 45.7695C129.676 46.5378 129.962 47.2018 130.535 47.7617C131.108 48.3216 131.837 48.6016 132.723 48.6016C133.712 48.6016 134.656 48.276 135.555 47.625C136.219 47.1302 136.655 46.5247 136.863 45.8086C137.007 45.3398 137.078 44.4479 137.078 43.1328V42.0391ZM147.703 52V23.3672H153.191V38.5625L159.617 31.2578H166.375L159.285 38.8359L166.883 52H160.965L155.75 42.6836L153.191 45.3594V52H147.703ZM182.176 45.3984L187.645 46.3164C186.941 48.3216 185.828 49.8516 184.305 50.9062C182.794 51.9479 180.9 52.4688 178.621 52.4688C175.014 52.4688 172.345 51.2904 170.613 48.9336C169.246 47.0456 168.562 44.6628 168.562 41.7852C168.562 38.3477 169.461 35.6589 171.258 33.7188C173.055 31.7656 175.327 30.7891 178.074 30.7891C181.16 30.7891 183.595 31.8112 185.379 33.8555C187.163 35.8867 188.016 39.0052 187.938 43.2109H174.188C174.227 44.8385 174.669 46.1081 175.516 47.0195C176.362 47.918 177.417 48.3672 178.68 48.3672C179.539 48.3672 180.262 48.1328 180.848 47.6641C181.434 47.1953 181.876 46.4401 182.176 45.3984ZM182.488 39.8516C182.449 38.263 182.039 37.0586 181.258 36.2383C180.477 35.4049 179.526 34.9883 178.406 34.9883C177.208 34.9883 176.219 35.4245 175.438 36.2969C174.656 37.1693 174.272 38.3542 174.285 39.8516H182.488Z" fill="black"/>
<path d="M134.784 166.611C132.403 164.131 129.061 161.145 126.581 163.525C124.101 165.905 127.215 168.157 129.595 170.637C131.976 173.117 134.79 175.029 134.741 177.46C134.691 179.89 128.426 177.44 120.848 176.163C113.698 174.959 109.092 174.593 108.308 177.251C107.525 179.905 110.965 180.625 115.251 181.523L115.271 181.527C119.566 182.426 123.092 183.138 126.484 183.693C129.877 184.249 130.253 187.487 125.555 187.651C120.858 187.816 117.484 186.658 114.047 186.737C108.453 186.865 105.139 186.657 104.894 189.58C104.553 193.663 108.75 192.931 110.446 193.209C112.991 193.626 126.108 193.092 126.895 195.623C127.351 197.092 122.212 198.688 118.82 198.132C115.428 197.576 111.301 197.249 110.289 199.173C109.277 201.097 111.43 202.843 113.354 203.855C115.278 204.867 133.758 204.76 138.668 202.429C143.578 200.099 145.196 192.352 146.714 189.466C148.232 186.579 147.369 181.213 145.723 178.505C144.077 175.797 137.164 169.091 134.784 166.611Z" fill="black" stroke="black" stroke-width="1.53732" stroke-linecap="round"/>
<rect x="73.68" y="187.68" width="52.64" height="52.64" fill="#B92429" stroke="black" stroke-width="3.36"/>
<path d="M203 74.083C181.704 74.083 164.083 93.3013 164.083 117.474C164.083 141.646 181.704 160.865 203 160.865C224.296 160.865 241.917 141.646 241.917 117.474C241.917 93.3013 224.296 74.083 203 74.083Z" fill="#BC8166" stroke="black" stroke-width="4.16557"/>
<ellipse cx="6.30769" cy="6.24835" rx="6.30769" ry="6.24835" transform="matrix(-1 0 0 1 194.912 101)" fill="black"/>
<path d="M198.949 137C196.73 139.905 190.259 145.776 182.129 146.017C178.255 146.132 174.217 145 170.936 141.5" stroke="black" stroke-width="4.85983" stroke-linecap="round"/>
<path d="M206 162.5C205.632 166.485 205.21 172.275 204.943 178.5M223 260C218.333 246.667 208.4 217.5 206 207.5C204.483 201.179 204.484 189.197 204.943 178.5M204.943 178.5L187.5 250.5L139.5 241M204.943 178.5L171 227.5L139.5 190M22.5 211L39 233L58 238.5" stroke="black" stroke-width="4.86" stroke-linecap="round"/>
<path d="M64.1707 210.403C66.4537 207.837 69.6782 204.73 72.2439 207.013C74.8097 209.296 71.7853 211.662 69.5022 214.227C67.2191 216.793 64.4811 218.808 64.6225 221.233C64.7639 223.657 70.9256 220.975 78.4432 219.415C85.537 217.943 90.1213 217.404 91.0042 220.028C91.8856 222.648 88.479 223.497 84.2333 224.555L84.2138 224.559C79.9591 225.619 76.4661 226.462 73.1003 227.145C69.7345 227.828 69.4807 231.074 74.1767 231.062C78.8728 231.049 82.1976 229.765 85.6316 229.714C91.2217 229.632 94.5227 229.299 94.8768 232.209C95.3714 236.272 91.1536 235.699 89.4707 236.041C86.9464 236.553 73.8303 236.514 73.1404 239.071C72.7403 240.554 77.9304 241.954 81.2963 241.271C84.6621 240.589 88.7694 240.106 89.8522 241.989C90.935 243.872 88.8521 245.696 86.9692 246.779C85.0862 247.862 66.6328 248.451 61.6428 246.31C56.6527 244.168 54.7456 236.495 53.1213 233.67C51.497 230.846 52.1558 225.456 53.6973 222.69C55.2389 219.924 61.8877 212.969 64.1707 210.403Z" fill="black" stroke="black" stroke-width="1.5359" stroke-linecap="round"/>
<path d="M140.145 210.857C138.114 208.083 135.197 204.68 132.423 206.711C129.649 208.741 132.438 211.386 134.468 214.16C136.499 216.934 139.035 219.202 138.664 221.604C138.292 224.006 132.408 220.747 125.066 218.477C118.138 216.336 113.621 215.362 112.492 217.893C111.364 220.42 114.678 221.59 118.808 223.048L118.827 223.055C122.965 224.515 126.365 225.688 129.654 226.688C132.943 227.689 132.886 230.948 128.209 230.488C123.531 230.028 120.34 228.433 116.923 228.056C111.361 227.441 108.104 226.796 107.474 229.661C106.595 233.663 110.852 233.494 112.496 233.994C114.963 234.744 128.035 235.954 128.479 238.567C128.736 240.083 123.432 240.984 120.143 239.984C116.854 238.983 112.808 238.111 111.55 239.884C110.292 241.657 112.194 243.673 113.967 244.931C115.74 246.189 134.07 248.533 139.246 246.874C144.422 245.215 147.052 237.751 148.94 235.092C150.827 232.432 150.683 226.999 149.411 224.096C148.138 221.194 142.175 213.63 140.145 210.857Z" fill="black" stroke="black" stroke-width="1.53732" stroke-linecap="round"/>
</svg>
