<svg width="300" height="300" viewBox="0 0 300 300" fill="none" xmlns="http://www.w3.org/2000/svg">
<rect x="5.5" y="5.5" width="289" height="289" rx="14.5" fill="#FFE3FF"/>
<rect x="5.5" y="5.5" width="289" height="289" rx="14.5" stroke="#FE05FC" stroke-width="11"/>
<path d="M121.824 31.2578V35.6328H118.074V43.9922C118.074 45.6849 118.107 46.6745 118.172 46.9609C118.25 47.2344 118.413 47.4622 118.66 47.6445C118.921 47.8268 119.233 47.918 119.598 47.918C120.105 47.918 120.841 47.7422 121.805 47.3906L122.273 51.6484C120.997 52.1953 119.552 52.4688 117.938 52.4688C116.948 52.4688 116.056 52.306 115.262 51.9805C114.467 51.6419 113.882 51.2122 113.504 50.6914C113.139 50.1576 112.885 49.4414 112.742 48.543C112.625 47.9049 112.566 46.6159 112.566 44.6758V35.6328H110.047V31.2578H112.566V27.1367L118.074 23.9336V31.2578H121.824ZM129.734 37.5859L124.754 36.6875C125.314 34.6823 126.277 33.1979 127.645 32.2344C129.012 31.2708 131.043 30.7891 133.738 30.7891C136.186 30.7891 138.009 31.082 139.207 31.668C140.405 32.2409 141.245 32.9766 141.727 33.875C142.221 34.7604 142.469 36.3945 142.469 38.7773L142.41 45.1836C142.41 47.0065 142.495 48.3542 142.664 49.2266C142.846 50.0859 143.178 51.0104 143.66 52H138.23C138.087 51.6354 137.911 51.0951 137.703 50.3789C137.612 50.0534 137.547 49.8385 137.508 49.7344C136.57 50.6458 135.568 51.3294 134.5 51.7852C133.432 52.2409 132.293 52.4688 131.082 52.4688C128.947 52.4688 127.26 51.8893 126.023 50.7305C124.799 49.5716 124.188 48.1068 124.188 46.3359C124.188 45.1641 124.467 44.1224 125.027 43.2109C125.587 42.2865 126.368 41.5833 127.371 41.1016C128.387 40.6068 129.845 40.1771 131.746 39.8125C134.311 39.3307 136.089 38.8815 137.078 38.4648V37.918C137.078 36.8633 136.818 36.1146 136.297 35.6719C135.776 35.2161 134.793 34.9883 133.348 34.9883C132.371 34.9883 131.609 35.1836 131.062 35.5742C130.516 35.9518 130.073 36.6224 129.734 37.5859ZM137.078 42.0391C136.375 42.2734 135.262 42.5534 133.738 42.8789C132.215 43.2044 131.219 43.5234 130.75 43.8359C130.034 44.3438 129.676 44.9883 129.676 45.7695C129.676 46.5378 129.962 47.2018 130.535 47.7617C131.108 48.3216 131.837 48.6016 132.723 48.6016C133.712 48.6016 134.656 48.276 135.555 47.625C136.219 47.1302 136.655 46.5247 136.863 45.8086C137.007 45.3398 137.078 44.4479 137.078 43.1328V42.0391ZM147.703 52V23.3672H153.191V38.5625L159.617 31.2578H166.375L159.285 38.8359L166.883 52H160.965L155.75 42.6836L153.191 45.3594V52H147.703ZM182.176 45.3984L187.645 46.3164C186.941 48.3216 185.828 49.8516 184.305 50.9062C182.794 51.9479 180.9 52.4688 178.621 52.4688C175.014 52.4688 172.345 51.2904 170.613 48.9336C169.246 47.0456 168.562 44.6628 168.562 41.7852C168.562 38.3477 169.461 35.6589 171.258 33.7188C173.055 31.7656 175.327 30.7891 178.074 30.7891C181.16 30.7891 183.595 31.8112 185.379 33.8555C187.163 35.8867 188.016 39.0052 187.938 43.2109H174.188C174.227 44.8385 174.669 46.1081 175.516 47.0195C176.362 47.918 177.417 48.3672 178.68 48.3672C179.539 48.3672 180.262 48.1328 180.848 47.6641C181.434 47.1953 181.876 46.4401 182.176 45.3984ZM182.488 39.8516C182.449 38.263 182.039 37.0586 181.258 36.2383C180.477 35.4049 179.526 34.9883 178.406 34.9883C177.208 34.9883 176.219 35.4245 175.438 36.2969C174.656 37.1693 174.272 38.3542 174.285 39.8516H182.488Z" fill="black"/>
<path d="M134.783 166.611C132.403 164.131 129.06 161.145 126.58 163.525C124.1 165.905 127.214 168.157 129.595 170.637C131.975 173.117 134.79 175.029 134.74 177.46C134.69 179.89 128.426 177.44 120.848 176.163C113.697 174.959 109.091 174.593 108.307 177.251C107.525 179.905 110.964 180.625 115.25 181.523L115.27 181.527C119.566 182.426 123.091 183.138 126.484 183.693C129.876 184.249 130.252 187.487 125.555 187.651C120.857 187.816 117.483 186.658 114.047 186.737C108.452 186.865 105.138 186.657 104.894 189.58C104.553 193.663 108.75 192.931 110.446 193.209C112.99 193.626 126.107 193.092 126.894 195.623C127.35 197.092 122.212 198.688 118.819 198.132C115.427 197.576 111.301 197.249 110.289 199.173C109.277 201.097 111.429 202.843 113.353 203.855C115.278 204.867 133.757 204.76 138.667 202.429C143.578 200.099 145.195 192.352 146.713 189.466C148.231 186.579 147.369 181.213 145.722 178.505C144.076 175.797 137.163 169.091 134.783 166.611Z" fill="black" stroke="black" stroke-width="1.53732" stroke-linecap="round"/>
<rect x="73.68" y="187.68" width="52.64" height="52.64" fill="#B92429" stroke="black" stroke-width="3.36"/>
<path d="M164.083 117.474C164.083 141.647 181.704 160.865 203 160.865C224.296 160.865 241.917 141.647 241.917 117.474C241.917 93.3016 224.296 74.0828 203 74.0828C181.704 74.0828 164.083 93.3016 164.083 117.474Z" fill="#BC8166" stroke="black" stroke-width="4.16557"/>
<ellipse cx="6.30769" cy="6.24835" rx="6.30769" ry="6.24835" transform="matrix(-1 0 0 1 194.912 101)" fill="black"/>
<path d="M198.95 137C196.731 139.905 190.26 145.776 182.13 146.017C178.255 146.132 174.218 145 170.937 141.5" stroke="black" stroke-width="4.85983" stroke-linecap="round"/>
<path d="M206 162.5C205.632 166.485 205.21 172.275 204.943 178.5M223 260C218.333 246.667 208.4 217.5 206 207.5C204.483 201.179 204.484 189.197 204.943 178.5M204.943 178.5L187.5 250.5L139.5 241M204.943 178.5L171 227.5L139.5 190M22.5 211L39 233L58 238.5" stroke="black" stroke-width="4.86" stroke-linecap="round"/>
<path d="M64.1714 210.403C66.4544 207.837 69.6789 204.73 72.2447 207.013C74.8104 209.296 71.786 211.662 69.503 214.227C67.2199 216.793 64.4818 218.808 64.6232 221.233C64.7646 223.657 70.9263 220.975 78.4439 219.415C85.5377 217.943 90.1221 217.404 91.0049 220.028C91.8864 222.648 88.4798 223.497 84.2341 224.555L84.2146 224.559C79.9598 225.619 76.4669 226.462 73.1011 227.145C69.7352 227.828 69.4815 231.074 74.1775 231.062C78.8735 231.049 82.1983 229.765 85.6323 229.714C91.2224 229.632 94.5234 229.299 94.8776 232.209C95.3722 236.272 91.1543 235.699 89.4714 236.041C86.9471 236.553 73.831 236.514 73.1411 239.071C72.7411 240.554 77.9312 241.954 81.297 241.271C84.6628 240.589 88.7701 240.106 89.8529 241.989C90.9358 243.872 88.8528 245.696 86.9699 246.779C85.087 247.862 66.6336 248.451 61.6435 246.31C56.6534 244.168 54.7463 236.495 53.122 233.67C51.4978 230.846 52.1565 225.456 53.6981 222.69C55.2396 219.924 61.8884 212.969 64.1714 210.403Z" fill="black" stroke="black" stroke-width="1.5359" stroke-linecap="round"/>
<path d="M140.145 210.857C138.115 208.083 135.198 204.68 132.424 206.711C129.65 208.741 132.438 211.386 134.469 214.16C136.5 216.934 139.036 219.202 138.664 221.604C138.293 224.006 132.409 220.747 125.067 218.477C118.139 216.336 113.622 215.362 112.493 217.893C111.365 220.42 114.679 221.59 118.808 223.048L118.827 223.055C122.966 224.515 126.366 225.688 129.655 226.688C132.943 227.689 132.887 230.948 128.209 230.488C123.532 230.028 120.341 228.433 116.924 228.056C111.362 227.441 108.105 226.796 107.475 229.661C106.595 233.663 110.853 233.494 112.497 233.994C114.963 234.744 128.036 235.954 128.48 238.567C128.737 240.083 123.433 240.984 120.144 239.984C116.855 238.983 112.809 238.111 111.551 239.884C110.293 241.657 112.194 243.673 113.967 244.931C115.74 246.189 134.071 248.533 139.247 246.874C144.423 245.215 147.053 237.751 148.94 235.092C150.828 232.432 150.684 226.999 149.411 224.096C148.139 221.194 142.176 213.63 140.145 210.857Z" fill="black" stroke="black" stroke-width="1.53732" stroke-linecap="round"/>
</svg>
