<svg width="300" height="300" viewBox="0 0 300 300" fill="none" xmlns="http://www.w3.org/2000/svg">
<rect width="300" height="300" fill="white"/>
<path d="M95.7796 104.935C88.9936 105.326 83.348 105.021 71.5224 108.979L68.9677 120.254L70.2306 121.205L81.3594 123.251C90.9494 126.454 80.0405 126.532 86.1991 130.273C90.2278 132.721 93.8346 128.978 95.6001 124.974C96.5334 122.857 95.7037 121.273 96.8785 119.168C102.111 126.76 89.2226 129.787 93.8304 136.472C99.3212 144.439 110.761 134.242 111.095 124.573C117.03 135.768 101.921 137.499 105.978 143.386C113.133 153.767 128.428 140.564 126.133 129.671C139.781 136.058 164.532 149.536 168.279 144.543C172.774 138.553 148.376 128.991 137.443 122.351C132.661 119.446 107.139 104.281 95.7796 104.935Z" fill="black" stroke="black" stroke-width="0.60865"/>
<path d="M71.2971 115.17L28.0001 98.6951" stroke="black" stroke-width="13.1503" stroke-linecap="round"/>
<path d="M126.414 48.8555L126.922 51.9609C125.932 52.1693 125.047 52.2734 124.266 52.2734C122.99 52.2734 122 52.0716 121.297 51.668C120.594 51.2643 120.099 50.737 119.812 50.0859C119.526 49.4219 119.383 48.0352 119.383 45.9258V33.9922H116.805V31.2578H119.383V26.1211L122.879 24.0117V31.2578H126.414V33.9922H122.879V46.1211C122.879 47.1237 122.938 47.7682 123.055 48.0547C123.185 48.3411 123.387 48.569 123.66 48.7383C123.947 48.9076 124.35 48.9922 124.871 48.9922C125.262 48.9922 125.776 48.9466 126.414 48.8555ZM129.871 52V23.3672H133.387V33.6406C135.027 31.7396 137.098 30.7891 139.598 30.7891C141.134 30.7891 142.469 31.0951 143.602 31.707C144.734 32.306 145.542 33.1393 146.023 34.207C146.518 35.2747 146.766 36.8242 146.766 38.8555V52H143.25V38.8555C143.25 37.0977 142.866 35.8216 142.098 35.0273C141.342 34.2201 140.268 33.8164 138.875 33.8164C137.833 33.8164 136.85 34.0898 135.926 34.6367C135.014 35.1706 134.363 35.8997 133.973 36.8242C133.582 37.7487 133.387 39.0247 133.387 40.6523V52H129.871ZM165.672 49.4414C164.37 50.5482 163.113 51.3294 161.902 51.7852C160.704 52.2409 159.415 52.4688 158.035 52.4688C155.757 52.4688 154.005 51.9154 152.781 50.8086C151.557 49.6888 150.945 48.263 150.945 46.5312C150.945 45.5156 151.173 44.5911 151.629 43.7578C152.098 42.9115 152.703 42.2344 153.445 41.7266C154.201 41.2188 155.047 40.8346 155.984 40.5742C156.674 40.3919 157.716 40.2161 159.109 40.0469C161.948 39.7083 164.038 39.3047 165.379 38.8359C165.392 38.3542 165.398 38.0482 165.398 37.918C165.398 36.4857 165.066 35.4766 164.402 34.8906C163.504 34.0964 162.169 33.6992 160.398 33.6992C158.745 33.6992 157.521 33.9922 156.727 34.5781C155.945 35.151 155.366 36.1732 154.988 37.6445L151.551 37.1758C151.863 35.7044 152.378 34.5195 153.094 33.6211C153.81 32.7096 154.845 32.013 156.199 31.5312C157.553 31.0365 159.122 30.7891 160.906 30.7891C162.677 30.7891 164.116 30.9974 165.223 31.4141C166.329 31.8307 167.143 32.3581 167.664 32.9961C168.185 33.6211 168.549 34.4154 168.758 35.3789C168.875 35.9779 168.934 37.0586 168.934 38.6211V43.3086C168.934 46.5768 169.005 48.6471 169.148 49.5195C169.305 50.3789 169.604 51.2057 170.047 52H166.375C166.01 51.2708 165.776 50.418 165.672 49.4414ZM165.379 41.5898C164.103 42.1107 162.189 42.5534 159.637 42.918C158.191 43.1263 157.169 43.3607 156.57 43.6211C155.971 43.8815 155.509 44.2656 155.184 44.7734C154.858 45.2682 154.695 45.8216 154.695 46.4336C154.695 47.3711 155.047 48.1523 155.75 48.7773C156.466 49.4023 157.508 49.7148 158.875 49.7148C160.229 49.7148 161.434 49.4219 162.488 48.8359C163.543 48.237 164.318 47.4232 164.812 46.3945C165.19 45.6003 165.379 44.4284 165.379 42.8789V41.5898ZM182.078 48.8555L182.586 51.9609C181.596 52.1693 180.711 52.2734 179.93 52.2734C178.654 52.2734 177.664 52.0716 176.961 51.668C176.258 51.2643 175.763 50.737 175.477 50.0859C175.19 49.4219 175.047 48.0352 175.047 45.9258V33.9922H172.469V31.2578H175.047V26.1211L178.543 24.0117V31.2578H182.078V33.9922H178.543V46.1211C178.543 47.1237 178.602 47.7682 178.719 48.0547C178.849 48.3411 179.051 48.569 179.324 48.7383C179.611 48.9076 180.014 48.9922 180.535 48.9922C180.926 48.9922 181.44 48.9466 182.078 48.8555Z" fill="black"/>
<rect x="163.36" y="162.36" width="105.28" height="105.28" fill="#B92429" stroke="black" stroke-width="6.72"/>
</svg>
