<svg width="300" height="300" viewBox="0 0 300 300" fill="none" xmlns="http://www.w3.org/2000/svg">
<rect x="5.5" y="5.5" width="289" height="289" rx="14.5" fill="#FFF0E2"/>
<rect x="5.5" y="5.5" width="289" height="289" rx="14.5" stroke="#FF7602" stroke-width="11"/>
<path d="M95.7796 104.935C88.9936 105.326 83.348 105.021 71.5224 108.979L68.9677 120.254L70.2306 121.205L81.3594 123.251C90.9494 126.454 80.0405 126.532 86.1991 130.273C90.2278 132.721 93.8346 128.978 95.6001 124.974C96.5334 122.858 95.7037 121.273 96.8785 119.168C102.111 126.76 89.2226 129.787 93.8304 136.472C99.3212 144.439 110.761 134.242 111.095 124.573C117.03 135.768 101.921 137.499 105.978 143.386C113.133 153.767 128.428 140.564 126.133 129.671C139.781 136.058 164.532 149.536 168.279 144.543C172.774 138.553 148.376 128.991 137.443 122.351C132.661 119.447 107.139 104.281 95.7796 104.935Z" fill="black" stroke="black" stroke-width="0.60865"/>
<path d="M71.297 115.17L28 98.6951" stroke="black" stroke-width="13.1503" stroke-linecap="round"/>
<path d="M124.703 31.2578V35.6328H120.953V43.9922C120.953 45.6849 120.986 46.6745 121.051 46.9609C121.129 47.2344 121.292 47.4622 121.539 47.6445C121.799 47.8268 122.112 47.918 122.477 47.918C122.984 47.918 123.72 47.7422 124.684 47.3906L125.152 51.6484C123.876 52.1953 122.431 52.4688 120.816 52.4688C119.827 52.4688 118.935 52.306 118.141 51.9805C117.346 51.6419 116.76 51.2122 116.383 50.6914C116.018 50.1576 115.764 49.4414 115.621 48.543C115.504 47.9049 115.445 46.6159 115.445 44.6758V35.6328H112.926V31.2578H115.445V27.1367L120.953 23.9336V31.2578H124.703ZM133.98 23.3672V33.8945C135.751 31.8242 137.867 30.7891 140.328 30.7891C141.591 30.7891 142.73 31.0234 143.746 31.4922C144.762 31.9609 145.523 32.5599 146.031 33.2891C146.552 34.0182 146.904 34.8255 147.086 35.7109C147.281 36.5964 147.379 37.9701 147.379 39.832V52H141.891V41.043C141.891 38.8685 141.786 37.4883 141.578 36.9023C141.37 36.3164 140.999 35.8542 140.465 35.5156C139.944 35.1641 139.286 34.9883 138.492 34.9883C137.581 34.9883 136.767 35.2096 136.051 35.6523C135.335 36.0951 134.807 36.7656 134.469 37.6641C134.143 38.5495 133.98 39.8646 133.98 41.6094V52H128.492V23.3672H133.98ZM157.066 37.5859L152.086 36.6875C152.646 34.6823 153.609 33.1979 154.977 32.2344C156.344 31.2708 158.375 30.7891 161.07 30.7891C163.518 30.7891 165.341 31.082 166.539 31.668C167.737 32.2409 168.577 32.9766 169.059 33.875C169.553 34.7604 169.801 36.3945 169.801 38.7773L169.742 45.1836C169.742 47.0065 169.827 48.3542 169.996 49.2266C170.178 50.0859 170.51 51.0104 170.992 52H165.562C165.419 51.6354 165.243 51.0951 165.035 50.3789C164.944 50.0534 164.879 49.8385 164.84 49.7344C163.902 50.6458 162.9 51.3294 161.832 51.7852C160.764 52.2409 159.625 52.4688 158.414 52.4688C156.279 52.4688 154.592 51.8893 153.355 50.7305C152.132 49.5716 151.52 48.1068 151.52 46.3359C151.52 45.1641 151.799 44.1224 152.359 43.2109C152.919 42.2865 153.701 41.5833 154.703 41.1016C155.719 40.6068 157.177 40.1771 159.078 39.8125C161.643 39.3307 163.421 38.8815 164.41 38.4648V37.918C164.41 36.8633 164.15 36.1146 163.629 35.6719C163.108 35.2161 162.125 34.9883 160.68 34.9883C159.703 34.9883 158.941 35.1836 158.395 35.5742C157.848 35.9518 157.405 36.6224 157.066 37.5859ZM164.41 42.0391C163.707 42.2734 162.594 42.5534 161.07 42.8789C159.547 43.2044 158.551 43.5234 158.082 43.8359C157.366 44.3438 157.008 44.9883 157.008 45.7695C157.008 46.5378 157.294 47.2018 157.867 47.7617C158.44 48.3216 159.169 48.6016 160.055 48.6016C161.044 48.6016 161.988 48.276 162.887 47.625C163.551 47.1302 163.987 46.5247 164.195 45.8086C164.339 45.3398 164.41 44.4479 164.41 43.1328V42.0391ZM184.742 31.2578V35.6328H180.992V43.9922C180.992 45.6849 181.025 46.6745 181.09 46.9609C181.168 47.2344 181.331 47.4622 181.578 47.6445C181.839 47.8268 182.151 47.918 182.516 47.918C183.023 47.918 183.759 47.7422 184.723 47.3906L185.191 51.6484C183.915 52.1953 182.47 52.4688 180.855 52.4688C179.866 52.4688 178.974 52.306 178.18 51.9805C177.385 51.6419 176.799 51.2122 176.422 50.6914C176.057 50.1576 175.803 49.4414 175.66 48.543C175.543 47.9049 175.484 46.6159 175.484 44.6758V35.6328H172.965V31.2578H175.484V27.1367L180.992 23.9336V31.2578H184.742Z" fill="black"/>
<rect x="163.36" y="162.36" width="105.28" height="105.28" fill="#B92429" stroke="black" stroke-width="6.72"/>
</svg>
