<svg width="300" height="300" viewBox="0 0 300 300" fill="none" xmlns="http://www.w3.org/2000/svg">
<rect x="5.5" y="5.5" width="289" height="289" rx="14.5" fill="#FFF0E2"/>
<rect x="5.5" y="5.5" width="289" height="289" rx="14.5" stroke="#FF7602" stroke-width="11"/>
<path d="M122.848 144.92C123.808 147.32 122.944 150.968 120.736 151.832C118.528 152.792 112.384 153.176 109.216 153.272C109.504 160.952 109.792 169.784 109.6 175.352C109.6 179.288 109.792 186.008 107.2 186.968C103.264 188.6 99.6156 187.64 98.2716 185.624C96.1596 182.36 96.4476 176.216 96.5436 172.856C96.6396 167.48 96.7356 160.28 96.7356 153.368H95.2956C92.2236 153.368 85.1196 153.272 83.2956 151.064C80.4156 147.704 82.5276 142.904 85.7916 142.04C88.0956 141.464 92.8956 141.464 96.6396 141.56C96.5436 140.312 96.5436 139.064 96.4476 137.912C96.2556 134.744 96.1596 127.832 99.0396 125.624C102.88 122.552 107.296 125.336 108.256 128.888C109.12 131.864 109.024 137.816 109.024 141.56H109.984C113.728 141.656 120.928 140.312 122.848 144.92ZM168.421 168.344C168.517 170.84 168.517 173.816 168.421 176.12C168.133 183.032 168.037 187.832 162.277 187.16C156.421 186.488 157.765 176.024 157.573 172.376C157.381 166.712 157.957 156.536 151.333 156.344C142.789 155.864 143.365 160.184 142.693 165.848L142.597 169.592V176.6C142.597 181.208 142.789 187.16 136.645 187.256C132.805 187.256 130.981 184.376 130.981 180.728V125.528C130.981 124.76 131.077 124.088 131.173 123.32C131.365 122.552 131.557 121.88 131.749 121.208C131.941 120.632 132.325 120.056 132.709 119.768C133.381 119.192 133.957 118.712 134.725 118.616C135.397 118.52 136.165 118.424 136.933 118.424C137.989 118.424 138.853 118.712 139.717 119.288C140.485 119.768 141.157 120.344 141.541 121.304C142.021 122.456 142.309 123.512 142.309 124.76C142.501 126.008 142.501 130.04 142.597 131.288V131.768C142.693 135.8 142.693 140.12 142.693 144.44V146.072C147.973 144.248 154.405 144.248 159.013 146.552C168.517 151.352 168.133 159.032 168.421 168.344ZM209.384 174.104C212.36 173.24 216.296 173.528 216.296 177.848C216.296 181.016 212.84 183.416 210.344 184.472C206.696 186.104 201.608 187.064 196.52 186.872C189.608 186.584 182.696 184.28 179.144 178.616C175.88 173.048 175.4 165.464 176.648 159.416C178.088 152.024 181.64 147.512 186.344 144.728C192.008 141.464 199.88 141.368 206.312 144.248C210.632 146.168 214.28 149.432 216.104 154.04C217.064 156.344 217.544 161.144 216.584 163.928C214.952 168.536 212.264 168.632 205.256 168.92C199.112 169.208 194.792 168.92 187.4 168.728C186.632 173.912 192.296 175.928 197 176.312C201.32 176.6 205.16 175.352 209.384 174.104ZM205.256 155.48C204.104 154.136 202.856 153.08 201.416 152.408C199.4 151.544 197 151.736 194.984 152.312C192.968 152.792 191.624 153.656 190.28 155.192C189.896 155.576 187.208 159.704 188.264 159.704H207.08C206.984 157.88 206.504 156.824 205.256 155.48Z" fill="black"/>
</svg>
