<svg width="300" height="300" viewBox="0 0 300 300" fill="none" xmlns="http://www.w3.org/2000/svg">
<path d="M112.438 31.2578V35.6328H108.688V43.9922C108.688 45.6849 108.72 46.6745 108.785 46.9609C108.863 47.2344 109.026 47.4622 109.273 47.6445C109.534 47.8268 109.846 47.918 110.211 47.918C110.719 47.918 111.454 47.7422 112.418 47.3906L112.887 51.6484C111.611 52.1953 110.165 52.4688 108.551 52.4688C107.561 52.4688 106.669 52.306 105.875 51.9805C105.081 51.6419 104.495 51.2122 104.117 50.6914C103.753 50.1576 103.499 49.4414 103.355 48.543C103.238 47.9049 103.18 46.6159 103.18 44.6758V35.6328H100.66V31.2578H103.18V27.1367L108.688 23.9336V31.2578H112.438ZM121.715 23.3672V33.8945C123.486 31.8242 125.602 30.7891 128.062 30.7891C129.326 30.7891 130.465 31.0234 131.48 31.4922C132.496 31.9609 133.258 32.5599 133.766 33.2891C134.286 34.0182 134.638 34.8255 134.82 35.7109C135.016 36.5964 135.113 37.9701 135.113 39.832V52H129.625V41.043C129.625 38.8685 129.521 37.4883 129.312 36.9023C129.104 36.3164 128.733 35.8542 128.199 35.5156C127.678 35.1641 127.021 34.9883 126.227 34.9883C125.315 34.9883 124.501 35.2096 123.785 35.6523C123.069 36.0951 122.542 36.7656 122.203 37.6641C121.878 38.5495 121.715 39.8646 121.715 41.6094V52H116.227V23.3672H121.715ZM152.711 45.3984L158.18 46.3164C157.477 48.3216 156.363 49.8516 154.84 50.9062C153.329 51.9479 151.435 52.4688 149.156 52.4688C145.549 52.4688 142.88 51.2904 141.148 48.9336C139.781 47.0456 139.098 44.6628 139.098 41.7852C139.098 38.3477 139.996 35.6589 141.793 33.7188C143.59 31.7656 145.862 30.7891 148.609 30.7891C151.695 30.7891 154.13 31.8112 155.914 33.8555C157.698 35.8867 158.551 39.0052 158.473 43.2109H144.723C144.762 44.8385 145.204 46.1081 146.051 47.0195C146.897 47.918 147.952 48.3672 149.215 48.3672C150.074 48.3672 150.797 48.1328 151.383 47.6641C151.969 47.1953 152.411 46.4401 152.711 45.3984ZM153.023 39.8516C152.984 38.263 152.574 37.0586 151.793 36.2383C151.012 35.4049 150.061 34.9883 148.941 34.9883C147.743 34.9883 146.754 35.4245 145.973 36.2969C145.191 37.1693 144.807 38.3542 144.82 39.8516H153.023ZM168.219 52H162.73V31.2578H167.828V34.207C168.701 32.8138 169.482 31.8958 170.172 31.4531C170.875 31.0104 171.669 30.7891 172.555 30.7891C173.805 30.7891 175.009 31.1341 176.168 31.8242L174.469 36.6094C173.544 36.0104 172.685 35.7109 171.891 35.7109C171.122 35.7109 170.471 35.9258 169.938 36.3555C169.404 36.7721 168.98 37.5339 168.668 38.6406C168.368 39.7474 168.219 42.0651 168.219 45.5938V52ZM190.562 45.3984L196.031 46.3164C195.328 48.3216 194.215 49.8516 192.691 50.9062C191.181 51.9479 189.286 52.4688 187.008 52.4688C183.401 52.4688 180.732 51.2904 179 48.9336C177.633 47.0456 176.949 44.6628 176.949 41.7852C176.949 38.3477 177.848 35.6589 179.645 33.7188C181.441 31.7656 183.714 30.7891 186.461 30.7891C189.547 30.7891 191.982 31.8112 193.766 33.8555C195.549 35.8867 196.402 39.0052 196.324 43.2109H182.574C182.613 44.8385 183.056 46.1081 183.902 47.0195C184.749 47.918 185.803 48.3672 187.066 48.3672C187.926 48.3672 188.648 48.1328 189.234 47.6641C189.82 47.1953 190.263 46.4401 190.562 45.3984ZM190.875 39.8516C190.836 38.263 190.426 37.0586 189.645 36.2383C188.863 35.4049 187.913 34.9883 186.793 34.9883C185.595 34.9883 184.605 35.4245 183.824 36.2969C183.043 37.1693 182.659 38.3542 182.672 39.8516H190.875Z" fill="black"/>
<path d="M138.484 87.7502C159.589 87.6584 177.248 106.834 177.354 131.188C177.46 155.542 159.968 174.87 138.863 174.961C117.758 175.053 100.1 155.878 99.9942 131.524C99.8884 107.17 117.379 87.8421 138.484 87.7502Z" fill="#BC8166" stroke="black" stroke-width="4.97477"/>
<path d="M128.084 150.888C128.084 150.888 132.6 156.528 141.954 157.891C151.309 159.253 155.841 156.925 159.549 154.394" stroke="black" stroke-width="5.702" stroke-linecap="round"/>
<path d="M163.179 114.785C164.856 115.399 165.402 116.973 165.016 118.027C164.63 119.08 163.197 119.93 161.52 119.316C159.842 118.701 159.298 117.127 159.684 116.074C160.07 115.02 161.502 114.171 163.179 114.785Z" fill="black" stroke="black" stroke-width="5.99189"/>
<path d="M132.576 114.785C134.253 115.399 134.798 116.973 134.413 118.027C134.027 119.08 132.594 119.93 130.916 119.316C129.239 118.701 128.694 117.127 129.08 116.074C129.466 115.02 130.898 114.171 132.576 114.785Z" fill="black" stroke="black" stroke-width="5.99189"/>
<path d="M137.158 177.291C138.858 198.543 132.67 228.5 112.676 264" stroke="black" stroke-width="5.1005" stroke-linecap="round"/>
<path d="M78.502 232.887V196.163L137.158 190.043L175.922 221.156L220.806 178.312" stroke="black" stroke-width="5.1005" stroke-linecap="round"/>
<path d="M86.3283 243.377C86.3279 238.612 84.5225 234.823 80.2111 231.545C77.3869 230.863 78.2579 229.883 73.6009 230.251C70.5166 230.495 67.6819 230.419 63.9856 233.876C62.9499 234.845 59.9052 238.105 58.9841 239.103C56.8463 241.417 54.4772 243.983 56.385 245.189C58.2929 246.396 61.0749 242.754 61.8834 242.04C62.6918 241.327 64.5575 238.21 66.4653 239.416C67.6719 240.18 64.7076 242.722 62.9499 246.028C61.4083 248.927 60.0565 251.376 61.763 252.455C63.6708 253.662 66.486 249.629 67.6819 247.916L67.6819 247.916C70.356 244.085 70.6164 242.3 72.1435 243.057C73.6705 243.813 72.7596 246.158 71.9183 248.938C71.077 251.719 70.2356 254.5 72.1435 255.707C74.0513 256.913 76.2297 252.217 77.071 249.436L77.094 249.36C77.9373 246.572 79.3074 242.043 81.5028 242.3C82.938 242.468 80.6474 248.062 82.6444 248.544C85.4686 249.225 86.3286 246.028 86.3283 243.377Z" fill="black" stroke="black" stroke-width="0.673266" stroke-linecap="round"/>
<path d="M226.417 167.651C223.357 171.681 220.807 175.343 217.236 178.822C215.597 180.418 218.146 182.879 220.807 180.918C223.467 178.957 228.285 175.21 231.007 178.822C232.588 180.918 233.558 179.995 234.578 178.822C236.366 176.765 232.078 173.331 232.078 173.331C232.078 173.331 234.547 173.15 236.108 176.271C237.128 178.312 239.571 176.886 239.678 174.741C239.786 172.597 237.128 168.621 237.128 168.621C237.128 168.621 240.285 170.424 241.726 173.816C242.426 175.463 246.215 172.947 243.759 168.621C242.401 166.23 238.915 162.59 237.128 162.5C241.726 154.849 248.859 148.46 247.839 147.709C246.819 146.957 244.726 143.544 226.417 167.651Z" fill="black" stroke="black" stroke-width="1.0201"/>
</svg>
