<svg width="312" height="312" viewBox="0 0 312 312" fill="none" xmlns="http://www.w3.org/2000/svg">
<rect x="6" y="6" width="300" height="300" rx="20" fill="#E2FFE2"/>
<rect x="6" y="6" width="300" height="300" rx="20" stroke="#1ADF1D" stroke-width="11"/>
<path d="M118.438 37.2578V41.6328H114.688V49.9922C114.688 51.6849 114.72 52.6745 114.785 52.9609C114.863 53.2344 115.026 53.4622 115.273 53.6445C115.534 53.8268 115.846 53.918 116.211 53.918C116.719 53.918 117.454 53.7422 118.418 53.3906L118.887 57.6484C117.611 58.1953 116.165 58.4688 114.551 58.4688C113.561 58.4688 112.669 58.306 111.875 57.9805C111.081 57.6419 110.495 57.2122 110.117 56.6914C109.753 56.1576 109.499 55.4414 109.355 54.543C109.238 53.9049 109.18 52.6159 109.18 50.6758V41.6328H106.66V37.2578H109.18V33.1367L114.688 29.9336V37.2578H118.438ZM127.715 29.3672V39.8945C129.486 37.8242 131.602 36.7891 134.062 36.7891C135.326 36.7891 136.465 37.0234 137.48 37.4922C138.496 37.9609 139.258 38.5599 139.766 39.2891C140.286 40.0182 140.638 40.8255 140.82 41.7109C141.016 42.5964 141.113 43.9701 141.113 45.832V58H135.625V47.043C135.625 44.8685 135.521 43.4883 135.312 42.9023C135.104 42.3164 134.733 41.8542 134.199 41.5156C133.678 41.1641 133.021 40.9883 132.227 40.9883C131.315 40.9883 130.501 41.2096 129.785 41.6523C129.069 42.0951 128.542 42.7656 128.203 43.6641C127.878 44.5495 127.715 45.8646 127.715 47.6094V58H122.227V29.3672H127.715ZM158.711 51.3984L164.18 52.3164C163.477 54.3216 162.363 55.8516 160.84 56.9062C159.329 57.9479 157.435 58.4688 155.156 58.4688C151.549 58.4688 148.88 57.2904 147.148 54.9336C145.781 53.0456 145.098 50.6628 145.098 47.7852C145.098 44.3477 145.996 41.6589 147.793 39.7188C149.59 37.7656 151.862 36.7891 154.609 36.7891C157.695 36.7891 160.13 37.8112 161.914 39.8555C163.698 41.8867 164.551 45.0052 164.473 49.2109H150.723C150.762 50.8385 151.204 52.1081 152.051 53.0195C152.897 53.918 153.952 54.3672 155.215 54.3672C156.074 54.3672 156.797 54.1328 157.383 53.6641C157.969 53.1953 158.411 52.4401 158.711 51.3984ZM159.023 45.8516C158.984 44.263 158.574 43.0586 157.793 42.2383C157.012 41.4049 156.061 40.9883 154.941 40.9883C153.743 40.9883 152.754 41.4245 151.973 42.2969C151.191 43.1693 150.807 44.3542 150.82 45.8516H159.023ZM174.219 58H168.73V37.2578H173.828V40.207C174.701 38.8138 175.482 37.8958 176.172 37.4531C176.875 37.0104 177.669 36.7891 178.555 36.7891C179.805 36.7891 181.009 37.1341 182.168 37.8242L180.469 42.6094C179.544 42.0104 178.685 41.7109 177.891 41.7109C177.122 41.7109 176.471 41.9258 175.938 42.3555C175.404 42.7721 174.98 43.5339 174.668 44.6406C174.368 45.7474 174.219 48.0651 174.219 51.5938V58ZM196.562 51.3984L202.031 52.3164C201.328 54.3216 200.215 55.8516 198.691 56.9062C197.181 57.9479 195.286 58.4688 193.008 58.4688C189.401 58.4688 186.732 57.2904 185 54.9336C183.633 53.0456 182.949 50.6628 182.949 47.7852C182.949 44.3477 183.848 41.6589 185.645 39.7188C187.441 37.7656 189.714 36.7891 192.461 36.7891C195.547 36.7891 197.982 37.8112 199.766 39.8555C201.549 41.8867 202.402 45.0052 202.324 49.2109H188.574C188.613 50.8385 189.056 52.1081 189.902 53.0195C190.749 53.918 191.803 54.3672 193.066 54.3672C193.926 54.3672 194.648 54.1328 195.234 53.6641C195.82 53.1953 196.263 52.4401 196.562 51.3984ZM196.875 45.8516C196.836 44.263 196.426 43.0586 195.645 42.2383C194.863 41.4049 193.913 40.9883 192.793 40.9883C191.595 40.9883 190.605 41.4245 189.824 42.2969C189.043 43.1693 188.659 44.3542 188.672 45.8516H196.875Z" fill="black"/>
<path d="M183.355 137.188C183.46 161.542 165.97 180.87 144.865 180.961C123.759 181.053 106.101 161.878 105.995 137.524C105.89 113.169 123.38 93.842 144.486 93.7503C165.591 93.6586 183.249 112.833 183.355 137.188Z" fill="#BC8166" stroke="black" stroke-width="4.97477"/>
<path d="M134.084 156.888C134.084 156.888 138.6 162.528 147.955 163.891C157.309 165.253 161.841 162.925 165.55 160.394" stroke="black" stroke-width="5.702" stroke-linecap="round"/>
<path d="M171.016 124.027C170.63 125.08 169.198 125.93 167.52 125.316C165.843 124.701 165.298 123.127 165.684 122.074C166.07 121.02 167.502 120.17 169.179 120.785C170.857 121.399 171.402 122.973 171.016 124.027Z" fill="black" stroke="black" stroke-width="5.99189"/>
<path d="M140.413 124.027C140.027 125.08 138.595 125.93 136.917 125.316C135.24 124.701 134.695 123.127 135.081 122.074C135.467 121.02 136.899 120.17 138.577 120.785C140.254 121.399 140.799 122.973 140.413 124.027Z" fill="black" stroke="black" stroke-width="5.99189"/>
<path d="M143.159 183.291C144.859 204.544 138.67 234.5 118.676 270" stroke="black" stroke-width="5.1005" stroke-linecap="round"/>
<path d="M84.5026 238.887V202.163L143.158 196.043L181.922 227.156L226.807 184.312" stroke="black" stroke-width="5.1005" stroke-linecap="round"/>
<path d="M92.328 249.377C92.3276 244.612 90.5222 240.823 86.2108 237.545C83.3865 236.863 84.2576 235.883 79.6006 236.251C76.5162 236.495 73.6816 236.419 69.9853 239.876C68.9495 240.845 65.9049 244.105 64.9837 245.103C62.8459 247.417 60.4768 249.983 62.3847 251.189C64.2925 252.396 67.0746 248.754 67.883 248.04C68.6914 247.327 70.5571 244.21 72.4649 245.416C73.6716 246.179 70.7072 248.722 68.9495 252.028C67.4079 254.927 66.0562 257.376 67.7626 258.455C69.6704 259.662 72.4856 255.629 73.6815 253.916L73.6816 253.916C76.3557 250.085 76.6161 248.3 78.1431 249.057C79.6701 249.813 78.7593 252.158 77.9179 254.938C77.0766 257.719 76.2353 260.5 78.1431 261.707C80.0509 262.913 82.2293 258.217 83.0706 255.436L83.0937 255.36C83.937 252.572 85.307 248.043 87.5025 248.3C88.9377 248.468 86.647 254.062 88.644 254.544C91.4683 255.225 92.3282 252.028 92.328 249.377Z" fill="black" stroke="black" stroke-width="0.673266" stroke-linecap="round"/>
<path d="M232.417 173.651C229.357 177.681 226.807 181.343 223.237 184.821C221.598 186.418 224.147 188.879 226.807 186.918C229.467 184.957 234.285 181.21 237.008 184.821C238.588 186.918 239.558 185.994 240.578 184.822C242.367 182.765 238.078 179.331 238.078 179.331C238.078 179.331 240.548 179.15 242.108 182.271C243.128 184.311 245.571 182.886 245.679 180.741C245.786 178.597 243.128 174.621 243.128 174.621C243.128 174.621 246.285 176.423 247.727 179.816C248.427 181.463 252.216 178.947 249.759 174.621C248.402 172.23 244.915 168.59 243.128 168.5C247.727 160.849 254.86 154.46 253.84 153.708C252.819 152.957 250.726 149.543 232.417 173.651Z" fill="black" stroke="black" stroke-width="1.0201"/>
</svg>
