<svg width="300" height="300" viewBox="0 0 300 300" fill="none" xmlns="http://www.w3.org/2000/svg">
<g clip-path="url(#clip0_81_1102)">
<rect width="300" height="300" fill="white"/>
<path d="M121.48 48.8555L121.988 51.9609C120.999 52.1693 120.113 52.2734 119.332 52.2734C118.056 52.2734 117.066 52.0716 116.363 51.668C115.66 51.2643 115.165 50.737 114.879 50.0859C114.592 49.4219 114.449 48.0352 114.449 45.9258V33.9922H111.871V31.2578H114.449V26.1211L117.945 24.0117V31.2578H121.48V33.9922H117.945V46.1211C117.945 47.1237 118.004 47.7682 118.121 48.0547C118.251 48.3411 118.453 48.569 118.727 48.7383C119.013 48.9076 119.417 48.9922 119.938 48.9922C120.328 48.9922 120.842 48.9466 121.48 48.8555ZM124.938 52V23.3672H128.453V33.6406C130.094 31.7396 132.164 30.7891 134.664 30.7891C136.201 30.7891 137.535 31.0951 138.668 31.707C139.801 32.306 140.608 33.1393 141.09 34.207C141.585 35.2747 141.832 36.8242 141.832 38.8555V52H138.316V38.8555C138.316 37.0977 137.932 35.8216 137.164 35.0273C136.409 34.2201 135.335 33.8164 133.941 33.8164C132.9 33.8164 131.917 34.0898 130.992 34.6367C130.081 35.1706 129.43 35.8997 129.039 36.8242C128.648 37.7487 128.453 39.0247 128.453 40.6523V52H124.938ZM161.402 45.3203L165.035 45.7695C164.462 47.8919 163.401 49.5391 161.852 50.7109C160.302 51.8828 158.323 52.4688 155.914 52.4688C152.88 52.4688 150.471 51.5378 148.688 49.6758C146.917 47.8008 146.031 45.1771 146.031 41.8047C146.031 38.3151 146.93 35.6068 148.727 33.6797C150.523 31.7526 152.854 30.7891 155.719 30.7891C158.492 30.7891 160.758 31.7331 162.516 33.6211C164.273 35.5091 165.152 38.1654 165.152 41.5898C165.152 41.7982 165.146 42.1107 165.133 42.5273H149.664C149.794 44.806 150.439 46.5508 151.598 47.7617C152.757 48.9727 154.202 49.5781 155.934 49.5781C157.223 49.5781 158.323 49.2396 159.234 48.5625C160.146 47.8854 160.868 46.8047 161.402 45.3203ZM149.859 39.6367H161.441C161.285 37.8919 160.842 36.5833 160.113 35.7109C158.993 34.3568 157.542 33.6797 155.758 33.6797C154.143 33.6797 152.783 34.2201 151.676 35.3008C150.582 36.3815 149.977 37.8268 149.859 39.6367ZM169.312 59.9883L168.922 56.6875C169.69 56.8958 170.361 57 170.934 57C171.715 57 172.34 56.8698 172.809 56.6094C173.277 56.349 173.661 55.9844 173.961 55.5156C174.182 55.1641 174.54 54.2917 175.035 52.8984C175.1 52.7031 175.204 52.4167 175.348 52.0391L167.477 31.2578H171.266L175.582 43.2695C176.142 44.793 176.643 46.3945 177.086 48.0742C177.49 46.4596 177.971 44.8841 178.531 43.3477L182.965 31.2578H186.48L178.59 52.3516C177.743 54.6302 177.086 56.1992 176.617 57.0586C175.992 58.2174 175.276 59.0638 174.469 59.5977C173.661 60.1445 172.698 60.418 171.578 60.418C170.901 60.418 170.146 60.2747 169.312 59.9883Z" fill="black"/>
<path d="M125.463 223.055L106.804 263.672L80.9579 227.204L125.463 223.055Z" fill="#B92429"/>
<rect x="92.0756" y="237.932" width="12.9033" height="61.6492" transform="rotate(54.6743 92.0756 237.932)" fill="#B92429"/>
<path d="M166.422 108.506C166.422 116.132 161.517 121.852 155.977 121.852C150.437 121.852 145.533 116.132 145.533 108.506C145.533 100.881 150.437 95.1605 155.977 95.1605C161.517 95.1605 166.422 100.881 166.422 108.506Z" fill="#BC8166" stroke="black" stroke-width="2.32099"/>
<path d="M145.97 215.852C142.102 219.333 134.365 226.876 139.007 229.197C144.81 232.099 151.773 222.815 145.97 215.852Z" fill="black"/>
<path d="M161.5 218.5C159.76 224.883 163.323 231.518 167.5 229.197C172.723 226.296 165.562 218.5 161.5 218.5Z" fill="black"/>
<path d="M145.97 215.852C142.102 219.333 134.365 226.876 139.007 229.197C144.81 232.099 151.773 222.815 145.97 215.852Z" stroke="black" stroke-width="1.16049" stroke-linecap="round"/>
<path d="M161.5 218.5C159.76 224.883 163.323 231.518 167.5 229.197C172.723 226.296 165.562 218.5 161.5 218.5Z" stroke="black" stroke-width="1.16049" stroke-linecap="round"/>
<path d="M133.929 157.827L140.311 140.42L142.632 140.42C141.278 145.642 138.223 156.667 136.83 158.988C135.089 161.889 136.25 169.432 131.608 167.111C128.184 165.399 130.834 160.148 133.929 157.827Z" fill="black" stroke="black" stroke-width="1.16049" stroke-linecap="round"/>
<path d="M168.995 159.298L164.547 141.298L166.471 140C168.27 145.086 171.905 155.934 172.049 158.637C172.229 162.015 177.411 167.618 172.265 168.291C168.47 168.788 167.728 162.953 168.995 159.298Z" fill="black" stroke="black" stroke-width="1.16049" stroke-linecap="round"/>
<path d="M163.047 164.79L144.668 164.79C144.668 169.142 146.392 182.681 146.392 194.77C146.392 206.858 136.628 222.815 146.391 222.815C150.986 222.815 149.264 219.914 156.73 197.187L156.73 175.911C158.644 180.263 162 186.999 163.048 192.835C164.096 198.68 156.73 222.815 163.047 222.815C169.364 222.815 167.642 222.815 173.385 192.835L163.047 164.79Z" fill="#AC6AC0" stroke="black" stroke-width="2.32099" stroke-linecap="round"/>
<path d="M155.397 121.853C160.039 122.318 161.84 123.167 163 125.914C164.161 128.661 165.855 133.114 167.002 135.778C170.748 144.482 172.805 143.902 167.002 146.803C162.953 148.828 163.137 149.501 160.039 135.778C161.393 147.19 168.743 163.05 164.681 167.112C160.619 171.174 145.533 167.112 145.533 167.112C145.533 167.112 141.869 167.526 144 156.501C146.14 145.435 145.533 140.001 149.595 134.618C144.401 141.501 146.345 144.482 142.632 144.482C138.918 144.482 139.511 143.242 137.5 141.501C137.5 141.501 143.065 128.829 145.533 125.914C148 122.999 150.755 121.389 155.397 121.853Z" fill="#EEB045" stroke="black" stroke-width="2.32099" stroke-linecap="round"/>
<path d="M158 101C160.001 102.601 164.333 104 166 104.499C167.5 102.5 164 95.0007 156.5 94.0004C153.031 93.5377 150.5 96.5 147 96C143.5 95.5 136 92.9999 136 99.5C136 104.243 137.5 106 139.5 106C143.5 106 137.5 103 140 99.5C142 96.7 144.167 98.3334 146 99.5L145 107.499C145.5 105.999 146.3 104.198 149.5 103C152.7 101.802 153.5 99.1673 153.5 98C154.167 98.333 156 99.3993 158 101Z" fill="black" stroke="black" stroke-linecap="round"/>
<path d="M258.334 99.6355C258.334 103.766 257.064 107.469 255.057 110.119C253.049 112.769 250.346 114.323 247.436 114.323C244.526 114.323 241.823 112.769 239.816 110.119C237.808 107.469 236.539 103.766 236.539 99.6355C236.539 95.5053 237.808 91.8019 239.816 89.1517C241.823 86.5022 244.526 84.9476 247.436 84.9476C250.346 84.9476 253.049 86.5022 255.057 89.1517C257.064 91.8019 258.334 95.5053 258.334 99.6355Z" fill="#DEB18D" stroke="black" stroke-width="1.89521"/>
<path d="M261.177 164.546C260.04 163.788 261.966 155.702 263.072 151.754C267.81 151.754 267.81 162.177 266.388 164.546C264.02 165.968 263.072 165.968 261.177 164.546Z" fill="#DEB18D" stroke="black" stroke-width="1.89521" stroke-linecap="round"/>
<path d="M221.851 219.508C226.02 217.992 230.221 215.718 231.801 214.77C236.065 214.77 237.013 217.137 235.117 221.877C234.169 224.246 224.693 227.09 220.903 226.616C217.112 226.142 216.639 221.403 221.851 219.508Z" fill="black"/>
<path d="M243.172 220.93C242.189 217.492 244.436 214.927 246.015 213.822C248.384 211.215 248.858 217.137 254.543 219.507C264.492 223.657 260.228 230.881 254.543 228.037C248.857 225.194 244.12 224.247 243.172 220.93Z" fill="black"/>
<path d="M221.851 219.508C226.02 217.992 230.221 215.718 231.801 214.77C236.065 214.77 237.013 217.137 235.117 221.877C234.169 224.246 224.693 227.09 220.903 226.616C217.112 226.142 216.639 221.403 221.851 219.508Z" stroke="black" stroke-width="0.947604" stroke-linecap="round"/>
<path d="M243.172 220.93C242.189 217.492 244.436 214.927 246.015 213.822C248.384 211.215 248.858 217.137 254.543 219.507C264.492 223.657 260.228 230.881 254.543 228.037C248.857 225.194 244.12 224.247 243.172 220.93Z" stroke="black" stroke-width="0.947604" stroke-linecap="round"/>
<path d="M227.536 188.71C228.294 185.299 234.643 169.758 237.012 162.177H250.752C253.121 170.39 257.481 187.857 257.86 192.027C258.334 197.239 253.919 217.188 252.648 217.612C249.805 218.56 246.962 218.56 243.171 216.665C241.276 215.717 245.382 199.134 247.909 192.027L244.119 169.758C242.382 175.286 238.434 186.341 237.486 189.658C236.548 192.943 240.08 214.944 236.065 216.665C232.748 218.086 230.379 217.612 227.536 216.665C225.641 216.033 226.589 192.974 227.536 188.71Z" fill="#8E8E8E" stroke="black" stroke-width="1.89521" stroke-linecap="round"/>
<path d="M233.696 119.535C239.764 119.535 240.329 115.271 247.436 115.271C255.491 115.271 264.019 127.59 266.388 130.906C268.757 134.223 268.757 150.332 267.81 153.649C266.862 156.965 263.545 156.018 261.176 153.649C259.281 151.754 261.176 142.278 261.176 137.54C261.176 137.54 257.386 128.537 255.491 129.485C253.595 130.433 258.334 162.177 258.334 162.177C256.28 163.915 251.227 167.389 247.436 167.389C243.646 167.389 235.749 163.915 232.275 162.177C235.117 149.858 240.063 126.999 235.498 126.999C220.5 126.999 210.747 122.353 203.5 119.535C194.499 116.035 191.893 122.849 198.999 115.272C199.492 114.746 199.825 114.35 200.044 114.06C200.009 113.4 200.898 112.926 200.044 114.06C200.073 114.603 200.728 115.271 203.5 115.271C210.5 115.271 225.998 119.535 233.696 119.535Z" fill="#005FBD" stroke="black" stroke-width="1.89521" stroke-linecap="round"/>
<path d="M216 95.5C216 99.8585 214.66 103.767 212.542 106.563C210.424 109.359 207.571 111 204.5 111C201.429 111 198.576 109.359 196.458 106.563C194.34 103.767 193 99.8585 193 95.5C193 91.1415 194.34 87.2333 196.458 84.4366C198.576 81.6406 201.429 80 204.5 80C207.571 80 210.424 81.6406 212.542 84.4366C214.66 87.2333 216 91.1415 216 95.5Z" fill="#BC8166" stroke="black" stroke-width="2"/>
<path d="M219 164C217.8 163.2 219.833 154.667 221 150.5C226 150.5 226 161.5 224.5 164C222 165.5 221 165.5 219 164Z" fill="#BC8166" stroke="black" stroke-width="2" stroke-linecap="round"/>
<path d="M177 157L178.5 152.5C180.001 150 181 152.5 182.5 152.5C183.999 152.5 183.999 161.5 182.5 164C181.213 166.144 181.001 165.5 177.001 165.5C175.5 165.5 176.499 160.5 177 157Z" fill="#BC8166" stroke="black" stroke-width="2" stroke-linecap="round"/>
<path d="M177.5 222.001C181.9 220.401 186.333 218.001 188 217.001C192.5 217.001 193.5 219.499 191.499 224.501C190.499 227.001 180.499 230.001 176.499 229.501C172.499 229.001 172 224.001 177.5 222.001Z" fill="black"/>
<path d="M200 223.501C198.963 219.873 201.333 217.167 203 216C205.5 213.249 206 219.498 211.999 222C222.499 226.379 217.999 234.002 211.999 231.001C205.999 228.001 201.001 227.002 200 223.501Z" fill="black"/>
<path d="M177.5 222.001C181.9 220.401 186.333 218.001 188 217.001C192.5 217.001 193.5 219.499 191.499 224.501C190.499 227.001 180.499 230.001 176.499 229.501C172.499 229.001 172 224.001 177.5 222.001Z" stroke="black" stroke-linecap="round"/>
<path d="M200 223.501C198.963 219.873 201.333 217.167 203 216C205.5 213.249 206 219.498 211.999 222C222.499 226.379 217.999 234.002 211.999 231.001C205.999 228.001 201.001 227.002 200 223.501Z" stroke="black" stroke-linecap="round"/>
<path d="M183.5 189.5C184.3 185.9 191 169.5 193.5 161.5H207.999C210.499 170.167 215.1 188.6 215.5 193C216 198.5 211.342 219.553 210 220C207 221 203.999 221 199.999 219C197.999 218 202.333 200.5 204.999 193L200.999 169.5C199.166 175.333 194.999 187 194 190.5C193.01 193.967 196.737 217.184 192.5 219C189 220.5 186.5 220 183.5 219C181.499 218.333 182.5 194 183.5 189.5Z" fill="#8E8E8E" stroke="black" stroke-width="2" stroke-linecap="round"/>
<path d="M190 116.5C195 112.5 197 112 204.5 112C213 112 222 125 224.5 128.5C227 132 227 149 226 152.5C225 156 221.5 155 219 152.5C217 150.5 219 140.5 219 135.5C219 135.5 215 126 213 127C211 128 216 161.5 216 161.5C213.833 163.333 208.5 167 204.5 167C200.5 167 192.167 163.333 188.5 161.5C191.5 148.5 196.7 123.4 193.5 127C189.5 131.5 187 133.5 185.5 143C184.341 150.342 188.5 156.9 177.75 154.75C175.25 154.25 180 134 181 130.5C182 127 183.693 121.546 190 116.5Z" fill="#BD0000" stroke="black" stroke-width="2" stroke-linecap="round"/>
</g>
<defs>
<clipPath id="clip0_81_1102">
<rect width="300" height="300" fill="white"/>
</clipPath>
</defs>
</svg>
