<svg width="300" height="300" viewBox="0 0 300 300" fill="none" xmlns="http://www.w3.org/2000/svg">
<g clip-path="url(#clip0_28_777)">
<path d="M120.73 31.2578V35.6328H116.98V43.9922C116.98 45.6849 117.013 46.6745 117.078 46.9609C117.156 47.2344 117.319 47.4622 117.566 47.6445C117.827 47.8268 118.139 47.918 118.504 47.918C119.012 47.918 119.747 47.7422 120.711 47.3906L121.18 51.6484C119.904 52.1953 118.458 52.4688 116.844 52.4688C115.854 52.4688 114.962 52.306 114.168 51.9805C113.374 51.6419 112.788 51.2122 112.41 50.6914C112.046 50.1576 111.792 49.4414 111.648 48.543C111.531 47.9049 111.473 46.6159 111.473 44.6758V35.6328H108.953V31.2578H111.473V27.1367L116.98 23.9336V31.2578H120.73ZM130.008 23.3672V33.8945C131.779 31.8242 133.895 30.7891 136.355 30.7891C137.618 30.7891 138.758 31.0234 139.773 31.4922C140.789 31.9609 141.551 32.5599 142.059 33.2891C142.579 34.0182 142.931 34.8255 143.113 35.7109C143.309 36.5964 143.406 37.9701 143.406 39.832V52H137.918V41.043C137.918 38.8685 137.814 37.4883 137.605 36.9023C137.397 36.3164 137.026 35.8542 136.492 35.5156C135.971 35.1641 135.314 34.9883 134.52 34.9883C133.608 34.9883 132.794 35.2096 132.078 35.6523C131.362 36.0951 130.835 36.7656 130.496 37.6641C130.171 38.5495 130.008 39.8646 130.008 41.6094V52H124.52V23.3672H130.008ZM161.004 45.3984L166.473 46.3164C165.77 48.3216 164.656 49.8516 163.133 50.9062C161.622 51.9479 159.728 52.4688 157.449 52.4688C153.842 52.4688 151.173 51.2904 149.441 48.9336C148.074 47.0456 147.391 44.6628 147.391 41.7852C147.391 38.3477 148.289 35.6589 150.086 33.7188C151.883 31.7656 154.155 30.7891 156.902 30.7891C159.988 30.7891 162.423 31.8112 164.207 33.8555C165.991 35.8867 166.844 39.0052 166.766 43.2109H153.016C153.055 44.8385 153.497 46.1081 154.344 47.0195C155.19 47.918 156.245 48.3672 157.508 48.3672C158.367 48.3672 159.09 48.1328 159.676 47.6641C160.262 47.1953 160.704 46.4401 161.004 45.3984ZM161.316 39.8516C161.277 38.263 160.867 37.0586 160.086 36.2383C159.305 35.4049 158.354 34.9883 157.234 34.9883C156.036 34.9883 155.047 35.4245 154.266 36.2969C153.484 37.1693 153.1 38.3542 153.113 39.8516H161.316ZM168.66 31.2578H174.5L179.461 45.9844L184.305 31.2578H189.988L182.664 51.2188L181.355 54.832C180.874 56.043 180.411 56.9674 179.969 57.6055C179.539 58.2435 179.038 58.7578 178.465 59.1484C177.905 59.5521 177.208 59.8646 176.375 60.0859C175.555 60.3073 174.624 60.418 173.582 60.418C172.527 60.418 171.492 60.3073 170.477 60.0859L169.988 55.7891C170.848 55.9583 171.622 56.043 172.312 56.043C173.589 56.043 174.533 55.6654 175.145 54.9102C175.757 54.168 176.225 53.2174 176.551 52.0586L168.66 31.2578Z" fill="black"/>
<path d="M125.463 223.055L106.803 263.672L80.9576 227.204L125.463 223.055Z" fill="#B92429"/>
<rect x="92.0752" y="237.932" width="12.9033" height="61.6492" transform="rotate(54.6743 92.0752 237.932)" fill="#B92429"/>
<path d="M155.977 95.1602C161.517 95.1602 166.422 100.88 166.422 108.506C166.422 116.132 161.517 121.852 155.977 121.852C150.437 121.851 145.532 116.131 145.532 108.506C145.532 100.881 150.437 95.1605 155.977 95.1602Z" fill="#BC8166" stroke="black" stroke-width="2.32099"/>
<path d="M145.97 215.852C142.101 219.333 134.365 226.876 139.007 229.197C144.809 232.099 151.772 222.815 145.97 215.852Z" fill="black"/>
<path d="M161.5 218.5C159.759 224.883 163.322 231.518 167.5 229.197C172.722 226.296 165.562 218.5 161.5 218.5Z" fill="black"/>
<path d="M145.97 215.852C142.101 219.333 134.365 226.876 139.007 229.197C144.809 232.099 151.772 222.815 145.97 215.852Z" stroke="black" stroke-width="1.16049" stroke-linecap="round"/>
<path d="M161.5 218.5C159.759 224.883 163.322 231.518 167.5 229.197C172.722 226.296 165.562 218.5 161.5 218.5Z" stroke="black" stroke-width="1.16049" stroke-linecap="round"/>
<path d="M133.928 157.827L140.311 140.42L142.632 140.42C141.278 145.642 138.222 156.667 136.83 158.988C135.089 161.889 136.25 169.432 131.608 167.111C128.184 165.399 130.834 160.148 133.928 157.827Z" fill="black" stroke="black" stroke-width="1.16049" stroke-linecap="round"/>
<path d="M168.994 159.298L164.547 141.298L166.47 140C168.27 145.086 171.904 155.934 172.048 158.637C172.229 162.015 177.411 167.618 172.265 168.291C168.469 168.788 167.728 162.953 168.994 159.298Z" fill="black" stroke="black" stroke-width="1.16049" stroke-linecap="round"/>
<path d="M163.047 164.79L144.668 164.79C144.668 169.142 146.391 182.681 146.391 194.77C146.391 206.858 136.627 222.815 146.391 222.815C150.986 222.815 149.263 219.914 156.73 197.187L156.73 175.912C158.644 180.263 162 186.999 163.047 192.835C164.096 198.68 156.73 222.815 163.047 222.815C169.363 222.815 167.642 222.815 173.385 192.835L163.047 164.79Z" fill="#AC6AC0" stroke="black" stroke-width="2.32099" stroke-linecap="round"/>
<path d="M155.397 121.853C160.039 122.318 161.84 123.167 163 125.914C164.16 128.661 165.855 133.114 167.002 135.778C170.748 144.482 172.804 143.902 167.002 146.803C162.952 148.828 163.136 149.501 160.039 135.778C161.392 147.19 168.742 163.05 164.681 167.112C160.619 171.174 145.532 167.112 145.532 167.112C145.532 167.112 141.869 167.526 144 156.501C146.139 145.435 145.532 140.001 149.594 134.618C144.401 141.501 146.345 144.482 142.631 144.482C138.918 144.482 139.511 143.242 137.5 141.501C137.5 141.501 143.065 128.829 145.532 125.914C148 122.999 150.755 121.389 155.397 121.853Z" fill="#EEB045" stroke="black" stroke-width="2.32099" stroke-linecap="round"/>
<path d="M158 101C160 102.601 164.333 104 166 104.5C167.5 102.5 164 95.0008 156.5 94.0004C153.031 93.5377 150.5 96.5 147 96C143.5 95.5 136 92.9999 136 99.5C136 104.243 137.499 106 139.5 106C143.5 106 137.5 103 140 99.5C142 96.7 144.167 98.3334 146 99.5L145 107.5C145.5 105.999 146.3 104.198 149.5 103C152.7 101.802 153.5 99.1674 153.5 98C154.167 98.3331 156 99.3993 158 101Z" fill="black" stroke="black" stroke-linecap="round"/>
<path d="M247.437 84.9473C250.346 84.9473 253.05 86.5019 255.058 89.1514C257.065 91.8015 258.334 95.5056 258.334 99.6357C258.334 103.766 257.065 107.469 255.058 110.119C253.05 112.769 250.346 114.323 247.437 114.323C244.527 114.323 241.824 112.769 239.816 110.119C237.809 107.469 236.539 103.766 236.539 99.6357C236.539 95.5056 237.809 91.8015 239.816 89.1514C241.824 86.5021 244.527 84.9474 247.437 84.9473Z" fill="#DEB18D" stroke="black" stroke-width="1.89521"/>
<path d="M261.177 164.546C260.04 163.788 261.967 155.702 263.072 151.754C267.81 151.754 267.81 162.177 266.389 164.546C264.02 165.968 263.072 165.968 261.177 164.546Z" fill="#DEB18D" stroke="black" stroke-width="1.89521" stroke-linecap="round"/>
<path d="M221.851 219.508C226.021 217.992 230.222 215.718 231.801 214.77C236.066 214.77 237.013 217.137 235.117 221.877C234.17 224.246 224.694 227.09 220.903 226.616C217.113 226.142 216.639 221.403 221.851 219.508Z" fill="black"/>
<path d="M243.173 220.93C242.19 217.492 244.436 214.927 246.015 213.822C248.384 211.215 248.858 217.137 254.543 219.507C264.493 223.657 260.229 230.881 254.543 228.037C248.857 225.194 244.121 224.247 243.173 220.93Z" fill="black"/>
<path d="M221.851 219.508C226.021 217.992 230.222 215.718 231.801 214.77C236.066 214.77 237.013 217.137 235.117 221.877C234.17 224.246 224.694 227.09 220.903 226.616C217.113 226.142 216.639 221.403 221.851 219.508Z" stroke="black" stroke-width="0.947604" stroke-linecap="round"/>
<path d="M243.173 220.93C242.19 217.492 244.436 214.927 246.015 213.822C248.384 211.215 248.858 217.137 254.543 219.507C264.493 223.657 260.229 230.881 254.543 228.037C248.857 225.194 244.121 224.247 243.173 220.93Z" stroke="black" stroke-width="0.947604" stroke-linecap="round"/>
<path d="M227.537 188.71C228.295 185.299 234.644 169.758 237.013 162.177H250.753C253.122 170.39 257.481 187.857 257.86 192.027C258.334 197.239 253.92 217.188 252.649 217.612C249.806 218.56 246.962 218.56 243.172 216.665C241.277 215.717 245.383 199.134 247.91 192.027L244.119 169.758C242.382 175.286 238.434 186.341 237.487 189.658C236.549 192.943 240.08 214.944 236.065 216.665C232.749 218.086 230.38 217.612 227.537 216.665C225.641 216.033 226.589 192.974 227.537 188.71Z" fill="#8E8E8E" stroke="black" stroke-width="1.89521" stroke-linecap="round"/>
<path d="M233.696 119.535C239.764 119.535 240.33 115.271 247.437 115.271C255.491 115.271 264.02 127.59 266.389 130.906C268.758 134.223 268.758 150.332 267.81 153.649C266.863 156.966 263.546 156.018 261.177 153.649C259.282 151.754 261.177 142.278 261.177 137.54C261.177 137.54 257.387 128.537 255.491 129.485C253.596 130.433 258.334 162.177 258.334 162.177C256.281 163.915 251.227 167.389 247.437 167.389C243.646 167.389 235.75 163.915 232.275 162.177C235.118 149.859 240.063 126.999 235.499 126.999C220.5 126.999 210.747 122.353 203.5 119.535C194.499 116.035 191.893 122.849 198.999 115.272C199.492 114.746 199.826 114.35 200.045 114.06C200.899 112.926 200.01 113.4 200.045 114.06C200.073 114.603 200.728 115.271 203.5 115.271C210.5 115.271 225.999 119.535 233.696 119.535Z" fill="#005FBD"/>
<path d="M247.437 115.271C240.33 115.271 239.764 119.535 233.696 119.535C225.999 119.535 210.5 115.271 203.5 115.271C196.5 115.271 202.999 111.007 198.999 115.272C191.893 122.849 194.499 116.035 203.5 119.535C210.747 122.353 220.5 126.999 235.499 126.999C240.063 126.999 235.118 149.859 232.275 162.177C235.75 163.915 243.646 167.389 247.437 167.389C251.227 167.389 256.281 163.915 258.334 162.177C258.334 162.177 253.596 130.433 255.491 129.485C257.387 128.537 261.177 137.54 261.177 137.54C261.177 142.278 259.282 151.754 261.177 153.649C263.546 156.018 266.863 156.966 267.81 153.649C268.758 150.332 268.758 134.223 266.389 130.906C264.02 127.59 255.491 115.271 247.437 115.271Z" stroke="black" stroke-width="1.89521" stroke-linecap="round"/>
<path d="M204.5 80C207.571 80 210.424 81.6405 212.542 84.4365C214.661 87.2332 216 91.1415 216 95.5C216 99.8585 214.661 103.767 212.542 106.563C210.424 109.36 207.571 111 204.5 111C201.429 111 198.576 109.36 196.458 106.563C194.339 103.767 193 99.8585 193 95.5C193 91.1415 194.339 87.2332 196.458 84.4365C198.576 81.6405 201.429 80 204.5 80Z" fill="#BC8166" stroke="black" stroke-width="2"/>
<path d="M219 164C217.8 163.2 219.833 154.667 221 150.5C226 150.5 226 161.5 224.5 164C222 165.5 221 165.5 219 164Z" fill="#BC8166" stroke="black" stroke-width="2" stroke-linecap="round"/>
<path d="M177 157L178.5 152.5C180.001 150 181 152.5 182.5 152.5C183.999 152.5 183.999 161.5 182.5 164C181.213 166.144 181.001 165.5 177.001 165.5C175.5 165.5 176.499 160.5 177 157Z" fill="#BC8166" stroke="black" stroke-width="2" stroke-linecap="round"/>
<path d="M177.5 222.001C181.9 220.401 186.333 218.001 188 217.001C192.5 217.001 193.5 219.499 191.499 224.501C190.499 227.001 180.499 230.001 176.499 229.501C172.499 229.001 172 224.001 177.5 222.001Z" fill="black"/>
<path d="M200 223.501C198.963 219.873 201.333 217.167 203 216C205.5 213.249 206 219.498 211.999 222C222.499 226.379 217.999 234.002 211.999 231.001C205.999 228.001 201.001 227.002 200 223.501Z" fill="black"/>
<path d="M177.5 222.001C181.9 220.401 186.333 218.001 188 217.001C192.5 217.001 193.5 219.499 191.499 224.501C190.499 227.001 180.499 230.001 176.499 229.501C172.499 229.001 172 224.001 177.5 222.001Z" stroke="black" stroke-linecap="round"/>
<path d="M200 223.501C198.963 219.873 201.333 217.167 203 216C205.5 213.249 206 219.498 211.999 222C222.499 226.379 217.999 234.002 211.999 231.001C205.999 228.001 201.001 227.002 200 223.501Z" stroke="black" stroke-linecap="round"/>
<path d="M183.5 189.5C184.3 185.9 191 169.5 193.5 161.5H207.999C210.499 170.167 215.1 188.6 215.5 193C216 198.5 211.342 219.553 210 220C207 221 203.999 221 199.999 219C197.999 218 202.333 200.5 204.999 193L200.999 169.5C199.166 175.333 194.999 187 194 190.5C193.01 193.967 196.737 217.184 192.5 219C189 220.5 186.5 220 183.5 219C181.499 218.333 182.5 194 183.5 189.5Z" fill="#8E8E8E" stroke="black" stroke-width="2" stroke-linecap="round"/>
<path d="M190 116.5C195 112.5 197 112 204.5 112C213 112 222 125 224.5 128.5C227 132 227 149 226 152.5C225 156 221.5 155 219 152.5C217 150.5 219 140.5 219 135.5C219 135.5 215 126 213 127C211 128 216 161.5 216 161.5C213.833 163.333 208.5 167 204.5 167C200.5 167 192.167 163.333 188.5 161.5C191.5 148.5 196.7 123.4 193.5 127C189.5 131.5 187 133.5 185.5 143C184.341 150.342 188.5 156.9 177.75 154.75C175.25 154.25 180 134 181 130.5C182 127 183.693 121.546 190 116.5Z" fill="#BD0000" stroke="black" stroke-width="2" stroke-linecap="round"/>
</g>
<defs>
<clipPath id="clip0_28_777">
<rect width="300" height="300" rx="20" fill="white"/>
</clipPath>
</defs>
</svg>
