<svg width="300" height="300" viewBox="0 0 300 300" fill="none" xmlns="http://www.w3.org/2000/svg">
<path d="M152.511 278.224L152.507 278.193C150.244 260.087 152.224 242.458 153.813 224.331L154.124 220.699L154.125 220.695C154.934 209.902 154.664 199.382 153.587 188.598C153.586 188.257 153.57 187.903 153.554 187.554C153.537 187.191 153.521 186.832 153.521 186.475C153.521 185.759 153.587 185.093 153.821 184.508L153.831 184.48C154.043 183.844 154.709 183.157 155.622 182.926C156.857 182.682 158.139 182.872 159.13 183.443C160.108 184.007 160.809 184.94 160.932 186.235V188.928L160.936 188.96C163.199 207.066 161.219 224.695 159.63 242.822L159.318 246.454L159.317 246.458C158.508 257.245 158.778 267.761 159.854 278.539C159.855 278.709 159.859 278.883 159.865 279.058L159.912 280.14C159.918 280.32 159.922 280.499 159.922 280.677C159.922 281.394 159.855 282.06 159.621 282.645L159.608 282.677L159.601 282.71C159.383 283.581 158.519 284.44 157.207 284.221L157.111 284.206L157.017 284.226C154.912 284.694 152.759 283.05 152.511 280.909V278.224Z" fill="black" stroke="black"/>
<path d="M199.373 157.954C212.258 130.832 203.927 99.9254 180.765 88.9225C157.604 77.9196 128.383 90.9869 115.499 118.109C102.614 145.232 110.945 176.138 134.106 187.141C157.268 198.144 186.489 185.077 199.373 157.954Z" fill="black"/>
<path d="M194.599 155.186C206.177 130.816 198.963 103.175 178.487 93.4479C158.011 83.7206 132.027 95.5906 120.449 119.96C108.872 144.33 116.086 171.971 136.562 181.699C157.038 191.426 183.022 179.556 194.599 155.186Z" fill="#BC8166"/>
<path d="M172.259 120.296C174.878 121.414 176.097 124.443 174.98 127.062C173.863 129.682 170.833 130.901 168.213 129.783C165.594 128.666 164.376 125.637 165.493 123.017C166.61 120.398 169.639 119.18 172.259 120.296Z" fill="white" stroke="black" stroke-width="3.60894"/>
<path d="M138.269 110.07C141.156 111.3 142.498 114.638 141.267 117.525C140.036 120.411 136.699 121.753 133.812 120.522C130.926 119.291 129.584 115.954 130.815 113.067C132.045 110.181 135.383 108.839 138.269 110.07Z" fill="white" stroke="black" stroke-width="3.97634"/>
<path d="M170.556 121.814C171.376 122.164 171.571 122.941 171.373 123.406C171.175 123.87 170.478 124.268 169.658 123.919C168.838 123.569 168.642 122.791 168.841 122.326C169.039 121.861 169.735 121.464 170.556 121.814Z" fill="black" stroke="black" stroke-width="3.60894"/>
<path d="M136.513 112.03C137.18 112.315 137.49 113.087 137.206 113.755C136.921 114.422 136.15 114.732 135.482 114.448C134.815 114.163 134.504 113.391 134.788 112.724C135.073 112.056 135.845 111.746 136.513 112.03Z" fill="black" stroke="black" stroke-width="3.97634"/>
<path d="M114.57 30.2578V34.6328H110.82V42.9922C110.82 44.6849 110.853 45.6745 110.918 45.9609C110.996 46.2344 111.159 46.4622 111.406 46.6445C111.667 46.8268 111.979 46.918 112.344 46.918C112.852 46.918 113.587 46.7422 114.551 46.3906L115.02 50.6484C113.743 51.1953 112.298 51.4688 110.684 51.4688C109.694 51.4688 108.802 51.306 108.008 50.9805C107.214 50.6419 106.628 50.2122 106.25 49.6914C105.885 49.1576 105.632 48.4414 105.488 47.543C105.371 46.9049 105.312 45.6159 105.312 43.6758V34.6328H102.793V30.2578H105.312V26.1367L110.82 22.9336V30.2578H114.57ZM123.848 22.3672V32.8945C125.618 30.8242 127.734 29.7891 130.195 29.7891C131.458 29.7891 132.598 30.0234 133.613 30.4922C134.629 30.9609 135.391 31.5599 135.898 32.2891C136.419 33.0182 136.771 33.8255 136.953 34.7109C137.148 35.5964 137.246 36.9701 137.246 38.832V51H131.758V40.043C131.758 37.8685 131.654 36.4883 131.445 35.9023C131.237 35.3164 130.866 34.8542 130.332 34.5156C129.811 34.1641 129.154 33.9883 128.359 33.9883C127.448 33.9883 126.634 34.2096 125.918 34.6523C125.202 35.0951 124.674 35.7656 124.336 36.6641C124.01 37.5495 123.848 38.8646 123.848 40.6094V51H118.359V22.3672H123.848ZM142.832 27.4453V22.3672H148.32V27.4453H142.832ZM142.832 51V30.2578H148.32V51H142.832ZM172.832 51H167.344V40.4141C167.344 38.1745 167.227 36.7292 166.992 36.0781C166.758 35.4141 166.374 34.8997 165.84 34.5352C165.319 34.1706 164.688 33.9883 163.945 33.9883C162.995 33.9883 162.142 34.2487 161.387 34.7695C160.632 35.2904 160.111 35.9805 159.824 36.8398C159.551 37.6992 159.414 39.2878 159.414 41.6055V51H153.926V30.2578H159.023V33.3047C160.833 30.9609 163.112 29.7891 165.859 29.7891C167.07 29.7891 168.177 30.0104 169.18 30.4531C170.182 30.8828 170.938 31.4362 171.445 32.1133C171.966 32.7904 172.324 33.5586 172.52 34.418C172.728 35.2773 172.832 36.5078 172.832 38.1094V51ZM178.223 51V22.3672H183.711V37.5625L190.137 30.2578H196.895L189.805 37.8359L197.402 51H191.484L186.27 41.6836L183.711 44.3594V51H178.223Z" fill="black"/>
<path d="M128.523 142.406C125.523 152.906 132.023 162.406 151.023 164.906" stroke="black" stroke-width="5" stroke-linecap="round"/>
<path d="M158.023 197.906L113.523 247.406L82.5234 163.406" stroke="black" stroke-width="8" stroke-linecap="round"/>
<path d="M84.5334 145.926C81.6603 149.356 76.5229 152.406 79.0234 163.906C79.3594 165.451 86.7459 166.064 86.0235 162.906C84.1442 154.689 86.3805 154.356 87.5698 158.627C88.4624 161.833 90.0784 161.388 91.7555 159.459C93.5087 157.443 90.5489 152.022 90.5489 152.022C90.5489 152.022 92.5897 153.084 93.4907 156.384C94.2749 159.256 98.2467 156.096 98.3523 153.994C98.4578 151.892 95.0433 146.454 95.0433 146.454C95.0433 146.454 98.5945 149.171 100.008 152.497C100.694 154.112 104.808 151.064 102.4 146.823C101.07 144.48 99.1345 141.917 97.3828 141.829C101.904 135.734 111.481 127.109 110.367 124.569C108.949 121.336 103.587 123.176 84.5334 145.926Z" fill="black" stroke="black"/>
<path d="M159.023 201.406L197.523 261.406L105.023 256.906" stroke="black" stroke-width="8" stroke-linecap="round"/>
<path d="M94.5234 257.406C98.1486 254.71 101.285 253.407 104.523 253.406C112.523 253.404 109.564 260.405 106.023 260.405C100.926 260.406 100.558 266.589 100.793 269.387C101.359 276.126 105.325 278.935 103.625 281.181C102.266 282.979 98.5279 277.25 96.8286 271.634C96.2619 277.812 100.794 282.867 98.5279 285.113C96.8286 286.798 91.7304 274.442 91.7304 275.565C91.7304 281.769 95.1294 285.675 93.4301 286.798C91.7308 287.921 87.199 280.058 87.199 274.442C87.199 272.589 86.8214 272.195 87.7654 270.51C86.255 271.82 84.4802 273.094 82.6676 274.442C80.4019 276.127 78.29 275.004 79.2694 273.319C81.4236 269.613 89.992 260.776 94.5234 257.406Z" fill="black" stroke="black" stroke-linecap="round"/>
</svg>
