<svg width="300" height="300" viewBox="0 0 300 300" fill="none" xmlns="http://www.w3.org/2000/svg">
<rect x="5.5" y="5.5" width="289" height="289" rx="14.5" fill="#FFE3FF"/>
<rect x="5.5" y="5.5" width="289" height="289" rx="14.5" stroke="#FE05FC" stroke-width="11"/>
<path d="M157.207 284.222L157.112 284.206L157.017 284.227C154.915 284.694 152.765 283.055 152.511 280.918V280.913V280.909V280.904V280.899V280.894V280.889V280.885V280.88V280.875V280.87V280.865V280.861V280.856V280.851V280.846V280.841V280.836V280.831V280.827V280.822V280.817V280.812V280.807V280.802V280.797V280.792V280.787V280.782V280.777V280.773V280.768V280.763V280.758V280.753V280.748V280.743V280.738V280.733V280.728V280.723V280.718V280.713V280.708V280.703V280.698V280.693V280.688V280.683V280.678V280.673V280.668V280.663V280.658V280.653V280.648V280.642V280.637V280.632V280.627V280.622V280.617V280.612V280.607V280.602V280.597V280.592V280.586V280.581V280.576V280.571V280.566V280.561V280.556V280.551V280.545V280.54V280.535V280.53V280.525V280.52V280.514V280.509V280.504V280.499V280.494V280.488V280.483V280.478V280.473V280.468V280.462V280.457V280.452V280.447V280.442V280.436V280.431V280.426V280.421V280.415V280.41V280.405V280.4V280.394V280.389V280.384V280.379V280.373V280.368V280.363V280.357V280.352V280.347V280.342V280.336V280.331V280.326V280.32V280.315V280.31V280.304V280.299V280.294V280.288V280.283V280.278V280.272V280.267V280.262V280.256V280.251V280.246V280.24V280.235V280.23V280.224V280.219V280.213V280.208V280.203V280.197V280.192V280.187V280.181V280.176V280.17V280.165V280.16V280.154V280.149V280.143V280.138V280.133V280.127V280.122V280.116V280.111V280.106V280.1V280.095V280.089V280.084V280.078V280.073V280.068V280.062V280.057V280.051V280.046V280.04V280.035V280.03V280.024V280.019V280.013V280.008V280.002V279.997V279.991V279.986V279.98V279.975V279.97V279.964V279.959V279.953V279.948V279.942V279.937V279.931V279.926V279.92V279.915V279.909V279.904V279.898V279.893V279.887V279.882V279.876V279.871V279.865V279.86V279.854V279.849V279.843V279.838V279.832V279.827V279.821V279.816V279.81V279.805V279.799V279.794V279.788V279.783V279.777V279.772V279.766V279.761V279.755V279.75V279.744V279.739V279.733V279.728V279.722V279.717V279.711V279.706V279.7V279.695V279.689V279.684V279.678V279.673V279.667V279.662V279.656V279.651V279.645V279.64V279.634V279.629V279.623V279.617V279.612V279.606V279.601V279.595V279.59V279.584V279.579V279.573V279.568V279.562V279.557V279.551V279.546V279.54V279.535V279.529V279.524V279.518V279.513V279.507V279.502V279.496V279.491V279.485V279.48V279.474V279.469V279.463V279.457V279.452V279.446V279.441V279.435V279.43V279.424V279.419V279.413V279.408V279.402V279.397V279.391V279.386V279.38V279.375V279.369V279.364V279.358V279.353V279.347V279.342V279.336V279.331V279.325V279.32V279.314V279.309V279.303V279.298V279.293V279.287V279.282V279.276V279.271V279.265V279.26V279.254V279.249V279.243V279.238V279.232V279.227V279.221V279.216V279.21V279.205V279.2V279.194V279.189V279.183V279.178V279.172V279.167V279.161V279.156V279.151V279.145V279.14V279.134V279.129V279.123V279.118V279.113V279.107V279.102V279.096V279.091V279.085V279.08V279.075V279.069V279.064V279.058V279.053V279.048V279.042V279.037V279.031V279.026V279.021V279.015V279.01V279.004V278.999V278.994V278.988V278.983V278.978V278.972V278.967V278.962V278.956V278.951V278.945V278.94V278.935V278.929V278.924V278.919V278.913V278.908V278.903V278.897V278.892V278.887V278.882V278.876V278.871V278.866V278.86V278.855V278.85V278.844V278.839V278.834V278.829V278.823V278.818V278.813V278.808V278.802V278.797V278.792V278.787V278.781V278.776V278.771V278.766V278.76V278.755V278.75V278.745V278.739V278.734V278.729V278.724V278.719V278.713V278.708V278.703V278.698V278.693V278.687V278.682V278.677V278.672V278.667V278.662V278.656V278.651V278.646V278.641V278.636V278.631V278.626V278.621V278.615V278.61V278.605V278.6V278.595V278.59V278.585V278.58V278.575V278.57V278.564V278.559V278.554V278.549V278.544V278.539V278.534V278.529V278.524V278.519V278.514V278.509V278.504V278.499V278.494V278.489V278.484V278.479V278.474V278.469V278.464V278.459V278.454V278.449V278.444V278.439V278.434V278.429V278.424V278.419V278.415V278.41V278.405V278.4V278.395V278.39V278.385V278.38V278.375V278.37V278.366V278.361V278.356V278.351V278.346V278.341V278.336V278.332V278.327V278.322V278.317V278.312V278.308V278.303V278.298V278.293V278.288V278.284V278.279V278.274V278.269V278.265V278.26V278.255V278.224L152.508 278.193C150.453 261.757 151.895 245.714 153.367 229.334C153.625 226.467 153.884 223.59 154.125 220.699L154.125 220.695C154.934 209.904 154.665 199.385 153.588 188.603C153.587 188.271 153.571 187.925 153.555 187.585L153.554 187.554C153.537 187.191 153.521 186.832 153.521 186.475C153.521 185.759 153.587 185.094 153.821 184.508L153.827 184.494L153.831 184.48C154.043 183.844 154.708 183.158 155.62 182.926C156.856 182.682 158.138 182.872 159.13 183.443C160.107 184.006 160.807 184.938 160.932 186.23V186.23V186.235V186.24V186.244V186.249V186.254V186.259V186.263V186.268V186.273V186.278V186.283V186.288V186.292V186.297V186.302V186.307V186.312V186.317V186.322V186.326V186.331V186.336V186.341V186.346V186.351V186.356V186.361V186.366V186.371V186.375V186.38V186.385V186.39V186.395V186.4V186.405V186.41V186.415V186.42V186.425V186.43V186.435V186.44V186.445V186.45V186.455V186.46V186.465V186.47V186.475V186.48V186.485V186.49V186.495V186.5V186.505V186.51V186.516V186.521V186.526V186.531V186.536V186.541V186.546V186.551V186.556V186.561V186.566V186.572V186.577V186.582V186.587V186.592V186.597V186.602V186.608V186.613V186.618V186.623V186.628V186.633V186.639V186.644V186.649V186.654V186.659V186.664V186.67V186.675V186.68V186.685V186.69V186.696V186.701V186.706V186.711V186.717V186.722V186.727V186.732V186.738V186.743V186.748V186.753V186.759V186.764V186.769V186.774V186.78V186.785V186.79V186.796V186.801V186.806V186.811V186.817V186.822V186.827V186.833V186.838V186.843V186.849V186.854V186.859V186.865V186.87V186.875V186.881V186.886V186.891V186.897V186.902V186.907V186.913V186.918V186.923V186.929V186.934V186.939V186.945V186.95V186.956V186.961V186.966V186.972V186.977V186.982V186.988V186.993V186.999V187.004V187.009V187.015V187.02V187.026V187.031V187.036V187.042V187.047V187.053V187.058V187.064V187.069V187.074V187.08V187.085V187.091V187.096V187.102V187.107V187.112V187.118V187.123V187.129V187.134V187.14V187.145V187.151V187.156V187.162V187.167V187.172V187.178V187.183V187.189V187.194V187.2V187.205V187.211V187.216V187.222V187.227V187.233V187.238V187.244V187.249V187.255V187.26V187.266V187.271V187.277V187.282V187.287V187.293V187.298V187.304V187.309V187.315V187.32V187.326V187.331V187.337V187.342V187.348V187.353V187.359V187.364V187.37V187.375V187.381V187.387V187.392V187.398V187.403V187.409V187.414V187.42V187.425V187.431V187.436V187.442V187.447V187.453V187.458V187.464V187.469V187.475V187.48V187.486V187.491V187.497V187.502V187.508V187.513V187.519V187.524V187.53V187.535V187.541V187.546V187.552V187.558V187.563V187.569V187.574V187.58V187.585V187.591V187.596V187.602V187.607V187.613V187.618V187.624V187.629V187.635V187.64V187.646V187.651V187.657V187.662V187.668V187.673V187.679V187.684V187.69V187.695V187.701V187.706V187.712V187.717V187.723V187.728V187.734V187.74V187.745V187.751V187.756V187.762V187.767V187.773V187.778V187.784V187.789V187.795V187.8V187.806V187.811V187.816V187.822V187.827V187.833V187.838V187.844V187.849V187.855V187.86V187.866V187.871V187.877V187.882V187.888V187.893V187.899V187.904V187.91V187.915V187.921V187.926V187.932V187.937V187.942V187.948V187.953V187.959V187.964V187.97V187.975V187.981V187.986V187.992V187.997V188.002V188.008V188.013V188.019V188.024V188.03V188.035V188.04V188.046V188.051V188.057V188.062V188.068V188.073V188.078V188.084V188.089V188.095V188.1V188.105V188.111V188.116V188.122V188.127V188.132V188.138V188.143V188.148V188.154V188.159V188.165V188.17V188.175V188.181V188.186V188.191V188.197V188.202V188.207V188.213V188.218V188.223V188.229V188.234V188.239V188.245V188.25V188.255V188.261V188.266V188.271V188.277V188.282V188.287V188.293V188.298V188.303V188.308V188.314V188.319V188.324V188.33V188.335V188.34V188.345V188.351V188.356V188.361V188.366V188.372V188.377V188.382V188.387V188.393V188.398V188.403V188.408V188.414V188.419V188.424V188.429V188.434V188.44V188.445V188.45V188.455V188.46V188.465V188.471V188.476V188.481V188.486V188.491V188.496V188.502V188.507V188.512V188.517V188.522V188.527V188.532V188.538V188.543V188.548V188.553V188.558V188.563V188.568V188.573V188.578V188.583V188.588V188.594V188.599V188.604V188.609V188.614V188.619V188.624V188.629V188.634V188.639V188.644V188.649V188.654V188.659V188.664V188.669V188.674V188.679V188.684V188.689V188.694V188.699V188.704V188.709V188.714V188.719V188.724V188.729V188.733V188.738V188.743V188.748V188.753V188.758V188.763V188.768V188.773V188.778V188.782V188.787V188.792V188.797V188.802V188.807V188.812V188.816V188.821V188.826V188.831V188.836V188.841V188.845V188.85V188.855V188.86V188.864V188.869V188.874V188.879V188.884V188.888V188.893V188.898V188.929L160.935 188.96C162.99 205.396 161.548 221.439 160.076 237.819C159.818 240.686 159.559 243.563 159.318 246.454L159.318 246.458C158.509 257.249 158.778 267.768 159.855 278.55C159.856 278.882 159.872 279.228 159.888 279.568L159.889 279.599C159.906 279.962 159.922 280.321 159.922 280.678C159.922 281.394 159.856 282.059 159.622 282.645L159.609 282.677L159.601 282.709C159.383 283.581 158.52 284.44 157.207 284.222Z" fill="black" stroke="black"/>
<path d="M199.373 157.954C212.258 130.832 203.927 99.9254 180.766 88.9225C157.604 77.9196 128.383 90.9869 115.499 118.109C102.614 145.232 110.945 176.138 134.107 187.141C157.268 198.144 186.489 185.077 199.373 157.954Z" fill="black"/>
<path d="M194.6 155.186C206.177 130.816 198.963 103.175 178.487 93.4479C158.011 83.7206 132.027 95.5906 120.45 119.96C108.873 144.33 116.087 171.971 136.563 181.699C157.038 191.426 183.023 179.556 194.6 155.186Z" fill="#BC8166"/>
<path d="M174.98 127.063C173.863 129.682 170.834 130.901 168.214 129.784C165.594 128.666 164.376 125.637 165.493 123.017C166.61 120.397 169.64 119.179 172.259 120.296C174.879 121.414 176.097 124.443 174.98 127.063Z" fill="white" stroke="black" stroke-width="3.60894"/>
<path d="M141.268 117.525C140.037 120.411 136.699 121.753 133.812 120.522C130.926 119.292 129.584 115.954 130.815 113.067C132.046 110.181 135.383 108.839 138.27 110.07C141.156 111.3 142.498 114.638 141.268 117.525Z" fill="white" stroke="black" stroke-width="3.97634"/>
<path d="M171.373 123.406C171.175 123.871 170.479 124.268 169.658 123.918C168.838 123.569 168.642 122.791 168.84 122.326C169.039 121.861 169.735 121.464 170.556 121.814C171.376 122.164 171.571 122.941 171.373 123.406Z" fill="black" stroke="black" stroke-width="3.60894"/>
<path d="M137.206 113.754C136.922 114.422 136.15 114.732 135.482 114.448C134.814 114.163 134.504 113.391 134.789 112.723C135.073 112.056 135.845 111.745 136.513 112.03C137.18 112.315 137.491 113.087 137.206 113.754Z" fill="black" stroke="black" stroke-width="3.97634"/>
<path d="M114.57 30.2578V34.6328H110.82V42.9922C110.82 44.6849 110.853 45.6745 110.918 45.9609C110.996 46.2344 111.159 46.4622 111.406 46.6445C111.667 46.8268 111.979 46.918 112.344 46.918C112.852 46.918 113.587 46.7422 114.551 46.3906L115.02 50.6484C113.743 51.1953 112.298 51.4688 110.684 51.4688C109.694 51.4688 108.802 51.306 108.008 50.9805C107.214 50.6419 106.628 50.2122 106.25 49.6914C105.885 49.1576 105.632 48.4414 105.488 47.543C105.371 46.9049 105.312 45.6159 105.312 43.6758V34.6328H102.793V30.2578H105.312V26.1367L110.82 22.9336V30.2578H114.57ZM123.848 22.3672V32.8945C125.618 30.8242 127.734 29.7891 130.195 29.7891C131.458 29.7891 132.598 30.0234 133.613 30.4922C134.629 30.9609 135.391 31.5599 135.898 32.2891C136.419 33.0182 136.771 33.8255 136.953 34.7109C137.148 35.5964 137.246 36.9701 137.246 38.832V51H131.758V40.043C131.758 37.8685 131.654 36.4883 131.445 35.9023C131.237 35.3164 130.866 34.8542 130.332 34.5156C129.811 34.1641 129.154 33.9883 128.359 33.9883C127.448 33.9883 126.634 34.2096 125.918 34.6523C125.202 35.0951 124.674 35.7656 124.336 36.6641C124.01 37.5495 123.848 38.8646 123.848 40.6094V51H118.359V22.3672H123.848ZM142.832 27.4453V22.3672H148.32V27.4453H142.832ZM142.832 51V30.2578H148.32V51H142.832ZM172.832 51H167.344V40.4141C167.344 38.1745 167.227 36.7292 166.992 36.0781C166.758 35.4141 166.374 34.8997 165.84 34.5352C165.319 34.1706 164.688 33.9883 163.945 33.9883C162.995 33.9883 162.142 34.2487 161.387 34.7695C160.632 35.2904 160.111 35.9805 159.824 36.8398C159.551 37.6992 159.414 39.2878 159.414 41.6055V51H153.926V30.2578H159.023V33.3047C160.833 30.9609 163.112 29.7891 165.859 29.7891C167.07 29.7891 168.177 30.0104 169.18 30.4531C170.182 30.8828 170.938 31.4362 171.445 32.1133C171.966 32.7904 172.324 33.5586 172.52 34.418C172.728 35.2773 172.832 36.5078 172.832 38.1094V51ZM178.223 51V22.3672H183.711V37.5625L190.137 30.2578H196.895L189.805 37.8359L197.402 51H191.484L186.27 41.6836L183.711 44.3594V51H178.223Z" fill="black"/>
<path d="M128.524 142.406C125.524 152.906 132.024 162.406 151.024 164.906" stroke="black" stroke-width="5" stroke-linecap="round"/>
<path d="M158.024 197.906L113.524 247.406L82.5237 163.406" stroke="black" stroke-width="8" stroke-linecap="round"/>
<path d="M84.5336 145.926C81.6606 149.356 76.5232 152.406 79.0237 163.906C79.3596 165.451 86.7461 166.064 86.0237 162.906C84.1445 154.689 86.3807 154.356 87.57 158.627C88.4627 161.833 90.0787 161.388 91.7558 159.459C93.5089 157.443 90.5491 152.022 90.5491 152.022C90.5491 152.022 92.5899 153.084 93.491 156.384C94.2752 159.256 98.2469 156.096 98.3525 153.994C98.4581 151.892 95.0435 146.454 95.0435 146.454C95.0435 146.454 98.5948 149.171 100.008 152.497C100.694 154.112 104.808 151.064 102.4 146.823C101.07 144.48 99.1347 141.917 97.383 141.829C101.904 135.734 111.481 127.109 110.367 124.569C108.949 121.336 103.588 123.176 84.5336 145.926Z" fill="black" stroke="black"/>
<path d="M159.024 201.406L197.524 261.406L105.024 256.906" stroke="black" stroke-width="8" stroke-linecap="round"/>
<path d="M94.5237 257.406C98.1488 254.71 101.286 253.407 104.524 253.406C112.524 253.404 109.564 260.405 106.024 260.405C100.926 260.406 100.558 266.589 100.794 269.387C101.36 276.126 105.325 278.935 103.626 281.181C102.266 282.979 98.5282 277.25 96.8289 271.634C96.2621 277.812 100.794 282.867 98.5282 285.113C96.8289 286.798 91.7307 274.442 91.7307 275.565C91.7307 281.769 95.1296 285.675 93.4303 286.798C91.731 287.921 87.1993 280.058 87.1993 274.442C87.1993 272.589 86.8216 272.195 87.7657 270.51C86.2552 271.82 84.4805 273.094 82.6679 274.442C80.4022 276.127 78.2902 275.004 79.2696 273.319C81.4239 269.613 89.9923 260.776 94.5237 257.406Z" fill="black" stroke="black" stroke-linecap="round"/>
</svg>
