<svg width="300" height="300" viewBox="0 0 300 300" fill="none" xmlns="http://www.w3.org/2000/svg">
<rect width="300" height="300" fill="white"/>
<path d="M128.66 48.8555L129.168 51.9609C128.178 52.1693 127.293 52.2734 126.512 52.2734C125.236 52.2734 124.246 52.0716 123.543 51.668C122.84 51.2643 122.345 50.737 122.059 50.0859C121.772 49.4219 121.629 48.0352 121.629 45.9258V33.9922H119.051V31.2578H121.629V26.1211L125.125 24.0117V31.2578H128.66V33.9922H125.125V46.1211C125.125 47.1237 125.184 47.7682 125.301 48.0547C125.431 48.3411 125.633 48.569 125.906 48.7383C126.193 48.9076 126.596 48.9922 127.117 48.9922C127.508 48.9922 128.022 48.9466 128.66 48.8555ZM132.117 52V23.3672H135.633V33.6406C137.273 31.7396 139.344 30.7891 141.844 30.7891C143.38 30.7891 144.715 31.0951 145.848 31.707C146.98 32.306 147.788 33.1393 148.27 34.207C148.764 35.2747 149.012 36.8242 149.012 38.8555V52H145.496V38.8555C145.496 37.0977 145.112 35.8216 144.344 35.0273C143.589 34.2201 142.514 33.8164 141.121 33.8164C140.079 33.8164 139.096 34.0898 138.172 34.6367C137.26 35.1706 136.609 35.8997 136.219 36.8242C135.828 37.7487 135.633 39.0247 135.633 40.6523V52H132.117ZM154.402 27.4102V23.3672H157.918V27.4102H154.402ZM154.402 52V31.2578H157.918V52H154.402ZM161.883 45.8086L165.359 45.2617C165.555 46.6549 166.095 47.7227 166.98 48.4648C167.879 49.207 169.129 49.5781 170.73 49.5781C172.345 49.5781 173.543 49.2526 174.324 48.6016C175.105 47.9375 175.496 47.1628 175.496 46.2773C175.496 45.4831 175.151 44.8581 174.461 44.4023C173.979 44.0898 172.781 43.6927 170.867 43.2109C168.289 42.5599 166.499 42 165.496 41.5312C164.507 41.0495 163.751 40.3919 163.23 39.5586C162.723 38.7122 162.469 37.7812 162.469 36.7656C162.469 35.8411 162.677 34.9883 163.094 34.207C163.523 33.4128 164.103 32.7552 164.832 32.2344C165.379 31.8307 166.121 31.4922 167.059 31.2188C168.009 30.9323 169.025 30.7891 170.105 30.7891C171.733 30.7891 173.159 31.0234 174.383 31.4922C175.62 31.9609 176.531 32.599 177.117 33.4062C177.703 34.2005 178.107 35.2682 178.328 36.6094L174.891 37.0781C174.734 36.0104 174.279 35.1771 173.523 34.5781C172.781 33.9792 171.727 33.6797 170.359 33.6797C168.745 33.6797 167.592 33.9466 166.902 34.4805C166.212 35.0143 165.867 35.6393 165.867 36.3555C165.867 36.8112 166.01 37.2214 166.297 37.5859C166.583 37.9635 167.033 38.276 167.645 38.5234C167.996 38.6536 169.031 38.9531 170.75 39.4219C173.237 40.0859 174.969 40.6328 175.945 41.0625C176.935 41.4792 177.71 42.0911 178.27 42.8984C178.829 43.7057 179.109 44.7083 179.109 45.9062C179.109 47.0781 178.764 48.1849 178.074 49.2266C177.397 50.2552 176.414 51.056 175.125 51.6289C173.836 52.1888 172.378 52.4688 170.75 52.4688C168.055 52.4688 165.997 51.9089 164.578 50.7891C163.172 49.6693 162.273 48.0091 161.883 45.8086Z" fill="black"/>
<rect x="211.68" y="146.68" width="52.64" height="52.64" fill="#B92429" stroke="black" stroke-width="3.36"/>
<path d="M100.52 121.474C100.52 145.666 83.0535 164.865 61.9883 164.865C40.923 164.865 23.4568 145.666 23.4568 121.474C23.4568 97.2821 40.923 78.0828 61.9883 78.0828C83.0535 78.0828 100.52 97.2821 100.52 121.474Z" fill="#BC8166" stroke="black" stroke-width="4.16557"/>
<path d="M24.8463 250.045C23.5385 247.533 30.4555 239.296 37.6059 237.108C42.4861 237.637 45.6975 242.183 47.0617 245.541C48.4259 248.898 49.8138 261.147 45.9682 262.458C42.8917 263.507 45.7329 255.519 41.3815 250.11C41.6168 257.048 39.8529 270.584 36.7717 269.855C33.6905 269.126 35.7132 259.124 36.3951 250.557C33.5375 256.419 28.257 264.587 25.6932 262.729C23.1294 260.871 30.3325 254.097 32.914 246.229C30.5892 248.692 26.1541 252.557 24.8463 250.045Z" fill="black" stroke="black" stroke-width="0.694261"/>
<path d="M160 161.314C157.516 163.18 154.499 166.814 151 171.315L156 173L158 171.315C157.982 173.774 158.616 173.759 160.5 173.681C162.384 173.604 162.913 169.115 164.021 166.453C164.715 169.424 162.199 174.039 166.506 173.681C170.914 173.316 170.023 168.8 170.801 164.911C172.294 168.458 168.896 173.645 173.616 173.367C178.69 173.068 177.134 168.485 177.816 163.044C184.627 162.019 197.461 160.883 197.623 158.034C197.817 154.616 186.109 157.153 180.267 157.394C177.712 157.499 164.158 158.189 160 161.314Z" fill="black" stroke="black" stroke-width="0.694261"/>
<circle cx="55.6146" cy="112.866" r="6.24835" fill="black"/>
<circle cx="87.1068" cy="112.866" r="6.24835" fill="black"/>
<path d="M51.9902 140.732C54.1887 143.638 60.5991 149.509 68.6525 149.749C76.7059 149.99 84.5048 145.041 87.3975 142.536" stroke="black" stroke-width="4.85983" stroke-linecap="round"/>
<path d="M62.9254 167.414C63.927 172.485 65.3587 180.152 66.6665 187.971M60.7385 262.326C63.8002 250.08 69.9236 223.312 69.9236 214.214C69.9236 209.023 68.4044 198.363 66.6665 187.971M66.6665 187.971L106 199L154.5 171.5M66.6665 187.971L32.3086 209.403L38.8693 237.395" stroke="black" stroke-width="5.2486" stroke-linecap="round"/>
</svg>
