<svg width="300" height="300" viewBox="0 0 300 300" fill="none" xmlns="http://www.w3.org/2000/svg">
<rect x="5.5" y="5.5" width="289" height="289" rx="14.5" fill="#FFF0E2"/>
<rect x="5.5" y="5.5" width="289" height="289" rx="14.5" stroke="#FF7602" stroke-width="11"/>
<path d="M125.797 31.2578V35.6328H122.047V43.9922C122.047 45.6849 122.079 46.6745 122.145 46.9609C122.223 47.2344 122.385 47.4622 122.633 47.6445C122.893 47.8268 123.206 47.918 123.57 47.918C124.078 47.918 124.814 47.7422 125.777 47.3906L126.246 51.6484C124.97 52.1953 123.525 52.4688 121.91 52.4688C120.921 52.4688 120.029 52.306 119.234 51.9805C118.44 51.6419 117.854 51.2122 117.477 50.6914C117.112 50.1576 116.858 49.4414 116.715 48.543C116.598 47.9049 116.539 46.6159 116.539 44.6758V35.6328H114.02V31.2578H116.539V27.1367L122.047 23.9336V31.2578H125.797ZM135.074 23.3672V33.8945C136.845 31.8242 138.961 30.7891 141.422 30.7891C142.685 30.7891 143.824 31.0234 144.84 31.4922C145.855 31.9609 146.617 32.5599 147.125 33.2891C147.646 34.0182 147.997 34.8255 148.18 35.7109C148.375 36.5964 148.473 37.9701 148.473 39.832V52H142.984V41.043C142.984 38.8685 142.88 37.4883 142.672 36.9023C142.464 36.3164 142.092 35.8542 141.559 35.5156C141.038 35.1641 140.38 34.9883 139.586 34.9883C138.674 34.9883 137.861 35.2096 137.145 35.6523C136.428 36.0951 135.901 36.7656 135.562 37.6641C135.237 38.5495 135.074 39.8646 135.074 41.6094V52H129.586V23.3672H135.074ZM154.059 28.4453V23.3672H159.547V28.4453H154.059ZM154.059 52V31.2578H159.547V52H154.059ZM163.258 46.082L168.766 45.2422C169 46.3099 169.475 47.1237 170.191 47.6836C170.908 48.2305 171.91 48.5039 173.199 48.5039C174.618 48.5039 175.686 48.2435 176.402 47.7227C176.884 47.3581 177.125 46.8698 177.125 46.2578C177.125 45.8411 176.995 45.4961 176.734 45.2227C176.461 44.9622 175.849 44.7214 174.898 44.5C170.471 43.5234 167.665 42.6315 166.48 41.8242C164.84 40.7044 164.02 39.1484 164.02 37.1562C164.02 35.3594 164.729 33.849 166.148 32.625C167.568 31.401 169.768 30.7891 172.75 30.7891C175.589 30.7891 177.698 31.2513 179.078 32.1758C180.458 33.1003 181.409 34.4674 181.93 36.2773L176.754 37.2344C176.533 36.4271 176.109 35.8086 175.484 35.3789C174.872 34.9492 173.993 34.7344 172.848 34.7344C171.402 34.7344 170.367 34.9362 169.742 35.3398C169.326 35.6263 169.117 35.9974 169.117 36.4531C169.117 36.8438 169.299 37.1758 169.664 37.4492C170.159 37.8138 171.865 38.3281 174.781 38.9922C177.711 39.6562 179.755 40.4701 180.914 41.4336C182.06 42.4102 182.633 43.7708 182.633 45.5156C182.633 47.4167 181.839 49.0508 180.25 50.418C178.661 51.7852 176.311 52.4688 173.199 52.4688C170.374 52.4688 168.134 51.8958 166.48 50.75C164.84 49.6042 163.766 48.0482 163.258 46.082Z" fill="black"/>
<rect x="211.68" y="146.68" width="52.64" height="52.64" fill="#B92429" stroke="black" stroke-width="3.36"/>
<path d="M100.52 121.474C100.52 145.666 83.0535 164.865 61.9883 164.865C40.923 164.865 23.4568 145.666 23.4568 121.474C23.4568 97.2821 40.923 78.0828 61.9883 78.0828C83.0535 78.0828 100.52 97.2821 100.52 121.474Z" fill="#BC8166" stroke="black" stroke-width="4.16557"/>
<path d="M24.8463 250.045C23.5385 247.533 30.4555 239.296 37.6059 237.108C42.4861 237.637 45.6975 242.183 47.0617 245.541C48.4259 248.898 49.8138 261.147 45.9682 262.458C42.8917 263.507 45.7329 255.519 41.3815 250.11C41.6168 257.048 39.8529 270.584 36.7717 269.855C33.6905 269.126 35.7132 259.124 36.3951 250.557C33.5375 256.419 28.257 264.587 25.6932 262.729C23.1294 260.871 30.3325 254.097 32.914 246.229C30.5892 248.692 26.1541 252.557 24.8463 250.045Z" fill="black" stroke="black" stroke-width="0.694261"/>
<path d="M160 161.314C157.516 163.18 154.499 166.814 151 171.315L156 173L158 171.315C157.982 173.774 158.616 173.759 160.5 173.681C162.384 173.604 162.913 169.115 164.021 166.453C164.715 169.424 162.199 174.039 166.506 173.681C170.914 173.316 170.023 168.8 170.801 164.911C172.294 168.458 168.896 173.645 173.616 173.367C178.69 173.068 177.134 168.485 177.816 163.044C184.627 162.019 197.461 160.883 197.623 158.034C197.817 154.616 186.109 157.153 180.267 157.394C177.712 157.499 164.158 158.189 160 161.314Z" fill="black" stroke="black" stroke-width="0.694261"/>
<circle cx="55.6146" cy="112.866" r="6.24835" fill="black"/>
<circle cx="87.1068" cy="112.866" r="6.24835" fill="black"/>
<path d="M51.9902 140.732C54.1887 143.638 60.5991 149.509 68.6525 149.749C76.7059 149.99 84.5048 145.041 87.3975 142.536" stroke="black" stroke-width="4.85983" stroke-linecap="round"/>
<path d="M62.9254 167.414C63.927 172.485 65.3587 180.152 66.6665 187.971M60.7385 262.326C63.8002 250.08 69.9236 223.312 69.9236 214.214C69.9236 209.023 68.4044 198.363 66.6665 187.971M66.6665 187.971L106 199L154.5 171.5M66.6665 187.971L32.3086 209.403L38.8693 237.395" stroke="black" stroke-width="5.2486" stroke-linecap="round"/>
</svg>
