<svg width="312" height="312" viewBox="0 0 312 312" fill="none" xmlns="http://www.w3.org/2000/svg">
<rect x="6" y="6" width="300" height="300" rx="20" fill="#E2FFE2"/>
<rect x="6" y="6" width="300" height="300" rx="20" stroke="#1ADF1D" stroke-width="11"/>
<path d="M148.496 37.2578V41.6328H144.746V49.9922C144.746 51.6849 144.779 52.6745 144.844 52.9609C144.922 53.2344 145.085 53.4622 145.332 53.6445C145.592 53.8268 145.905 53.918 146.27 53.918C146.777 53.918 147.513 53.7422 148.477 53.3906L148.945 57.6484C147.669 58.1953 146.224 58.4688 144.609 58.4688C143.62 58.4688 142.728 58.306 141.934 57.9805C141.139 57.6419 140.553 57.2122 140.176 56.6914C139.811 56.1576 139.557 55.4414 139.414 54.543C139.297 53.9049 139.238 52.6159 139.238 50.6758V41.6328H136.719V37.2578H139.238V33.1367L144.746 29.9336V37.2578H148.496ZM151.035 47.3359C151.035 45.513 151.484 43.7487 152.383 42.043C153.281 40.3372 154.551 39.0352 156.191 38.1367C157.845 37.2383 159.688 36.7891 161.719 36.7891C164.857 36.7891 167.428 37.8112 169.434 39.8555C171.439 41.8867 172.441 44.4583 172.441 47.5703C172.441 50.7083 171.426 53.3125 169.395 55.3828C167.376 57.4401 164.831 58.4688 161.758 58.4688C159.857 58.4688 158.04 58.0391 156.309 57.1797C154.59 56.3203 153.281 55.0638 152.383 53.4102C151.484 51.7435 151.035 49.7188 151.035 47.3359ZM156.66 47.6289C156.66 49.6862 157.148 51.2617 158.125 52.3555C159.102 53.4492 160.306 53.9961 161.738 53.9961C163.171 53.9961 164.368 53.4492 165.332 52.3555C166.309 51.2617 166.797 49.6732 166.797 47.5898C166.797 45.5586 166.309 43.9961 165.332 42.9023C164.368 41.8086 163.171 41.2617 161.738 41.2617C160.306 41.2617 159.102 41.8086 158.125 42.9023C157.148 43.9961 156.66 45.5716 156.66 47.6289Z" fill="black"/>
<rect x="85.6932" y="274.098" width="128.325" height="12" rx="6" transform="rotate(-38.6099 85.6932 274.098)" fill="#B92429"/>
<path d="M207.948 183.972L193.419 221.066L168.56 189.936L207.948 183.972Z" fill="#B92429"/>
<rect x="222" y="77" width="21" height="209" rx="10.5" fill="black"/>
</svg>
