<svg width="300" height="300" viewBox="0 0 300 300" fill="none" xmlns="http://www.w3.org/2000/svg">
<path d="M142.496 31.2578V35.6328H138.746V43.9922C138.746 45.6849 138.779 46.6745 138.844 46.9609C138.922 47.2344 139.085 47.4622 139.332 47.6445C139.592 47.8268 139.905 47.918 140.27 47.918C140.777 47.918 141.513 47.7422 142.477 47.3906L142.945 51.6484C141.669 52.1953 140.224 52.4688 138.609 52.4688C137.62 52.4688 136.728 52.306 135.934 51.9805C135.139 51.6419 134.553 51.2122 134.176 50.6914C133.811 50.1576 133.557 49.4414 133.414 48.543C133.297 47.9049 133.238 46.6159 133.238 44.6758V35.6328H130.719V31.2578H133.238V27.1367L138.746 23.9336V31.2578H142.496ZM145.035 41.3359C145.035 39.513 145.484 37.7487 146.383 36.043C147.281 34.3372 148.551 33.0352 150.191 32.1367C151.845 31.2383 153.688 30.7891 155.719 30.7891C158.857 30.7891 161.428 31.8112 163.434 33.8555C165.439 35.8867 166.441 38.4583 166.441 41.5703C166.441 44.7083 165.426 47.3125 163.395 49.3828C161.376 51.4401 158.831 52.4688 155.758 52.4688C153.857 52.4688 152.04 52.0391 150.309 51.1797C148.59 50.3203 147.281 49.0638 146.383 47.4102C145.484 45.7435 145.035 43.7188 145.035 41.3359ZM150.66 41.6289C150.66 43.6862 151.148 45.2617 152.125 46.3555C153.102 47.4492 154.306 47.9961 155.738 47.9961C157.171 47.9961 158.368 47.4492 159.332 46.3555C160.309 45.2617 160.797 43.6732 160.797 41.5898C160.797 39.5586 160.309 37.9961 159.332 36.9023C158.368 35.8086 157.171 35.2617 155.738 35.2617C154.306 35.2617 153.102 35.8086 152.125 36.9023C151.148 37.9961 150.66 39.5716 150.66 41.6289Z" fill="black"/>
<rect x="79.6934" y="268.098" width="128.325" height="12" rx="6" transform="rotate(-38.6099 79.6934 268.098)" fill="#B92429"/>
<path d="M201.948 177.972L187.419 215.066L162.56 183.936L201.948 177.972Z" fill="#B92429"/>
<rect x="216" y="71" width="21" height="209" rx="10.5" fill="black"/>
</svg>
