<svg width="300" height="300" viewBox="0 0 300 300" fill="none" xmlns="http://www.w3.org/2000/svg">
<rect width="300" height="300" fill="white"/>
<path d="M145.223 144.92C146.183 147.32 145.319 150.968 143.111 151.832C140.903 152.792 134.759 153.176 131.591 153.272C131.879 160.952 132.167 169.784 131.975 175.352C131.975 179.288 132.167 186.008 129.575 186.968C125.639 188.6 121.991 187.64 120.647 185.624C118.535 182.36 118.823 176.216 118.919 172.856C119.015 167.48 119.111 160.28 119.111 153.368H117.671C114.599 153.368 107.495 153.272 105.671 151.064C102.791 147.704 104.903 142.904 108.167 142.04C110.471 141.464 115.271 141.464 119.015 141.56C118.919 140.312 118.919 139.064 118.823 137.912C118.631 134.744 118.535 127.832 121.415 125.624C125.255 122.552 129.671 125.336 130.631 128.888C131.495 131.864 131.399 137.816 131.399 141.56H132.359C136.103 141.656 143.303 140.312 145.223 144.92ZM160.583 143.864C169.127 139.64 179.399 140.312 186.599 147.224C189.479 150.104 191.783 154.712 192.839 158.648C194.951 165.656 193.127 173.144 189.383 179.288C187.655 182.072 184.871 184.472 181.895 185.816C178.055 187.544 173.351 188.312 169.127 187.928C153.863 187.064 145.319 173.144 149.159 158.744C151.175 151.16 155.303 146.456 160.583 143.864ZM163.463 156.728C159.719 160.376 159.143 167.96 162.311 172.472C163.559 174.392 167.399 175.832 170.951 176.024C179.207 176.504 183.623 164.792 179.207 157.688C176.039 152.504 167.495 152.984 163.463 156.728Z" fill="black"/>
</svg>
