<svg width="312" height="312" viewBox="0 0 312 312" fill="none" xmlns="http://www.w3.org/2000/svg">
<rect x="6" y="6" width="300" height="300" rx="20" fill="#E2FFE2"/>
<rect x="6" y="6" width="300" height="300" rx="20" stroke="#1ADF1D" stroke-width="11"/>
<path d="M147.57 58V54.8945C146.815 56.0013 145.819 56.8737 144.582 57.5117C143.358 58.1497 142.062 58.4688 140.695 58.4688C139.302 58.4688 138.052 58.1628 136.945 57.5508C135.839 56.9388 135.038 56.0794 134.543 54.9727C134.048 53.8659 133.801 52.3359 133.801 50.3828V37.2578H139.289V46.7891C139.289 49.7057 139.387 51.4961 139.582 52.1602C139.79 52.8112 140.161 53.332 140.695 53.7227C141.229 54.1003 141.906 54.2891 142.727 54.2891C143.664 54.2891 144.504 54.0352 145.246 53.5273C145.988 53.0065 146.496 52.3685 146.77 51.6133C147.043 50.8451 147.18 48.9766 147.18 46.0078V37.2578H152.668V58H147.57ZM158.215 37.2578H163.332V40.3047C163.996 39.263 164.895 38.4167 166.027 37.7656C167.16 37.1146 168.417 36.7891 169.797 36.7891C172.206 36.7891 174.25 37.7331 175.93 39.6211C177.609 41.5091 178.449 44.1393 178.449 47.5117C178.449 50.9753 177.603 53.6706 175.91 55.5977C174.217 57.5117 172.167 58.4688 169.758 58.4688C168.612 58.4688 167.57 58.2409 166.633 57.7852C165.708 57.3294 164.732 56.5482 163.703 55.4414V65.8906H158.215V37.2578ZM163.645 47.2773C163.645 49.6081 164.107 51.3333 165.031 52.4531C165.956 53.5599 167.082 54.1133 168.41 54.1133C169.686 54.1133 170.747 53.6055 171.594 52.5898C172.44 51.5612 172.863 49.8815 172.863 47.5508C172.863 45.3763 172.427 43.7617 171.555 42.707C170.682 41.6523 169.602 41.125 168.312 41.125C166.971 41.125 165.858 41.6458 164.973 42.6875C164.087 43.7161 163.645 45.2461 163.645 47.2773Z" fill="black"/>
<rect x="110" y="127" width="91" height="116" rx="3" fill="#D9D9D9" stroke="#C5C5C5" stroke-width="4"/>
<rect x="149.123" y="274.229" width="150.695" height="14.0919" rx="7.04596" transform="rotate(-90 149.123 274.229)" fill="#B92429"/>
<path d="M156.009 96L179.4 136.514H132.619L156.009 96Z" fill="#B92429"/>
</svg>
