<svg width="300" height="300" viewBox="0 0 300 300" fill="none" xmlns="http://www.w3.org/2000/svg">
<path d="M141.57 52V48.8945C140.815 50.0013 139.819 50.8737 138.582 51.5117C137.358 52.1497 136.062 52.4688 134.695 52.4688C133.302 52.4688 132.052 52.1628 130.945 51.5508C129.839 50.9388 129.038 50.0794 128.543 48.9727C128.048 47.8659 127.801 46.3359 127.801 44.3828V31.2578H133.289V40.7891C133.289 43.7057 133.387 45.4961 133.582 46.1602C133.79 46.8112 134.161 47.332 134.695 47.7227C135.229 48.1003 135.906 48.2891 136.727 48.2891C137.664 48.2891 138.504 48.0352 139.246 47.5273C139.988 47.0065 140.496 46.3685 140.77 45.6133C141.043 44.8451 141.18 42.9766 141.18 40.0078V31.2578H146.668V52H141.57ZM152.215 31.2578H157.332V34.3047C157.996 33.263 158.895 32.4167 160.027 31.7656C161.16 31.1146 162.417 30.7891 163.797 30.7891C166.206 30.7891 168.25 31.7331 169.93 33.6211C171.609 35.5091 172.449 38.1393 172.449 41.5117C172.449 44.9753 171.603 47.6706 169.91 49.5977C168.217 51.5117 166.167 52.4688 163.758 52.4688C162.612 52.4688 161.57 52.2409 160.633 51.7852C159.708 51.3294 158.732 50.5482 157.703 49.4414V59.8906H152.215V31.2578ZM157.645 41.2773C157.645 43.6081 158.107 45.3333 159.031 46.4531C159.956 47.5599 161.082 48.1133 162.41 48.1133C163.686 48.1133 164.747 47.6055 165.594 46.5898C166.44 45.5612 166.863 43.8815 166.863 41.5508C166.863 39.3763 166.427 37.7617 165.555 36.707C164.682 35.6523 163.602 35.125 162.312 35.125C160.971 35.125 159.858 35.6458 158.973 36.6875C158.087 37.7161 157.645 39.2461 157.645 41.2773Z" fill="black"/>
<rect x="104" y="121" width="91" height="116" rx="3" fill="#D9D9D9" stroke="#C5C5C5" stroke-width="4"/>
<rect x="143.123" y="268.229" width="150.695" height="14.0919" rx="7.04596" transform="rotate(-90 143.123 268.229)" fill="#B92429"/>
<path d="M150.009 90L173.4 130.514H126.619L150.009 90Z" fill="#B92429"/>
</svg>
