<svg width="300" height="300" viewBox="0 0 300 300" fill="none" xmlns="http://www.w3.org/2000/svg">
<rect width="300" height="300" fill="white"/>
<path d="M113.68 52L107.332 31.2578H110.965L114.266 43.2305L115.496 47.6836C115.548 47.4622 115.906 46.0365 116.57 43.4062L119.871 31.2578H123.484L126.59 43.2891L127.625 47.2539L128.816 43.25L132.371 31.2578H135.789L129.305 52H125.652L122.352 39.5781L121.551 36.043L117.352 52H113.68ZM152.293 49.4414C150.991 50.5482 149.734 51.3294 148.523 51.7852C147.326 52.2409 146.036 52.4688 144.656 52.4688C142.378 52.4688 140.626 51.9154 139.402 50.8086C138.178 49.6888 137.566 48.263 137.566 46.5312C137.566 45.5156 137.794 44.5911 138.25 43.7578C138.719 42.9115 139.324 42.2344 140.066 41.7266C140.822 41.2188 141.668 40.8346 142.605 40.5742C143.296 40.3919 144.337 40.2161 145.73 40.0469C148.569 39.7083 150.659 39.3047 152 38.8359C152.013 38.3542 152.02 38.0482 152.02 37.918C152.02 36.4857 151.688 35.4766 151.023 34.8906C150.125 34.0964 148.79 33.6992 147.02 33.6992C145.366 33.6992 144.142 33.9922 143.348 34.5781C142.566 35.151 141.987 36.1732 141.609 37.6445L138.172 37.1758C138.484 35.7044 138.999 34.5195 139.715 33.6211C140.431 32.7096 141.466 32.013 142.82 31.5312C144.174 31.0365 145.743 30.7891 147.527 30.7891C149.298 30.7891 150.737 30.9974 151.844 31.4141C152.951 31.8307 153.764 32.3581 154.285 32.9961C154.806 33.6211 155.171 34.4154 155.379 35.3789C155.496 35.9779 155.555 37.0586 155.555 38.6211V43.3086C155.555 46.5768 155.626 48.6471 155.77 49.5195C155.926 50.3789 156.225 51.2057 156.668 52H152.996C152.632 51.2708 152.397 50.418 152.293 49.4414ZM152 41.5898C150.724 42.1107 148.81 42.5534 146.258 42.918C144.812 43.1263 143.79 43.3607 143.191 43.6211C142.592 43.8815 142.13 44.2656 141.805 44.7734C141.479 45.2682 141.316 45.8216 141.316 46.4336C141.316 47.3711 141.668 48.1523 142.371 48.7773C143.087 49.4023 144.129 49.7148 145.496 49.7148C146.85 49.7148 148.055 49.4219 149.109 48.8359C150.164 48.237 150.939 47.4232 151.434 46.3945C151.811 45.6003 152 44.4284 152 42.8789V41.5898ZM161.023 52V31.2578H164.188V34.207C165.711 31.9284 167.911 30.7891 170.789 30.7891C172.039 30.7891 173.185 31.0169 174.227 31.4727C175.281 31.9154 176.069 32.5013 176.59 33.2305C177.111 33.9596 177.475 34.8255 177.684 35.8281C177.814 36.4792 177.879 37.6185 177.879 39.2461V52H174.363V39.3828C174.363 37.9505 174.227 36.8828 173.953 36.1797C173.68 35.4635 173.191 34.8971 172.488 34.4805C171.798 34.0508 170.984 33.8359 170.047 33.8359C168.549 33.8359 167.254 34.3112 166.16 35.2617C165.079 36.2122 164.539 38.0156 164.539 40.6719V52H161.023ZM190.965 48.8555L191.473 51.9609C190.483 52.1693 189.598 52.2734 188.816 52.2734C187.54 52.2734 186.551 52.0716 185.848 51.668C185.145 51.2643 184.65 50.737 184.363 50.0859C184.077 49.4219 183.934 48.0352 183.934 45.9258V33.9922H181.355V31.2578H183.934V26.1211L187.43 24.0117V31.2578H190.965V33.9922H187.43V46.1211C187.43 47.1237 187.488 47.7682 187.605 48.0547C187.736 48.3411 187.938 48.569 188.211 48.7383C188.497 48.9076 188.901 48.9922 189.422 48.9922C189.812 48.9922 190.327 48.9466 190.965 48.8555Z" fill="black"/>
<rect x="205.68" y="191.68" width="52.64" height="52.64" fill="#B92429" stroke="black" stroke-width="3.36"/>
<path d="M130.146 131.474C130.146 155.666 112.68 174.865 91.6143 174.865C70.549 174.865 53.0828 155.666 53.0828 131.474C53.0828 107.282 70.549 88.0828 91.6143 88.0828C112.68 88.0828 130.146 107.282 130.146 131.474Z" fill="#BC8166" stroke="black" stroke-width="4.16557"/>
<path d="M178.302 249.072C176.017 250.746 166.248 242.152 163 235.417C162.782 230.513 167.364 229.656 170.476 227.798C173.587 225.94 185.483 222.708 187.363 226.31C188.867 229.191 180.541 227.596 175.854 232.718C182.677 231.432 194.441 232.261 194.188 235.417C193.935 238.573 185.625 236.952 177.053 237.579C183.282 239.513 190.635 241.6 189.188 244.416C187.741 247.232 181.473 243.034 173.304 241.677C176.092 243.601 180.586 247.398 178.302 249.072Z" fill="black" stroke="black" stroke-width="0.694261"/>
<path d="M179.301 212.071C177.017 213.745 167.748 205.236 164.5 198.501C164.281 193.597 168.364 192.656 171.475 190.797C174.587 188.939 183.12 183.898 185 187.5C186.504 190.381 181.54 190.596 176.854 195.718C183.676 194.432 191.752 193.843 191.5 197C191.247 200.156 186.624 199.952 178.053 200.579C184.281 202.513 188.947 203.685 187.5 206.501C186.052 209.317 182.472 206.033 174.304 204.677C177.092 206.6 181.585 210.397 179.301 212.071Z" fill="black" stroke="black" stroke-width="0.694261"/>
<circle cx="105.874" cy="121.248" r="6.24835" fill="black"/>
<path d="M95.626 151C97.8245 153.905 104.235 159.776 112.288 160.017C116.126 160.132 120.126 159 123.376 155.5" stroke="black" stroke-width="4.85983" stroke-linecap="round"/>
<path d="M92.5514 177.414C94.1262 186.5 93.3882 179.608 95.1262 190M90.3645 272.326C93.4262 260.08 99.5495 233.312 99.5495 224.214C99.5495 219.023 96.8642 200.392 95.1262 190M95.1262 190L168.626 197.971M95.1262 190L119.626 235H163.626" stroke="black" stroke-width="5.2486" stroke-linecap="round"/>
</svg>
