<svg width="300" height="300" viewBox="0 0 300 300" fill="none" xmlns="http://www.w3.org/2000/svg">
<rect x="5.5" y="5.5" width="289" height="289" rx="14.5" fill="#FFE3FF"/>
<rect x="5.5" y="5.5" width="289" height="289" rx="14.5" stroke="#FE05FC" stroke-width="11"/>
<path d="M110.152 52L103.59 31.2578H108.922L112.809 44.8516L116.383 31.2578H121.676L125.133 44.8516L129.098 31.2578H134.508L127.848 52H122.574L119 38.6602L115.484 52H110.152ZM141.52 37.5859L136.539 36.6875C137.099 34.6823 138.062 33.1979 139.43 32.2344C140.797 31.2708 142.828 30.7891 145.523 30.7891C147.971 30.7891 149.794 31.082 150.992 31.668C152.19 32.2409 153.03 32.9766 153.512 33.875C154.007 34.7604 154.254 36.3945 154.254 38.7773L154.195 45.1836C154.195 47.0065 154.28 48.3542 154.449 49.2266C154.632 50.0859 154.964 51.0104 155.445 52H150.016C149.872 51.6354 149.697 51.0951 149.488 50.3789C149.397 50.0534 149.332 49.8385 149.293 49.7344C148.355 50.6458 147.353 51.3294 146.285 51.7852C145.217 52.2409 144.078 52.4688 142.867 52.4688C140.732 52.4688 139.046 51.8893 137.809 50.7305C136.585 49.5716 135.973 48.1068 135.973 46.3359C135.973 45.1641 136.253 44.1224 136.812 43.2109C137.372 42.2865 138.154 41.5833 139.156 41.1016C140.172 40.6068 141.63 40.1771 143.531 39.8125C146.096 39.3307 147.874 38.8815 148.863 38.4648V37.918C148.863 36.8633 148.603 36.1146 148.082 35.6719C147.561 35.2161 146.578 34.9883 145.133 34.9883C144.156 34.9883 143.395 35.1836 142.848 35.5742C142.301 35.9518 141.858 36.6224 141.52 37.5859ZM148.863 42.0391C148.16 42.2734 147.047 42.5534 145.523 42.8789C144 43.2044 143.004 43.5234 142.535 43.8359C141.819 44.3438 141.461 44.9883 141.461 45.7695C141.461 46.5378 141.747 47.2018 142.32 47.7617C142.893 48.3216 143.622 48.6016 144.508 48.6016C145.497 48.6016 146.441 48.276 147.34 47.625C148.004 47.1302 148.44 46.5247 148.648 45.8086C148.792 45.3398 148.863 44.4479 148.863 43.1328V42.0391ZM178.551 52H173.062V41.4141C173.062 39.1745 172.945 37.7292 172.711 37.0781C172.477 36.4141 172.092 35.8997 171.559 35.5352C171.038 35.1706 170.406 34.9883 169.664 34.9883C168.714 34.9883 167.861 35.2487 167.105 35.7695C166.35 36.2904 165.829 36.9805 165.543 37.8398C165.27 38.6992 165.133 40.2878 165.133 42.6055V52H159.645V31.2578H164.742V34.3047C166.552 31.9609 168.831 30.7891 171.578 30.7891C172.789 30.7891 173.896 31.0104 174.898 31.4531C175.901 31.8828 176.656 32.4362 177.164 33.1133C177.685 33.7904 178.043 34.5586 178.238 35.418C178.447 36.2773 178.551 37.5078 178.551 39.1094V52ZM193.648 31.2578V35.6328H189.898V43.9922C189.898 45.6849 189.931 46.6745 189.996 46.9609C190.074 47.2344 190.237 47.4622 190.484 47.6445C190.745 47.8268 191.057 47.918 191.422 47.918C191.93 47.918 192.665 47.7422 193.629 47.3906L194.098 51.6484C192.822 52.1953 191.376 52.4688 189.762 52.4688C188.772 52.4688 187.88 52.306 187.086 51.9805C186.292 51.6419 185.706 51.2122 185.328 50.6914C184.964 50.1576 184.71 49.4414 184.566 48.543C184.449 47.9049 184.391 46.6159 184.391 44.6758V35.6328H181.871V31.2578H184.391V27.1367L189.898 23.9336V31.2578H193.648Z" fill="black"/>
<rect x="205.68" y="191.68" width="52.64" height="52.64" fill="#B92429" stroke="black" stroke-width="3.36"/>
<path d="M130.146 131.474C130.146 155.666 112.68 174.865 91.6143 174.865C70.549 174.865 53.0828 155.666 53.0828 131.474C53.0828 107.282 70.549 88.0828 91.6143 88.0828C112.68 88.0828 130.146 107.282 130.146 131.474Z" fill="#BC8166" stroke="black" stroke-width="4.16557"/>
<path d="M178.302 249.072C176.017 250.746 166.248 242.152 163 235.417C162.782 230.513 167.364 229.656 170.476 227.798C173.587 225.939 185.483 222.708 187.363 226.31C188.867 229.191 180.541 227.596 175.854 232.718C182.677 231.432 194.441 232.261 194.188 235.417C193.935 238.573 185.625 236.952 177.053 237.579C183.282 239.513 190.635 241.6 189.188 244.416C187.741 247.232 181.473 243.034 173.304 241.677C176.092 243.601 180.586 247.397 178.302 249.072Z" fill="black" stroke="black" stroke-width="0.694261"/>
<path d="M179.301 212.071C177.017 213.745 167.748 205.236 164.5 198.501C164.281 193.597 168.364 192.656 171.475 190.797C174.587 188.939 183.12 183.898 185 187.5C186.504 190.381 181.54 190.596 176.854 195.718C183.676 194.432 191.752 193.843 191.5 197C191.247 200.156 186.624 199.952 178.053 200.579C184.281 202.513 188.947 203.684 187.5 206.501C186.052 209.317 182.472 206.033 174.304 204.676C177.092 206.6 181.585 210.397 179.301 212.071Z" fill="black" stroke="black" stroke-width="0.694261"/>
<circle cx="105.874" cy="121.248" r="6.24835" fill="black"/>
<path d="M95.626 151C97.8245 153.905 104.235 159.776 112.288 160.017C116.126 160.132 120.126 159 123.376 155.5" stroke="black" stroke-width="4.85983" stroke-linecap="round"/>
<path d="M92.5514 177.414C94.1262 186.5 93.3882 179.608 95.1262 190M90.3645 272.326C93.4262 260.08 99.5495 233.312 99.5495 224.214C99.5495 219.023 96.8642 200.392 95.1262 190M95.1262 190L168.626 197.971M95.1262 190L119.626 235H163.626" stroke="black" stroke-width="5.2486" stroke-linecap="round"/>
</svg>
