<svg width="300" height="300" viewBox="0 0 300 300" fill="none" xmlns="http://www.w3.org/2000/svg">
<rect x="5.5" y="5.5" width="289" height="289" rx="14.5" fill="#FFF0E2"/>
<rect x="5.5" y="5.5" width="289" height="289" rx="14.5" stroke="#FF7602" stroke-width="11"/>
<path d="M263.862 167.289C259.153 199.651 232.051 221.935 203.871 217.834C175.692 213.733 156.064 184.65 160.773 152.288C165.482 119.925 192.585 97.6419 220.764 101.743C248.944 105.843 268.572 134.927 263.862 167.289Z" fill="#BC8166" stroke="black" stroke-width="5.63107"/>
<circle cx="186.12" cy="141.826" r="8.44661" transform="rotate(8.27946 186.12 141.826)" fill="black"/>
<circle cx="225.906" cy="147.616" r="8.44661" transform="rotate(8.27946 225.906 147.616)" fill="black"/>
<path d="M175.84 180.789C178.215 185.103 185.648 194.205 196.374 196.094C207.101 197.984 218.497 192.881 222.854 190.093" stroke="black" stroke-width="6.56959" stroke-linecap="round"/>
<path d="M136.12 153.11C142.031 185.855 123.082 216.11 94.5692 221.257C66.0567 226.404 37.7242 204.685 31.8129 171.941C25.9015 139.196 44.8512 108.941 73.3637 103.794C101.876 98.6466 130.209 120.366 136.12 153.11Z" fill="#BC8166" stroke="black" stroke-width="5.72936"/>
<circle cx="73.2356" cy="152.429" r="8.59404" transform="rotate(-10.2333 73.2356 152.429)" fill="black"/>
<circle cx="115.861" cy="144.736" r="8.59404" transform="rotate(-10.2333 115.861 144.736)" fill="black"/>
<path d="M75.1406 191.032C78.8263 194.427 88.9375 200.808 99.8968 199.165C110.856 197.523 120.203 188.918 123.506 184.821" stroke="black" stroke-width="6.68425" stroke-linecap="round"/>
<path d="M129.039 52L122.477 31.2578H127.809L131.695 44.8516L135.27 31.2578H140.562L144.02 44.8516L147.984 31.2578H153.395L146.734 52H141.461L137.887 38.6602L134.371 52H129.039ZM168.316 45.3984L173.785 46.3164C173.082 48.3216 171.969 49.8516 170.445 50.9062C168.935 51.9479 167.04 52.4688 164.762 52.4688C161.155 52.4688 158.486 51.2904 156.754 48.9336C155.387 47.0456 154.703 44.6628 154.703 41.7852C154.703 38.3477 155.602 35.6589 157.398 33.7188C159.195 31.7656 161.467 30.7891 164.215 30.7891C167.301 30.7891 169.736 31.8112 171.52 33.8555C173.303 35.8867 174.156 39.0052 174.078 43.2109H160.328C160.367 44.8385 160.81 46.1081 161.656 47.0195C162.503 47.918 163.557 48.3672 164.82 48.3672C165.68 48.3672 166.402 48.1328 166.988 47.6641C167.574 47.1953 168.017 46.4401 168.316 45.3984ZM168.629 39.8516C168.59 38.263 168.18 37.0586 167.398 36.2383C166.617 35.4049 165.667 34.9883 164.547 34.9883C163.349 34.9883 162.359 35.4245 161.578 36.2969C160.797 37.1693 160.413 38.3542 160.426 39.8516H168.629Z" fill="black"/>
</svg>
