<svg width="300" height="300" viewBox="0 0 300 300" fill="none" xmlns="http://www.w3.org/2000/svg">
<rect width="300" height="300" fill="white"/>
<path d="M263.862 167.289C259.153 199.651 232.051 221.935 203.871 217.834C175.692 213.733 156.064 184.65 160.773 152.288C165.482 119.925 192.585 97.642 220.764 101.743C248.944 105.843 268.572 134.927 263.862 167.289Z" fill="#BC8166" stroke="black" stroke-width="5.63107"/>
<circle cx="186.12" cy="141.826" r="8.44661" transform="rotate(8.27946 186.12 141.826)" fill="black"/>
<circle cx="225.906" cy="147.616" r="8.44661" transform="rotate(8.27946 225.906 147.616)" fill="black"/>
<path d="M175.84 180.789C178.215 185.103 185.648 194.205 196.374 196.094C207.101 197.984 218.497 192.881 222.854 190.094" stroke="black" stroke-width="6.56959" stroke-linecap="round"/>
<path d="M136.12 153.11C142.031 185.855 123.081 216.11 94.569 221.257C66.0566 226.404 37.7241 204.685 31.8127 171.941C25.9014 139.196 44.8511 108.941 73.3635 103.794C101.876 98.6466 130.208 120.366 136.12 153.11Z" fill="#BC8166" stroke="black" stroke-width="5.72936"/>
<circle cx="73.2353" cy="152.429" r="8.59404" transform="rotate(-10.2333 73.2353 152.429)" fill="black"/>
<circle cx="115.861" cy="144.736" r="8.59404" transform="rotate(-10.2333 115.861 144.736)" fill="black"/>
<path d="M75.1406 191.032C78.8263 194.427 88.9375 200.808 99.8968 199.165C110.856 197.523 120.203 188.918 123.506 184.821" stroke="black" stroke-width="6.68425" stroke-linecap="round"/>
<path d="M129.879 52L123.531 31.2578H127.164L130.465 43.2305L131.695 47.6836C131.747 47.4622 132.105 46.0365 132.77 43.4062L136.07 31.2578H139.684L142.789 43.2891L143.824 47.2539L145.016 43.25L148.57 31.2578H151.988L145.504 52H141.852L138.551 39.5781L137.75 36.043L133.551 52H129.879ZM169.156 45.3203L172.789 45.7695C172.216 47.8919 171.155 49.5391 169.605 50.7109C168.056 51.8828 166.077 52.4688 163.668 52.4688C160.634 52.4688 158.225 51.5378 156.441 49.6758C154.671 47.8008 153.785 45.1771 153.785 41.8047C153.785 38.3151 154.684 35.6068 156.48 33.6797C158.277 31.7526 160.608 30.7891 163.473 30.7891C166.246 30.7891 168.512 31.7331 170.27 33.6211C172.027 35.5091 172.906 38.1654 172.906 41.5898C172.906 41.7982 172.9 42.1107 172.887 42.5273H157.418C157.548 44.806 158.193 46.5508 159.352 47.7617C160.51 48.9727 161.956 49.5781 163.688 49.5781C164.977 49.5781 166.077 49.2396 166.988 48.5625C167.9 47.8854 168.622 46.8047 169.156 45.3203ZM157.613 39.6367H169.195C169.039 37.8919 168.596 36.5833 167.867 35.7109C166.747 34.3568 165.296 33.6797 163.512 33.6797C161.897 33.6797 160.536 34.2201 159.43 35.3008C158.336 36.3815 157.73 37.8268 157.613 39.6367Z" fill="black"/>
</svg>
