<svg width="300" height="300" viewBox="0 0 300 300" fill="none" xmlns="http://www.w3.org/2000/svg">
<g clip-path="url(#clip0_82_1338)">
<rect width="300" height="300" fill="white"/>
<path d="M113.68 52L107.332 31.2578H110.965L114.266 43.2305L115.496 47.6836C115.548 47.4622 115.906 46.0365 116.57 43.4062L119.871 31.2578H123.484L126.59 43.2891L127.625 47.2539L128.816 43.25L132.371 31.2578H135.789L129.305 52H125.652L122.352 39.5781L121.551 36.043L117.352 52H113.68ZM138.758 52V23.3672H142.273V33.6406C143.914 31.7396 145.984 30.7891 148.484 30.7891C150.021 30.7891 151.355 31.0951 152.488 31.707C153.621 32.306 154.428 33.1393 154.91 34.207C155.405 35.2747 155.652 36.8242 155.652 38.8555V52H152.137V38.8555C152.137 37.0977 151.753 35.8216 150.984 35.0273C150.229 34.2201 149.155 33.8164 147.762 33.8164C146.72 33.8164 145.737 34.0898 144.812 34.6367C143.901 35.1706 143.25 35.8997 142.859 36.8242C142.469 37.7487 142.273 39.0247 142.273 40.6523V52H138.758ZM174.559 49.4414C173.257 50.5482 172 51.3294 170.789 51.7852C169.591 52.2409 168.302 52.4688 166.922 52.4688C164.643 52.4688 162.892 51.9154 161.668 50.8086C160.444 49.6888 159.832 48.263 159.832 46.5312C159.832 45.5156 160.06 44.5911 160.516 43.7578C160.984 42.9115 161.59 42.2344 162.332 41.7266C163.087 41.2188 163.934 40.8346 164.871 40.5742C165.561 40.3919 166.603 40.2161 167.996 40.0469C170.835 39.7083 172.924 39.3047 174.266 38.8359C174.279 38.3542 174.285 38.0482 174.285 37.918C174.285 36.4857 173.953 35.4766 173.289 34.8906C172.391 34.0964 171.056 33.6992 169.285 33.6992C167.632 33.6992 166.408 33.9922 165.613 34.5781C164.832 35.151 164.253 36.1732 163.875 37.6445L160.438 37.1758C160.75 35.7044 161.264 34.5195 161.98 33.6211C162.697 32.7096 163.732 32.013 165.086 31.5312C166.44 31.0365 168.009 30.7891 169.793 30.7891C171.564 30.7891 173.003 30.9974 174.109 31.4141C175.216 31.8307 176.03 32.3581 176.551 32.9961C177.072 33.6211 177.436 34.4154 177.645 35.3789C177.762 35.9779 177.82 37.0586 177.82 38.6211V43.3086C177.82 46.5768 177.892 48.6471 178.035 49.5195C178.191 50.3789 178.491 51.2057 178.934 52H175.262C174.897 51.2708 174.663 50.418 174.559 49.4414ZM174.266 41.5898C172.99 42.1107 171.076 42.5534 168.523 42.918C167.078 43.1263 166.056 43.3607 165.457 43.6211C164.858 43.8815 164.396 44.2656 164.07 44.7734C163.745 45.2682 163.582 45.8216 163.582 46.4336C163.582 47.3711 163.934 48.1523 164.637 48.7773C165.353 49.4023 166.395 49.7148 167.762 49.7148C169.116 49.7148 170.32 49.4219 171.375 48.8359C172.43 48.237 173.204 47.4232 173.699 46.3945C174.077 45.6003 174.266 44.4284 174.266 42.8789V41.5898ZM190.965 48.8555L191.473 51.9609C190.483 52.1693 189.598 52.2734 188.816 52.2734C187.54 52.2734 186.551 52.0716 185.848 51.668C185.145 51.2643 184.65 50.737 184.363 50.0859C184.077 49.4219 183.934 48.0352 183.934 45.9258V33.9922H181.355V31.2578H183.934V26.1211L187.43 24.0117V31.2578H190.965V33.9922H187.43V46.1211C187.43 47.1237 187.488 47.7682 187.605 48.0547C187.736 48.3411 187.938 48.569 188.211 48.7383C188.497 48.9076 188.901 48.9922 189.422 48.9922C189.812 48.9922 190.327 48.9466 190.965 48.8555Z" fill="black"/>
<path d="M182.704 166.139C172.745 189.659 147.861 201.135 127.381 192.463C106.901 183.792 97.8234 157.936 107.782 134.416C117.741 110.896 142.625 99.4205 163.105 108.092C183.585 116.764 192.662 142.619 182.704 166.139Z" fill="#BC8166" stroke="black" stroke-width="4.39789"/>
<circle cx="163.465" cy="144.337" r="6.59684" transform="rotate(12.4897 163.465 144.337)" fill="black"/>
<circle cx="133.911" cy="131.303" r="6.59684" transform="rotate(12.4897 133.911 131.303)" fill="black"/>
<path d="M118.388 161.118C118.388 161.118 122.116 171.136 131.452 175.366C140.788 179.597 149.145 176.041 149.145 176.041" stroke="black" stroke-width="5.13087" stroke-linecap="round"/>
<path d="M126.054 193.335C123.446 196.491 117.573 206.015 114.938 218.86M114.938 218.86C112.303 231.705 113.84 259.069 114.938 271.146M114.938 218.86L150.344 254.678L212.098 200.746M114.938 218.86L69.2396 254.678L54.8303 197.864" stroke="black" stroke-width="5.76374" stroke-linecap="round"/>
<path d="M206.385 187.314C206.385 185.465 213.782 176.218 216.557 177.143C218.406 176.771 218.406 178.067 217.481 179.917C216.557 181.766 214.707 183.615 216.557 185.465C218.406 187.314 219.331 186.39 223.029 183.615C226.728 180.841 229.502 178.375 231.352 178.992C233.201 179.608 233.201 179.917 233.201 180.841L233.201 180.841C233.201 183.615 223.029 189.164 223.029 190.088C223.029 191.013 223.954 191.938 231.352 188.239L231.352 188.239C235.806 186.012 238.749 184.54 239.674 187.314C240.728 190.477 237.39 190.768 235.05 191.938C231.352 193.787 229.502 193.787 226.728 195.636C223.954 197.486 226.728 198.411 231.352 197.486C235.975 196.561 239.212 194.712 239.674 195.636C240.599 197.486 240.001 197.884 237.825 199.335C235.05 201.185 231.352 203.034 223.029 203.034C214.707 203.034 213.782 199.335 209.159 195.636C204.536 191.938 206.385 189.164 206.385 187.314Z" fill="black" stroke="black" stroke-width="1.84939" stroke-linecap="round"/>
<path d="M50.5418 174.809C53.8927 175.928 57.3003 183.113 58.9471 187.592C58.9469 193.19 57.7429 197.786 57.2434 198.788C56.1265 201.027 56.7028 200.41 55.2418 203.216C53.8273 205.932 50.4766 205.455 48.243 206.509C45.3828 207.859 31.5548 207.744 29.321 207.744C27.0872 207.744 20.3858 203.266 19.2689 202.146C18.152 201.027 18.5438 198.788 21.8945 198.788C25.2452 198.788 27.479 202.289 32.0839 202.289C36.5517 202.289 40.0091 202.277 40.0091 201.157C40.0091 200.038 37.1393 199.907 33.7885 198.788C30.6098 197.725 25.9703 195.429 22.6197 194.309C19.269 193.19 19.5413 191.458 20.2477 190.041C20.954 188.625 22.6197 188.755 24.3646 189.63C28.8322 191.869 31.1158 192.524 35.5834 193.644C40.0396 194.761 40.4877 194.311 41.5983 193.198L41.6068 193.19C42.7237 192.07 34.657 189.238 31.3635 187.592C28.2036 186.012 25.7179 184.87 26.8348 182.631C27.9517 180.392 30.6916 180.931 33.7885 182.631C37.5389 184.689 42.7236 186.472 44.9573 187.592C47.1911 188.711 49.4249 187.456 50.5418 186.336C51.6587 185.217 47.0081 179.518 47.0079 177.279C47.0077 174.775 48.4227 174.101 50.5418 174.809Z" fill="black" stroke="black" stroke-width="0.823392" stroke-linecap="round"/>
<path d="M198.55 96.856C198.07 93.496 197.974 89.944 199.126 86.68C200.566 82.36 203.926 78.904 208.054 76.984C216.694 72.952 226.486 73.624 233.782 79.96C241.846 86.872 241.27 98.776 235.99 106.936C235.99 106.936 235.894 107.032 235.894 107.128C233.782 110.104 230.614 112.216 228.214 114.904C225.43 117.88 225.43 120.664 224.95 124.408C224.566 127.96 223.51 131.032 219.478 130.936C214.198 130.744 214.39 123.64 214.966 119.896C215.734 115.384 217.846 111.352 220.822 107.8C224.086 104.056 227.83 101.56 228.502 96.184C229.174 91.288 225.334 85.816 220.15 85.528C215.542 85.336 209.11 88.504 209.398 93.688C209.59 96.856 211.702 99.928 208.918 102.52C204.406 106.936 199.222 101.368 198.55 96.856ZM226.198 144.76C226.198 146.584 225.526 148.216 224.086 149.752C222.742 151.192 221.11 151.864 219.382 151.864C217.654 151.864 216.118 151.192 214.774 149.752C213.43 148.216 212.758 146.584 212.758 144.76C212.758 142.744 213.43 141.112 214.774 139.768C216.118 138.328 217.654 137.56 219.382 137.56C221.11 137.56 222.742 138.328 224.086 139.768C225.526 141.208 226.198 142.84 226.198 144.76Z" fill="#B92429"/>
</g>
<defs>
<clipPath id="clip0_82_1338">
<rect width="300" height="300" fill="white"/>
</clipPath>
</defs>
</svg>
