<svg width="300" height="300" viewBox="0 0 300 300" fill="none" xmlns="http://www.w3.org/2000/svg">
<g clip-path="url(#clip0_28_288)">
<path d="M110.152 52L103.59 31.2578H108.922L112.809 44.8516L116.383 31.2578H121.676L125.133 44.8516L129.098 31.2578H134.508L127.848 52H122.574L119 38.6602L115.484 52H110.152ZM142.887 23.3672V33.8945C144.658 31.8242 146.773 30.7891 149.234 30.7891C150.497 30.7891 151.637 31.0234 152.652 31.4922C153.668 31.9609 154.43 32.5599 154.938 33.2891C155.458 34.0182 155.81 34.8255 155.992 35.7109C156.188 36.5964 156.285 37.9701 156.285 39.832V52H150.797V41.043C150.797 38.8685 150.693 37.4883 150.484 36.9023C150.276 36.3164 149.905 35.8542 149.371 35.5156C148.85 35.1641 148.193 34.9883 147.398 34.9883C146.487 34.9883 145.673 35.2096 144.957 35.6523C144.241 36.0951 143.714 36.7656 143.375 37.6641C143.049 38.5495 142.887 39.8646 142.887 41.6094V52H137.398V23.3672H142.887ZM165.973 37.5859L160.992 36.6875C161.552 34.6823 162.516 33.1979 163.883 32.2344C165.25 31.2708 167.281 30.7891 169.977 30.7891C172.424 30.7891 174.247 31.082 175.445 31.668C176.643 32.2409 177.483 32.9766 177.965 33.875C178.46 34.7604 178.707 36.3945 178.707 38.7773L178.648 45.1836C178.648 47.0065 178.733 48.3542 178.902 49.2266C179.085 50.0859 179.417 51.0104 179.898 52H174.469C174.326 51.6354 174.15 51.0951 173.941 50.3789C173.85 50.0534 173.785 49.8385 173.746 49.7344C172.809 50.6458 171.806 51.3294 170.738 51.7852C169.671 52.2409 168.531 52.4688 167.32 52.4688C165.185 52.4688 163.499 51.8893 162.262 50.7305C161.038 49.5716 160.426 48.1068 160.426 46.3359C160.426 45.1641 160.706 44.1224 161.266 43.2109C161.826 42.2865 162.607 41.5833 163.609 41.1016C164.625 40.6068 166.083 40.1771 167.984 39.8125C170.549 39.3307 172.327 38.8815 173.316 38.4648V37.918C173.316 36.8633 173.056 36.1146 172.535 35.6719C172.014 35.2161 171.031 34.9883 169.586 34.9883C168.609 34.9883 167.848 35.1836 167.301 35.5742C166.754 35.9518 166.311 36.6224 165.973 37.5859ZM173.316 42.0391C172.613 42.2734 171.5 42.5534 169.977 42.8789C168.453 43.2044 167.457 43.5234 166.988 43.8359C166.272 44.3438 165.914 44.9883 165.914 45.7695C165.914 46.5378 166.201 47.2018 166.773 47.7617C167.346 48.3216 168.076 48.6016 168.961 48.6016C169.951 48.6016 170.895 48.276 171.793 47.625C172.457 47.1302 172.893 46.5247 173.102 45.8086C173.245 45.3398 173.316 44.4479 173.316 43.1328V42.0391ZM193.648 31.2578V35.6328H189.898V43.9922C189.898 45.6849 189.931 46.6745 189.996 46.9609C190.074 47.2344 190.237 47.4622 190.484 47.6445C190.745 47.8268 191.057 47.918 191.422 47.918C191.93 47.918 192.665 47.7422 193.629 47.3906L194.098 51.6484C192.822 52.1953 191.376 52.4688 189.762 52.4688C188.772 52.4688 187.88 52.306 187.086 51.9805C186.292 51.6419 185.706 51.2122 185.328 50.6914C184.964 50.1576 184.71 49.4414 184.566 48.543C184.449 47.9049 184.391 46.6159 184.391 44.6758V35.6328H181.871V31.2578H184.391V27.1367L189.898 23.9336V31.2578H193.648Z" fill="black"/>
<path d="M163.105 101.092C183.585 109.764 192.662 135.62 182.703 159.139C172.744 182.659 147.861 194.134 127.381 185.463C106.901 176.792 97.8237 150.936 107.782 127.417C117.741 103.897 142.625 92.4209 163.105 101.092Z" fill="#BC8166" stroke="black" stroke-width="4.39789"/>
<circle cx="163.463" cy="137.338" r="6.59684" transform="rotate(12.4897 163.463 137.338)" fill="black"/>
<circle cx="133.911" cy="124.303" r="6.59684" transform="rotate(12.4897 133.911 124.303)" fill="black"/>
<path d="M118.387 154.118C118.387 154.118 122.115 164.136 131.451 168.366C140.787 172.597 149.144 169.041 149.144 169.041" stroke="black" stroke-width="5.13087" stroke-linecap="round"/>
<path d="M126.054 186.335C123.446 189.491 117.573 199.015 114.938 211.86M114.938 211.86C112.303 224.705 113.84 252.069 114.938 264.146M114.938 211.86L150.344 247.678L212.098 193.746M114.938 211.86L69.2394 247.678L54.8301 190.864" stroke="black" stroke-width="5.76374" stroke-linecap="round"/>
<path d="M206.385 180.314C206.385 178.465 213.782 169.218 216.556 170.143C218.406 169.771 218.406 171.067 217.481 172.917C216.556 174.766 214.707 176.615 216.556 178.465C218.406 180.314 219.331 179.39 223.029 176.615C226.728 173.841 229.502 171.375 231.352 171.992C233.201 172.608 233.201 172.917 233.201 173.841L233.201 173.841C233.201 176.615 223.029 182.164 223.029 183.088C223.029 184.013 223.954 184.938 231.352 181.239L231.352 181.239C235.806 179.012 238.749 177.54 239.674 180.314C240.728 183.477 237.39 183.768 235.05 184.938C231.352 186.787 229.502 186.787 226.728 188.636C223.954 190.486 226.728 191.411 231.352 190.486C235.975 189.561 239.212 187.712 239.674 188.636C240.599 190.486 240.001 190.884 237.824 192.335C235.05 194.185 231.352 196.034 223.029 196.034C214.707 196.034 213.782 192.335 209.159 188.636C204.535 184.938 206.385 182.164 206.385 180.314Z" fill="black" stroke="black" stroke-width="1.84939" stroke-linecap="round"/>
<path d="M50.5412 167.809C53.8921 168.928 57.2997 176.113 58.9465 180.592C58.9463 186.19 57.7423 190.786 57.2428 191.788C56.1259 194.027 56.7022 193.41 55.2412 196.216C53.8267 198.932 50.476 198.455 48.2424 199.509C45.3822 200.859 31.5542 200.744 29.3204 200.744C27.0866 200.744 20.3852 196.266 19.2683 195.146C18.1514 194.027 18.5432 191.788 21.8939 191.788C25.2445 191.788 27.4784 195.289 32.0833 195.289C36.5511 195.289 40.0085 195.277 40.0085 194.157C40.0085 193.038 37.1387 192.907 33.7879 191.788C30.6092 190.725 25.9697 188.429 22.619 187.309C19.2684 186.19 19.5407 184.458 20.2471 183.041C20.9534 181.625 22.619 181.755 24.364 182.63C28.8316 184.869 31.1152 185.524 35.5827 186.644C40.039 187.761 40.4871 187.311 41.5977 186.198L41.6062 186.19C42.7231 185.07 34.6564 182.238 31.3629 180.592C28.203 179.012 25.7173 177.87 26.8342 175.631C27.9511 173.392 30.691 173.931 33.7879 175.631C37.5383 177.689 42.7229 179.472 44.9567 180.592C47.1905 181.711 49.4243 180.456 50.5412 179.336C51.6581 178.217 47.0075 172.518 47.0073 170.279C47.0071 167.775 48.422 167.101 50.5412 167.809Z" fill="black" stroke="black" stroke-width="0.823392" stroke-linecap="round"/>
<path d="M198.55 96.856C198.07 93.496 197.974 89.944 199.126 86.68C200.566 82.36 203.926 78.904 208.054 76.984C216.694 72.952 226.486 73.624 233.782 79.96C241.846 86.872 241.27 98.776 235.99 106.936C235.99 106.936 235.894 107.032 235.894 107.128C233.782 110.104 230.614 112.216 228.214 114.904C225.43 117.88 225.43 120.664 224.95 124.408C224.566 127.96 223.51 131.032 219.478 130.936C214.198 130.744 214.39 123.64 214.966 119.896C215.734 115.384 217.846 111.352 220.822 107.8C224.086 104.056 227.83 101.56 228.502 96.184C229.174 91.288 225.334 85.816 220.15 85.528C215.542 85.336 209.11 88.504 209.398 93.688C209.59 96.856 211.702 99.928 208.918 102.52C204.406 106.936 199.222 101.368 198.55 96.856ZM226.198 144.76C226.198 146.584 225.526 148.216 224.086 149.752C222.742 151.192 221.11 151.864 219.382 151.864C217.654 151.864 216.118 151.192 214.774 149.752C213.43 148.216 212.758 146.584 212.758 144.76C212.758 142.744 213.43 141.112 214.774 139.768C216.118 138.328 217.654 137.56 219.382 137.56C221.11 137.56 222.742 138.328 224.086 139.768C225.526 141.208 226.198 142.84 226.198 144.76Z" fill="#B92429"/>
</g>
<defs>
<clipPath id="clip0_28_288">
<rect width="300" height="300" rx="20" fill="white"/>
</clipPath>
</defs>
</svg>
