<svg width="300" height="300" viewBox="0 0 300 300" fill="none" xmlns="http://www.w3.org/2000/svg">
<path d="M97.8867 52L91.3242 31.2578H96.6562L100.543 44.8516L104.117 31.2578H109.41L112.867 44.8516L116.832 31.2578H122.242L115.582 52H110.309L106.734 38.6602L103.219 52H97.8867ZM130.621 23.3672V33.8945C132.392 31.8242 134.508 30.7891 136.969 30.7891C138.232 30.7891 139.371 31.0234 140.387 31.4922C141.402 31.9609 142.164 32.5599 142.672 33.2891C143.193 34.0182 143.544 34.8255 143.727 35.7109C143.922 36.5964 144.02 37.9701 144.02 39.832V52H138.531V41.043C138.531 38.8685 138.427 37.4883 138.219 36.9023C138.01 36.3164 137.639 35.8542 137.105 35.5156C136.585 35.1641 135.927 34.9883 135.133 34.9883C134.221 34.9883 133.408 35.2096 132.691 35.6523C131.975 36.0951 131.448 36.7656 131.109 37.6641C130.784 38.5495 130.621 39.8646 130.621 41.6094V52H125.133V23.3672H130.621ZM161.617 45.3984L167.086 46.3164C166.383 48.3216 165.27 49.8516 163.746 50.9062C162.236 51.9479 160.341 52.4688 158.062 52.4688C154.456 52.4688 151.786 51.2904 150.055 48.9336C148.688 47.0456 148.004 44.6628 148.004 41.7852C148.004 38.3477 148.902 35.6589 150.699 33.7188C152.496 31.7656 154.768 30.7891 157.516 30.7891C160.602 30.7891 163.036 31.8112 164.82 33.8555C166.604 35.8867 167.457 39.0052 167.379 43.2109H153.629C153.668 44.8385 154.111 46.1081 154.957 47.0195C155.803 47.918 156.858 48.3672 158.121 48.3672C158.98 48.3672 159.703 48.1328 160.289 47.6641C160.875 47.1953 161.318 46.4401 161.617 45.3984ZM161.93 39.8516C161.891 38.263 161.48 37.0586 160.699 36.2383C159.918 35.4049 158.967 34.9883 157.848 34.9883C156.65 34.9883 155.66 35.4245 154.879 36.2969C154.098 37.1693 153.714 38.3542 153.727 39.8516H161.93ZM177.125 52H171.637V31.2578H176.734V34.207C177.607 32.8138 178.388 31.8958 179.078 31.4531C179.781 31.0104 180.576 30.7891 181.461 30.7891C182.711 30.7891 183.915 31.1341 185.074 31.8242L183.375 36.6094C182.451 36.0104 181.591 35.7109 180.797 35.7109C180.029 35.7109 179.378 35.9258 178.844 36.3555C178.31 36.7721 177.887 37.5339 177.574 38.6406C177.275 39.7474 177.125 42.0651 177.125 45.5938V52ZM199.469 45.3984L204.938 46.3164C204.234 48.3216 203.121 49.8516 201.598 50.9062C200.087 51.9479 198.193 52.4688 195.914 52.4688C192.307 52.4688 189.638 51.2904 187.906 48.9336C186.539 47.0456 185.855 44.6628 185.855 41.7852C185.855 38.3477 186.754 35.6589 188.551 33.7188C190.348 31.7656 192.62 30.7891 195.367 30.7891C198.453 30.7891 200.888 31.8112 202.672 33.8555C204.456 35.8867 205.309 39.0052 205.23 43.2109H191.48C191.52 44.8385 191.962 46.1081 192.809 47.0195C193.655 47.918 194.71 48.3672 195.973 48.3672C196.832 48.3672 197.555 48.1328 198.141 47.6641C198.727 47.1953 199.169 46.4401 199.469 45.3984ZM199.781 39.8516C199.742 38.263 199.332 37.0586 198.551 36.2383C197.77 35.4049 196.819 34.9883 195.699 34.9883C194.501 34.9883 193.512 35.4245 192.73 36.2969C191.949 37.1693 191.565 38.3542 191.578 39.8516H199.781Z" fill="black"/>
<path d="M96.3338 84.1248C121.87 83.8551 143.206 106.89 143.515 136.088C143.823 165.287 122.978 188.768 97.4416 189.038C71.9055 189.307 50.5687 166.272 50.2604 137.073C49.9522 107.874 70.7977 84.3945 96.3338 84.1248Z" fill="#BC8166" stroke="black" stroke-width="4.17349"/>
<circle cx="120.32" cy="119.703" r="7.4949" transform="rotate(12.4897 120.32 119.703)" fill="black"/>
<path d="M99.1016 156.927C99.1016 156.927 103.43 166.162 113.094 169.88C122.759 173.599 130.996 170.095 130.996 170.095" stroke="black" stroke-width="4.86908" stroke-linecap="round"/>
<path d="M88.2419 188.751C88.0237 194.642 86.5263 204.597 82.504 216.746M48.8594 270.363C48.8594 270.363 68.6523 248.537 75.4307 234.302C78.3749 228.119 80.6948 222.211 82.504 216.746M82.504 216.746L167.956 208.205C170.961 194.761 177.161 165.312 177.92 155.063C178.869 142.251 179.344 107.139 173.65 101.92C167.956 96.7006 162.262 92.9047 153.721 93.3792" stroke="black" stroke-width="5.69386" stroke-linecap="round"/>
<path d="M138.063 88.1599C149.451 87.0211 156.568 89.1088 166.058 93.3792L169.617 97.4124L173.175 101.92C165.583 107.139 152.298 108.919 145.18 107.139C141.385 106.19 146.604 104.292 147.078 101.92C147.553 99.5476 147.42 98.1241 139.012 98.1241C127.624 98.1241 115.288 106.19 112.441 101.92C111.492 99.0731 126.675 89.2986 138.063 88.1599Z" fill="black" stroke="black" stroke-width="0.948976" stroke-linecap="round"/>
<path d="M204.519 118.646C204.039 115.286 203.943 111.734 205.095 108.47C206.535 104.15 209.895 100.694 214.023 98.7744C222.663 94.7424 232.455 95.4144 239.751 101.75C247.815 108.662 247.239 120.566 241.959 128.726C241.959 128.726 241.863 128.822 241.863 128.918C239.751 131.894 236.583 134.006 234.183 136.694C231.399 139.67 231.399 142.454 230.919 146.198C230.535 149.75 229.479 152.822 225.447 152.726C220.167 152.534 220.359 145.43 220.935 141.686C221.703 137.174 223.815 133.142 226.791 129.59C230.055 125.846 233.799 123.35 234.471 117.974C235.143 113.078 231.303 107.606 226.119 107.318C221.511 107.126 215.079 110.294 215.367 115.478C215.559 118.646 217.671 121.718 214.887 124.31C210.375 128.726 205.191 123.158 204.519 118.646ZM232.167 166.55C232.167 168.374 231.495 170.006 230.055 171.542C228.711 172.982 227.079 173.654 225.351 173.654C223.623 173.654 222.087 172.982 220.743 171.542C219.399 170.006 218.727 168.374 218.727 166.55C218.727 164.534 219.399 162.902 220.743 161.558C222.087 160.118 223.623 159.35 225.351 159.35C227.079 159.35 228.711 160.118 230.055 161.558C231.495 162.998 232.167 164.63 232.167 166.55Z" fill="#B92429"/>
</svg>
