<svg width="300" height="300" viewBox="0 0 300 300" fill="none" xmlns="http://www.w3.org/2000/svg">
<rect x="5.5" y="5.5" width="289" height="289" rx="14.5" fill="white"/>
<rect x="5.5" y="5.5" width="289" height="289" rx="14.5" stroke="black" stroke-width="11"/>
<path d="M116.219 52L109.656 31.2578H114.988L118.875 44.8516L122.449 31.2578H127.742L131.199 44.8516L135.164 31.2578H140.574L133.914 52H128.641L125.066 38.6602L121.551 52H116.219ZM148.953 23.3672V33.8945C150.724 31.8242 152.84 30.7891 155.301 30.7891C156.564 30.7891 157.703 31.0234 158.719 31.4922C159.734 31.9609 160.496 32.5599 161.004 33.2891C161.525 34.0182 161.876 34.8255 162.059 35.7109C162.254 36.5964 162.352 37.9701 162.352 39.832V52H156.863V41.043C156.863 38.8685 156.759 37.4883 156.551 36.9023C156.342 36.3164 155.971 35.8542 155.438 35.5156C154.917 35.1641 154.259 34.9883 153.465 34.9883C152.553 34.9883 151.74 35.2096 151.023 35.6523C150.307 36.0951 149.78 36.7656 149.441 37.6641C149.116 38.5495 148.953 39.8646 148.953 41.6094V52H143.465V23.3672H148.953ZM166.668 41.3359C166.668 39.513 167.117 37.7487 168.016 36.043C168.914 34.3372 170.184 33.0352 171.824 32.1367C173.478 31.2383 175.32 30.7891 177.352 30.7891C180.49 30.7891 183.061 31.8112 185.066 33.8555C187.072 35.8867 188.074 38.4583 188.074 41.5703C188.074 44.7083 187.059 47.3125 185.027 49.3828C183.009 51.4401 180.464 52.4688 177.391 52.4688C175.49 52.4688 173.673 52.0391 171.941 51.1797C170.223 50.3203 168.914 49.0638 168.016 47.4102C167.117 45.7435 166.668 43.7188 166.668 41.3359ZM172.293 41.6289C172.293 43.6862 172.781 45.2617 173.758 46.3555C174.734 47.4492 175.939 47.9961 177.371 47.9961C178.803 47.9961 180.001 47.4492 180.965 46.3555C181.941 45.2617 182.43 43.6732 182.43 41.5898C182.43 39.5586 181.941 37.9961 180.965 36.9023C180.001 35.8086 178.803 35.2617 177.371 35.2617C175.939 35.2617 174.734 35.8086 173.758 36.9023C172.781 37.9961 172.293 39.5716 172.293 41.6289Z" fill="black"/>
<path d="M193.899 127.11C194.198 155.424 174.029 177.784 149.802 178.04C125.576 178.295 104.939 156.366 104.64 128.052C104.341 99.7386 124.511 77.3786 148.737 77.1227C172.963 76.8669 193.6 98.7961 193.899 127.11Z" fill="#E8B389" stroke="black" stroke-width="8.17"/>
<path d="M128.55 114.856C128.07 111.496 127.974 107.944 129.126 104.68C130.566 100.36 133.926 96.904 138.054 94.984C146.694 90.952 156.486 91.624 163.782 97.96C171.846 104.872 171.27 116.776 165.99 124.936C165.99 124.936 165.894 125.032 165.894 125.128C163.782 128.104 160.614 130.216 158.214 132.904C155.43 135.88 155.43 138.664 154.95 142.408C154.566 145.96 153.51 149.032 149.478 148.936C144.198 148.744 144.39 141.64 144.966 137.896C145.734 133.384 147.846 129.352 150.822 125.8C154.086 122.056 157.83 119.56 158.502 114.184C159.174 109.288 155.334 103.816 150.15 103.528C145.542 103.336 139.11 106.504 139.398 111.688C139.59 114.856 141.702 117.928 138.918 120.52C134.406 124.936 129.222 119.368 128.55 114.856ZM156.198 162.76C156.198 164.584 155.526 166.216 154.086 167.752C152.742 169.192 151.11 169.864 149.382 169.864C147.654 169.864 146.118 169.192 144.774 167.752C143.43 166.216 142.758 164.584 142.758 162.76C142.758 160.744 143.43 159.112 144.774 157.768C146.118 156.328 147.654 155.56 149.382 155.56C151.11 155.56 152.742 156.328 154.086 157.768C155.526 159.208 156.198 160.84 156.198 162.76Z" fill="#B92429"/>
<path d="M149 183C146.333 191 142 210.578 142 225C142 254 149 278 149 278" stroke="black" stroke-width="10" stroke-linecap="round"/>
<path d="M62.0001 188.5C48.4999 194 44.3231 201 46.3231 203L53.3232 230L145.323 203L220.323 230L206.323 249" stroke="black" stroke-width="10" stroke-linecap="round"/>
<path d="M196.621 239C201.5 241 203.695 244.58 208 249.5C210.46 256.881 207.562 264.613 205.232 269.5C202.5 275.231 199.081 278.425 196.621 281.5C194.161 284.575 192.316 286.345 189.24 284.5C186.165 282.655 189.77 279.23 191 278C192.23 276.77 195.275 273.691 196.621 270.925C198.621 266.815 197.794 265.39 196.621 265.39C193.5 265.39 188.01 272.771 184.32 275.231C180.629 277.691 177 282.5 174.479 279.536C170.816 275.231 176.518 272.406 178.169 270.925C189.24 261 191.73 261.385 189.24 258.009C188.187 256.581 182.5 261.797 178.169 264.16C175.914 265.39 171.157 267.112 170.173 264.16C169.189 261.207 172.634 258.829 174.479 258.009C180 254 186.78 249.582 186.78 247.553C186.78 243 176.458 251.606 174.479 247.553C172.5 243.5 179.925 241.23 183 240C186.075 238.77 192.033 237.119 196.621 239Z" fill="black" stroke="black" stroke-width="1.23012" stroke-linecap="round"/>
<path d="M67.625 172.95C75.625 169.45 86.0001 166.5 87.625 169.45C87.625 171.5 87.625 172.292 81.0001 174.5C76.7047 175.932 73.125 177.5 70.625 179.45C68.5017 181.106 69.625 183.325 70.625 183.45C74.625 183.95 76.125 187.45 77.125 192.45C78.125 197.45 76.125 200.45 73.125 200.45C70.125 200.45 70.125 188.95 69.625 192.95C69.125 196.95 71.125 202.95 66.125 204.45C63.708 205.175 62.5762 203.563 62.0519 201.705C61.946 203.803 61.2828 206.155 59.125 207.45C56.625 208.95 54.1249 205.45 54.1249 202.95C54.1249 198.95 54.125 197.95 49.625 200.45C45.125 202.95 45.8334 217.45 42.5 207.45C39.1666 197.45 42.9999 193 44.4999 190.5C45.9999 188 53.3509 179.195 67.625 172.95Z" fill="black"/>
<path d="M87.625 169.45C86.0001 166.5 75.625 169.45 67.625 172.95C53.3509 179.195 45.9999 188 44.4999 190.5C42.9999 193 39.1666 197.45 42.5 207.45C45.8334 217.45 45.125 202.95 49.625 200.45C54.125 197.95 54.1249 198.95 54.1249 202.95C54.1249 205.45 56.625 208.95 59.125 207.45C63.625 204.75 61.625 197.45 61.625 197.45C61.625 197.45 61.125 205.95 66.125 204.45C71.125 202.95 69.125 196.95 69.625 192.95C70.125 188.95 70.125 200.45 73.125 200.45C76.125 200.45 78.125 197.45 77.125 192.45C76.125 187.45 74.625 183.95 70.625 183.45C69.625 183.325 68.5017 181.106 70.625 179.45C73.125 177.5 76.7047 175.932 81.0001 174.5C87.625 172.292 87.625 171.5 87.625 169.45Z" stroke="black" stroke-linecap="round"/>
</svg>
