<svg width="312" height="312" viewBox="0 0 312 312" fill="none" xmlns="http://www.w3.org/2000/svg">
<rect x="6" y="6" width="300" height="300" rx="20" fill="#FFE3FF"/>
<rect x="6" y="6" width="300" height="300" rx="20" stroke="#FE05FC" stroke-width="11"/>
<path d="M149.183 150.056C151.583 153.416 147.071 165.32 145.247 170.408C143.135 176.264 141.695 181.064 139.391 187.112C137.951 190.664 136.703 194.6 132.863 194.6C128.447 194.696 126.815 187.496 125.663 183.56C124.031 177.992 122.783 173.288 121.727 169.544C120.575 173.288 119.519 177.512 117.791 182.984C116.735 186.824 115.007 194.984 110.591 194.6C104.543 194.312 101.759 183.848 100.223 178.568C98.111 171.656 94.175 161.096 93.311 153.608C92.735 148.616 98.975 145.064 102.911 150.152C105.023 152.744 105.983 158.12 107.327 162.44C108.671 167.24 109.535 169.544 110.591 172.424C111.455 169.544 112.319 167.24 113.759 162.44C114.815 159.272 116.447 154.28 119.039 152.648C124.799 148.904 127.967 157.64 129.503 162.44C131.135 167.528 131.903 169.64 132.863 172.712C133.919 169.64 134.591 167.528 136.223 162.44C137.375 159.08 138.431 153.32 140.159 150.44C141.983 147.56 146.591 146.312 149.183 150.056ZM169.717 156.872C169.717 163.976 170.005 175.592 169.717 183.464C169.525 187.304 169.141 193.16 163.669 192.872C159.733 192.68 158.101 189.32 157.909 183.56C157.813 177.608 157.621 167.72 157.717 161.672C157.813 158.12 157.045 150.728 159.445 147.464C161.173 145.352 166.933 145.256 168.565 147.656C169.525 149.192 169.717 153.704 169.717 156.872ZM166.069 137.48C162.133 138.536 159.253 136.328 158.677 132.68C157.621 127.208 162.997 124.136 167.509 127.4C171.925 130.568 171.157 135.848 166.069 137.48ZM191.858 185.576C191.762 186.248 191.666 186.824 191.666 187.4L191.09 189.416C190.994 189.608 190.898 189.8 190.802 189.896L190.514 190.472C190.13 191.24 189.458 191.816 188.786 192.2C187.25 192.968 185.618 193.16 183.89 192.776C182.834 192.68 181.874 192.296 181.298 191.816C180.722 191.432 180.242 190.952 179.954 190.184C179.666 189.512 179.474 188.84 179.378 188.264C179.186 187.592 179.09 187.016 179.09 186.536V132.776C179.09 131.912 179.186 131.24 179.282 130.568C179.378 129.704 179.57 129.128 179.858 128.36C180.05 127.784 180.434 127.208 180.914 126.824C181.586 126.344 182.354 125.96 183.122 125.864C183.986 125.576 184.754 125.576 185.714 125.576C186.674 125.576 187.73 125.864 188.786 126.344C189.65 126.824 190.322 127.592 190.706 128.456C191.282 129.608 191.666 130.856 191.666 132.008C191.762 133.256 191.858 136.52 191.858 137.768V138.152C192.05 142.28 192.05 145.832 191.954 150.248C191.954 154.568 191.858 158.6 191.858 162.536V182.696C191.858 183.176 191.954 183.656 191.954 184.136C191.954 184.712 191.954 185.096 191.858 185.576ZM216.608 185.576C216.512 186.248 216.416 186.824 216.416 187.4L215.84 189.416C215.744 189.608 215.648 189.8 215.552 189.896L215.264 190.472C214.88 191.24 214.208 191.816 213.536 192.2C212 192.968 210.368 193.16 208.64 192.776C207.584 192.68 206.624 192.296 206.048 191.816C205.472 191.432 204.992 190.952 204.704 190.184C204.416 189.512 204.224 188.84 204.128 188.264C203.936 187.592 203.84 187.016 203.84 186.536V132.776C203.84 131.912 203.936 131.24 204.032 130.568C204.128 129.704 204.32 129.128 204.608 128.36C204.8 127.784 205.184 127.208 205.664 126.824C206.336 126.344 207.104 125.96 207.872 125.864C208.736 125.576 209.504 125.576 210.464 125.576C211.424 125.576 212.48 125.864 213.536 126.344C214.4 126.824 215.072 127.592 215.456 128.456C216.032 129.608 216.416 130.856 216.416 132.008C216.512 133.256 216.608 136.52 216.608 137.768V138.152C216.8 142.28 216.8 145.832 216.704 150.248C216.704 154.568 216.608 158.6 216.608 162.536V182.696C216.608 183.176 216.704 183.656 216.704 184.136C216.704 184.712 216.704 185.096 216.608 185.576Z" fill="black"/>
</svg>
