<svg width="300" height="300" viewBox="0 0 300 300" fill="none" xmlns="http://www.w3.org/2000/svg">
<path d="M143.183 144.056C145.583 147.416 141.071 159.32 139.247 164.408C137.135 170.264 135.695 175.064 133.391 181.112C131.951 184.664 130.703 188.6 126.863 188.6C122.447 188.696 120.815 181.496 119.663 177.56C118.031 171.992 116.783 167.288 115.727 163.544C114.575 167.288 113.519 171.512 111.791 176.984C110.735 180.824 109.007 188.984 104.591 188.6C98.543 188.312 95.759 177.848 94.223 172.568C92.111 165.656 88.175 155.096 87.311 147.608C86.735 142.616 92.975 139.064 96.911 144.152C99.023 146.744 99.983 152.12 101.327 156.44C102.671 161.24 103.535 163.544 104.591 166.424C105.455 163.544 106.319 161.24 107.759 156.44C108.815 153.272 110.447 148.28 113.039 146.648C118.799 142.904 121.967 151.64 123.503 156.44C125.135 161.528 125.903 163.64 126.863 166.712C127.919 163.64 128.591 161.528 130.223 156.44C131.375 153.08 132.431 147.32 134.159 144.44C135.983 141.56 140.591 140.312 143.183 144.056ZM163.717 150.872C163.717 157.976 164.005 169.592 163.717 177.464C163.525 181.304 163.141 187.16 157.669 186.872C153.733 186.68 152.101 183.32 151.909 177.56C151.813 171.608 151.621 161.72 151.717 155.672C151.813 152.12 151.045 144.728 153.445 141.464C155.173 139.352 160.933 139.256 162.565 141.656C163.525 143.192 163.717 147.704 163.717 150.872ZM160.069 131.48C156.133 132.536 153.253 130.328 152.677 126.68C151.621 121.208 156.997 118.136 161.509 121.4C165.925 124.568 165.157 129.848 160.069 131.48ZM185.858 179.576C185.762 180.248 185.666 180.824 185.666 181.4L185.09 183.416C184.994 183.608 184.898 183.8 184.802 183.896L184.514 184.472C184.13 185.24 183.458 185.816 182.786 186.2C181.25 186.968 179.618 187.16 177.89 186.776C176.834 186.68 175.874 186.296 175.298 185.816C174.722 185.432 174.242 184.952 173.954 184.184C173.666 183.512 173.474 182.84 173.378 182.264C173.186 181.592 173.09 181.016 173.09 180.536V126.776C173.09 125.912 173.186 125.24 173.282 124.568C173.378 123.704 173.57 123.128 173.858 122.36C174.05 121.784 174.434 121.208 174.914 120.824C175.586 120.344 176.354 119.96 177.122 119.864C177.986 119.576 178.754 119.576 179.714 119.576C180.674 119.576 181.73 119.864 182.786 120.344C183.65 120.824 184.322 121.592 184.706 122.456C185.282 123.608 185.666 124.856 185.666 126.008C185.762 127.256 185.858 130.52 185.858 131.768V132.152C186.05 136.28 186.05 139.832 185.954 144.248C185.954 148.568 185.858 152.6 185.858 156.536V176.696C185.858 177.176 185.954 177.656 185.954 178.136C185.954 178.712 185.954 179.096 185.858 179.576ZM210.608 179.576C210.512 180.248 210.416 180.824 210.416 181.4L209.84 183.416C209.744 183.608 209.648 183.8 209.552 183.896L209.264 184.472C208.88 185.24 208.208 185.816 207.536 186.2C206 186.968 204.368 187.16 202.64 186.776C201.584 186.68 200.624 186.296 200.048 185.816C199.472 185.432 198.992 184.952 198.704 184.184C198.416 183.512 198.224 182.84 198.128 182.264C197.936 181.592 197.84 181.016 197.84 180.536V126.776C197.84 125.912 197.936 125.24 198.032 124.568C198.128 123.704 198.32 123.128 198.608 122.36C198.8 121.784 199.184 121.208 199.664 120.824C200.336 120.344 201.104 119.96 201.872 119.864C202.736 119.576 203.504 119.576 204.464 119.576C205.424 119.576 206.48 119.864 207.536 120.344C208.4 120.824 209.072 121.592 209.456 122.456C210.032 123.608 210.416 124.856 210.416 126.008C210.512 127.256 210.608 130.52 210.608 131.768V132.152C210.8 136.28 210.8 139.832 210.704 144.248C210.704 148.568 210.608 152.6 210.608 156.536V176.696C210.608 177.176 210.704 177.656 210.704 178.136C210.704 178.712 210.704 179.096 210.608 179.576Z" fill="black"/>
</svg>
