<svg width="312" height="312" viewBox="0 0 312 312" fill="none" xmlns="http://www.w3.org/2000/svg">
<rect x="6" y="6" width="300" height="300" rx="20" fill="#E2FFE2"/>
<rect x="6" y="6" width="300" height="300" rx="20" stroke="#1ADF1D" stroke-width="11"/>
<path d="M122.219 58L115.656 37.2578H120.988L124.875 50.8516L128.449 37.2578H133.742L137.199 50.8516L141.164 37.2578H146.574L139.914 58H134.641L131.066 44.6602L127.551 58H122.219ZM149.484 34.4453V29.3672H154.973V34.4453H149.484ZM149.484 58V37.2578H154.973V58H149.484ZM170.129 37.2578V41.6328H166.379V49.9922C166.379 51.6849 166.411 52.6745 166.477 52.9609C166.555 53.2344 166.717 53.4622 166.965 53.6445C167.225 53.8268 167.538 53.918 167.902 53.918C168.41 53.918 169.146 53.7422 170.109 53.3906L170.578 57.6484C169.302 58.1953 167.857 58.4688 166.242 58.4688C165.253 58.4688 164.361 58.306 163.566 57.9805C162.772 57.6419 162.186 57.2122 161.809 56.6914C161.444 56.1576 161.19 55.4414 161.047 54.543C160.93 53.9049 160.871 52.6159 160.871 50.6758V41.6328H158.352V37.2578H160.871V33.1367L166.379 29.9336V37.2578H170.129ZM179.406 29.3672V39.8945C181.177 37.8242 183.293 36.7891 185.754 36.7891C187.017 36.7891 188.156 37.0234 189.172 37.4922C190.188 37.9609 190.949 38.5599 191.457 39.2891C191.978 40.0182 192.329 40.8255 192.512 41.7109C192.707 42.5964 192.805 43.9701 192.805 45.832V58H187.316V47.043C187.316 44.8685 187.212 43.4883 187.004 42.9023C186.796 42.3164 186.424 41.8542 185.891 41.5156C185.37 41.1641 184.712 40.9883 183.918 40.9883C183.007 40.9883 182.193 41.2096 181.477 41.6523C180.76 42.0951 180.233 42.7656 179.895 43.6641C179.569 44.5495 179.406 45.8646 179.406 47.6094V58H173.918V29.3672H179.406Z" fill="black"/>
<rect x="99.2681" y="170.06" width="57.9795" height="10.1095" rx="5.05475" fill="black"/>
<path d="M177 175L147.935 191.781L147.935 158.219L177 175Z" fill="black"/>
<rect x="54.5215" y="150.077" width="36.2718" height="36.7066" transform="rotate(14.909 54.5215 150.077)" fill="#B92429" stroke="black" stroke-width="5.03"/>
<rect x="160.223" y="95.3034" width="36.2718" height="36.7066" transform="rotate(-6.51917 160.223 95.3034)" fill="#B92429" stroke="black" stroke-width="5.03"/>
<rect x="218.522" y="99.0774" width="36.2718" height="36.7066" transform="rotate(14.909 218.522 99.0774)" fill="#B92429" stroke="black" stroke-width="5.03"/>
<rect x="245.124" y="130.678" width="36.2718" height="36.7066" transform="rotate(44.2122 245.124 130.678)" fill="#B92429" stroke="black" stroke-width="5.03"/>
<rect x="203.657" y="182.766" width="36.2718" height="36.7066" transform="rotate(-3.33265 203.657 182.766)" fill="#B92429" stroke="black" stroke-width="5.03"/>
<rect x="218.521" y="217.077" width="36.2718" height="36.7066" transform="rotate(14.909 218.521 217.077)" fill="#B92429" stroke="black" stroke-width="5.03"/>
<rect x="167.006" y="243.508" width="36.2718" height="36.7066" transform="rotate(-23.5531 167.006 243.508)" fill="#B92429" stroke="black" stroke-width="5.03"/>
<rect x="154.557" y="215.238" width="36.2718" height="36.7066" transform="rotate(-45.0753 154.557 215.238)" fill="#B92429" stroke="black" stroke-width="5.03"/>
</svg>
