<svg width="300" height="300" viewBox="0 0 300 300" fill="none" xmlns="http://www.w3.org/2000/svg">
<path d="M116.219 52L109.656 31.2578H114.988L118.875 44.8516L122.449 31.2578H127.742L131.199 44.8516L135.164 31.2578H140.574L133.914 52H128.641L125.066 38.6602L121.551 52H116.219ZM143.484 28.4453V23.3672H148.973V28.4453H143.484ZM143.484 52V31.2578H148.973V52H143.484ZM164.129 31.2578V35.6328H160.379V43.9922C160.379 45.6849 160.411 46.6745 160.477 46.9609C160.555 47.2344 160.717 47.4622 160.965 47.6445C161.225 47.8268 161.538 47.918 161.902 47.918C162.41 47.918 163.146 47.7422 164.109 47.3906L164.578 51.6484C163.302 52.1953 161.857 52.4688 160.242 52.4688C159.253 52.4688 158.361 52.306 157.566 51.9805C156.772 51.6419 156.186 51.2122 155.809 50.6914C155.444 50.1576 155.19 49.4414 155.047 48.543C154.93 47.9049 154.871 46.6159 154.871 44.6758V35.6328H152.352V31.2578H154.871V27.1367L160.379 23.9336V31.2578H164.129ZM173.406 23.3672V33.8945C175.177 31.8242 177.293 30.7891 179.754 30.7891C181.017 30.7891 182.156 31.0234 183.172 31.4922C184.188 31.9609 184.949 32.5599 185.457 33.2891C185.978 34.0182 186.329 34.8255 186.512 35.7109C186.707 36.5964 186.805 37.9701 186.805 39.832V52H181.316V41.043C181.316 38.8685 181.212 37.4883 181.004 36.9023C180.796 36.3164 180.424 35.8542 179.891 35.5156C179.37 35.1641 178.712 34.9883 177.918 34.9883C177.007 34.9883 176.193 35.2096 175.477 35.6523C174.76 36.0951 174.233 36.7656 173.895 37.6641C173.569 38.5495 173.406 39.8646 173.406 41.6094V52H167.918V23.3672H173.406Z" fill="black"/>
<rect x="93.2676" y="164.06" width="57.9795" height="10.1095" rx="5.05475" fill="black"/>
<path d="M171 169L141.935 185.781L141.935 152.219L171 169Z" fill="black"/>
<rect x="48.5215" y="144.077" width="36.2718" height="36.7066" transform="rotate(14.909 48.5215 144.077)" fill="#B92429" stroke="black" stroke-width="5.03"/>
<rect x="154.222" y="89.3034" width="36.2718" height="36.7066" transform="rotate(-6.51917 154.222 89.3034)" fill="#B92429" stroke="black" stroke-width="5.03"/>
<rect x="212.522" y="93.0774" width="36.2718" height="36.7066" transform="rotate(14.909 212.522 93.0774)" fill="#B92429" stroke="black" stroke-width="5.03"/>
<rect x="239.123" y="124.678" width="36.2718" height="36.7066" transform="rotate(44.2122 239.123 124.678)" fill="#B92429" stroke="black" stroke-width="5.03"/>
<rect x="197.657" y="176.766" width="36.2718" height="36.7066" transform="rotate(-3.33265 197.657 176.766)" fill="#B92429" stroke="black" stroke-width="5.03"/>
<rect x="212.522" y="211.077" width="36.2718" height="36.7066" transform="rotate(14.909 212.522 211.077)" fill="#B92429" stroke="black" stroke-width="5.03"/>
<rect x="161.006" y="237.508" width="36.2718" height="36.7066" transform="rotate(-23.5531 161.006 237.508)" fill="#B92429" stroke="black" stroke-width="5.03"/>
<rect x="148.557" y="209.238" width="36.2718" height="36.7066" transform="rotate(-45.0753 148.557 209.238)" fill="#B92429" stroke="black" stroke-width="5.03"/>
</svg>
