<svg width="300" height="300" viewBox="0 0 300 300" fill="none" xmlns="http://www.w3.org/2000/svg">
<path d="M71.9883 86.083C93.0534 86.083 110.519 105.282 110.52 129.474C110.52 153.666 93.0535 172.865 71.9883 172.865C50.923 172.865 33.457 153.666 33.457 129.474C33.4573 105.282 50.9232 86.083 71.9883 86.083Z" fill="#BC8166" stroke="black" stroke-width="4.16557"/>
<path d="M34.8463 258.045C33.5385 255.533 40.4555 247.296 47.6059 245.108C52.4861 245.637 55.6975 250.183 57.0617 253.541C58.4259 256.898 59.8138 269.147 55.9682 270.458C52.8917 271.507 55.7329 263.519 51.3815 258.11C51.6168 265.048 49.8529 278.584 46.7717 277.855C43.6905 277.126 45.7132 267.124 46.3951 258.557C43.5375 264.419 38.257 272.587 35.6932 270.729C33.1294 268.871 40.3325 262.097 42.914 254.229C40.5892 256.692 36.1541 260.557 34.8463 258.045Z" fill="black" stroke="black" stroke-width="0.694261"/>
<path d="M138.501 168.999C136.017 170.866 133 174.5 129.501 179L134 181.052L137 178C136.983 180.46 137.484 180.841 139.367 180.764C141.251 180.687 141.414 176.8 142.522 174.138C143.216 177.11 140.7 181.724 145.007 181.367C149.415 181.001 148.524 176.485 149.302 172.596C150.795 176.144 147.397 181.33 152.117 181.052C157.191 180.754 155.635 176.171 156.316 170.729C163.128 169.705 175.962 168.568 176.124 165.719C176.318 162.302 164.61 164.839 158.768 165.08C156.213 165.185 142.659 165.874 138.501 168.999Z" fill="black" stroke="black" stroke-width="0.694261"/>
<circle cx="65.6146" cy="120.866" r="6.24835" fill="black"/>
<circle cx="97.1068" cy="120.866" r="6.24835" fill="black"/>
<path d="M61.9902 148.732C64.1887 151.638 70.5991 157.509 78.6525 157.749C86.7059 157.99 94.5048 153.041 97.3975 150.536" stroke="black" stroke-width="4.85983" stroke-linecap="round"/>
<path d="M72.9254 175.414C73.927 180.485 75.3587 188.152 76.6665 195.971M70.7385 270.326C73.8002 258.079 79.9236 231.312 79.9236 222.214C79.9236 217.023 78.4044 206.363 76.6665 195.971M76.6665 195.971L97.4189 213.904L132.41 179.351M76.6665 195.971L42.3086 217.403L48.8693 245.395" stroke="black" stroke-width="5.2486" stroke-linecap="round"/>
<path d="M231.918 102.704C252.983 102.704 270.449 121.903 270.449 146.095C270.449 170.287 252.983 189.486 231.918 189.486C210.853 189.486 193.387 170.287 193.387 146.095C193.387 121.903 210.853 102.704 231.918 102.704Z" fill="#BC8166" stroke="black" stroke-width="4.16557"/>
<path d="M231.918 189.139C229.026 197.238 223.517 219.756 224.628 232.53C225.739 245.304 227.405 266.549 228.099 275.574" stroke="black" stroke-width="4.85983"/>
<path d="M245.076 269.577C242.44 268.542 242.245 257.788 246.2 251.441C250.227 248.635 255.635 249.954 258.869 251.589C262.103 253.225 271.194 261.549 269.156 265.064C267.525 267.876 264.421 259.986 257.586 258.765C262.321 263.843 269.882 275.208 267.08 276.682C264.278 278.156 259.233 269.286 254.12 262.378C255.816 268.675 257.199 278.302 254.045 278.585C250.892 278.868 251.874 269.029 248.653 261.401C248.518 264.785 247.712 270.613 245.076 269.577Z" fill="black" stroke="black" stroke-width="0.694261"/>
<path d="M180.499 210.5C183.665 212.696 185 216.066 187.5 220.5L183 222.09L180.499 218.5C180.499 221 181.5 221.5 177 221.5C175.226 221.5 175.639 218.587 174.786 216.066C173.921 218.799 176.5 222.09 172 222.09C167.843 222.09 168.967 217.995 168.513 214.347C166.854 217.582 169.948 222.09 165.5 222.09C162.043 222.09 162.295 217.404 162.043 212.316C155.703 211.078 143.701 209.482 143.753 206.826C143.814 203.641 153.155 205.991 158.639 206.46C161.037 206.665 176.541 207.755 180.499 210.5Z" fill="black" stroke="black" stroke-width="0.694261"/>
<path d="M226.448 209.529L209.39 252.83L184.896 220.901" stroke="black" stroke-width="5.2486" stroke-linecap="round"/>
<circle cx="210.826" cy="135.737" r="6.24835" fill="black"/>
<circle cx="240.569" cy="135.737" r="6.24835" fill="black"/>
<path d="M205.453 165.354C207.652 168.259 214.062 174.13 222.115 174.37C230.169 174.611 237.968 169.662 240.86 167.157" stroke="black" stroke-width="4.85983" stroke-linecap="round"/>
<path d="M227.321 211.717L254.439 227.9L249.19 253.268" stroke="black" stroke-width="5.2486" stroke-linecap="round"/>
<path d="M117.273 31.2578H123.113L128.074 45.9844L132.918 31.2578H138.602L131.277 51.2188L129.969 54.832C129.487 56.043 129.025 56.9674 128.582 57.6055C128.152 58.2435 127.651 58.7578 127.078 59.1484C126.518 59.5521 125.822 59.8646 124.988 60.0859C124.168 60.3073 123.237 60.418 122.195 60.418C121.141 60.418 120.105 60.3073 119.09 60.0859L118.602 55.7891C119.461 55.9583 120.236 56.043 120.926 56.043C122.202 56.043 123.146 55.6654 123.758 54.9102C124.37 54.168 124.839 53.2174 125.164 52.0586L117.273 31.2578ZM140.867 41.3359C140.867 39.513 141.316 37.7487 142.215 36.043C143.113 34.3372 144.383 33.0352 146.023 32.1367C147.677 31.2383 149.52 30.7891 151.551 30.7891C154.689 30.7891 157.26 31.8112 159.266 33.8555C161.271 35.8867 162.273 38.4583 162.273 41.5703C162.273 44.7083 161.258 47.3125 159.227 49.3828C157.208 51.4401 154.663 52.4688 151.59 52.4688C149.689 52.4688 147.872 52.0391 146.141 51.1797C144.422 50.3203 143.113 49.0638 142.215 47.4102C141.316 45.7435 140.867 43.7188 140.867 41.3359ZM146.492 41.6289C146.492 43.6862 146.98 45.2617 147.957 46.3555C148.934 47.4492 150.138 47.9961 151.57 47.9961C153.003 47.9961 154.201 47.4492 155.164 46.3555C156.141 45.2617 156.629 43.6732 156.629 41.5898C156.629 39.5586 156.141 37.9961 155.164 36.9023C154.201 35.8086 153.003 35.2617 151.57 35.2617C150.138 35.2617 148.934 35.8086 147.957 36.9023C146.98 37.9961 146.492 39.5716 146.492 41.6289ZM180.242 52V48.8945C179.487 50.0013 178.491 50.8737 177.254 51.5117C176.03 52.1497 174.734 52.4688 173.367 52.4688C171.974 52.4688 170.724 52.1628 169.617 51.5508C168.51 50.9388 167.71 50.0794 167.215 48.9727C166.72 47.8659 166.473 46.3359 166.473 44.3828V31.2578H171.961V40.7891C171.961 43.7057 172.059 45.4961 172.254 46.1602C172.462 46.8112 172.833 47.332 173.367 47.7227C173.901 48.1003 174.578 48.2891 175.398 48.2891C176.336 48.2891 177.176 48.0352 177.918 47.5273C178.66 47.0065 179.168 46.3685 179.441 45.6133C179.715 44.8451 179.852 42.9766 179.852 40.0078V31.2578H185.34V52H180.242Z" fill="black"/>
</svg>
