<svg width="300" height="300" viewBox="0 0 300 300" fill="none" xmlns="http://www.w3.org/2000/svg">
<rect width="300" height="300" fill="white"/>
<path d="M110.52 129.474C110.52 153.666 93.0535 172.865 71.9883 172.865C50.923 172.865 33.4568 153.666 33.4568 129.474C33.4568 105.282 50.923 86.0828 71.9883 86.0828C93.0535 86.0828 110.52 105.282 110.52 129.474Z" fill="#BC8166" stroke="black" stroke-width="4.16557"/>
<path d="M34.8463 258.045C33.5385 255.533 40.4555 247.296 47.6059 245.108C52.4861 245.637 55.6975 250.183 57.0617 253.541C58.4259 256.898 59.8138 269.147 55.9682 270.458C52.8917 271.507 55.7329 263.519 51.3815 258.11C51.6168 265.048 49.8529 278.584 46.7717 277.855C43.6905 277.126 45.7132 267.124 46.3951 258.557C43.5375 264.419 38.257 272.587 35.6932 270.729C33.1294 268.871 40.3325 262.097 42.914 254.229C40.5892 256.692 36.1541 260.557 34.8463 258.045Z" fill="black" stroke="black" stroke-width="0.694261"/>
<path d="M138.501 168.999C136.017 170.866 133 174.5 129.501 179L134 181.052L137 178C136.983 180.46 137.484 180.841 139.367 180.764C141.251 180.687 141.414 176.8 142.522 174.138C143.216 177.11 140.7 181.724 145.007 181.367C149.415 181.001 148.524 176.485 149.302 172.596C150.795 176.144 147.397 181.33 152.117 181.052C157.191 180.754 155.635 176.171 156.316 170.729C163.128 169.705 175.962 168.568 176.124 165.719C176.318 162.302 164.61 164.839 158.768 165.08C156.213 165.185 142.659 165.874 138.501 168.999Z" fill="black" stroke="black" stroke-width="0.694261"/>
<circle cx="65.6146" cy="120.866" r="6.24835" fill="black"/>
<circle cx="97.1068" cy="120.866" r="6.24835" fill="black"/>
<path d="M61.9902 148.732C64.1887 151.638 70.5991 157.509 78.6525 157.749C86.7059 157.99 94.5048 153.041 97.3975 150.536" stroke="black" stroke-width="4.85983" stroke-linecap="round"/>
<path d="M72.9254 175.414C73.927 180.485 75.3587 188.152 76.6665 195.971M70.7385 270.326C73.8002 258.079 79.9236 231.312 79.9236 222.214C79.9236 217.023 78.4044 206.363 76.6665 195.971M76.6665 195.971L97.4189 213.904L132.41 179.351M76.6665 195.971L42.3086 217.403L48.8693 245.395" stroke="black" stroke-width="5.2486" stroke-linecap="round"/>
<path d="M270.449 146.095C270.449 170.287 252.983 189.486 231.918 189.486C210.853 189.486 193.386 170.287 193.386 146.095C193.386 121.903 210.853 102.704 231.918 102.704C252.983 102.704 270.449 121.903 270.449 146.095Z" fill="#BC8166" stroke="black" stroke-width="4.16557"/>
<path d="M231.918 189.139C229.026 197.238 223.517 219.756 224.628 232.53C225.739 245.304 227.405 266.549 228.099 275.574" stroke="black" stroke-width="4.85983"/>
<path d="M245.076 269.577C242.44 268.542 242.245 257.788 246.2 251.441C250.227 248.635 255.635 249.954 258.869 251.589C262.103 253.225 271.194 261.549 269.156 265.064C267.525 267.876 264.421 259.986 257.586 258.765C262.321 263.843 269.882 275.208 267.08 276.682C264.278 278.156 259.233 269.286 254.12 262.378C255.816 268.675 257.199 278.302 254.045 278.585C250.892 278.868 251.874 269.029 248.653 261.401C248.518 264.785 247.712 270.613 245.076 269.577Z" fill="black" stroke="black" stroke-width="0.694261"/>
<path d="M180.499 210.5C183.665 212.696 185 216.066 187.5 220.5L183 222.09L180.499 218.5C180.499 221 181.5 221.5 177 221.5C175.226 221.5 175.639 218.587 174.786 216.066C173.921 218.799 176.5 222.09 172 222.09C167.843 222.09 168.967 217.995 168.513 214.347C166.854 217.582 169.948 222.09 165.5 222.09C162.043 222.09 162.295 217.404 162.043 212.316C155.703 211.078 143.701 209.482 143.753 206.826C143.814 203.641 153.155 205.991 158.639 206.46C161.037 206.665 176.541 207.755 180.499 210.5Z" fill="black" stroke="black" stroke-width="0.694261"/>
<path d="M226.448 209.529L209.39 252.83L184.896 220.901" stroke="black" stroke-width="5.2486" stroke-linecap="round"/>
<circle cx="210.826" cy="135.737" r="6.24835" fill="black"/>
<circle cx="240.569" cy="135.737" r="6.24835" fill="black"/>
<path d="M205.453 165.354C207.652 168.259 214.062 174.13 222.115 174.37C230.169 174.611 237.968 169.662 240.86 167.157" stroke="black" stroke-width="4.85983" stroke-linecap="round"/>
<path d="M227.321 211.717L254.439 227.9L249.19 253.268" stroke="black" stroke-width="5.2486" stroke-linecap="round"/>
<path d="M119.48 59.9883L119.09 56.6875C119.858 56.8958 120.529 57 121.102 57C121.883 57 122.508 56.8698 122.977 56.6094C123.445 56.349 123.829 55.9844 124.129 55.5156C124.35 55.1641 124.708 54.2917 125.203 52.8984C125.268 52.7031 125.372 52.4167 125.516 52.0391L117.645 31.2578H121.434L125.75 43.2695C126.31 44.793 126.811 46.3945 127.254 48.0742C127.658 46.4596 128.139 44.8841 128.699 43.3477L133.133 31.2578H136.648L128.758 52.3516C127.911 54.6302 127.254 56.1992 126.785 57.0586C126.16 58.2174 125.444 59.0638 124.637 59.5977C123.829 60.1445 122.866 60.418 121.746 60.418C121.069 60.418 120.314 60.2747 119.48 59.9883ZM138.328 41.6289C138.328 37.7878 139.396 34.9427 141.531 33.0938C143.315 31.5573 145.49 30.7891 148.055 30.7891C150.906 30.7891 153.237 31.7266 155.047 33.6016C156.857 35.4635 157.762 38.0417 157.762 41.3359C157.762 44.0052 157.358 46.1081 156.551 47.6445C155.757 49.168 154.591 50.3529 153.055 51.1992C151.531 52.0456 149.865 52.4688 148.055 52.4688C145.151 52.4688 142.801 51.5378 141.004 49.6758C139.22 47.8138 138.328 45.1315 138.328 41.6289ZM141.941 41.6289C141.941 44.2852 142.521 46.2773 143.68 47.6055C144.839 48.9206 146.297 49.5781 148.055 49.5781C149.799 49.5781 151.251 48.9141 152.41 47.5859C153.569 46.2578 154.148 44.2331 154.148 41.5117C154.148 38.9466 153.562 37.0065 152.391 35.6914C151.232 34.3633 149.786 33.6992 148.055 33.6992C146.297 33.6992 144.839 34.3568 143.68 35.6719C142.521 36.987 141.941 38.9727 141.941 41.6289ZM175.496 52V48.9531C173.882 51.2969 171.688 52.4688 168.914 52.4688C167.69 52.4688 166.544 52.2344 165.477 51.7656C164.422 51.2969 163.634 50.7109 163.113 50.0078C162.605 49.2917 162.247 48.4193 162.039 47.3906C161.896 46.7005 161.824 45.6068 161.824 44.1094V31.2578H165.34V42.7617C165.34 44.5977 165.411 45.8346 165.555 46.4727C165.776 47.3971 166.245 48.1263 166.961 48.6602C167.677 49.181 168.562 49.4414 169.617 49.4414C170.672 49.4414 171.661 49.1745 172.586 48.6406C173.51 48.0938 174.161 47.3581 174.539 46.4336C174.93 45.4961 175.125 44.1419 175.125 42.3711V31.2578H178.641V52H175.496Z" fill="black"/>
</svg>
