<svg width="45" height="62" viewBox="0 0 45 62" fill="none" xmlns="http://www.w3.org/2000/svg">
<path d="M22.4998 38.9167C19.8262 38.9167 17.5537 37.981 15.6821 36.1095C13.8106 34.2379 12.8748 31.9654 12.8748 29.2917V10.0417C12.8748 7.36814 13.8106 5.09557 15.6821 3.22404C17.5537 1.35251 19.8262 0.416748 22.4998 0.416748C25.1734 0.416748 27.446 1.35251 29.3175 3.22404C31.1891 5.09557 32.1248 7.36814 32.1248 10.0417V29.2917C32.1248 31.9654 31.1891 34.2379 29.3175 36.1095C27.446 37.981 25.1734 38.9167 22.4998 38.9167ZM19.2915 61.3751V51.5095C13.7304 50.7608 9.13178 48.2744 5.49567 44.0501C1.85956 39.8258 0.0415039 34.9063 0.0415039 29.2917H6.45817C6.45817 33.7299 8.02223 37.5131 11.1504 40.6412C14.2785 43.7694 18.0616 45.3334 22.4998 45.3334C26.938 45.3334 30.7212 43.7694 33.8493 40.6412C36.9774 37.5131 38.5415 33.7299 38.5415 29.2917H44.9582C44.9582 34.9063 43.1401 39.8258 39.504 44.0501C35.8679 48.2744 31.2693 50.7608 25.7082 51.5095V61.3751H19.2915Z" fill="black"/>
</svg>
