<svg width="28" height="29" viewBox="0 0 28 29" fill="none" xmlns="http://www.w3.org/2000/svg">
<path d="M25.8222 28.8335L16.0222 19.0335C15.2444 19.6557 14.35 20.1483 13.3389 20.5113C12.3278 20.8742 11.2519 21.0557 10.1111 21.0557C7.28519 21.0557 4.89352 20.077 2.93611 18.1196C0.978704 16.1622 0 13.7705 0 10.9446C0 8.11868 0.978704 5.72701 2.93611 3.76961C4.89352 1.8122 7.28519 0.833496 10.1111 0.833496C12.937 0.833496 15.3287 1.8122 17.2861 3.76961C19.2435 5.72701 20.2222 8.11868 20.2222 10.9446C20.2222 12.0853 20.0407 13.1613 19.6778 14.1724C19.3148 15.1835 18.8222 16.0779 18.2 16.8557L28 26.6557L25.8222 28.8335ZM10.1111 17.9446C12.0556 17.9446 13.7083 17.2641 15.0694 15.9029C16.4306 14.5418 17.1111 12.8891 17.1111 10.9446C17.1111 9.00016 16.4306 7.34738 15.0694 5.98627C13.7083 4.62516 12.0556 3.94461 10.1111 3.94461C8.16667 3.94461 6.51389 4.62516 5.15278 5.98627C3.79167 7.34738 3.11111 9.00016 3.11111 10.9446C3.11111 12.8891 3.79167 14.5418 5.15278 15.9029C6.51389 17.2641 8.16667 17.9446 10.1111 17.9446Z" fill="white"/>
</svg>
